<svg width="975" height="398" viewBox="0 0 975 398" fill="none" xmlns="http://www.w3.org/2000/svg">
<path fillRule="evenodd" clipRule="evenodd" d="M487.5 0L6.10352e-05 398H975L487.5 0ZM898.382 393.647H76.6184L487.5 346.474L898.382 393.647ZM60.0891 391.101L487.5 342.031L914.911 391.101L487.5 309.318L60.0891 391.101ZM487.5 272.23L63.0209 385.941L487.5 304.719L911.979 385.941L487.5 272.23ZM66.7296 380.124L487.5 267.406L908.271 380.124L487.5 235.201L66.7296 380.124ZM487.5 198.223L71.0938 373.514L487.5 230.094L903.906 373.514L487.5 198.223ZM76.0009 366.007L487.5 192.781L898.999 366.007L487.5 161.286L76.0009 366.007ZM487.5 124.383L81.353 357.527L487.5 155.469L893.647 357.527L487.5 124.383ZM87.0663 348.021L487.5 118.156L887.933 348.02L487.5 87.5077L87.0663 348.021ZM487.5 44.515L80.6604 345.524L487.5 80.8438L894.34 345.524L487.5 44.515ZM100.392 323.723L487.5 37.3125L874.608 323.723L487.5 7.68384L100.392 323.723Z" fill="url(#paint0_linear_2121_405)" fill-opacity="0.6"/>
<defs>
<linearGradient id="paint0_linear_2121_405" x1="947.301" y1="398" x2="420.104" y2="-44.9694" gradientUnits="userSpaceOnUse">
<stop stop-color="white"/>
<stop offset="1" stop-color="white" stop-opacity="0"/>
</linearGradient>
</defs>
</svg>
