<svg width="1077" height="88" viewBox="0 0 1077 88" fill="none" xmlns="http://www.w3.org/2000/svg">
<path d="M31.28 1.99994H48.14L78.68 85.9999H63.1401L57.7401 71.1199H21.74L16.34 85.9999H0.800049L31.28 1.99994ZM27.08 56.4799H52.3401L39.68 21.8599L27.08 56.4799Z" fill="url(#paint0_linear_2189_86)"/>
<path d="M86.3469 85.9999V1.99994H100.987V71.3599H135.967V85.9999H86.3469Z" fill="url(#paint1_linear_2189_86)"/>
<path d="M154.532 85.9999L133.052 1.99994H148.172L162.812 59.4199L177.452 1.99994H190.832L205.472 59.4199L220.052 1.99994H235.172L213.812 85.9999H197.192L184.112 35.1199L171.212 85.9999H154.532Z" fill="url(#paint2_linear_2189_86)"/>
<path d="M261.971 1.99994H278.831L309.371 85.9999H293.831L288.431 71.1199H252.431L247.031 85.9999H231.491L261.971 1.99994ZM257.771 56.4799H283.031L270.371 21.8599L257.771 56.4799Z" fill="url(#paint3_linear_2189_86)"/>
<path d="M354.221 1.99994H371.501L342.641 48.1399V85.9999H328.001V48.1399L299.141 1.99994H316.421L335.321 32.1799L354.221 1.99994Z" fill="url(#paint4_linear_2189_86)"/>
<path d="M405.581 87.56C400.941 87.56 396.481 86.8399 392.201 85.3999C387.961 83.9199 384.241 81.8199 381.041 79.0999C377.841 76.3399 375.541 73.04 374.141 69.2L387.881 64.1599C388.441 65.7599 389.581 67.2199 391.301 68.5399C393.021 69.8599 395.121 70.9199 397.601 71.7199C400.081 72.5199 402.741 72.9199 405.581 72.9199C408.501 72.9199 411.221 72.4799 413.741 71.5999C416.301 70.6799 418.361 69.4199 419.921 67.8199C421.481 66.1799 422.261 64.2799 422.261 62.1199C422.261 59.9199 421.441 58.1199 419.801 56.7199C418.161 55.2799 416.061 54.1399 413.501 53.2999C410.941 52.4599 408.301 51.8199 405.581 51.3799C399.621 50.4599 394.281 49.0399 389.561 47.1199C384.841 45.1999 381.101 42.5399 378.341 39.1399C375.621 35.7399 374.261 31.3399 374.261 25.9399C374.261 20.8599 375.721 16.4199 378.641 12.6199C381.561 8.81994 385.401 5.85994 390.161 3.73995C394.921 1.61995 400.061 0.559947 405.581 0.559947C410.181 0.559947 414.621 1.27995 418.901 2.71995C423.181 4.15994 426.921 6.25994 430.121 9.01994C433.361 11.7799 435.681 15.0999 437.081 18.9799L423.281 23.9599C422.721 22.3599 421.581 20.8999 419.861 19.5799C418.141 18.2599 416.041 17.2199 413.561 16.4599C411.081 15.6599 408.421 15.2599 405.581 15.2599C402.741 15.2199 400.041 15.6799 397.481 16.6399C394.961 17.5599 392.901 18.8199 391.301 20.4199C389.701 22.0199 388.901 23.8599 388.901 25.9399C388.901 28.6199 389.641 30.6399 391.121 31.9999C392.641 33.3599 394.661 34.3599 397.181 34.9999C399.701 35.5999 402.501 36.1599 405.581 36.6799C411.181 37.5599 416.361 39.0399 421.121 41.1199C425.881 43.1999 429.701 45.9799 432.581 49.4599C435.461 52.8999 436.901 57.1199 436.901 62.1199C436.901 67.1999 435.461 71.6599 432.581 75.4999C429.701 79.2999 425.881 82.26 421.121 84.38C416.361 86.5 411.181 87.56 405.581 87.56Z" fill="url(#paint5_linear_2189_86)"/>
<path d="M474.252 85.9999V1.99994H506.472C511.032 1.99994 515.152 3.13994 518.832 5.41995C522.512 7.69995 525.432 10.7599 527.592 14.5999C529.752 18.3999 530.832 22.6199 530.832 27.2599C530.832 31.0599 530.132 34.5599 528.732 37.7599C527.372 40.9199 525.452 43.6599 522.972 45.9799C520.532 48.2999 517.712 50.0599 514.512 51.2599L534.612 85.9999H517.752L498.312 52.5799H488.892V85.9999H474.252ZM488.892 37.9399H504.792C506.872 37.9399 508.772 37.4199 510.492 36.3799C512.212 35.3399 513.592 33.9399 514.632 32.1799C515.672 30.4199 516.192 28.4599 516.192 26.2999C516.192 24.0999 515.672 22.1199 514.632 20.3599C513.592 18.5999 512.212 17.1999 510.492 16.1599C508.772 15.1199 506.872 14.5999 504.792 14.5999H488.892V37.9399Z" fill="url(#paint6_linear_2189_86)"/>
<path d="M543.688 85.9999V1.99994H596.368V16.6399H558.328V33.6799H588.508V48.3199H558.328V71.3599H596.368V85.9999H543.688Z" fill="url(#paint7_linear_2189_86)"/>
<path d="M637.387 87.56C632.747 87.56 628.287 86.8399 624.007 85.3999C619.767 83.9199 616.047 81.8199 612.847 79.0999C609.647 76.3399 607.347 73.04 605.947 69.2L619.687 64.1599C620.247 65.7599 621.387 67.2199 623.107 68.5399C624.827 69.8599 626.927 70.9199 629.407 71.7199C631.887 72.5199 634.547 72.9199 637.387 72.9199C640.307 72.9199 643.027 72.4799 645.547 71.5999C648.107 70.6799 650.167 69.4199 651.727 67.8199C653.287 66.1799 654.067 64.2799 654.067 62.1199C654.067 59.9199 653.247 58.1199 651.607 56.7199C649.967 55.2799 647.867 54.1399 645.307 53.2999C642.747 52.4599 640.107 51.8199 637.387 51.3799C631.427 50.4599 626.087 49.0399 621.367 47.1199C616.647 45.1999 612.907 42.5399 610.147 39.1399C607.427 35.7399 606.067 31.3399 606.067 25.9399C606.067 20.8599 607.527 16.4199 610.447 12.6199C613.367 8.81994 617.207 5.85994 621.967 3.73995C626.727 1.61995 631.867 0.559947 637.387 0.559947C641.987 0.559947 646.427 1.27995 650.707 2.71995C654.987 4.15994 658.727 6.25994 661.927 9.01994C665.167 11.7799 667.487 15.0999 668.887 18.9799L655.087 23.9599C654.527 22.3599 653.387 20.8999 651.667 19.5799C649.947 18.2599 647.847 17.2199 645.367 16.4599C642.887 15.6599 640.227 15.2599 637.387 15.2599C634.547 15.2199 631.847 15.6799 629.287 16.6399C626.767 17.5599 624.707 18.8199 623.107 20.4199C621.507 22.0199 620.707 23.8599 620.707 25.9399C620.707 28.6199 621.447 30.6399 622.927 31.9999C624.447 33.3599 626.467 34.3599 628.987 34.9999C631.507 35.5999 634.307 36.1599 637.387 36.6799C642.987 37.5599 648.167 39.0399 652.927 41.1199C657.687 43.1999 661.507 45.9799 664.387 49.4599C667.267 52.8999 668.707 57.1199 668.707 62.1199C668.707 67.1999 667.267 71.6599 664.387 75.4999C661.507 79.2999 657.687 82.26 652.927 84.38C648.167 86.5 642.987 87.56 637.387 87.56Z" fill="url(#paint8_linear_2189_86)"/>
<path d="M681.781 85.9999V1.99994H696.421V85.9999H681.781Z" fill="url(#paint9_linear_2189_86)"/>
<path d="M710.277 85.9999V1.99994H724.917V71.3599H759.897V85.9999H710.277Z" fill="url(#paint10_linear_2189_86)"/>
<path d="M772.489 85.9999V1.99994H787.129V85.9999H772.489Z" fill="url(#paint11_linear_2189_86)"/>
<path d="M800.984 85.9999V1.99994H853.664V16.6399H815.624V33.6799H845.804V48.3199H815.624V71.3599H853.664V85.9999H800.984Z" fill="url(#paint12_linear_2189_86)"/>
<path d="M864.795 85.9999V1.99994H880.635L916.095 59.5399V1.99994H930.735V85.9999H914.955L879.435 28.4599V85.9999H864.795Z" fill="url(#paint13_linear_2189_86)"/>
<path d="M981.666 87.56C975.986 87.56 970.646 86.44 965.646 84.2C960.646 81.92 956.246 78.7799 952.446 74.7799C948.686 70.7799 945.726 66.1599 943.566 60.9199C941.446 55.6399 940.386 49.9999 940.386 43.9999C940.386 37.9599 941.446 32.3199 943.566 27.0799C945.726 21.7999 948.686 17.1799 952.446 13.2199C956.246 9.21994 960.646 6.09994 965.646 3.85994C970.646 1.57994 975.986 0.439941 981.666 0.439941C988.466 0.439941 994.726 2.01994 1000.45 5.17994C1006.17 8.29994 1010.91 12.4799 1014.67 17.7199L1001.59 24.7399C999.226 21.8199 996.286 19.4799 992.766 17.7199C989.286 15.9599 985.586 15.0799 981.666 15.0799C977.986 15.0799 974.526 15.8399 971.286 17.3599C968.046 18.8399 965.206 20.9199 962.766 23.5999C960.326 26.2399 958.426 29.3199 957.066 32.8399C955.706 36.3199 955.026 40.0399 955.026 43.9999C955.026 47.9999 955.706 51.7399 957.066 55.2199C958.466 58.6999 960.386 61.7799 962.826 64.4599C965.266 67.0999 968.086 69.1799 971.286 70.6999C974.526 72.1799 977.986 72.9199 981.666 72.9199C985.666 72.9199 989.386 72.0399 992.826 70.2799C996.306 68.4799 999.226 66.1199 1001.59 63.1999L1014.67 70.2799C1010.91 75.4799 1006.17 79.6599 1000.45 82.8199C994.726 85.9799 988.466 87.56 981.666 87.56Z" fill="url(#paint14_linear_2189_86)"/>
<path d="M1023.59 85.9999V1.99994H1076.27V16.6399H1038.23V33.6799H1068.41V48.3199H1038.23V71.3599H1076.27V85.9999H1023.59Z" fill="url(#paint15_linear_2189_86)"/>
<defs>
<linearGradient id="paint0_linear_2189_86" x1="539.5" y1="-28" x2="539.5" y2="116" gradientUnits="userSpaceOnUse">
<stop stop-color="white"/>
<stop offset="1" stop-color="#0C0C0C"/>
</linearGradient>
<linearGradient id="paint1_linear_2189_86" x1="539.5" y1="-28" x2="539.5" y2="116" gradientUnits="userSpaceOnUse">
<stop stop-color="white"/>
<stop offset="1" stop-color="#0C0C0C"/>
</linearGradient>
<linearGradient id="paint2_linear_2189_86" x1="539.5" y1="-28" x2="539.5" y2="116" gradientUnits="userSpaceOnUse">
<stop stop-color="white"/>
<stop offset="1" stop-color="#0C0C0C"/>
</linearGradient>
<linearGradient id="paint3_linear_2189_86" x1="539.5" y1="-28" x2="539.5" y2="116" gradientUnits="userSpaceOnUse">
<stop stop-color="white"/>
<stop offset="1" stop-color="#0C0C0C"/>
</linearGradient>
<linearGradient id="paint4_linear_2189_86" x1="539.5" y1="-28" x2="539.5" y2="116" gradientUnits="userSpaceOnUse">
<stop stop-color="white"/>
<stop offset="1" stop-color="#0C0C0C"/>
</linearGradient>
<linearGradient id="paint5_linear_2189_86" x1="539.5" y1="-28" x2="539.5" y2="116" gradientUnits="userSpaceOnUse">
<stop stop-color="white"/>
<stop offset="1" stop-color="#0C0C0C"/>
</linearGradient>
<linearGradient id="paint6_linear_2189_86" x1="539.5" y1="-28" x2="539.5" y2="116" gradientUnits="userSpaceOnUse">
<stop stop-color="white"/>
<stop offset="1" stop-color="#0C0C0C"/>
</linearGradient>
<linearGradient id="paint7_linear_2189_86" x1="539.5" y1="-28" x2="539.5" y2="116" gradientUnits="userSpaceOnUse">
<stop stop-color="white"/>
<stop offset="1" stop-color="#0C0C0C"/>
</linearGradient>
<linearGradient id="paint8_linear_2189_86" x1="539.5" y1="-28" x2="539.5" y2="116" gradientUnits="userSpaceOnUse">
<stop stop-color="white"/>
<stop offset="1" stop-color="#0C0C0C"/>
</linearGradient>
<linearGradient id="paint9_linear_2189_86" x1="539.5" y1="-28" x2="539.5" y2="116" gradientUnits="userSpaceOnUse">
<stop stop-color="white"/>
<stop offset="1" stop-color="#0C0C0C"/>
</linearGradient>
<linearGradient id="paint10_linear_2189_86" x1="539.5" y1="-28" x2="539.5" y2="116" gradientUnits="userSpaceOnUse">
<stop stop-color="white"/>
<stop offset="1" stop-color="#0C0C0C"/>
</linearGradient>
<linearGradient id="paint11_linear_2189_86" x1="539.5" y1="-28" x2="539.5" y2="116" gradientUnits="userSpaceOnUse">
<stop stop-color="white"/>
<stop offset="1" stop-color="#0C0C0C"/>
</linearGradient>
<linearGradient id="paint12_linear_2189_86" x1="539.5" y1="-28" x2="539.5" y2="116" gradientUnits="userSpaceOnUse">
<stop stop-color="white"/>
<stop offset="1" stop-color="#0C0C0C"/>
</linearGradient>
<linearGradient id="paint13_linear_2189_86" x1="539.5" y1="-28" x2="539.5" y2="116" gradientUnits="userSpaceOnUse">
<stop stop-color="white"/>
<stop offset="1" stop-color="#0C0C0C"/>
</linearGradient>
<linearGradient id="paint14_linear_2189_86" x1="539.5" y1="-28" x2="539.5" y2="116" gradientUnits="userSpaceOnUse">
<stop stop-color="white"/>
<stop offset="1" stop-color="#0C0C0C"/>
</linearGradient>
<linearGradient id="paint15_linear_2189_86" x1="539.5" y1="-28" x2="539.5" y2="116" gradientUnits="userSpaceOnUse">
<stop stop-color="white"/>
<stop offset="1" stop-color="#0C0C0C"/>
</linearGradient>
</defs>
</svg>
