<svg width="343" height="472" viewBox="0 0 343 472" fill="none" xmlns="http://www.w3.org/2000/svg">
<rect width="185" height="472" fill="url(#paint0_linear_2243_112)"/>
<rect x="35.0024" y="252.935" width="240.315" height="3.00394" transform="rotate(-45 35.0024 252.935)" fill="url(#paint1_linear_2243_112)"/>
<rect x="39.2507" y="257.181" width="240.315" height="3.00394" transform="rotate(-45 39.2507 257.181)" fill="url(#paint2_linear_2243_112)"/>
<rect x="43.5" y="261.428" width="240.315" height="3.00394" transform="rotate(-45 43.5 261.428)" fill="url(#paint3_linear_2243_112)"/>
<rect x="47.7468" y="265.676" width="240.315" height="3.00394" transform="rotate(-45 47.7468 265.676)" fill="url(#paint4_linear_2243_112)"/>
<rect x="51.9944" y="269.924" width="240.315" height="3.00394" transform="rotate(-45 51.9944 269.924)" fill="url(#paint5_linear_2243_112)"/>
<rect x="56.2427" y="274.175" width="240.315" height="3.00394" transform="rotate(-45 56.2427 274.175)" fill="url(#paint6_linear_2243_112)"/>
<rect x="60.4919" y="278.423" width="240.315" height="3.00394" transform="rotate(-45 60.4919 278.423)" fill="url(#paint7_linear_2243_112)"/>
<rect x="64.7395" y="282.669" width="240.315" height="3.00394" transform="rotate(-45 64.7395 282.669)" fill="url(#paint8_linear_2243_112)"/>
<rect x="68.9878" y="286.918" width="240.315" height="3.00394" transform="rotate(-45 68.9878 286.918)" fill="url(#paint9_linear_2243_112)"/>
<rect x="73.2354" y="291.166" width="240.315" height="3.00394" transform="rotate(-45 73.2354 291.166)" fill="url(#paint10_linear_2243_112)"/>
<rect x="77.4846" y="295.417" width="240.315" height="3.00394" transform="rotate(-45 77.4846 295.417)" fill="url(#paint11_linear_2243_112)"/>
<rect x="81.7329" y="299.663" width="240.315" height="3.00394" transform="rotate(-45 81.7329 299.663)" fill="url(#paint12_linear_2243_112)"/>
<rect x="85.9812" y="303.911" width="240.315" height="3.00394" transform="rotate(-45 85.9812 303.911)" fill="url(#paint13_linear_2243_112)"/>
<rect x="90.2297" y="308.157" width="240.315" height="3.00394" transform="rotate(-45 90.2297 308.157)" fill="url(#paint14_linear_2243_112)"/>
<rect x="94.478" y="312.408" width="240.315" height="3.00394" transform="rotate(-45 94.478 312.408)" fill="url(#paint15_linear_2243_112)"/>
<rect x="98.7263" y="316.654" width="240.315" height="3.00394" transform="rotate(-45 98.7263 316.654)" fill="url(#paint16_linear_2243_112)"/>
<rect x="102.974" y="320.905" width="240.315" height="3.00394" transform="rotate(-45 102.974 320.905)" fill="url(#paint17_linear_2243_112)"/>
<rect x="107.222" y="325.155" width="240.315" height="3.00394" transform="rotate(-45 107.222 325.155)" fill="url(#paint18_linear_2243_112)"/>
<rect x="111.471" y="329.401" width="240.315" height="3.00394" transform="rotate(-45 111.471 329.401)" fill="url(#paint19_linear_2243_112)"/>
<rect x="115.719" y="333.65" width="240.315" height="3.00394" transform="rotate(-45 115.719 333.65)" fill="url(#paint20_linear_2243_112)"/>
<rect x="119.967" y="337.898" width="240.315" height="3.00394" transform="rotate(-45 119.967 337.898)" fill="url(#paint21_linear_2243_112)"/>
<rect x="124.214" y="342.144" width="240.315" height="3.00394" transform="rotate(-45 124.214 342.144)" fill="url(#paint22_linear_2243_112)"/>
<rect x="128.463" y="346.395" width="240.315" height="3.00394" transform="rotate(-45 128.463 346.395)" fill="url(#paint23_linear_2243_112)"/>
<rect x="132.712" y="350.643" width="240.315" height="3.00394" transform="rotate(-45 132.712 350.643)" fill="url(#paint24_linear_2243_112)"/>
<rect x="136.96" y="354.889" width="240.315" height="3.00394" transform="rotate(-45 136.96 354.889)" fill="url(#paint25_linear_2243_112)"/>
<rect x="141.208" y="359.138" width="240.315" height="3.00394" transform="rotate(-45 141.208 359.138)" fill="url(#paint26_linear_2243_112)"/>
<rect x="145.455" y="363.387" width="240.315" height="3.00394" transform="rotate(-45 145.455 363.387)" fill="url(#paint27_linear_2243_112)"/>
<rect x="149.704" y="367.637" width="240.315" height="3.00394" transform="rotate(-45 149.704 367.637)" fill="url(#paint28_linear_2243_112)"/>
<rect x="153.952" y="371.883" width="240.315" height="3.00394" transform="rotate(-45 153.952 371.883)" fill="url(#paint29_linear_2243_112)"/>
<rect x="158.2" y="376.132" width="240.315" height="3.00394" transform="rotate(-45 158.2 376.132)" fill="url(#paint30_linear_2243_112)"/>
<rect x="162.448" y="380.382" width="240.315" height="3.00394" transform="rotate(-45 162.448 380.382)" fill="url(#paint31_linear_2243_112)"/>
<rect x="166.696" y="384.626" width="240.315" height="3.00394" transform="rotate(-45 166.696 384.626)" fill="url(#paint32_linear_2243_112)"/>
<rect x="170.945" y="388.877" width="240.315" height="3.00394" transform="rotate(-45 170.945 388.877)" fill="url(#paint33_linear_2243_112)"/>
<rect x="204.931" y="390.999" width="240.315" height="3.00394" transform="rotate(-135 204.931 390.999)" fill="url(#paint34_linear_2243_112)"/>
<rect x="209.179" y="386.749" width="240.315" height="3.00394" transform="rotate(-135 209.179 386.749)" fill="url(#paint35_linear_2243_112)"/>
<rect x="213.428" y="382.502" width="240.315" height="3.00394" transform="rotate(-135 213.428 382.502)" fill="url(#paint36_linear_2243_112)"/>
<rect x="217.676" y="378.251" width="240.315" height="3.00394" transform="rotate(-135 217.676 378.251)" fill="url(#paint37_linear_2243_112)"/>
<rect x="221.924" y="374.003" width="240.315" height="3.00394" transform="rotate(-135 221.924 374.003)" fill="url(#paint38_linear_2243_112)"/>
<rect x="226.171" y="369.757" width="240.315" height="3.00394" transform="rotate(-135 226.171 369.757)" fill="url(#paint39_linear_2243_112)"/>
<rect x="230.421" y="365.509" width="240.315" height="3.00394" transform="rotate(-135 230.421 365.509)" fill="url(#paint40_linear_2243_112)"/>
<rect x="234.668" y="361.26" width="240.315" height="3.00394" transform="rotate(-135 234.668 361.26)" fill="url(#paint41_linear_2243_112)"/>
<rect x="238.916" y="357.01" width="240.315" height="3.00394" transform="rotate(-135 238.916 357.01)" fill="url(#paint42_linear_2243_112)"/>
<rect x="243.166" y="352.764" width="240.315" height="3.00394" transform="rotate(-135 243.166 352.764)" fill="url(#paint43_linear_2243_112)"/>
<rect x="247.411" y="348.515" width="240.315" height="3.00394" transform="rotate(-135 247.411 348.515)" fill="url(#paint44_linear_2243_112)"/>
<rect x="251.661" y="344.266" width="240.315" height="3.00394" transform="rotate(-135 251.661 344.266)" fill="url(#paint45_linear_2243_112)"/>
<rect x="255.91" y="340.02" width="240.315" height="3.00394" transform="rotate(-135 255.91 340.02)" fill="url(#paint46_linear_2243_112)"/>
<rect x="260.159" y="335.768" width="240.315" height="3.00394" transform="rotate(-135 260.159 335.768)" fill="url(#paint47_linear_2243_112)"/>
<rect x="264.406" y="331.521" width="240.315" height="3.00394" transform="rotate(-135 264.406 331.521)" fill="url(#paint48_linear_2243_112)"/>
<rect x="268.655" y="327.275" width="240.315" height="3.00394" transform="rotate(-135 268.655 327.275)" fill="url(#paint49_linear_2243_112)"/>
<rect x="272.903" y="323.027" width="240.315" height="3.00394" transform="rotate(-135 272.903 323.027)" fill="url(#paint50_linear_2243_112)"/>
<rect x="277.15" y="318.776" width="240.315" height="3.00394" transform="rotate(-135 277.15 318.776)" fill="url(#paint51_linear_2243_112)"/>
<rect x="281.399" y="314.526" width="240.315" height="3.00394" transform="rotate(-135 281.399 314.526)" fill="url(#paint52_linear_2243_112)"/>
<rect x="285.646" y="310.284" width="240.315" height="3.00394" transform="rotate(-135 285.646 310.284)" fill="url(#paint53_linear_2243_112)"/>
<rect x="289.894" y="306.033" width="240.315" height="3.00394" transform="rotate(-135 289.894 306.033)" fill="url(#paint54_linear_2243_112)"/>
<rect x="294.143" y="301.783" width="240.315" height="3.00394" transform="rotate(-135 294.143 301.783)" fill="url(#paint55_linear_2243_112)"/>
<rect x="298.393" y="297.534" width="240.315" height="3.00394" transform="rotate(-135 298.393 297.534)" fill="url(#paint56_linear_2243_112)"/>
<rect x="302.641" y="293.286" width="240.315" height="3.00394" transform="rotate(-135 302.641 293.286)" fill="url(#paint57_linear_2243_112)"/>
<rect x="306.888" y="289.04" width="240.315" height="3.00394" transform="rotate(-135 306.888 289.04)" fill="url(#paint58_linear_2243_112)"/>
<rect x="311.136" y="284.794" width="240.315" height="3.00394" transform="rotate(-135 311.136 284.794)" fill="url(#paint59_linear_2243_112)"/>
<rect x="315.386" y="280.543" width="240.315" height="3.00394" transform="rotate(-135 315.386 280.543)" fill="url(#paint60_linear_2243_112)"/>
<rect x="319.635" y="276.295" width="240.315" height="3.00394" transform="rotate(-135 319.635 276.295)" fill="url(#paint61_linear_2243_112)"/>
<rect x="323.883" y="272.044" width="240.315" height="3.00394" transform="rotate(-135 323.883 272.044)" fill="url(#paint62_linear_2243_112)"/>
<rect x="328.13" y="267.8" width="240.315" height="3.00394" transform="rotate(-135 328.13 267.8)" fill="url(#paint63_linear_2243_112)"/>
<rect x="332.377" y="263.55" width="240.315" height="3.00394" transform="rotate(-135 332.377 263.55)" fill="url(#paint64_linear_2243_112)"/>
<rect x="336.625" y="259.301" width="240.315" height="3.00394" transform="rotate(-135 336.625 259.301)" fill="url(#paint65_linear_2243_112)"/>
<rect x="340.874" y="255.055" width="240.315" height="3.00394" transform="rotate(-135 340.874 255.055)" fill="url(#paint66_linear_2243_112)"/>
<defs>
<linearGradient id="paint0_linear_2243_112" x1="185" y1="236" x2="0" y2="236" gradientUnits="userSpaceOnUse">
<stop stop-color="#0C0C0C"/>
<stop offset="1" stop-color="#969696"/>
</linearGradient>
<linearGradient id="paint1_linear_2243_112" x1="42.5123" y1="252.958" x2="42.6456" y2="260.149" gradientUnits="userSpaceOnUse">
<stop stop-color="white"/>
<stop offset="1" stop-color="white" stop-opacity="0"/>
</linearGradient>
<linearGradient id="paint2_linear_2243_112" x1="46.7606" y1="257.204" x2="46.8939" y2="264.395" gradientUnits="userSpaceOnUse">
<stop stop-color="white"/>
<stop offset="1" stop-color="white" stop-opacity="0"/>
</linearGradient>
<linearGradient id="paint3_linear_2243_112" x1="51.0099" y1="261.451" x2="51.1431" y2="268.642" gradientUnits="userSpaceOnUse">
<stop stop-color="white"/>
<stop offset="1" stop-color="white" stop-opacity="0"/>
</linearGradient>
<linearGradient id="paint4_linear_2243_112" x1="55.2567" y1="265.699" x2="55.39" y2="272.89" gradientUnits="userSpaceOnUse">
<stop stop-color="white"/>
<stop offset="1" stop-color="white" stop-opacity="0"/>
</linearGradient>
<linearGradient id="paint5_linear_2243_112" x1="59.5042" y1="269.947" x2="59.6375" y2="277.139" gradientUnits="userSpaceOnUse">
<stop stop-color="white"/>
<stop offset="1" stop-color="white" stop-opacity="0"/>
</linearGradient>
<linearGradient id="paint6_linear_2243_112" x1="63.7525" y1="274.198" x2="63.8858" y2="281.389" gradientUnits="userSpaceOnUse">
<stop stop-color="white"/>
<stop offset="1" stop-color="white" stop-opacity="0"/>
</linearGradient>
<linearGradient id="paint7_linear_2243_112" x1="68.0018" y1="278.446" x2="68.1351" y2="285.638" gradientUnits="userSpaceOnUse">
<stop stop-color="white"/>
<stop offset="1" stop-color="white" stop-opacity="0"/>
</linearGradient>
<linearGradient id="paint8_linear_2243_112" x1="72.2494" y1="282.693" x2="72.3826" y2="289.884" gradientUnits="userSpaceOnUse">
<stop stop-color="white"/>
<stop offset="1" stop-color="white" stop-opacity="0"/>
</linearGradient>
<linearGradient id="paint9_linear_2243_112" x1="76.4976" y1="286.941" x2="76.6309" y2="294.132" gradientUnits="userSpaceOnUse">
<stop stop-color="white"/>
<stop offset="1" stop-color="white" stop-opacity="0"/>
</linearGradient>
<linearGradient id="paint10_linear_2243_112" x1="80.7452" y1="291.189" x2="80.8785" y2="298.38" gradientUnits="userSpaceOnUse">
<stop stop-color="white"/>
<stop offset="1" stop-color="white" stop-opacity="0"/>
</linearGradient>
<linearGradient id="paint11_linear_2243_112" x1="84.9945" y1="295.44" x2="85.1278" y2="302.631" gradientUnits="userSpaceOnUse">
<stop stop-color="white"/>
<stop offset="1" stop-color="white" stop-opacity="0"/>
</linearGradient>
<linearGradient id="paint12_linear_2243_112" x1="89.2428" y1="299.686" x2="89.3761" y2="306.878" gradientUnits="userSpaceOnUse">
<stop stop-color="white"/>
<stop offset="1" stop-color="white" stop-opacity="0"/>
</linearGradient>
<linearGradient id="paint13_linear_2243_112" x1="93.4911" y1="303.934" x2="93.6243" y2="311.126" gradientUnits="userSpaceOnUse">
<stop stop-color="white"/>
<stop offset="1" stop-color="white" stop-opacity="0"/>
</linearGradient>
<linearGradient id="paint14_linear_2243_112" x1="97.7396" y1="308.18" x2="97.8729" y2="315.372" gradientUnits="userSpaceOnUse">
<stop stop-color="white"/>
<stop offset="1" stop-color="white" stop-opacity="0"/>
</linearGradient>
<linearGradient id="paint15_linear_2243_112" x1="101.988" y1="312.431" x2="102.121" y2="319.623" gradientUnits="userSpaceOnUse">
<stop stop-color="white"/>
<stop offset="1" stop-color="white" stop-opacity="0"/>
</linearGradient>
<linearGradient id="paint16_linear_2243_112" x1="106.236" y1="316.677" x2="106.369" y2="323.868" gradientUnits="userSpaceOnUse">
<stop stop-color="white"/>
<stop offset="1" stop-color="white" stop-opacity="0"/>
</linearGradient>
<linearGradient id="paint17_linear_2243_112" x1="110.484" y1="320.928" x2="110.617" y2="328.119" gradientUnits="userSpaceOnUse">
<stop stop-color="white"/>
<stop offset="1" stop-color="white" stop-opacity="0"/>
</linearGradient>
<linearGradient id="paint18_linear_2243_112" x1="114.732" y1="325.178" x2="114.866" y2="332.37" gradientUnits="userSpaceOnUse">
<stop stop-color="white"/>
<stop offset="1" stop-color="white" stop-opacity="0"/>
</linearGradient>
<linearGradient id="paint19_linear_2243_112" x1="118.981" y1="329.424" x2="119.114" y2="336.616" gradientUnits="userSpaceOnUse">
<stop stop-color="white"/>
<stop offset="1" stop-color="white" stop-opacity="0"/>
</linearGradient>
<linearGradient id="paint20_linear_2243_112" x1="123.229" y1="333.673" x2="123.362" y2="340.864" gradientUnits="userSpaceOnUse">
<stop stop-color="white"/>
<stop offset="1" stop-color="white" stop-opacity="0"/>
</linearGradient>
<linearGradient id="paint21_linear_2243_112" x1="127.476" y1="337.921" x2="127.61" y2="345.112" gradientUnits="userSpaceOnUse">
<stop stop-color="white"/>
<stop offset="1" stop-color="white" stop-opacity="0"/>
</linearGradient>
<linearGradient id="paint22_linear_2243_112" x1="131.724" y1="342.167" x2="131.857" y2="349.358" gradientUnits="userSpaceOnUse">
<stop stop-color="white"/>
<stop offset="1" stop-color="white" stop-opacity="0"/>
</linearGradient>
<linearGradient id="paint23_linear_2243_112" x1="135.973" y1="346.418" x2="136.106" y2="353.609" gradientUnits="userSpaceOnUse">
<stop stop-color="white"/>
<stop offset="1" stop-color="white" stop-opacity="0"/>
</linearGradient>
<linearGradient id="paint24_linear_2243_112" x1="140.222" y1="350.666" x2="140.355" y2="357.858" gradientUnits="userSpaceOnUse">
<stop stop-color="white"/>
<stop offset="1" stop-color="white" stop-opacity="0"/>
</linearGradient>
<linearGradient id="paint25_linear_2243_112" x1="144.47" y1="354.912" x2="144.603" y2="362.104" gradientUnits="userSpaceOnUse">
<stop stop-color="white"/>
<stop offset="1" stop-color="white" stop-opacity="0"/>
</linearGradient>
<linearGradient id="paint26_linear_2243_112" x1="148.718" y1="359.161" x2="148.851" y2="366.352" gradientUnits="userSpaceOnUse">
<stop stop-color="white"/>
<stop offset="1" stop-color="white" stop-opacity="0"/>
</linearGradient>
<linearGradient id="paint27_linear_2243_112" x1="152.965" y1="363.41" x2="153.098" y2="370.601" gradientUnits="userSpaceOnUse">
<stop stop-color="white"/>
<stop offset="1" stop-color="white" stop-opacity="0"/>
</linearGradient>
<linearGradient id="paint28_linear_2243_112" x1="157.213" y1="367.66" x2="157.347" y2="374.851" gradientUnits="userSpaceOnUse">
<stop stop-color="white"/>
<stop offset="1" stop-color="white" stop-opacity="0"/>
</linearGradient>
<linearGradient id="paint29_linear_2243_112" x1="161.462" y1="371.906" x2="161.595" y2="379.097" gradientUnits="userSpaceOnUse">
<stop stop-color="white"/>
<stop offset="1" stop-color="white" stop-opacity="0"/>
</linearGradient>
<linearGradient id="paint30_linear_2243_112" x1="165.71" y1="376.155" x2="165.843" y2="383.346" gradientUnits="userSpaceOnUse">
<stop stop-color="white"/>
<stop offset="1" stop-color="white" stop-opacity="0"/>
</linearGradient>
<linearGradient id="paint31_linear_2243_112" x1="169.958" y1="380.405" x2="170.091" y2="387.596" gradientUnits="userSpaceOnUse">
<stop stop-color="white"/>
<stop offset="1" stop-color="white" stop-opacity="0"/>
</linearGradient>
<linearGradient id="paint32_linear_2243_112" x1="174.206" y1="384.65" x2="174.339" y2="391.841" gradientUnits="userSpaceOnUse">
<stop stop-color="white"/>
<stop offset="1" stop-color="white" stop-opacity="0"/>
</linearGradient>
<linearGradient id="paint33_linear_2243_112" x1="178.455" y1="388.9" x2="178.588" y2="396.091" gradientUnits="userSpaceOnUse">
<stop stop-color="white"/>
<stop offset="1" stop-color="white" stop-opacity="0"/>
</linearGradient>
<linearGradient id="paint34_linear_2243_112" x1="442.242" y1="390.999" x2="442.17" y2="396.473" gradientUnits="userSpaceOnUse">
<stop stop-color="white"/>
<stop offset="1" stop-color="white" stop-opacity="0"/>
</linearGradient>
<linearGradient id="paint35_linear_2243_112" x1="446.491" y1="386.749" x2="446.419" y2="392.222" gradientUnits="userSpaceOnUse">
<stop stop-color="white"/>
<stop offset="1" stop-color="white" stop-opacity="0"/>
</linearGradient>
<linearGradient id="paint36_linear_2243_112" x1="450.739" y1="382.502" x2="450.667" y2="387.976" gradientUnits="userSpaceOnUse">
<stop stop-color="white"/>
<stop offset="1" stop-color="white" stop-opacity="0"/>
</linearGradient>
<linearGradient id="paint37_linear_2243_112" x1="454.987" y1="378.251" x2="454.915" y2="383.725" gradientUnits="userSpaceOnUse">
<stop stop-color="white"/>
<stop offset="1" stop-color="white" stop-opacity="0"/>
</linearGradient>
<linearGradient id="paint38_linear_2243_112" x1="459.236" y1="374.003" x2="459.164" y2="379.477" gradientUnits="userSpaceOnUse">
<stop stop-color="white"/>
<stop offset="1" stop-color="white" stop-opacity="0"/>
</linearGradient>
<linearGradient id="paint39_linear_2243_112" x1="463.482" y1="369.757" x2="463.411" y2="375.231" gradientUnits="userSpaceOnUse">
<stop stop-color="white"/>
<stop offset="1" stop-color="white" stop-opacity="0"/>
</linearGradient>
<linearGradient id="paint40_linear_2243_112" x1="467.732" y1="365.509" x2="467.661" y2="370.982" gradientUnits="userSpaceOnUse">
<stop stop-color="white"/>
<stop offset="1" stop-color="white" stop-opacity="0"/>
</linearGradient>
<linearGradient id="paint41_linear_2243_112" x1="471.979" y1="361.26" x2="471.907" y2="366.734" gradientUnits="userSpaceOnUse">
<stop stop-color="white"/>
<stop offset="1" stop-color="white" stop-opacity="0"/>
</linearGradient>
<linearGradient id="paint42_linear_2243_112" x1="476.228" y1="357.01" x2="476.156" y2="362.483" gradientUnits="userSpaceOnUse">
<stop stop-color="white"/>
<stop offset="1" stop-color="white" stop-opacity="0"/>
</linearGradient>
<linearGradient id="paint43_linear_2243_112" x1="480.477" y1="352.764" x2="480.405" y2="358.237" gradientUnits="userSpaceOnUse">
<stop stop-color="white"/>
<stop offset="1" stop-color="white" stop-opacity="0"/>
</linearGradient>
<linearGradient id="paint44_linear_2243_112" x1="484.723" y1="348.515" x2="484.651" y2="353.989" gradientUnits="userSpaceOnUse">
<stop stop-color="white"/>
<stop offset="1" stop-color="white" stop-opacity="0"/>
</linearGradient>
<linearGradient id="paint45_linear_2243_112" x1="488.973" y1="344.266" x2="488.901" y2="349.74" gradientUnits="userSpaceOnUse">
<stop stop-color="white"/>
<stop offset="1" stop-color="white" stop-opacity="0"/>
</linearGradient>
<linearGradient id="paint46_linear_2243_112" x1="493.221" y1="340.02" x2="493.149" y2="345.494" gradientUnits="userSpaceOnUse">
<stop stop-color="white"/>
<stop offset="1" stop-color="white" stop-opacity="0"/>
</linearGradient>
<linearGradient id="paint47_linear_2243_112" x1="497.47" y1="335.768" x2="497.398" y2="341.242" gradientUnits="userSpaceOnUse">
<stop stop-color="white"/>
<stop offset="1" stop-color="white" stop-opacity="0"/>
</linearGradient>
<linearGradient id="paint48_linear_2243_112" x1="501.718" y1="331.521" x2="501.646" y2="336.995" gradientUnits="userSpaceOnUse">
<stop stop-color="white"/>
<stop offset="1" stop-color="white" stop-opacity="0"/>
</linearGradient>
<linearGradient id="paint49_linear_2243_112" x1="505.966" y1="327.275" x2="505.894" y2="332.749" gradientUnits="userSpaceOnUse">
<stop stop-color="white"/>
<stop offset="1" stop-color="white" stop-opacity="0"/>
</linearGradient>
<linearGradient id="paint50_linear_2243_112" x1="510.214" y1="323.027" x2="510.142" y2="328.5" gradientUnits="userSpaceOnUse">
<stop stop-color="white"/>
<stop offset="1" stop-color="white" stop-opacity="0"/>
</linearGradient>
<linearGradient id="paint51_linear_2243_112" x1="514.461" y1="318.776" x2="514.389" y2="324.249" gradientUnits="userSpaceOnUse">
<stop stop-color="white"/>
<stop offset="1" stop-color="white" stop-opacity="0"/>
</linearGradient>
<linearGradient id="paint52_linear_2243_112" x1="518.71" y1="314.526" x2="518.639" y2="319.999" gradientUnits="userSpaceOnUse">
<stop stop-color="white"/>
<stop offset="1" stop-color="white" stop-opacity="0"/>
</linearGradient>
<linearGradient id="paint53_linear_2243_112" x1="522.957" y1="310.284" x2="522.885" y2="315.758" gradientUnits="userSpaceOnUse">
<stop stop-color="white"/>
<stop offset="1" stop-color="white" stop-opacity="0"/>
</linearGradient>
<linearGradient id="paint54_linear_2243_112" x1="527.205" y1="306.033" x2="527.133" y2="311.507" gradientUnits="userSpaceOnUse">
<stop stop-color="white"/>
<stop offset="1" stop-color="white" stop-opacity="0"/>
</linearGradient>
<linearGradient id="paint55_linear_2243_112" x1="531.454" y1="301.783" x2="531.382" y2="307.256" gradientUnits="userSpaceOnUse">
<stop stop-color="white"/>
<stop offset="1" stop-color="white" stop-opacity="0"/>
</linearGradient>
<linearGradient id="paint56_linear_2243_112" x1="535.704" y1="297.534" x2="535.632" y2="303.008" gradientUnits="userSpaceOnUse">
<stop stop-color="white"/>
<stop offset="1" stop-color="white" stop-opacity="0"/>
</linearGradient>
<linearGradient id="paint57_linear_2243_112" x1="539.952" y1="293.286" x2="539.88" y2="298.759" gradientUnits="userSpaceOnUse">
<stop stop-color="white"/>
<stop offset="1" stop-color="white" stop-opacity="0"/>
</linearGradient>
<linearGradient id="paint58_linear_2243_112" x1="544.199" y1="289.04" x2="544.127" y2="294.514" gradientUnits="userSpaceOnUse">
<stop stop-color="white"/>
<stop offset="1" stop-color="white" stop-opacity="0"/>
</linearGradient>
<linearGradient id="paint59_linear_2243_112" x1="548.448" y1="284.794" x2="548.376" y2="290.268" gradientUnits="userSpaceOnUse">
<stop stop-color="white"/>
<stop offset="1" stop-color="white" stop-opacity="0"/>
</linearGradient>
<linearGradient id="paint60_linear_2243_112" x1="552.697" y1="280.543" x2="552.625" y2="286.017" gradientUnits="userSpaceOnUse">
<stop stop-color="white"/>
<stop offset="1" stop-color="white" stop-opacity="0"/>
</linearGradient>
<linearGradient id="paint61_linear_2243_112" x1="556.946" y1="276.295" x2="556.874" y2="281.769" gradientUnits="userSpaceOnUse">
<stop stop-color="white"/>
<stop offset="1" stop-color="white" stop-opacity="0"/>
</linearGradient>
<linearGradient id="paint62_linear_2243_112" x1="561.194" y1="272.044" x2="561.122" y2="277.518" gradientUnits="userSpaceOnUse">
<stop stop-color="white"/>
<stop offset="1" stop-color="white" stop-opacity="0"/>
</linearGradient>
<linearGradient id="paint63_linear_2243_112" x1="565.441" y1="267.8" x2="565.369" y2="273.274" gradientUnits="userSpaceOnUse">
<stop stop-color="white"/>
<stop offset="1" stop-color="white" stop-opacity="0"/>
</linearGradient>
<linearGradient id="paint64_linear_2243_112" x1="569.689" y1="263.55" x2="569.617" y2="269.023" gradientUnits="userSpaceOnUse">
<stop stop-color="white"/>
<stop offset="1" stop-color="white" stop-opacity="0"/>
</linearGradient>
<linearGradient id="paint65_linear_2243_112" x1="573.937" y1="259.301" x2="573.865" y2="264.775" gradientUnits="userSpaceOnUse">
<stop stop-color="white"/>
<stop offset="1" stop-color="white" stop-opacity="0"/>
</linearGradient>
<linearGradient id="paint66_linear_2243_112" x1="578.185" y1="255.055" x2="578.113" y2="260.528" gradientUnits="userSpaceOnUse">
<stop stop-color="white"/>
<stop offset="1" stop-color="white" stop-opacity="0"/>
</linearGradient>
</defs>
</svg>
