<svg width="268" height="200" viewBox="0 0 268 200" fill="none" xmlns="http://www.w3.org/2000/svg">
<g clip-path="url(#clip0_2437_393)">
<rect width="268" height="200" rx="12" fill="#282828"/>
<g filter="url(#filter0_d_2437_393)">
<g clip-path="url(#clip1_2437_393)">
<rect x="29" y="84" width="186" height="80" rx="12" fill="#1D1D1D"/>
<path fillRule="evenodd" clipRule="evenodd" d="M56.5 99C56.5 97.5999 56.5 96.8998 56.7725 96.365C57.0122 95.8946 57.3946 95.5122 57.865 95.2725C58.3998 95 59.0999 95 60.5 95H70.5C71.9001 95 72.6002 95 73.135 95.2725C73.6054 95.5122 73.9878 95.8946 74.2275 96.365C74.5 96.8998 74.5 97.5999 74.5 99V109C74.5 110.4 74.5 111.1 74.2275 111.635C73.9878 112.105 73.6054 112.488 73.135 112.728C72.6002 113 71.9001 113 70.5 113H60.5H60.5C59.0999 113 58.3998 113 57.865 112.728C57.3946 112.488 57.0122 112.105 56.7725 111.635C56.5 111.1 56.5 110.4 56.5 109V99ZM64.3293 103C63.9175 101.835 62.8062 101 61.5 101C59.8431 101 58.5 102.343 58.5 104C58.5 105.657 59.8431 107 61.5 107C62.8062 107 63.9175 106.165 64.3293 105H66.5V106C66.5 106.552 66.9477 107 67.5 107C68.0523 107 68.5 106.552 68.5 106V105H69.5V106C69.5 106.552 69.9477 107 70.5 107C71.0523 107 71.5 106.552 71.5 106V104.15C71.5 103.515 70.9851 103 70.35 103H67.5H64.3293ZM62.5 104C62.5 103.448 62.0523 103 61.5 103C60.9477 103 60.5 103.448 60.5 104C60.5 104.552 60.9477 105 61.5 105C62.0523 105 62.5 104.552 62.5 104Z" fill="#BABABA"/>
<path d="M91.644 109.708C90.8653 109.708 90.14 109.556 89.468 109.252C88.8013 108.948 88.22 108.529 87.724 107.996C87.228 107.457 86.8387 106.839 86.556 106.14C86.2787 105.436 86.14 104.684 86.14 103.884C86.14 103.041 86.2893 102.268 86.588 101.564C86.892 100.86 87.3053 100.249 87.828 99.732C88.3507 99.2147 88.9427 98.8147 89.604 98.532C90.2707 98.2493 90.964 98.108 91.684 98.108C92.4893 98.108 93.2707 98.2973 94.028 98.676C94.7907 99.0493 95.4627 99.628 96.044 100.412L94.3 101.348C93.9427 100.911 93.532 100.585 93.068 100.372C92.6093 100.153 92.14 100.044 91.66 100.044C91.1907 100.044 90.74 100.14 90.308 100.332C89.8813 100.524 89.5 100.796 89.164 101.148C88.8333 101.495 88.572 101.905 88.38 102.38C88.188 102.849 88.092 103.364 88.092 103.924C88.092 104.452 88.1853 104.951 88.372 105.42C88.5587 105.884 88.8147 106.292 89.14 106.644C89.4707 106.991 89.852 107.263 90.284 107.46C90.716 107.657 91.18 107.756 91.676 107.756C92.0067 107.756 92.3293 107.705 92.644 107.604C92.964 107.497 93.2627 107.345 93.54 107.148C93.8227 106.951 94.0733 106.711 94.292 106.428C94.516 106.145 94.7027 105.825 94.852 105.468H92.812V103.764H97.148C97.1693 104.58 97.0413 105.345 96.764 106.06C96.4867 106.775 96.0947 107.407 95.588 107.956C95.0813 108.505 94.492 108.935 93.82 109.244C93.148 109.553 92.4227 109.708 91.644 109.708ZM102.027 109.708C101.291 109.708 100.619 109.519 100.011 109.14C99.4082 108.761 98.9255 108.252 98.5629 107.612C98.2055 106.972 98.0269 106.265 98.0269 105.492C98.0269 104.911 98.1309 104.367 98.3389 103.86C98.5469 103.348 98.8322 102.9 99.1949 102.516C99.5629 102.127 99.9895 101.823 100.475 101.604C100.96 101.385 101.478 101.276 102.027 101.276C102.651 101.276 103.222 101.409 103.739 101.676C104.262 101.937 104.704 102.297 105.067 102.756C105.43 103.215 105.694 103.737 105.859 104.324C106.024 104.911 106.062 105.524 105.971 106.164H100.123C100.198 106.463 100.32 106.732 100.491 106.972C100.662 107.207 100.878 107.396 101.139 107.54C101.4 107.679 101.696 107.751 102.027 107.756C102.368 107.761 102.678 107.681 102.955 107.516C103.238 107.345 103.472 107.116 103.659 106.828L105.651 107.292C105.326 108.001 104.84 108.583 104.195 109.036C103.55 109.484 102.827 109.708 102.027 109.708ZM100.059 104.7H103.995C103.936 104.38 103.811 104.092 103.619 103.836C103.432 103.575 103.2 103.367 102.923 103.212C102.646 103.057 102.347 102.98 102.027 102.98C101.707 102.98 101.411 103.057 101.139 103.212C100.867 103.361 100.635 103.567 100.443 103.828C100.256 104.084 100.128 104.375 100.059 104.7ZM111.561 103.452H110.009V109.5H108.057V103.452H106.873V101.5H108.057V98.988H110.009V101.5H111.561V103.452ZM120.883 109.708C120.264 109.708 119.669 109.612 119.099 109.42C118.533 109.223 118.037 108.943 117.611 108.58C117.184 108.212 116.877 107.772 116.691 107.26L118.523 106.588C118.597 106.801 118.749 106.996 118.979 107.172C119.208 107.348 119.488 107.489 119.819 107.596C120.149 107.703 120.504 107.756 120.883 107.756C121.272 107.756 121.635 107.697 121.971 107.58C122.312 107.457 122.587 107.289 122.795 107.076C123.003 106.857 123.107 106.604 123.107 106.316C123.107 106.023 122.997 105.783 122.779 105.596C122.56 105.404 122.28 105.252 121.939 105.14C121.597 105.028 121.245 104.943 120.883 104.884C120.088 104.761 119.376 104.572 118.747 104.316C118.117 104.06 117.619 103.705 117.251 103.252C116.888 102.799 116.707 102.212 116.707 101.492C116.707 100.815 116.901 100.223 117.291 99.716C117.68 99.2093 118.192 98.8147 118.827 98.532C119.461 98.2493 120.147 98.108 120.883 98.108C121.496 98.108 122.088 98.204 122.659 98.396C123.229 98.588 123.728 98.868 124.155 99.236C124.587 99.604 124.896 100.047 125.083 100.564L123.243 101.228C123.168 101.015 123.016 100.82 122.787 100.644C122.557 100.468 122.277 100.329 121.947 100.228C121.616 100.121 121.261 100.068 120.883 100.068C120.504 100.063 120.144 100.124 119.803 100.252C119.467 100.375 119.192 100.543 118.979 100.756C118.765 100.969 118.659 101.215 118.659 101.492C118.659 101.849 118.757 102.119 118.955 102.3C119.157 102.481 119.427 102.615 119.763 102.7C120.099 102.78 120.472 102.855 120.883 102.924C121.629 103.041 122.32 103.239 122.955 103.516C123.589 103.793 124.099 104.164 124.483 104.628C124.867 105.087 125.059 105.649 125.059 106.316C125.059 106.993 124.867 107.588 124.483 108.1C124.099 108.607 123.589 109.001 122.955 109.284C122.32 109.567 121.629 109.708 120.883 109.708ZM126.648 101.5H128.6V109.5H126.648V101.5ZM127.64 100.468C127.352 100.468 127.109 100.375 126.912 100.188C126.714 99.996 126.616 99.756 126.616 99.468C126.616 99.1853 126.714 98.948 126.912 98.756C127.109 98.564 127.349 98.468 127.632 98.468C127.914 98.468 128.152 98.564 128.344 98.756C128.541 98.948 128.64 99.1853 128.64 99.468C128.64 99.756 128.544 99.996 128.352 100.188C128.16 100.375 127.922 100.468 127.64 100.468ZM136.271 101.5H138.223V109.652C138.223 110.228 138.106 110.751 137.871 111.22C137.636 111.695 137.316 112.1 136.911 112.436C136.506 112.777 136.042 113.039 135.519 113.22C134.996 113.407 134.447 113.5 133.871 113.5C133.311 113.5 132.772 113.385 132.255 113.156C131.738 112.927 131.279 112.612 130.879 112.212C130.484 111.817 130.183 111.367 129.975 110.86L131.759 110.052C131.866 110.345 132.026 110.601 132.239 110.82C132.458 111.044 132.708 111.217 132.991 111.34C133.274 111.468 133.567 111.532 133.871 111.532C134.18 111.532 134.476 111.489 134.759 111.404C135.047 111.319 135.306 111.193 135.535 111.028C135.764 110.868 135.943 110.671 136.071 110.436C136.204 110.207 136.271 109.945 136.271 109.652V108.524C136.02 108.876 135.706 109.161 135.327 109.38C134.948 109.599 134.511 109.708 134.015 109.708C133.439 109.708 132.9 109.599 132.399 109.38C131.898 109.161 131.455 108.86 131.071 108.476C130.692 108.087 130.394 107.639 130.175 107.132C129.962 106.625 129.855 106.081 129.855 105.5C129.855 104.919 129.962 104.375 130.175 103.868C130.394 103.361 130.692 102.916 131.071 102.532C131.455 102.143 131.898 101.839 132.399 101.62C132.9 101.401 133.439 101.292 134.015 101.292C134.511 101.292 134.948 101.401 135.327 101.62C135.706 101.833 136.02 102.116 136.271 102.468V101.5ZM134.039 107.828C134.45 107.828 134.812 107.724 135.127 107.516C135.447 107.303 135.698 107.02 135.879 106.668C136.06 106.311 136.151 105.921 136.151 105.5C136.151 105.073 136.058 104.684 135.871 104.332C135.69 103.98 135.439 103.697 135.119 103.484C134.804 103.271 134.444 103.164 134.039 103.164C133.639 103.164 133.274 103.271 132.943 103.484C132.612 103.692 132.348 103.972 132.151 104.324C131.954 104.676 131.855 105.068 131.855 105.5C131.855 105.932 131.954 106.324 132.151 106.676C132.348 107.028 132.612 107.308 132.943 107.516C133.274 107.724 133.639 107.828 134.039 107.828ZM147.476 104.444V109.5H145.524V104.956C145.524 104.641 145.446 104.356 145.292 104.1C145.137 103.839 144.929 103.633 144.668 103.484C144.412 103.329 144.126 103.252 143.812 103.252C143.497 103.252 143.209 103.329 142.948 103.484C142.692 103.633 142.486 103.839 142.332 104.1C142.182 104.356 142.108 104.641 142.108 104.956V109.5H140.156L140.148 101.5H142.1L142.108 102.212C142.38 101.924 142.705 101.697 143.084 101.532C143.462 101.361 143.87 101.276 144.308 101.276C144.889 101.276 145.42 101.42 145.9 101.708C146.38 101.991 146.761 102.372 147.044 102.852C147.332 103.327 147.476 103.857 147.476 104.444ZM152.433 109.708C151.697 109.708 151.025 109.519 150.417 109.14C149.814 108.761 149.332 108.252 148.969 107.612C148.612 106.972 148.433 106.265 148.433 105.492C148.433 104.911 148.537 104.367 148.745 103.86C148.953 103.348 149.238 102.9 149.601 102.516C149.969 102.127 150.396 101.823 150.881 101.604C151.366 101.385 151.884 101.276 152.433 101.276C153.057 101.276 153.628 101.409 154.145 101.676C154.668 101.937 155.11 102.297 155.473 102.756C155.836 103.215 156.1 103.737 156.265 104.324C156.43 104.911 156.468 105.524 156.377 106.164H150.529C150.604 106.463 150.726 106.732 150.897 106.972C151.068 107.207 151.284 107.396 151.545 107.54C151.806 107.679 152.102 107.751 152.433 107.756C152.774 107.761 153.084 107.681 153.361 107.516C153.644 107.345 153.878 107.116 154.065 106.828L156.057 107.292C155.732 108.001 155.246 108.583 154.601 109.036C153.956 109.484 153.233 109.708 152.433 109.708ZM150.465 104.7H154.401C154.342 104.38 154.217 104.092 154.025 103.836C153.838 103.575 153.606 103.367 153.329 103.212C153.052 103.057 152.753 102.98 152.433 102.98C152.113 102.98 151.817 103.057 151.545 103.212C151.273 103.361 151.041 103.567 150.849 103.828C150.662 104.084 150.534 104.375 150.465 104.7ZM163.758 97.5H165.71V109.5H163.758V108.5C163.502 108.857 163.179 109.148 162.79 109.372C162.401 109.596 161.95 109.708 161.438 109.708C160.857 109.708 160.313 109.599 159.806 109.38C159.299 109.161 158.851 108.86 158.462 108.476C158.078 108.087 157.777 107.639 157.558 107.132C157.339 106.625 157.23 106.081 157.23 105.5C157.23 104.919 157.339 104.375 157.558 103.868C157.777 103.361 158.078 102.916 158.462 102.532C158.851 102.143 159.299 101.839 159.806 101.62C160.313 101.401 160.857 101.292 161.438 101.292C161.95 101.292 162.401 101.404 162.79 101.628C163.179 101.847 163.502 102.137 163.758 102.5V97.5ZM161.462 107.828C161.878 107.828 162.246 107.724 162.566 107.516C162.886 107.308 163.137 107.028 163.318 106.676C163.499 106.319 163.59 105.927 163.59 105.5C163.59 105.068 163.499 104.676 163.318 104.324C163.137 103.967 162.883 103.684 162.558 103.476C162.238 103.268 161.873 103.164 161.462 103.164C161.051 103.164 160.675 103.271 160.334 103.484C159.998 103.692 159.729 103.972 159.526 104.324C159.329 104.676 159.23 105.068 159.23 105.5C159.23 105.932 159.331 106.324 159.534 106.676C159.737 107.028 160.006 107.308 160.342 107.516C160.683 107.724 161.057 107.828 161.462 107.828ZM179.956 98.3V100.252H176.532V109.5H174.58V100.252H171.156V98.3H179.956ZM181.234 109.5L184.162 105.484L181.258 101.492H183.666L185.362 103.82L187.066 101.492H189.474L186.57 105.484L189.498 109.5H187.09L185.362 107.132L183.642 109.5H181.234Z" fill="#BABABA"/>
<path d="M66.5 139L70.5 144L66.5 149" stroke="white" strokeWidth="2"/>
<path d="M58.5 139L54.5 144L58.5 149" stroke="white" strokeWidth="2"/>
<path d="M88.644 149.708C87.8653 149.708 87.14 149.556 86.468 149.252C85.8013 148.948 85.22 148.529 84.724 147.996C84.228 147.457 83.8387 146.839 83.556 146.14C83.2787 145.436 83.14 144.684 83.14 143.884C83.14 143.041 83.2893 142.268 83.588 141.564C83.892 140.86 84.3053 140.249 84.828 139.732C85.3507 139.215 85.9427 138.815 86.604 138.532C87.2707 138.249 87.964 138.108 88.684 138.108C89.4893 138.108 90.2707 138.297 91.028 138.676C91.7907 139.049 92.4627 139.628 93.044 140.412L91.3 141.348C90.9427 140.911 90.532 140.585 90.068 140.372C89.6093 140.153 89.14 140.044 88.66 140.044C88.1907 140.044 87.74 140.14 87.308 140.332C86.8813 140.524 86.5 140.796 86.164 141.148C85.8333 141.495 85.572 141.905 85.38 142.38C85.188 142.849 85.092 143.364 85.092 143.924C85.092 144.452 85.1853 144.951 85.372 145.42C85.5587 145.884 85.8147 146.292 86.14 146.644C86.4707 146.991 86.852 147.263 87.284 147.46C87.716 147.657 88.18 147.756 88.676 147.756C89.0067 147.756 89.3293 147.705 89.644 147.604C89.964 147.497 90.2627 147.345 90.54 147.148C90.8227 146.951 91.0733 146.711 91.292 146.428C91.516 146.145 91.7027 145.825 91.852 145.468H89.812V143.764H94.148C94.1693 144.58 94.0413 145.345 93.764 146.06C93.4867 146.775 93.0947 147.407 92.588 147.956C92.0813 148.505 91.492 148.935 90.82 149.244C90.148 149.553 89.4227 149.708 88.644 149.708ZM99.0269 149.708C98.2909 149.708 97.6189 149.519 97.0109 149.14C96.4082 148.761 95.9255 148.252 95.5629 147.612C95.2055 146.972 95.0269 146.265 95.0269 145.492C95.0269 144.911 95.1309 144.367 95.3389 143.86C95.5469 143.348 95.8322 142.9 96.1949 142.516C96.5629 142.127 96.9895 141.823 97.4749 141.604C97.9602 141.385 98.4775 141.276 99.0269 141.276C99.6509 141.276 100.222 141.409 100.739 141.676C101.262 141.937 101.704 142.297 102.067 142.756C102.43 143.215 102.694 143.737 102.859 144.324C103.024 144.911 103.062 145.524 102.971 146.164H97.1229C97.1975 146.463 97.3202 146.732 97.4909 146.972C97.6615 147.207 97.8775 147.396 98.1389 147.54C98.4002 147.679 98.6962 147.751 99.0269 147.756C99.3682 147.761 99.6775 147.681 99.9549 147.516C100.238 147.345 100.472 147.116 100.659 146.828L102.651 147.292C102.326 148.001 101.84 148.583 101.195 149.036C100.55 149.484 99.8269 149.708 99.0269 149.708ZM97.0589 144.7H100.995C100.936 144.38 100.811 144.092 100.619 143.836C100.432 143.575 100.2 143.367 99.9229 143.212C99.6455 143.057 99.3469 142.98 99.0269 142.98C98.7069 142.98 98.4109 143.057 98.1389 143.212C97.8669 143.361 97.6349 143.567 97.4429 143.828C97.2562 144.084 97.1282 144.375 97.0589 144.7ZM111.601 144.444V149.5H109.649V144.956C109.649 144.641 109.571 144.356 109.417 144.1C109.262 143.839 109.054 143.633 108.793 143.484C108.537 143.329 108.251 143.252 107.937 143.252C107.622 143.252 107.334 143.329 107.073 143.484C106.817 143.633 106.611 143.839 106.457 144.1C106.307 144.356 106.233 144.641 106.233 144.956V149.5H104.281L104.273 141.5H106.225L106.233 142.212C106.505 141.924 106.83 141.697 107.209 141.532C107.587 141.361 107.995 141.276 108.433 141.276C109.014 141.276 109.545 141.42 110.025 141.708C110.505 141.991 110.886 142.372 111.169 142.852C111.457 143.327 111.601 143.857 111.601 144.444ZM116.558 149.708C115.822 149.708 115.15 149.519 114.542 149.14C113.939 148.761 113.457 148.252 113.094 147.612C112.737 146.972 112.558 146.265 112.558 145.492C112.558 144.911 112.662 144.367 112.87 143.86C113.078 143.348 113.363 142.9 113.726 142.516C114.094 142.127 114.521 141.823 115.006 141.604C115.491 141.385 116.009 141.276 116.558 141.276C117.182 141.276 117.753 141.409 118.27 141.676C118.793 141.937 119.235 142.297 119.598 142.756C119.961 143.215 120.225 143.737 120.39 144.324C120.555 144.911 120.593 145.524 120.502 146.164H114.654C114.729 146.463 114.851 146.732 115.022 146.972C115.193 147.207 115.409 147.396 115.67 147.54C115.931 147.679 116.227 147.751 116.558 147.756C116.899 147.761 117.209 147.681 117.486 147.516C117.769 147.345 118.003 147.116 118.19 146.828L120.182 147.292C119.857 148.001 119.371 148.583 118.726 149.036C118.081 149.484 117.358 149.708 116.558 149.708ZM114.59 144.7H118.526C118.467 144.38 118.342 144.092 118.15 143.836C117.963 143.575 117.731 143.367 117.454 143.212C117.177 143.057 116.878 142.98 116.558 142.98C116.238 142.98 115.942 143.057 115.67 143.212C115.398 143.361 115.166 143.567 114.974 143.828C114.787 144.084 114.659 144.375 114.59 144.7ZM121.812 149.5L121.804 141.5H123.756L123.764 142.212C124.036 141.924 124.361 141.697 124.74 141.532C125.118 141.361 125.526 141.276 125.964 141.276C126.257 141.276 126.55 141.319 126.844 141.404L126.076 143.372C125.873 143.292 125.67 143.252 125.468 143.252C125.153 143.252 124.865 143.329 124.604 143.484C124.348 143.633 124.142 143.839 123.988 144.1C123.838 144.356 123.764 144.641 123.764 144.956V149.5H121.812ZM133.398 141.5H135.35V149.5H133.398L133.31 148.508C133.092 148.865 132.801 149.156 132.438 149.38C132.081 149.599 131.657 149.708 131.166 149.708C130.574 149.708 130.02 149.596 129.502 149.372C128.985 149.148 128.529 148.839 128.134 148.444C127.745 148.049 127.438 147.593 127.214 147.076C126.996 146.559 126.886 146.004 126.886 145.412C126.886 144.841 126.99 144.305 127.198 143.804C127.412 143.303 127.708 142.863 128.086 142.484C128.465 142.105 128.902 141.809 129.398 141.596C129.894 141.383 130.428 141.276 130.998 141.276C131.526 141.276 131.998 141.393 132.414 141.628C132.836 141.863 133.193 142.161 133.486 142.524L133.398 141.5ZM131.118 147.828C131.534 147.828 131.902 147.724 132.222 147.516C132.542 147.308 132.793 147.028 132.974 146.676C133.156 146.319 133.246 145.927 133.246 145.5C133.246 145.068 133.156 144.676 132.974 144.324C132.793 143.967 132.54 143.684 132.214 143.476C131.894 143.268 131.529 143.164 131.118 143.164C130.708 143.164 130.332 143.271 129.99 143.484C129.654 143.692 129.385 143.972 129.182 144.324C128.985 144.676 128.886 145.068 128.886 145.5C128.886 145.932 128.988 146.324 129.19 146.676C129.393 147.028 129.662 147.308 129.998 147.516C130.34 147.724 130.713 147.828 131.118 147.828ZM141.232 143.452H139.68V149.5H137.728V143.452H136.544V141.5H137.728V138.988H139.68V141.5H141.232V143.452ZM146.011 149.708C145.275 149.708 144.603 149.519 143.995 149.14C143.393 148.761 142.91 148.252 142.547 147.612C142.19 146.972 142.011 146.265 142.011 145.492C142.011 144.911 142.115 144.367 142.323 143.86C142.531 143.348 142.817 142.9 143.179 142.516C143.547 142.127 143.974 141.823 144.459 141.604C144.945 141.385 145.462 141.276 146.011 141.276C146.635 141.276 147.206 141.409 147.723 141.676C148.246 141.937 148.689 142.297 149.051 142.756C149.414 143.215 149.678 143.737 149.843 144.324C150.009 144.911 150.046 145.524 149.955 146.164H144.107C144.182 146.463 144.305 146.732 144.475 146.972C144.646 147.207 144.862 147.396 145.123 147.54C145.385 147.679 145.681 147.751 146.011 147.756C146.353 147.761 146.662 147.681 146.939 147.516C147.222 147.345 147.457 147.116 147.643 146.828L149.635 147.292C149.31 148.001 148.825 148.583 148.179 149.036C147.534 149.484 146.811 149.708 146.011 149.708ZM144.043 144.7H147.979C147.921 144.38 147.795 144.092 147.603 143.836C147.417 143.575 147.185 143.367 146.907 143.212C146.63 143.057 146.331 142.98 146.011 142.98C145.691 142.98 145.395 143.057 145.123 143.212C144.851 143.361 144.619 143.567 144.427 143.828C144.241 144.084 144.113 144.375 144.043 144.7ZM160.472 149.708C159.715 149.708 159.003 149.559 158.336 149.26C157.669 148.956 157.083 148.537 156.576 148.004C156.075 147.471 155.68 146.855 155.392 146.156C155.109 145.452 154.968 144.7 154.968 143.9C154.968 143.095 155.109 142.343 155.392 141.644C155.68 140.94 156.075 140.324 156.576 139.796C157.083 139.263 157.669 138.847 158.336 138.548C159.003 138.244 159.715 138.092 160.472 138.092C161.379 138.092 162.213 138.303 162.976 138.724C163.739 139.14 164.371 139.697 164.872 140.396L163.128 141.332C162.813 140.943 162.421 140.631 161.952 140.396C161.488 140.161 160.995 140.044 160.472 140.044C159.981 140.044 159.52 140.145 159.088 140.348C158.656 140.545 158.277 140.823 157.952 141.18C157.627 141.532 157.373 141.943 157.192 142.412C157.011 142.876 156.92 143.372 156.92 143.9C156.92 144.433 157.011 144.932 157.192 145.396C157.379 145.86 157.635 146.271 157.96 146.628C158.285 146.98 158.661 147.257 159.088 147.46C159.52 147.657 159.981 147.756 160.472 147.756C161.005 147.756 161.501 147.639 161.96 147.404C162.424 147.164 162.813 146.849 163.128 146.46L164.872 147.404C164.371 148.097 163.739 148.655 162.976 149.076C162.213 149.497 161.379 149.708 160.472 149.708ZM169.48 149.708C168.744 149.708 168.072 149.519 167.464 149.14C166.861 148.761 166.379 148.255 166.016 147.62C165.659 146.98 165.48 146.273 165.48 145.5C165.48 144.913 165.584 144.367 165.792 143.86C166 143.348 166.285 142.9 166.648 142.516C167.016 142.127 167.443 141.823 167.928 141.604C168.413 141.385 168.931 141.276 169.48 141.276C170.216 141.276 170.885 141.465 171.488 141.844C172.096 142.223 172.579 142.732 172.936 143.372C173.299 144.012 173.48 144.721 173.48 145.5C173.48 146.081 173.376 146.625 173.168 147.132C172.96 147.639 172.672 148.087 172.304 148.476C171.941 148.86 171.517 149.161 171.032 149.38C170.552 149.599 170.035 149.708 169.48 149.708ZM169.48 147.756C169.869 147.756 170.219 147.652 170.528 147.444C170.837 147.236 171.08 146.961 171.256 146.62C171.437 146.279 171.528 145.905 171.528 145.5C171.528 145.084 171.435 144.705 171.248 144.364C171.067 144.017 170.819 143.743 170.504 143.54C170.195 143.332 169.853 143.228 169.48 143.228C169.096 143.228 168.749 143.332 168.44 143.54C168.131 143.748 167.885 144.025 167.704 144.372C167.523 144.719 167.432 145.095 167.432 145.5C167.432 145.921 167.525 146.303 167.712 146.644C167.899 146.985 168.147 147.257 168.456 147.46C168.771 147.657 169.112 147.756 169.48 147.756ZM180.805 137.5H182.757V149.5H180.805V148.5C180.549 148.857 180.226 149.148 179.837 149.372C179.448 149.596 178.997 149.708 178.485 149.708C177.904 149.708 177.36 149.599 176.853 149.38C176.346 149.161 175.898 148.86 175.509 148.476C175.125 148.087 174.824 147.639 174.605 147.132C174.386 146.625 174.277 146.081 174.277 145.5C174.277 144.919 174.386 144.375 174.605 143.868C174.824 143.361 175.125 142.916 175.509 142.532C175.898 142.143 176.346 141.839 176.853 141.62C177.36 141.401 177.904 141.292 178.485 141.292C178.997 141.292 179.448 141.404 179.837 141.628C180.226 141.847 180.549 142.137 180.805 142.5V137.5ZM178.509 147.828C178.925 147.828 179.293 147.724 179.613 147.516C179.933 147.308 180.184 147.028 180.365 146.676C180.546 146.319 180.637 145.927 180.637 145.5C180.637 145.068 180.546 144.676 180.365 144.324C180.184 143.967 179.93 143.684 179.605 143.476C179.285 143.268 178.92 143.164 178.509 143.164C178.098 143.164 177.722 143.271 177.381 143.484C177.045 143.692 176.776 143.972 176.573 144.324C176.376 144.676 176.277 145.068 176.277 145.5C176.277 145.932 176.378 146.324 176.581 146.676C176.784 147.028 177.053 147.308 177.389 147.516C177.73 147.724 178.104 147.828 178.509 147.828ZM188.074 149.708C187.338 149.708 186.666 149.519 186.058 149.14C185.455 148.761 184.972 148.252 184.61 147.612C184.252 146.972 184.074 146.265 184.074 145.492C184.074 144.911 184.178 144.367 184.386 143.86C184.594 143.348 184.879 142.9 185.242 142.516C185.61 142.127 186.036 141.823 186.522 141.604C187.007 141.385 187.524 141.276 188.074 141.276C188.698 141.276 189.268 141.409 189.786 141.676C190.308 141.937 190.751 142.297 191.114 142.756C191.476 143.215 191.74 143.737 191.906 144.324C192.071 144.911 192.108 145.524 192.018 146.164H186.17C186.244 146.463 186.367 146.732 186.538 146.972C186.708 147.207 186.924 147.396 187.186 147.54C187.447 147.679 187.743 147.751 188.074 147.756C188.415 147.761 188.724 147.681 189.002 147.516C189.284 147.345 189.519 147.116 189.706 146.828L191.698 147.292C191.372 148.001 190.887 148.583 190.242 149.036C189.596 149.484 188.874 149.708 188.074 149.708ZM186.106 144.7H190.042C189.983 144.38 189.858 144.092 189.666 143.836C189.479 143.575 189.247 143.367 188.97 143.212C188.692 143.057 188.394 142.98 188.074 142.98C187.754 142.98 187.458 143.057 187.186 143.212C186.914 143.361 186.682 143.567 186.49 143.828C186.303 144.084 186.175 144.375 186.106 144.7Z" fill="white"/>
</g>
</g>
<g filter="url(#filter1_d_2437_393)">
<path d="M45 48C45 41.3726 50.3726 36 57 36H203V76H57C50.3726 76 45 70.6274 45 64V48Z" fill="url(#paint0_linear_2437_393)"/>
<path fillRule="evenodd" clipRule="evenodd" d="M70.9394 56.6465L68.6922 55.8975L68.6922 55.8975L68.6922 55.8975C66.339 55.1131 65.1624 54.7209 65.1624 54.0001C65.1624 53.2793 66.339 52.8871 68.6922 52.1027L77.2053 49.265C78.8611 48.7131 79.689 48.4371 80.126 48.8741C80.5631 49.3111 80.2871 50.139 79.7352 51.7948L76.8974 60.308L76.8974 60.308L76.8974 60.308C76.113 62.6612 75.7208 63.8378 75.0001 63.8378C74.2793 63.8378 73.8871 62.6612 73.1027 60.308L72.3536 58.0608L76.7072 53.7072C77.0977 53.3167 77.0977 52.6835 76.7072 52.293C76.3167 51.9025 75.6835 51.9025 75.293 52.293L70.9394 56.6465Z" fill="#BABABA"/>
<path d="M96.2 63V49H101.3C102.04 49 102.707 49.1533 103.3 49.46C103.9 49.76 104.373 50.1933 104.72 50.76C105.073 51.32 105.25 51.9833 105.25 52.75C105.25 53.09 105.2 53.4333 105.1 53.78C105 54.1267 104.847 54.44 104.64 54.72C104.433 54.9933 104.167 55.1967 103.84 55.33C104.273 55.4367 104.627 55.63 104.9 55.91C105.173 56.19 105.387 56.52 105.54 56.9C105.693 57.2733 105.797 57.6567 105.85 58.05C105.91 58.4367 105.94 58.7967 105.94 59.13C105.94 59.87 105.757 60.53 105.39 61.11C105.023 61.69 104.53 62.15 103.91 62.49C103.297 62.83 102.617 63 101.87 63H96.2ZM98.64 60.91H101.62C102.02 60.91 102.38 60.8133 102.7 60.62C103.02 60.4267 103.277 60.16 103.47 59.82C103.663 59.48 103.76 59.0933 103.76 58.66C103.76 58.2867 103.663 57.9333 103.47 57.6C103.277 57.2667 103.02 56.9967 102.7 56.79C102.38 56.5833 102.02 56.48 101.62 56.48H98.64V60.91ZM98.64 54.42H101.02C101.513 54.42 101.933 54.2667 102.28 53.96C102.633 53.6533 102.81 53.2467 102.81 52.74C102.81 52.2 102.633 51.7933 102.28 51.52C101.933 51.24 101.513 51.1 101.02 51.1H98.64V54.42ZM107.948 63L107.938 53H110.378L110.388 53.89C110.728 53.53 111.135 53.2467 111.608 53.04C112.082 52.8267 112.592 52.72 113.138 52.72C113.505 52.72 113.872 52.7733 114.238 52.88L113.278 55.34C113.025 55.24 112.772 55.19 112.518 55.19C112.125 55.19 111.765 55.2867 111.438 55.48C111.118 55.6667 110.862 55.9233 110.668 56.25C110.482 56.57 110.388 56.9267 110.388 57.32V63H107.948ZM119.291 63.26C118.371 63.26 117.531 63.0233 116.771 62.55C116.018 62.0767 115.415 61.4433 114.961 60.65C114.515 59.85 114.291 58.9667 114.291 58C114.291 57.2667 114.421 56.5833 114.681 55.95C114.941 55.31 115.298 54.75 115.751 54.27C116.211 53.7833 116.745 53.4033 117.351 53.13C117.958 52.8567 118.605 52.72 119.291 52.72C120.211 52.72 121.048 52.9567 121.801 53.43C122.561 53.9033 123.165 54.54 123.611 55.34C124.065 56.14 124.291 57.0267 124.291 58C124.291 58.7267 124.161 59.4067 123.901 60.04C123.641 60.6733 123.281 61.2333 122.821 61.72C122.368 62.2 121.838 62.5767 121.231 62.85C120.631 63.1233 119.985 63.26 119.291 63.26ZM119.291 60.82C119.778 60.82 120.215 60.69 120.601 60.43C120.988 60.17 121.291 59.8267 121.511 59.4C121.738 58.9733 121.851 58.5067 121.851 58C121.851 57.48 121.735 57.0067 121.501 56.58C121.275 56.1467 120.965 55.8033 120.571 55.55C120.185 55.29 119.758 55.16 119.291 55.16C118.811 55.16 118.378 55.29 117.991 55.55C117.605 55.81 117.298 56.1567 117.071 56.59C116.845 57.0233 116.731 57.4933 116.731 58C116.731 58.5267 116.848 59.0033 117.081 59.43C117.315 59.8567 117.625 60.1967 118.011 60.45C118.405 60.6967 118.831 60.82 119.291 60.82ZM133.428 53H135.868V63H133.428L133.318 61.76C133.044 62.2067 132.681 62.57 132.228 62.85C131.781 63.1233 131.251 63.26 130.638 63.26C129.898 63.26 129.204 63.12 128.558 62.84C127.911 62.56 127.341 62.1733 126.848 61.68C126.361 61.1867 125.978 60.6167 125.698 59.97C125.424 59.3233 125.288 58.63 125.288 57.89C125.288 57.1767 125.418 56.5067 125.678 55.88C125.944 55.2533 126.314 54.7033 126.788 54.23C127.261 53.7567 127.808 53.3867 128.428 53.12C129.048 52.8533 129.714 52.72 130.428 52.72C131.088 52.72 131.678 52.8667 132.198 53.16C132.724 53.4533 133.171 53.8267 133.538 54.28L133.428 53ZM130.578 60.91C131.098 60.91 131.558 60.78 131.958 60.52C132.358 60.26 132.671 59.91 132.898 59.47C133.124 59.0233 133.238 58.5333 133.238 58C133.238 57.46 133.124 56.97 132.898 56.53C132.671 56.0833 132.354 55.73 131.948 55.47C131.548 55.21 131.091 55.08 130.578 55.08C130.064 55.08 129.594 55.2133 129.168 55.48C128.748 55.74 128.411 56.09 128.158 56.53C127.911 56.97 127.788 57.46 127.788 58C127.788 58.54 127.914 59.03 128.168 59.47C128.421 59.91 128.758 60.26 129.178 60.52C129.604 60.78 130.071 60.91 130.578 60.91ZM145.225 48H147.665V63H145.225V61.75C144.905 62.1967 144.502 62.56 144.015 62.84C143.528 63.12 142.965 63.26 142.325 63.26C141.598 63.26 140.918 63.1233 140.285 62.85C139.652 62.5767 139.092 62.2 138.605 61.72C138.125 61.2333 137.748 60.6733 137.475 60.04C137.202 59.4067 137.065 58.7267 137.065 58C137.065 57.2733 137.202 56.5933 137.475 55.96C137.748 55.3267 138.125 54.77 138.605 54.29C139.092 53.8033 139.652 53.4233 140.285 53.15C140.918 52.8767 141.598 52.74 142.325 52.74C142.965 52.74 143.528 52.88 144.015 53.16C144.502 53.4333 144.905 53.7967 145.225 54.25V48ZM142.355 60.91C142.875 60.91 143.335 60.78 143.735 60.52C144.135 60.26 144.448 59.91 144.675 59.47C144.902 59.0233 145.015 58.5333 145.015 58C145.015 57.46 144.902 56.97 144.675 56.53C144.448 56.0833 144.132 55.73 143.725 55.47C143.325 55.21 142.868 55.08 142.355 55.08C141.842 55.08 141.372 55.2133 140.945 55.48C140.525 55.74 140.188 56.09 139.935 56.53C139.688 56.97 139.565 57.46 139.565 58C139.565 58.54 139.692 59.03 139.945 59.47C140.198 59.91 140.535 60.26 140.955 60.52C141.382 60.78 141.848 60.91 142.355 60.91ZM156.111 59.99L158.311 61.18C157.851 61.8067 157.274 62.31 156.581 62.69C155.888 63.07 155.131 63.26 154.311 63.26C153.391 63.26 152.551 63.0233 151.791 62.55C151.038 62.0767 150.434 61.4433 149.981 60.65C149.534 59.85 149.311 58.9667 149.311 58C149.311 57.2667 149.441 56.5833 149.701 55.95C149.961 55.31 150.318 54.75 150.771 54.27C151.231 53.7833 151.764 53.4033 152.371 53.13C152.978 52.8567 153.624 52.72 154.311 52.72C155.131 52.72 155.888 52.91 156.581 53.29C157.274 53.67 157.851 54.18 158.311 54.82L156.111 56C155.878 55.7333 155.601 55.5267 155.281 55.38C154.968 55.2333 154.644 55.16 154.311 55.16C153.831 55.16 153.398 55.2933 153.011 55.56C152.624 55.82 152.318 56.1667 152.091 56.6C151.864 57.0267 151.751 57.4933 151.751 58C151.751 58.5 151.864 58.9667 152.091 59.4C152.318 59.8267 152.624 60.17 153.011 60.43C153.398 60.69 153.831 60.82 154.311 60.82C154.658 60.82 154.988 60.7467 155.301 60.6C155.614 60.4467 155.884 60.2433 156.111 59.99ZM167.334 53H169.774V63H167.334L167.224 61.76C166.95 62.2067 166.587 62.57 166.134 62.85C165.687 63.1233 165.157 63.26 164.544 63.26C163.804 63.26 163.11 63.12 162.464 62.84C161.817 62.56 161.247 62.1733 160.754 61.68C160.267 61.1867 159.884 60.6167 159.604 59.97C159.33 59.3233 159.194 58.63 159.194 57.89C159.194 57.1767 159.324 56.5067 159.584 55.88C159.85 55.2533 160.22 54.7033 160.694 54.23C161.167 53.7567 161.714 53.3867 162.334 53.12C162.954 52.8533 163.62 52.72 164.334 52.72C164.994 52.72 165.584 52.8667 166.104 53.16C166.63 53.4533 167.077 53.8267 167.444 54.28L167.334 53ZM164.484 60.91C165.004 60.91 165.464 60.78 165.864 60.52C166.264 60.26 166.577 59.91 166.804 59.47C167.03 59.0233 167.144 58.5333 167.144 58C167.144 57.46 167.03 56.97 166.804 56.53C166.577 56.0833 166.26 55.73 165.854 55.47C165.454 55.21 164.997 55.08 164.484 55.08C163.97 55.08 163.5 55.2133 163.074 55.48C162.654 55.74 162.317 56.09 162.064 56.53C161.817 56.97 161.694 57.46 161.694 58C161.694 58.54 161.82 59.03 162.074 59.47C162.327 59.91 162.664 60.26 163.084 60.52C163.51 60.78 163.977 60.91 164.484 60.91ZM174.716 63.18C174.196 63.1467 173.693 63.0433 173.206 62.87C172.726 62.69 172.3 62.4467 171.926 62.14C171.553 61.8333 171.266 61.4667 171.066 61.04L173.126 60.16C173.206 60.2933 173.336 60.4367 173.516 60.59C173.696 60.7367 173.91 60.86 174.156 60.96C174.41 61.06 174.686 61.11 174.986 61.11C175.24 61.11 175.48 61.0767 175.706 61.01C175.94 60.9367 176.126 60.8267 176.266 60.68C176.413 60.5333 176.486 60.3433 176.486 60.11C176.486 59.8633 176.4 59.6733 176.226 59.54C176.06 59.4 175.846 59.2967 175.586 59.23C175.333 59.1567 175.086 59.09 174.846 59.03C174.213 58.9033 173.623 58.7067 173.076 58.44C172.536 58.1733 172.1 57.83 171.766 57.41C171.44 56.9833 171.276 56.47 171.276 55.87C171.276 55.21 171.45 54.64 171.796 54.16C172.15 53.68 172.606 53.31 173.166 53.05C173.733 52.79 174.343 52.66 174.996 52.66C175.79 52.66 176.516 52.8267 177.176 53.16C177.843 53.4867 178.37 53.95 178.756 54.55L176.826 55.69C176.733 55.53 176.603 55.3833 176.436 55.25C176.27 55.11 176.08 54.9967 175.866 54.91C175.653 54.8167 175.43 54.7633 175.196 54.75C174.896 54.7367 174.623 54.7633 174.376 54.83C174.13 54.8967 173.93 55.01 173.776 55.17C173.63 55.33 173.556 55.5433 173.556 55.81C173.556 56.0633 173.656 56.2533 173.856 56.38C174.056 56.5 174.296 56.5933 174.576 56.66C174.863 56.7267 175.136 56.8 175.396 56.88C175.983 57.0733 176.533 57.31 177.046 57.59C177.566 57.87 177.983 58.2133 178.296 58.62C178.61 59.0267 178.76 59.5133 178.746 60.08C178.746 60.7267 178.553 61.2933 178.166 61.78C177.78 62.26 177.28 62.6267 176.666 62.88C176.06 63.1333 175.41 63.2333 174.716 63.18ZM185.818 55.44H183.878V63H181.438V55.44H179.958V53H181.438V49.86H183.878V53H185.818V55.44Z" fill="#BABABA"/>
<path d="M191 36H203C209.627 36 215 41.3726 215 48V64C215 70.6274 209.627 76 203 76H191V36Z" fill="url(#paint1_linear_2437_393)"/>
<path d="M202.181 59.8297L197.542 53.2028C196.892 52.275 197.556 51 198.689 51L207.311 51C208.444 51 209.108 52.275 208.458 53.2028L203.819 59.8297C203.421 60.3984 202.579 60.3984 202.181 59.8297Z" fill="#BABABA"/>
</g>
<g filter="url(#filter2_d_2437_393)">
<path fillRule="evenodd" clipRule="evenodd" d="M195.804 171.777L192.562 169.96C190.348 168.719 187.331 169.379 185.82 171.432L186.172 170.954C185.797 171.463 185.881 172.22 186.36 172.643L192.201 177.789C193.127 178.605 194.895 179.527 196.118 179.822C196.118 179.822 203.348 181.385 204.145 182.935L205.155 184.897L219.625 177.607L218.616 175.645C217.819 174.095 218.427 167.641 218.427 167.641C218.513 166.403 218.132 164.49 217.561 163.38L213.363 155.217C212.396 153.429 210.073 152.755 208.136 153.731C207.167 154.219 206.759 155.346 207.224 156.251L207.56 156.904C206.631 155.097 204.308 154.423 202.371 155.399C201.402 155.887 200.994 157.015 201.459 157.919L201.795 158.573C200.865 156.766 198.542 156.092 196.606 157.068C195.637 157.556 195.228 158.684 195.693 159.588L196.03 160.241C195.88 159.951 195.73 159.736 195.574 159.584L190.704 151.424C190.045 150.32 188.608 149.929 187.466 150.504C186.317 151.083 185.865 152.451 186.44 153.568L195.804 171.777Z" fill="white"/>
<path d="M192.855 169.436C190.549 168.143 187.491 168.689 185.715 170.618L185.689 170.598C185.688 170.598 185.688 170.599 185.688 170.599L185.337 171.075C185.337 171.076 185.337 171.076 185.336 171.077L185.418 171.137C185.21 171.82 185.408 172.604 185.964 173.093L191.804 178.239C192.803 179.119 194.659 180.088 195.978 180.405L195.978 180.405L195.991 180.408L195.991 180.408L195.992 180.409L195.996 180.409L196.01 180.413L196.069 180.426C196.121 180.437 196.198 180.454 196.296 180.477C196.492 180.522 196.775 180.588 197.116 180.673C197.8 180.842 198.717 181.083 199.657 181.371C200.6 181.66 201.549 181.992 202.303 182.34C202.681 182.514 202.994 182.685 203.228 182.848C203.474 183.02 203.579 183.146 203.612 183.21L204.621 185.172L204.893 185.701L205.425 185.433L219.895 178.143L220.435 177.871L220.159 177.333L219.149 175.37C219.014 175.107 218.904 174.53 218.849 173.7C218.795 172.905 218.796 171.974 218.822 171.079C218.848 170.186 218.899 169.34 218.943 168.716C218.965 168.404 218.985 168.149 219 167.972C219.008 167.883 219.014 167.814 219.018 167.767L219.023 167.715L219.024 167.701L219.024 167.698L219.024 167.698L219.024 167.697L219.025 167.69L219.025 167.683C219.073 166.993 218.991 166.149 218.828 165.344C218.666 164.539 218.413 163.726 218.094 163.106L213.896 154.943L213.896 154.943L213.891 154.932C212.756 152.833 210.067 152.086 207.866 153.195C207.144 153.559 206.647 154.216 206.486 154.946C205.206 154.207 203.545 154.135 202.101 154.863C201.379 155.227 200.881 155.884 200.721 156.615C199.441 155.875 197.78 155.804 196.336 156.532C195.808 156.798 195.4 157.22 195.156 157.713L191.219 151.116C190.394 149.733 188.61 149.256 187.197 149.968C185.757 150.694 185.175 152.422 185.906 153.843L194.359 170.279L192.855 169.436Z" stroke="#363B3E" strokeWidth="1.2"/>
</g>
<rect width="268" height="200" fill="url(#paint2_linear_2437_393)"/>
</g>
<defs>
<filter id="filter0_d_2437_393" x="15" y="72" width="214" height="108" filterUnits="userSpaceOnUse" color-interpolation-filters="sRGB">
<feFlood flood-opacity="0" result="BackgroundImageFix"/>
<feColorMatrix in="SourceAlpha" type="matrix" values="0 0 0 0 0 0 0 0 0 0 0 0 0 0 0 0 0 0 127 0" result="hardAlpha"/>
<feOffset dy="2"/>
<feGaussianBlur stdDeviation="7"/>
<feComposite in2="hardAlpha" operator="out"/>
<feColorMatrix type="matrix" values="0 0 0 0 1 0 0 0 0 1 0 0 0 0 1 0 0 0 0.12 0"/>
<feBlend mode="normal" in2="BackgroundImageFix" result="effect1_dropShadow_2437_393"/>
<feBlend mode="normal" in="SourceGraphic" in2="effect1_dropShadow_2437_393" result="shape"/>
</filter>
<filter id="filter1_d_2437_393" x="31" y="24" width="198" height="68" filterUnits="userSpaceOnUse" color-interpolation-filters="sRGB">
<feFlood flood-opacity="0" result="BackgroundImageFix"/>
<feColorMatrix in="SourceAlpha" type="matrix" values="0 0 0 0 0 0 0 0 0 0 0 0 0 0 0 0 0 0 127 0" result="hardAlpha"/>
<feOffset dy="2"/>
<feGaussianBlur stdDeviation="7"/>
<feComposite in2="hardAlpha" operator="out"/>
<feColorMatrix type="matrix" values="0 0 0 0 1 0 0 0 0 1 0 0 0 0 1 0 0 0 0.12 0"/>
<feBlend mode="normal" in2="BackgroundImageFix" result="effect1_dropShadow_2437_393"/>
<feBlend mode="normal" in="SourceGraphic" in2="effect1_dropShadow_2437_393" result="shape"/>
</filter>
<filter id="filter2_d_2437_393" x="181.737" y="147.041" width="42.5083" height="43.4639" filterUnits="userSpaceOnUse" color-interpolation-filters="sRGB">
<feFlood flood-opacity="0" result="BackgroundImageFix"/>
<feColorMatrix in="SourceAlpha" type="matrix" values="0 0 0 0 0 0 0 0 0 0 0 0 0 0 0 0 0 0 127 0" result="hardAlpha"/>
<feOffset dy="1"/>
<feGaussianBlur stdDeviation="1.5"/>
<feColorMatrix type="matrix" values="0 0 0 0 0 0 0 0 0 0 0 0 0 0 0 0 0 0 0.2 0"/>
<feBlend mode="normal" in2="BackgroundImageFix" result="effect1_dropShadow_2437_393"/>
<feBlend mode="normal" in="SourceGraphic" in2="effect1_dropShadow_2437_393" result="shape"/>
</filter>
<linearGradient id="paint0_linear_2437_393" x1="124" y1="36" x2="124" y2="76" gradientUnits="userSpaceOnUse">
<stop stop-color="#3A3A3A"/>
<stop offset="1" stop-color="#282828"/>
</linearGradient>
<linearGradient id="paint1_linear_2437_393" x1="203" y1="36" x2="203" y2="76" gradientUnits="userSpaceOnUse">
<stop stop-color="#282828"/>
<stop offset="1" stop-color="#1B1B1B"/>
</linearGradient>
<linearGradient id="paint2_linear_2437_393" x1="268" y1="100" x2="57.7167" y2="99.4779" gradientUnits="userSpaceOnUse">
<stop stop-color="#1B1B1B" stop-opacity="0.9"/>
<stop offset="1" stop-color="#282828" stop-opacity="0"/>
</linearGradient>
<clipPath id="clip0_2437_393">
<rect width="268" height="200" rx="12" fill="white"/>
</clipPath>
<clipPath id="clip1_2437_393">
<rect x="29" y="84" width="186" height="80" rx="12" fill="white"/>
</clipPath>
</defs>
</svg>
