<svg width="268" height="200" viewBox="0 0 268 200" fill="none" xmlns="http://www.w3.org/2000/svg">
<g clip-path="url(#clip0_2427_286)">
<rect width="268" height="200" rx="12" fill="#282828"/>
<rect x="12.5" y="89.5" width="498" height="95" rx="7.5" fill="white" fill-opacity="0.08" stroke="#282828"/>
<rect x="20" y="156" width="56" height="20" rx="5" fill="url(#paint0_linear_2427_286)"/>
<path fillRule="evenodd" clipRule="evenodd" d="M38 166C38 169.314 35.3137 172 32 172C28.6863 172 26 169.314 26 166C26 162.686 28.6863 160 32 160C35.3137 160 38 162.686 38 166ZM32.5 166.5V169.333H31.5V166.5H28.6667V165.5H31.5V162.667H32.5V165.5H35.3333V166.5H32.5Z" fill="#BABABA"/>
<path d="M47.744 170.156C47.28 170.156 46.834 170.084 46.406 169.94C45.982 169.792 45.61 169.582 45.29 169.31C44.97 169.034 44.74 168.704 44.6 168.32L45.974 167.816C46.03 167.976 46.144 168.122 46.316 168.254C46.488 168.386 46.698 168.492 46.946 168.572C47.194 168.652 47.46 168.692 47.744 168.692C48.036 168.692 48.308 168.648 48.56 168.56C48.816 168.468 49.022 168.342 49.178 168.182C49.334 168.018 49.412 167.828 49.412 167.612C49.412 167.392 49.33 167.212 49.166 167.072C49.002 166.928 48.792 166.814 48.536 166.73C48.28 166.646 48.016 166.582 47.744 166.538C47.148 166.446 46.614 166.304 46.142 166.112C45.67 165.92 45.296 165.654 45.02 165.314C44.748 164.974 44.612 164.534 44.612 163.994C44.612 163.486 44.758 163.042 45.05 162.662C45.342 162.282 45.726 161.986 46.202 161.774C46.678 161.562 47.192 161.456 47.744 161.456C48.204 161.456 48.648 161.528 49.076 161.672C49.504 161.816 49.878 162.026 50.198 162.302C50.522 162.578 50.754 162.91 50.894 163.298L49.514 163.796C49.458 163.636 49.344 163.49 49.172 163.358C49 163.226 48.79 163.122 48.542 163.046C48.294 162.966 48.028 162.926 47.744 162.926C47.46 162.922 47.19 162.968 46.934 163.064C46.682 163.156 46.476 163.282 46.316 163.442C46.156 163.602 46.076 163.786 46.076 163.994C46.076 164.262 46.15 164.464 46.298 164.6C46.45 164.736 46.652 164.836 46.904 164.9C47.156 164.96 47.436 165.016 47.744 165.068C48.304 165.156 48.822 165.304 49.298 165.512C49.774 165.72 50.156 165.998 50.444 166.346C50.732 166.69 50.876 167.112 50.876 167.612C50.876 168.12 50.732 168.566 50.444 168.95C50.156 169.33 49.774 169.626 49.298 169.838C48.822 170.05 48.304 170.156 47.744 170.156ZM56.5448 164H58.0088V170H56.5448L56.4788 169.256C56.3148 169.524 56.0968 169.742 55.8248 169.91C55.5568 170.074 55.2388 170.156 54.8708 170.156C54.4268 170.156 54.0108 170.072 53.6228 169.904C53.2348 169.736 52.8928 169.504 52.5968 169.208C52.3048 168.912 52.0748 168.57 51.9068 168.182C51.7428 167.794 51.6608 167.378 51.6608 166.934C51.6608 166.506 51.7388 166.104 51.8948 165.728C52.0548 165.352 52.2768 165.022 52.5608 164.738C52.8448 164.454 53.1728 164.232 53.5448 164.072C53.9168 163.912 54.3168 163.832 54.7448 163.832C55.1408 163.832 55.4948 163.92 55.8068 164.096C56.1228 164.272 56.3908 164.496 56.6108 164.768L56.5448 164ZM54.8348 168.746C55.1468 168.746 55.4228 168.668 55.6628 168.512C55.9028 168.356 56.0908 168.146 56.2268 167.882C56.3628 167.614 56.4308 167.32 56.4308 167C56.4308 166.676 56.3628 166.382 56.2268 166.118C56.0908 165.85 55.9008 165.638 55.6568 165.482C55.4168 165.326 55.1428 165.248 54.8348 165.248C54.5268 165.248 54.2448 165.328 53.9888 165.488C53.7368 165.644 53.5348 165.854 53.3828 166.118C53.2348 166.382 53.1608 166.676 53.1608 167C53.1608 167.324 53.2368 167.618 53.3888 167.882C53.5408 168.146 53.7428 168.356 53.9948 168.512C54.2508 168.668 54.5308 168.746 54.8348 168.746ZM62.6488 170H60.7588L58.5748 163.994H60.1348L61.7068 168.314L63.2728 163.994H64.8328L62.6488 170ZM68.1256 170.156C67.5736 170.156 67.0696 170.014 66.6136 169.73C66.1616 169.446 65.7996 169.064 65.5276 168.584C65.2596 168.104 65.1256 167.574 65.1256 166.994C65.1256 166.558 65.2036 166.15 65.3596 165.77C65.5156 165.386 65.7296 165.05 66.0016 164.762C66.2776 164.47 66.5976 164.242 66.9616 164.078C67.3256 163.914 67.7136 163.832 68.1256 163.832C68.5936 163.832 69.0216 163.932 69.4096 164.132C69.8016 164.328 70.1336 164.598 70.4056 164.942C70.6776 165.286 70.8756 165.678 70.9996 166.118C71.1236 166.558 71.1516 167.018 71.0836 167.498H66.6976C66.7536 167.722 66.8456 167.924 66.9736 168.104C67.1016 168.28 67.2636 168.422 67.4596 168.53C67.6556 168.634 67.8776 168.688 68.1256 168.692C68.3816 168.696 68.6136 168.636 68.8216 168.512C69.0336 168.384 69.2096 168.212 69.3496 167.996L70.8436 168.344C70.5996 168.876 70.2356 169.312 69.7516 169.652C69.2676 169.988 68.7256 170.156 68.1256 170.156ZM66.6496 166.4H69.6016C69.5576 166.16 69.4636 165.944 69.3196 165.752C69.1796 165.556 69.0056 165.4 68.7976 165.284C68.5896 165.168 68.3656 165.11 68.1256 165.11C67.8856 165.11 67.6636 165.168 67.4596 165.284C67.2556 165.396 67.0816 165.55 66.9376 165.746C66.7976 165.938 66.7016 166.156 66.6496 166.4Z" fill="#BABABA"/>
<rect x="13.5" y="37.5" width="498" height="30" rx="7.5" fill="white" fill-opacity="0.08" stroke="#282828"/>
<path d="M26.6037 50.6719C26.5639 50.2997 26.3963 50.0099 26.1009 49.8026C25.8082 49.5952 25.4276 49.4915 24.9588 49.4915C24.6293 49.4915 24.3466 49.5412 24.1108 49.6406C23.875 49.7401 23.6946 49.875 23.5696 50.0455C23.4446 50.2159 23.3807 50.4105 23.3778 50.6293C23.3778 50.8111 23.419 50.9687 23.5014 51.1023C23.5866 51.2358 23.7017 51.3494 23.8466 51.4432C23.9915 51.5341 24.152 51.6108 24.3281 51.6733C24.5043 51.7358 24.6818 51.7884 24.8608 51.831L25.679 52.0355C26.0085 52.1122 26.3253 52.2159 26.6293 52.3466C26.9361 52.4773 27.2102 52.642 27.4517 52.8409C27.696 53.0398 27.8892 53.2798 28.0312 53.5611C28.1733 53.8423 28.2443 54.1719 28.2443 54.5497C28.2443 55.0611 28.1136 55.5114 27.8523 55.9006C27.5909 56.2869 27.2131 56.5895 26.7188 56.8082C26.2273 57.0241 25.6321 57.1321 24.9332 57.1321C24.2543 57.1321 23.6648 57.027 23.1648 56.8168C22.6676 56.6065 22.2784 56.2997 21.9972 55.8963C21.7188 55.4929 21.5682 55.0014 21.5455 54.4219H23.1009C23.1236 54.7259 23.2173 54.9787 23.3821 55.1804C23.5469 55.3821 23.7614 55.5327 24.0256 55.6321C24.2926 55.7315 24.5909 55.7812 24.9205 55.7812C25.2642 55.7812 25.5653 55.7301 25.8239 55.6278C26.0852 55.5227 26.2898 55.3778 26.4375 55.1932C26.5852 55.0057 26.6605 54.7869 26.6634 54.5369C26.6605 54.3097 26.5938 54.1222 26.4631 53.9744C26.3324 53.8239 26.1491 53.6989 25.9134 53.5994C25.6804 53.4972 25.4077 53.4062 25.0952 53.3267L24.1023 53.071C23.3835 52.8864 22.8153 52.6065 22.3977 52.2315C21.983 51.8537 21.7756 51.3523 21.7756 50.7273C21.7756 50.2131 21.9148 49.7628 22.1932 49.3764C22.4744 48.9901 22.8565 48.6903 23.3395 48.4773C23.8224 48.2614 24.3693 48.1534 24.9801 48.1534C25.5994 48.1534 26.142 48.2614 26.608 48.4773C27.0767 48.6903 27.4446 48.9872 27.7116 49.3679C27.9787 49.7457 28.1165 50.1804 28.125 50.6719H26.6037ZM32.6907 57.1278C32.0373 57.1278 31.4762 56.9844 31.0075 56.6974C30.5415 56.4105 30.1822 56.0142 29.9293 55.5085C29.6793 55 29.5543 54.4148 29.5543 53.7528C29.5543 53.0881 29.6822 52.5014 29.9379 51.9929C30.1935 51.4815 30.5543 51.0838 31.0202 50.7997C31.489 50.5128 32.043 50.3693 32.6822 50.3693C33.2134 50.3693 33.6836 50.4673 34.0927 50.6634C34.5046 50.8565 34.8327 51.1307 35.0771 51.4858C35.3214 51.8381 35.4606 52.25 35.4947 52.7216H34.0202C33.9606 52.4062 33.8185 52.1435 33.5941 51.9332C33.3725 51.7202 33.0756 51.6136 32.7035 51.6136C32.3881 51.6136 32.1112 51.6989 31.8725 51.8693C31.6339 52.0369 31.4478 52.2784 31.3143 52.5938C31.1836 52.9091 31.1183 53.2869 31.1183 53.7273C31.1183 54.1733 31.1836 54.5568 31.3143 54.8778C31.445 55.196 31.6282 55.4418 31.864 55.6151C32.1026 55.7855 32.3825 55.8707 32.7035 55.8707C32.9308 55.8707 33.1339 55.8281 33.3129 55.7429C33.4947 55.6548 33.6467 55.5284 33.7688 55.3636C33.891 55.1989 33.9748 54.9986 34.0202 54.7628H35.4947C35.4577 55.2259 35.3214 55.6364 35.0856 55.9943C34.8498 56.3494 34.5288 56.6278 34.1225 56.8295C33.7163 57.0284 33.239 57.1278 32.6907 57.1278ZM37.0114 57V50.4545H38.5071V51.5455H38.5753C38.6946 51.1676 38.8991 50.8764 39.1889 50.6719C39.4815 50.4645 39.8153 50.3608 40.1903 50.3608C40.2756 50.3608 40.3707 50.3651 40.4759 50.3736C40.5838 50.3793 40.6733 50.3892 40.7443 50.4034V51.8224C40.679 51.7997 40.5753 51.7798 40.4332 51.7628C40.294 51.7429 40.1591 51.733 40.0284 51.733C39.7472 51.733 39.4943 51.794 39.2699 51.9162C39.0483 52.0355 38.8736 52.2017 38.7457 52.4148C38.6179 52.6278 38.554 52.8736 38.554 53.152V57H37.0114ZM42.0192 57V50.4545H43.5618V57H42.0192ZM42.7947 49.5256C42.5504 49.5256 42.3402 49.4446 42.1641 49.2827C41.9879 49.1179 41.8999 48.9205 41.8999 48.6903C41.8999 48.4574 41.9879 48.2599 42.1641 48.098C42.3402 47.9332 42.5504 47.8509 42.7947 47.8509C43.0419 47.8509 43.2521 47.9332 43.4254 48.098C43.6016 48.2599 43.6896 48.4574 43.6896 48.6903C43.6896 48.9205 43.6016 49.1179 43.4254 49.2827C43.2521 49.4446 43.0419 49.5256 42.7947 49.5256ZM45.3981 59.4545V50.4545H46.9151V51.5369H47.0046C47.0842 51.3778 47.1964 51.2088 47.3413 51.0298C47.4862 50.848 47.6822 50.6932 47.9293 50.5653C48.1765 50.4347 48.4918 50.3693 48.8754 50.3693C49.381 50.3693 49.837 50.4986 50.2433 50.7571C50.6523 51.0128 50.9762 51.392 51.2148 51.8949C51.4563 52.3949 51.5771 53.0085 51.5771 53.7358C51.5771 54.4545 51.4592 55.0653 51.2234 55.5682C50.9876 56.071 50.6665 56.4545 50.2603 56.7188C49.854 56.983 49.3938 57.1151 48.8796 57.1151C48.5046 57.1151 48.1935 57.0526 47.9464 56.9276C47.6992 56.8026 47.5004 56.652 47.3498 56.4759C47.2021 56.2969 47.087 56.1278 47.0046 55.9688H46.9407V59.4545H45.3981ZM46.9109 53.7273C46.9109 54.1506 46.9705 54.5213 47.0898 54.8395C47.212 55.1577 47.3867 55.4062 47.614 55.5852C47.8441 55.7614 48.1225 55.8494 48.4492 55.8494C48.7901 55.8494 49.0756 55.7585 49.3058 55.5767C49.5359 55.392 49.7092 55.1406 49.8256 54.8224C49.945 54.5014 50.0046 54.1364 50.0046 53.7273C50.0046 53.321 49.9464 52.9602 49.8299 52.6449C49.7134 52.3295 49.5401 52.0824 49.31 51.9034C49.0799 51.7244 48.793 51.6349 48.4492 51.6349C48.1197 51.6349 47.8398 51.7216 47.6097 51.8949C47.3796 52.0682 47.2049 52.3111 47.0856 52.6236C46.9691 52.9361 46.9109 53.304 46.9109 53.7273ZM56.4165 50.4545V51.6477H52.6538V50.4545H56.4165ZM53.5827 48.8864H55.1254V55.0312C55.1254 55.2386 55.1566 55.3977 55.2191 55.5085C55.2844 55.6165 55.3697 55.6903 55.4748 55.7301C55.5799 55.7699 55.6964 55.7898 55.8242 55.7898C55.9208 55.7898 56.0089 55.7827 56.0884 55.7685C56.1708 55.7543 56.2333 55.7415 56.2759 55.7301L56.5359 56.9361C56.4535 56.9645 56.3356 56.9957 56.1822 57.0298C56.0316 57.0639 55.8469 57.0838 55.6282 57.0895C55.2418 57.1009 54.8938 57.0426 54.5842 56.9148C54.2745 56.7841 54.0288 56.5824 53.8469 56.3097C53.668 56.0369 53.5799 55.696 53.5827 55.2869V48.8864Z" fill="white" fill-opacity="0.8"/>
<path d="M21.6591 23.6364C21.6591 24.5767 21.483 25.3821 21.1307 26.0526C20.7813 26.7202 20.304 27.2315 19.6989 27.5866C19.0966 27.9418 18.4134 28.1193 17.6491 28.1193C16.8849 28.1193 16.2003 27.9418 15.5952 27.5866C14.9929 27.2287 14.5156 26.7159 14.1634 26.0483C13.8139 25.3778 13.6392 24.5739 13.6392 23.6364C13.6392 22.696 13.8139 21.892 14.1634 21.2244C14.5156 20.554 14.9929 20.0412 15.5952 19.6861C16.2003 19.331 16.8849 19.1534 17.6491 19.1534C18.4134 19.1534 19.0966 19.331 19.6989 19.6861C20.304 20.0412 20.7813 20.554 21.1307 21.2244C21.483 21.892 21.6591 22.696 21.6591 23.6364ZM20.0696 23.6364C20.0696 22.9744 19.9659 22.4162 19.7585 21.9616C19.554 21.5043 19.2699 21.1591 18.9062 20.9261C18.5426 20.6903 18.1236 20.5724 17.6491 20.5724C17.1747 20.5724 16.7557 20.6903 16.392 20.9261C16.0284 21.1591 15.7429 21.5043 15.5355 21.9616C15.331 22.4162 15.2287 22.9744 15.2287 23.6364C15.2287 24.2983 15.331 24.858 15.5355 25.3153C15.7429 25.7699 16.0284 26.1151 16.392 26.3509C16.7557 26.5838 17.1747 26.7003 17.6491 26.7003C18.1236 26.7003 18.5426 26.5838 18.9062 26.3509C19.2699 26.1151 19.554 25.7699 19.7585 25.3153C19.9659 24.858 20.0696 24.2983 20.0696 23.6364ZM27.7575 25.2472V21.4545H29.3001V28H27.8043V26.8366H27.7362C27.5884 27.2031 27.3455 27.5028 27.0075 27.7358C26.6722 27.9687 26.2589 28.0852 25.7674 28.0852C25.3384 28.0852 24.9592 27.9901 24.6296 27.7997C24.3029 27.6065 24.0472 27.3267 23.8626 26.9602C23.6779 26.5909 23.5856 26.1449 23.5856 25.6222V21.4545H25.1282V25.3835C25.1282 25.7983 25.2418 26.1278 25.4691 26.3722C25.6964 26.6165 25.9947 26.7386 26.364 26.7386C26.5913 26.7386 26.8114 26.6832 27.0245 26.5724C27.2376 26.4616 27.4123 26.2969 27.5487 26.0781C27.6879 25.8565 27.7575 25.5795 27.7575 25.2472ZM34.6548 21.4545V22.6477H30.892V21.4545H34.6548ZM31.821 19.8864H33.3636V26.0312C33.3636 26.2386 33.3949 26.3977 33.4574 26.5085C33.5227 26.6165 33.608 26.6903 33.7131 26.7301C33.8182 26.7699 33.9347 26.7898 34.0625 26.7898C34.1591 26.7898 34.2472 26.7827 34.3267 26.7685C34.4091 26.7543 34.4716 26.7415 34.5142 26.7301L34.7741 27.9361C34.6918 27.9645 34.5739 27.9957 34.4205 28.0298C34.2699 28.0639 34.0852 28.0838 33.8665 28.0895C33.4801 28.1009 33.1321 28.0426 32.8224 27.9148C32.5128 27.7841 32.267 27.5824 32.0852 27.3097C31.9063 27.0369 31.8182 26.696 31.821 26.2869V19.8864ZM36.445 30.4545V21.4545H37.962V22.5369H38.0515C38.131 22.3778 38.2433 22.2088 38.3881 22.0298C38.533 21.848 38.729 21.6932 38.9762 21.5653C39.2234 21.4347 39.5387 21.3693 39.9222 21.3693C40.4279 21.3693 40.8839 21.4986 41.2901 21.7571C41.6992 22.0128 42.0231 22.392 42.2617 22.8949C42.5032 23.3949 42.6239 24.0085 42.6239 24.7358C42.6239 25.4545 42.506 26.0653 42.2702 26.5682C42.0344 27.071 41.7134 27.4545 41.3072 27.7188C40.9009 27.983 40.4407 28.1151 39.9265 28.1151C39.5515 28.1151 39.2404 28.0526 38.9933 27.9276C38.7461 27.8026 38.5472 27.652 38.3967 27.4759C38.2489 27.2969 38.1339 27.1278 38.0515 26.9688H37.9876V30.4545H36.445ZM37.9577 24.7273C37.9577 25.1506 38.0174 25.5213 38.1367 25.8395C38.2589 26.1577 38.4336 26.4062 38.6609 26.5852C38.891 26.7614 39.1694 26.8494 39.4961 26.8494C39.837 26.8494 40.1225 26.7585 40.3526 26.5767C40.5827 26.392 40.756 26.1406 40.8725 25.8224C40.9918 25.5014 41.0515 25.1364 41.0515 24.7273C41.0515 24.321 40.9933 23.9602 40.8768 23.6449C40.7603 23.3295 40.587 23.0824 40.3569 22.9034C40.1268 22.7244 39.8398 22.6349 39.4961 22.6349C39.1665 22.6349 38.8867 22.7216 38.6566 22.8949C38.4265 23.0682 38.2518 23.3111 38.1325 23.6236C38.016 23.9361 37.9577 24.304 37.9577 24.7273ZM48.6168 25.2472V21.4545H50.1594V28H48.6637V26.8366H48.5955C48.4478 27.2031 48.2049 27.5028 47.8668 27.7358C47.5316 27.9687 47.1183 28.0852 46.6268 28.0852C46.1978 28.0852 45.8185 27.9901 45.489 27.7997C45.1623 27.6065 44.9066 27.3267 44.7219 26.9602C44.5373 26.5909 44.445 26.1449 44.445 25.6222V21.4545H45.9876V25.3835C45.9876 25.7983 46.1012 26.1278 46.3285 26.3722C46.5558 26.6165 46.854 26.7386 47.2234 26.7386C47.4506 26.7386 47.6708 26.6832 47.8839 26.5724C48.0969 26.4616 48.2717 26.2969 48.408 26.0781C48.5472 25.8565 48.6168 25.5795 48.6168 25.2472ZM55.5142 21.4545V22.6477H51.7514V21.4545H55.5142ZM52.6804 19.8864H54.223V26.0312C54.223 26.2386 54.2543 26.3977 54.3168 26.5085C54.3821 26.6165 54.4673 26.6903 54.5724 26.7301C54.6776 26.7699 54.794 26.7898 54.9219 26.7898C55.0185 26.7898 55.1065 26.7827 55.1861 26.7685C55.2685 26.7543 55.331 26.7415 55.3736 26.7301L55.6335 27.9361C55.5511 27.9645 55.4332 27.9957 55.2798 28.0298C55.1293 28.0639 54.9446 28.0838 54.7259 28.0895C54.3395 28.1009 53.9915 28.0426 53.6818 27.9148C53.3722 27.7841 53.1264 27.5824 52.9446 27.3097C52.7656 27.0369 52.6776 26.696 52.6804 26.2869V19.8864Z" fill="white" fill-opacity="0.7"/>
<path d="M28.331 103.217H26.7372C26.6918 102.956 26.608 102.724 26.4858 102.523C26.3636 102.318 26.2116 102.145 26.0298 102.003C25.848 101.861 25.6406 101.754 25.4077 101.683C25.1776 101.609 24.929 101.572 24.6619 101.572C24.1875 101.572 23.767 101.692 23.4006 101.93C23.0341 102.166 22.7472 102.513 22.5398 102.97C22.3324 103.425 22.2287 103.98 22.2287 104.636C22.2287 105.304 22.3324 105.866 22.5398 106.324C22.75 106.778 23.0369 107.122 23.4006 107.355C23.767 107.585 24.1861 107.7 24.6577 107.7C24.919 107.7 25.1634 107.666 25.3906 107.598C25.6207 107.527 25.8267 107.423 26.0085 107.287C26.1932 107.151 26.348 106.983 26.473 106.784C26.6009 106.585 26.6889 106.358 26.7372 106.102L28.331 106.111C28.2713 106.526 28.142 106.915 27.9432 107.278C27.7472 107.642 27.4901 107.963 27.1719 108.241C26.8537 108.517 26.4815 108.733 26.0554 108.889C25.6293 109.043 25.1563 109.119 24.6364 109.119C23.8693 109.119 23.1847 108.942 22.5824 108.587C21.9801 108.232 21.5057 107.719 21.1591 107.048C20.8125 106.378 20.6392 105.574 20.6392 104.636C20.6392 103.696 20.8139 102.892 21.1634 102.224C21.5128 101.554 21.9886 101.041 22.5909 100.686C23.1932 100.331 23.875 100.153 24.6364 100.153C25.1222 100.153 25.5739 100.222 25.9915 100.358C26.4091 100.494 26.7813 100.695 27.108 100.959C27.4347 101.22 27.7031 101.541 27.9134 101.922C28.1264 102.3 28.2656 102.732 28.331 103.217ZM34.3825 106.247V102.455H35.9251V109H34.4293V107.837H34.3612C34.2134 108.203 33.9705 108.503 33.6325 108.736C33.2972 108.969 32.8839 109.085 32.3924 109.085C31.9634 109.085 31.5842 108.99 31.2546 108.8C30.9279 108.607 30.6722 108.327 30.4876 107.96C30.3029 107.591 30.2106 107.145 30.2106 106.622V102.455H31.7532V106.384C31.7532 106.798 31.8668 107.128 32.0941 107.372C32.3214 107.616 32.6197 107.739 32.989 107.739C33.2163 107.739 33.4364 107.683 33.6495 107.572C33.8626 107.462 34.0373 107.297 34.1737 107.078C34.3129 106.857 34.3825 106.58 34.3825 106.247ZM43.1847 104.185L41.7784 104.338C41.7386 104.196 41.669 104.062 41.5696 103.938C41.473 103.812 41.3423 103.712 41.1776 103.635C41.0128 103.558 40.8111 103.52 40.5724 103.52C40.2514 103.52 39.9815 103.589 39.7628 103.729C39.5469 103.868 39.4403 104.048 39.4432 104.27C39.4403 104.46 39.5099 104.615 39.652 104.734C39.7969 104.854 40.0355 104.952 40.3679 105.028L41.4844 105.267C42.1037 105.401 42.5639 105.612 42.8651 105.902C43.169 106.192 43.3224 106.571 43.3253 107.04C43.3224 107.452 43.2017 107.815 42.9631 108.131C42.7273 108.443 42.3991 108.687 41.9787 108.864C41.5582 109.04 41.0753 109.128 40.5298 109.128C39.7287 109.128 39.0838 108.96 38.5952 108.625C38.1065 108.287 37.8153 107.817 37.7216 107.214L39.2259 107.07C39.294 107.365 39.4389 107.588 39.6605 107.739C39.8821 107.889 40.1705 107.964 40.5256 107.964C40.892 107.964 41.1861 107.889 41.4077 107.739C41.6321 107.588 41.7443 107.402 41.7443 107.18C41.7443 106.993 41.6719 106.838 41.527 106.716C41.3849 106.594 41.1634 106.5 40.8622 106.435L39.7457 106.2C39.1179 106.07 38.6534 105.849 38.3523 105.54C38.0511 105.227 37.902 104.832 37.9048 104.355C37.902 103.952 38.0114 103.602 38.233 103.307C38.4574 103.009 38.7685 102.778 39.1662 102.616C39.5668 102.452 40.0284 102.369 40.5511 102.369C41.3182 102.369 41.9219 102.533 42.3622 102.859C42.8054 103.186 43.0795 103.628 43.1847 104.185ZM48.3658 102.455V103.648H44.603V102.455H48.3658ZM45.532 100.886H47.0746V107.031C47.0746 107.239 47.1058 107.398 47.1683 107.509C47.2337 107.616 47.3189 107.69 47.424 107.73C47.5291 107.77 47.6456 107.79 47.7734 107.79C47.87 107.79 47.9581 107.783 48.0376 107.768C48.12 107.754 48.1825 107.741 48.2251 107.73L48.4851 108.936C48.4027 108.964 48.2848 108.996 48.1314 109.03C47.9808 109.064 47.7962 109.084 47.5774 109.089C47.1911 109.101 46.843 109.043 46.5334 108.915C46.2237 108.784 45.978 108.582 45.7962 108.31C45.6172 108.037 45.5291 107.696 45.532 107.287V100.886ZM52.9407 109.128C52.3015 109.128 51.7475 108.987 51.2788 108.706C50.81 108.425 50.4464 108.031 50.1879 107.526C49.9322 107.02 49.8043 106.429 49.8043 105.753C49.8043 105.077 49.9322 104.484 50.1879 103.976C50.4464 103.467 50.81 103.072 51.2788 102.791C51.7475 102.51 52.3015 102.369 52.9407 102.369C53.5799 102.369 54.1339 102.51 54.6026 102.791C55.0714 103.072 55.4336 103.467 55.6893 103.976C55.9478 104.484 56.0771 105.077 56.0771 105.753C56.0771 106.429 55.9478 107.02 55.6893 107.526C55.4336 108.031 55.0714 108.425 54.6026 108.706C54.1339 108.987 53.5799 109.128 52.9407 109.128ZM52.9492 107.892C53.2958 107.892 53.5856 107.797 53.8185 107.607C54.0515 107.413 54.2248 107.155 54.3384 106.831C54.4549 106.507 54.5131 106.146 54.5131 105.749C54.5131 105.348 54.4549 104.986 54.3384 104.662C54.2248 104.335 54.0515 104.075 53.8185 103.882C53.5856 103.689 53.2958 103.592 52.9492 103.592C52.5941 103.592 52.2987 103.689 52.0629 103.882C51.8299 104.075 51.6552 104.335 51.5387 104.662C51.4251 104.986 51.3683 105.348 51.3683 105.749C51.3683 106.146 51.4251 106.507 51.5387 106.831C51.6552 107.155 51.8299 107.413 52.0629 107.607C52.2987 107.797 52.5941 107.892 52.9492 107.892ZM57.8864 109V102.455H59.3608V103.567H59.4375C59.5739 103.192 59.7997 102.899 60.1151 102.689C60.4304 102.476 60.8068 102.369 61.2443 102.369C61.6875 102.369 62.0611 102.477 62.3651 102.693C62.6719 102.906 62.8878 103.197 63.0128 103.567H63.081C63.2259 103.203 63.4702 102.913 63.8139 102.697C64.1605 102.479 64.571 102.369 65.0455 102.369C65.6477 102.369 66.1392 102.56 66.5199 102.94C66.9006 103.321 67.0909 103.876 67.0909 104.607V109H65.544V104.845C65.544 104.439 65.4361 104.142 65.2202 103.955C65.0043 103.764 64.7401 103.669 64.4276 103.669C64.0554 103.669 63.7642 103.786 63.554 104.018C63.3466 104.249 63.2429 104.548 63.2429 104.918V109H61.7301V104.781C61.7301 104.443 61.6278 104.173 61.4233 103.972C61.2216 103.77 60.9574 103.669 60.6307 103.669C60.4091 103.669 60.2074 103.726 60.0256 103.839C59.8438 103.95 59.6989 104.108 59.5909 104.312C59.483 104.514 59.429 104.75 59.429 105.02V109H57.8864ZM77.4435 102.672C77.4038 102.3 77.2362 102.01 76.9407 101.803C76.6481 101.595 76.2674 101.491 75.7987 101.491C75.4691 101.491 75.1864 101.541 74.9506 101.641C74.7148 101.74 74.5344 101.875 74.4094 102.045C74.2844 102.216 74.2205 102.411 74.2177 102.629C74.2177 102.811 74.2589 102.969 74.3413 103.102C74.4265 103.236 74.5415 103.349 74.6864 103.443C74.8313 103.534 74.9918 103.611 75.168 103.673C75.3441 103.736 75.5217 103.788 75.7006 103.831L76.5188 104.036C76.8484 104.112 77.1651 104.216 77.4691 104.347C77.7759 104.477 78.0501 104.642 78.2915 104.841C78.5359 105.04 78.729 105.28 78.8711 105.561C79.0131 105.842 79.0842 106.172 79.0842 106.55C79.0842 107.061 78.9535 107.511 78.6921 107.901C78.4308 108.287 78.0529 108.589 77.5586 108.808C77.0671 109.024 76.4719 109.132 75.7731 109.132C75.0941 109.132 74.5046 109.027 74.0046 108.817C73.5075 108.607 73.1183 108.3 72.837 107.896C72.5586 107.493 72.408 107.001 72.3853 106.422H73.9407C73.9634 106.726 74.0572 106.979 74.2219 107.18C74.3867 107.382 74.6012 107.533 74.8654 107.632C75.1325 107.732 75.4308 107.781 75.7603 107.781C76.104 107.781 76.4052 107.73 76.6637 107.628C76.9251 107.523 77.1296 107.378 77.2773 107.193C77.4251 107.006 77.5004 106.787 77.5032 106.537C77.5004 106.31 77.4336 106.122 77.3029 105.974C77.1722 105.824 76.989 105.699 76.7532 105.599C76.5202 105.497 76.2475 105.406 75.935 105.327L74.9421 105.071C74.2234 104.886 73.6552 104.607 73.2376 104.232C72.8228 103.854 72.6154 103.352 72.6154 102.727C72.6154 102.213 72.7546 101.763 73.033 101.376C73.3143 100.99 73.6964 100.69 74.1793 100.477C74.6623 100.261 75.2092 100.153 75.82 100.153C76.4393 100.153 76.9819 100.261 77.4478 100.477C77.9165 100.69 78.2844 100.987 78.5515 101.368C78.8185 101.746 78.9563 102.18 78.9648 102.672H77.4435ZM83.7805 109.128C83.1271 109.128 82.5661 108.984 82.0973 108.697C81.6314 108.411 81.272 108.014 81.0192 107.509C80.7692 107 80.6442 106.415 80.6442 105.753C80.6442 105.088 80.772 104.501 81.0277 103.993C81.2834 103.482 81.6442 103.084 82.1101 102.8C82.5788 102.513 83.1328 102.369 83.772 102.369C84.3033 102.369 84.7734 102.467 85.1825 102.663C85.5945 102.857 85.9226 103.131 86.1669 103.486C86.4112 103.838 86.5504 104.25 86.5845 104.722H85.1101C85.0504 104.406 84.9084 104.143 84.6839 103.933C84.4624 103.72 84.1655 103.614 83.7933 103.614C83.478 103.614 83.201 103.699 82.9624 103.869C82.7237 104.037 82.5376 104.278 82.4041 104.594C82.2734 104.909 82.2081 105.287 82.2081 105.727C82.2081 106.173 82.2734 106.557 82.4041 106.878C82.5348 107.196 82.718 107.442 82.9538 107.615C83.1925 107.786 83.4723 107.871 83.7933 107.871C84.0206 107.871 84.2237 107.828 84.4027 107.743C84.5845 107.655 84.7365 107.528 84.8587 107.364C84.9808 107.199 85.0646 106.999 85.1101 106.763H86.5845C86.5476 107.226 86.4112 107.636 86.1754 107.994C85.9396 108.349 85.6186 108.628 85.2124 108.83C84.8061 109.028 84.3288 109.128 83.7805 109.128ZM88.3512 109V102.455H89.8469V103.545H89.9151C90.0344 103.168 90.239 102.876 90.5288 102.672C90.8214 102.464 91.1552 102.361 91.5302 102.361C91.6154 102.361 91.7106 102.365 91.8157 102.374C91.9237 102.379 92.0131 102.389 92.0842 102.403V103.822C92.0188 103.8 91.9151 103.78 91.7731 103.763C91.6339 103.743 91.4989 103.733 91.3683 103.733C91.087 103.733 90.8342 103.794 90.6097 103.916C90.3881 104.036 90.2134 104.202 90.0856 104.415C89.9577 104.628 89.8938 104.874 89.8938 105.152V109H88.3512ZM93.609 109V102.455H95.1516V109H93.609ZM94.3846 101.526C94.1403 101.526 93.93 101.445 93.7539 101.283C93.5778 101.118 93.4897 100.92 93.4897 100.69C93.4897 100.457 93.5778 100.26 93.7539 100.098C93.93 99.9332 94.1403 99.8509 94.3846 99.8509C94.6317 99.8509 94.842 99.9332 95.0153 100.098C95.1914 100.26 95.2795 100.457 95.2795 100.69C95.2795 100.92 95.1914 101.118 95.0153 101.283C94.842 101.445 94.6317 101.526 94.3846 101.526ZM97.2379 111.455V102.455H98.755V103.537H98.8445C98.924 103.378 99.0362 103.209 99.1811 103.03C99.326 102.848 99.522 102.693 99.7692 102.565C100.016 102.435 100.332 102.369 100.715 102.369C101.221 102.369 101.677 102.499 102.083 102.757C102.492 103.013 102.816 103.392 103.055 103.895C103.296 104.395 103.417 105.009 103.417 105.736C103.417 106.455 103.299 107.065 103.063 107.568C102.827 108.071 102.506 108.455 102.1 108.719C101.694 108.983 101.234 109.115 100.719 109.115C100.344 109.115 100.033 109.053 99.7862 108.928C99.5391 108.803 99.3402 108.652 99.1896 108.476C99.0419 108.297 98.9268 108.128 98.8445 107.969H98.7805V111.455H97.2379ZM98.7507 105.727C98.7507 106.151 98.8104 106.521 98.9297 106.839C99.0518 107.158 99.2266 107.406 99.4538 107.585C99.6839 107.761 99.9624 107.849 100.289 107.849C100.63 107.849 100.915 107.759 101.146 107.577C101.376 107.392 101.549 107.141 101.665 106.822C101.785 106.501 101.844 106.136 101.844 105.727C101.844 105.321 101.786 104.96 101.67 104.645C101.553 104.33 101.38 104.082 101.15 103.903C100.92 103.724 100.633 103.635 100.289 103.635C99.9595 103.635 99.6797 103.722 99.4496 103.895C99.2195 104.068 99.0447 104.311 98.9254 104.624C98.8089 104.936 98.7507 105.304 98.7507 105.727ZM108.506 102.455V103.648H104.744V102.455H108.506ZM105.673 100.886H107.215V107.031C107.215 107.239 107.246 107.398 107.309 107.509C107.374 107.616 107.46 107.69 107.565 107.73C107.67 107.77 107.786 107.79 107.914 107.79C108.011 107.79 108.099 107.783 108.178 107.768C108.261 107.754 108.323 107.741 108.366 107.73L108.626 108.936C108.543 108.964 108.425 108.996 108.272 109.03C108.121 109.064 107.937 109.084 107.718 109.089C107.332 109.101 106.984 109.043 106.674 108.915C106.364 108.784 106.119 108.582 105.937 108.31C105.758 108.037 105.67 107.696 105.673 107.287V100.886Z" fill="white" fill-opacity="0.7"/>
<rect x="20" y="120" width="481" height="28" rx="8" fill="#313131"/>
<path d="M31.4922 139H30.0801V132.203L27.8945 133.006V131.77L31.4043 130.469H31.4922V139Z" fill="#6D8A88"/>
<path d="M50.6562 135.303C50.6562 135.646 50.625 135.979 50.5625 136.299C50.5039 136.619 50.418 136.922 50.3047 137.207C50.1836 137.492 50.0332 137.756 49.8535 137.998C49.6738 138.236 49.4668 138.441 49.2324 138.613C49.0059 138.77 48.7539 138.893 48.4766 138.982C48.2031 139.072 47.9023 139.117 47.5742 139.117C47.2344 139.117 46.9219 139.07 46.6367 138.977C46.3555 138.879 46.1035 138.746 45.8809 138.578C45.6543 138.406 45.4551 138.199 45.2832 137.957C45.1152 137.715 44.9746 137.449 44.8613 137.16C44.752 136.883 44.6699 136.588 44.6152 136.275C44.5605 135.959 44.5332 135.635 44.5332 135.303V134.178C44.5332 133.83 44.5625 133.494 44.6211 133.17C44.6797 132.846 44.7676 132.539 44.8848 132.25C44.998 131.973 45.1367 131.719 45.3008 131.488C45.4688 131.254 45.666 131.051 45.8926 130.879C46.1113 130.711 46.3594 130.582 46.6367 130.492C46.918 130.398 47.2266 130.352 47.5625 130.352C47.9023 130.352 48.2148 130.398 48.5 130.492C48.7852 130.586 49.041 130.717 49.2676 130.885C49.4941 131.053 49.6914 131.25 49.8594 131.477C50.0273 131.703 50.168 131.951 50.2812 132.221C50.4062 132.51 50.5 132.82 50.5625 133.152C50.625 133.48 50.6562 133.822 50.6562 134.178V135.303ZM49.2383 134.166C49.2344 133.951 49.2207 133.74 49.1973 133.533C49.1777 133.326 49.1426 133.129 49.0918 132.941C49.0332 132.727 48.9551 132.531 48.8574 132.355C48.7637 132.176 48.6484 132.023 48.5117 131.898C48.3906 131.789 48.252 131.703 48.0957 131.641C47.9395 131.578 47.7617 131.547 47.5625 131.547C47.3711 131.547 47.1992 131.578 47.0469 131.641C46.8945 131.699 46.7617 131.781 46.6484 131.887C46.5117 132.016 46.3965 132.17 46.3027 132.35C46.209 132.525 46.1367 132.723 46.0859 132.941C46.0391 133.129 46.0039 133.328 45.9805 133.539C45.9609 133.746 45.9512 133.955 45.9512 134.166V135.303C45.9512 135.51 45.9609 135.715 45.9805 135.918C46 136.121 46.0332 136.316 46.0801 136.504C46.1309 136.715 46.1992 136.912 46.2852 137.096C46.375 137.275 46.4824 137.428 46.6074 137.553C46.7285 137.67 46.8672 137.764 47.0234 137.834C47.1836 137.9 47.3672 137.934 47.5742 137.934C47.7734 137.934 47.9531 137.9 48.1133 137.834C48.2773 137.768 48.418 137.678 48.5352 137.564C48.6719 137.436 48.7852 137.283 48.875 137.107C48.9688 136.928 49.043 136.73 49.0977 136.516C49.1445 136.328 49.1777 136.133 49.1973 135.93C49.2207 135.723 49.2344 135.514 49.2383 135.303V134.166ZM53.5918 135.748V139H52.1855V130.469H55.0391C55.4688 130.473 55.8633 130.537 56.2227 130.662C56.5859 130.787 56.8984 130.965 57.1602 131.195C57.4219 131.426 57.625 131.705 57.7695 132.033C57.9141 132.361 57.9863 132.73 57.9863 133.141C57.9863 133.535 57.9141 133.893 57.7695 134.213C57.625 134.529 57.4219 134.801 57.1602 135.027C56.8984 135.258 56.5859 135.436 56.2227 135.561C55.8633 135.686 55.4688 135.748 55.0391 135.748H53.5918ZM53.5918 134.6H55.0391C55.2773 134.596 55.4902 134.559 55.6777 134.488C55.8691 134.414 56.0312 134.312 56.1641 134.184C56.2969 134.055 56.3965 133.902 56.4629 133.727C56.5332 133.551 56.5684 133.359 56.5684 133.152C56.5684 132.926 56.5332 132.721 56.4629 132.537C56.3965 132.35 56.2969 132.188 56.1641 132.051C56.0312 131.914 55.8691 131.809 55.6777 131.734C55.4902 131.66 55.2773 131.621 55.0391 131.617H53.5918V134.6ZM64.6543 140.107H59.2988V139H64.6543V140.107ZM69.3594 135.689H67.918V139H66.5117V130.469H69.2188C69.6602 130.473 70.0664 130.529 70.4375 130.639C70.8086 130.748 71.1289 130.908 71.3984 131.119C71.6641 131.334 71.8711 131.602 72.0195 131.922C72.168 132.238 72.2422 132.609 72.2422 133.035C72.2422 133.328 72.2031 133.594 72.125 133.832C72.0508 134.07 71.9453 134.285 71.8086 134.477C71.6719 134.668 71.5078 134.836 71.3164 134.98C71.125 135.125 70.9121 135.25 70.6777 135.355L72.5 138.924V139H70.9941L69.3594 135.689ZM67.918 134.541H69.2363C69.4863 134.537 69.7109 134.5 69.9102 134.43C70.1133 134.355 70.2852 134.25 70.4258 134.113C70.5508 133.996 70.6484 133.852 70.7188 133.68C70.7891 133.508 70.8242 133.312 70.8242 133.094C70.8242 132.848 70.7852 132.633 70.707 132.449C70.6328 132.262 70.5215 132.105 70.373 131.98C70.2363 131.863 70.0703 131.775 69.875 131.717C69.6797 131.654 69.4609 131.621 69.2188 131.617H67.918V134.541ZM78.7168 135.174H75.1895V137.84H79.3086V139H73.7773V130.469H79.2793V131.635H75.1895V134.037H78.7168V135.174ZM86.9609 131.635H84.3301V139H82.9297V131.635H80.3164V130.469H86.9609V131.635ZM93.6641 130.469L93.6699 136.176C93.6699 136.617 93.6016 137.02 93.4648 137.383C93.332 137.742 93.1426 138.051 92.8965 138.309C92.6465 138.566 92.3457 138.766 91.9941 138.906C91.6465 139.047 91.2559 139.117 90.8223 139.117C90.3965 139.117 90.0117 139.049 89.668 138.912C89.3242 138.771 89.0312 138.572 88.7891 138.314C88.543 138.057 88.3516 137.746 88.2148 137.383C88.082 137.02 88.0137 136.617 88.0098 136.176L88.0215 130.469H89.4102L89.4219 136.176C89.4258 136.445 89.459 136.693 89.5215 136.92C89.584 137.143 89.6758 137.332 89.7969 137.488C89.9141 137.637 90.0566 137.754 90.2246 137.84C90.3965 137.922 90.5957 137.963 90.8223 137.963C91.0527 137.963 91.2559 137.922 91.4316 137.84C91.6113 137.754 91.7617 137.633 91.8828 137.477C92.0039 137.316 92.0957 137.127 92.1582 136.908C92.2207 136.686 92.2559 136.441 92.2637 136.176L92.2754 130.469H93.6641ZM98.1875 135.689H96.7461V139H95.3398V130.469H98.0469C98.4883 130.473 98.8945 130.529 99.2656 130.639C99.6367 130.748 99.957 130.908 100.227 131.119C100.492 131.334 100.699 131.602 100.848 131.922C100.996 132.238 101.07 132.609 101.07 133.035C101.07 133.328 101.031 133.594 100.953 133.832C100.879 134.07 100.773 134.285 100.637 134.477C100.5 134.668 100.336 134.836 100.145 134.98C99.9531 135.125 99.7402 135.25 99.5059 135.355L101.328 138.924V139H99.8223L98.1875 135.689ZM96.7461 134.541H98.0645C98.3145 134.537 98.5391 134.5 98.7383 134.43C98.9414 134.355 99.1133 134.25 99.2539 134.113C99.3789 133.996 99.4766 133.852 99.5469 133.68C99.6172 133.508 99.6523 133.312 99.6523 133.094C99.6523 132.848 99.6133 132.633 99.5352 132.449C99.4609 132.262 99.3496 132.105 99.2012 131.98C99.0645 131.863 98.8984 131.775 98.7031 131.717C98.5078 131.654 98.2891 131.621 98.0469 131.617H96.7461V134.541ZM108.037 139H106.625L103.854 133.129L103.848 139H102.424V130.469H103.854L106.607 136.316L106.619 130.469H108.037V139Z" fill="#7BBADD"/>
<path d="M117.986 132.045C117.986 131.854 118.012 131.654 118.062 131.447C118.113 131.236 118.186 131.029 118.279 130.826C118.373 130.627 118.482 130.438 118.607 130.258C118.736 130.078 118.881 129.92 119.041 129.783L119.721 130.229C119.561 130.49 119.432 130.768 119.334 131.061C119.24 131.35 119.193 131.674 119.193 132.033V133.006H117.986V132.045ZM119.943 132.045C119.943 131.854 119.969 131.654 120.02 131.447C120.07 131.236 120.143 131.029 120.236 130.826C120.33 130.627 120.439 130.438 120.564 130.258C120.693 130.078 120.838 129.92 120.998 129.783L121.678 130.229C121.518 130.49 121.389 130.768 121.291 131.061C121.197 131.35 121.15 131.674 121.15 132.033V133.006H119.943V132.045ZM125.586 133.562C125.668 133.438 125.76 133.322 125.861 133.217C125.963 133.111 126.07 133.02 126.184 132.941C126.359 132.812 126.553 132.715 126.764 132.648C126.979 132.578 127.205 132.543 127.443 132.543C127.775 132.543 128.078 132.592 128.352 132.689C128.629 132.787 128.865 132.939 129.061 133.146C129.256 133.354 129.406 133.619 129.512 133.943C129.621 134.264 129.676 134.648 129.676 135.098V139H128.275V135.086C128.275 134.852 128.246 134.646 128.188 134.471C128.133 134.295 128.051 134.152 127.941 134.043C127.828 133.926 127.689 133.84 127.525 133.785C127.365 133.727 127.18 133.697 126.969 133.697C126.805 133.697 126.648 133.717 126.5 133.756C126.355 133.795 126.223 133.852 126.102 133.926C126 133.984 125.904 134.055 125.814 134.137C125.729 134.219 125.652 134.311 125.586 134.412V139H124.186V130H125.586V133.562ZM134.352 139.117C133.883 139.117 133.453 139.039 133.062 138.883C132.676 138.727 132.344 138.51 132.066 138.232C131.789 137.959 131.574 137.637 131.422 137.266C131.273 136.891 131.199 136.486 131.199 136.053V135.812C131.199 135.316 131.277 134.867 131.434 134.465C131.59 134.062 131.805 133.719 132.078 133.434C132.352 133.148 132.668 132.93 133.027 132.777C133.391 132.621 133.777 132.543 134.188 132.543C134.645 132.543 135.049 132.621 135.4 132.777C135.752 132.93 136.047 133.143 136.285 133.416C136.523 133.693 136.703 134.023 136.824 134.406C136.945 134.789 137.006 135.207 137.006 135.66V136.264H132.611V136.293C132.654 136.57 132.721 136.803 132.811 136.99C132.9 137.178 133.023 137.346 133.18 137.494C133.336 137.65 133.52 137.771 133.73 137.857C133.945 137.943 134.18 137.986 134.434 137.986C134.781 137.986 135.105 137.92 135.406 137.787C135.707 137.65 135.955 137.457 136.15 137.207L136.9 137.934C136.689 138.238 136.365 138.512 135.928 138.754C135.494 138.996 134.969 139.117 134.352 139.117ZM134.182 133.68C133.982 133.68 133.797 133.717 133.625 133.791C133.457 133.861 133.307 133.963 133.174 134.096C133.041 134.232 132.93 134.396 132.84 134.588C132.75 134.779 132.684 134.996 132.641 135.238H135.623V135.145C135.623 134.961 135.59 134.779 135.523 134.6C135.457 134.416 135.363 134.256 135.242 134.119C135.125 133.986 134.977 133.881 134.797 133.803C134.621 133.721 134.416 133.68 134.182 133.68ZM138.869 130H142.285V137.84H144.207V139H138.869V137.84H140.873V131.166H138.869V130ZM146.076 130H149.492V137.84H151.414V139H146.076V137.84H148.08V131.166H146.076V130ZM152.756 135.771C152.756 135.311 152.822 134.885 152.955 134.494C153.088 134.1 153.281 133.758 153.535 133.469C153.785 133.18 154.092 132.953 154.455 132.789C154.818 132.625 155.232 132.543 155.697 132.543C156.162 132.543 156.576 132.625 156.939 132.789C157.307 132.953 157.617 133.18 157.871 133.469C158.121 133.758 158.312 134.1 158.445 134.494C158.578 134.885 158.645 135.311 158.645 135.771V135.895C158.645 136.359 158.578 136.787 158.445 137.178C158.312 137.568 158.121 137.908 157.871 138.197C157.621 138.486 157.312 138.713 156.945 138.877C156.582 139.041 156.17 139.123 155.709 139.123C155.244 139.123 154.828 139.041 154.461 138.877C154.094 138.713 153.785 138.486 153.535 138.197C153.281 137.908 153.088 137.568 152.955 137.178C152.822 136.787 152.756 136.359 152.756 135.895V135.771ZM154.156 135.895C154.156 136.18 154.186 136.449 154.244 136.703C154.307 136.957 154.402 137.18 154.531 137.371C154.656 137.562 154.816 137.715 155.012 137.828C155.207 137.938 155.439 137.992 155.709 137.992C155.971 137.992 156.199 137.938 156.395 137.828C156.59 137.715 156.75 137.562 156.875 137.371C157 137.18 157.092 136.957 157.15 136.703C157.213 136.449 157.244 136.18 157.244 135.895V135.771C157.244 135.494 157.213 135.229 157.15 134.975C157.088 134.721 156.996 134.498 156.875 134.307C156.746 134.115 156.584 133.963 156.389 133.85C156.197 133.736 155.967 133.68 155.697 133.68C155.432 133.68 155.201 133.736 155.006 133.85C154.814 133.963 154.656 134.115 154.531 134.307C154.402 134.498 154.307 134.721 154.244 134.975C154.186 135.229 154.156 135.494 154.156 135.771V135.895ZM165.553 140.107H160.197V139H165.553V140.107ZM167.955 139L166.73 132.66H167.996L168.582 136.545L168.682 137.277L168.811 136.545L169.637 132.66H170.557L171.383 136.533L171.518 137.301L171.629 136.527L172.197 132.66H173.469L172.244 139H171.055L170.234 135.402L170.088 134.617L169.947 135.402L169.145 139H167.955ZM174.377 135.771C174.377 135.311 174.443 134.885 174.576 134.494C174.709 134.1 174.902 133.758 175.156 133.469C175.406 133.18 175.713 132.953 176.076 132.789C176.439 132.625 176.854 132.543 177.318 132.543C177.783 132.543 178.197 132.625 178.561 132.789C178.928 132.953 179.238 133.18 179.492 133.469C179.742 133.758 179.934 134.1 180.066 134.494C180.199 134.885 180.266 135.311 180.266 135.771V135.895C180.266 136.359 180.199 136.787 180.066 137.178C179.934 137.568 179.742 137.908 179.492 138.197C179.242 138.486 178.934 138.713 178.566 138.877C178.203 139.041 177.791 139.123 177.33 139.123C176.865 139.123 176.449 139.041 176.082 138.877C175.715 138.713 175.406 138.486 175.156 138.197C174.902 137.908 174.709 137.568 174.576 137.178C174.443 136.787 174.377 136.359 174.377 135.895V135.771ZM175.777 135.895C175.777 136.18 175.807 136.449 175.865 136.703C175.928 136.957 176.023 137.18 176.152 137.371C176.277 137.562 176.438 137.715 176.633 137.828C176.828 137.938 177.061 137.992 177.33 137.992C177.592 137.992 177.82 137.938 178.016 137.828C178.211 137.715 178.371 137.562 178.496 137.371C178.621 137.18 178.713 136.957 178.771 136.703C178.834 136.449 178.865 136.18 178.865 135.895V135.771C178.865 135.494 178.834 135.229 178.771 134.975C178.709 134.721 178.617 134.498 178.496 134.307C178.367 134.115 178.205 133.963 178.01 133.85C177.818 133.736 177.588 133.68 177.318 133.68C177.053 133.68 176.822 133.736 176.627 133.85C176.436 133.963 176.277 134.115 176.152 134.307C176.023 134.498 175.928 134.721 175.865 134.975C175.807 135.229 175.777 135.494 175.777 135.771V135.895ZM186.225 132.543C186.451 132.543 186.67 132.559 186.881 132.59C187.096 132.621 187.264 132.658 187.385 132.701L187.186 134.084C186.971 134.037 186.758 134.002 186.547 133.979C186.34 133.955 186.133 133.943 185.926 133.943C185.691 133.943 185.48 133.967 185.293 134.014C185.105 134.061 184.939 134.133 184.795 134.23C184.639 134.324 184.506 134.443 184.396 134.588C184.287 134.732 184.195 134.898 184.121 135.086V139H182.721V132.66H184.033L184.092 133.539L184.098 133.686C184.355 133.33 184.664 133.051 185.023 132.848C185.387 132.645 185.787 132.543 186.225 132.543ZM189.318 130H192.734V137.84H194.656V139H189.318V137.84H191.322V131.166H189.318V130ZM196.068 135.783C196.068 135.303 196.125 134.865 196.238 134.471C196.355 134.072 196.523 133.73 196.742 133.445C196.957 133.16 197.219 132.939 197.527 132.783C197.84 132.623 198.191 132.543 198.582 132.543C198.934 132.543 199.24 132.605 199.502 132.73C199.768 132.852 200.002 133.025 200.205 133.252V130H201.605V139H200.334L200.27 138.338C200.066 138.588 199.824 138.781 199.543 138.918C199.262 139.051 198.938 139.117 198.57 139.117C198.184 139.117 197.836 139.037 197.527 138.877C197.219 138.713 196.957 138.486 196.742 138.197C196.527 137.912 196.361 137.574 196.244 137.184C196.127 136.789 196.068 136.363 196.068 135.906V135.783ZM197.469 135.906C197.469 136.188 197.496 136.453 197.551 136.703C197.605 136.953 197.691 137.17 197.809 137.354C197.926 137.545 198.076 137.695 198.26 137.805C198.443 137.91 198.664 137.963 198.922 137.963C199.238 137.963 199.5 137.895 199.707 137.758C199.914 137.617 200.08 137.428 200.205 137.189V134.465C200.08 134.23 199.914 134.045 199.707 133.908C199.504 133.768 199.246 133.697 198.934 133.697C198.672 133.697 198.447 133.752 198.26 133.861C198.076 133.971 197.928 134.121 197.814 134.312C197.693 134.504 197.605 134.727 197.551 134.98C197.496 135.23 197.469 135.498 197.469 135.783V135.906ZM206.047 130.814C206.047 131.006 206.021 131.207 205.971 131.418C205.92 131.625 205.85 131.828 205.76 132.027C205.662 132.227 205.549 132.418 205.42 132.602C205.295 132.781 205.154 132.939 204.998 133.076L204.318 132.631C204.482 132.369 204.611 132.094 204.705 131.805C204.799 131.512 204.846 131.184 204.846 130.82V129.865H206.047V130.814ZM208.08 130.814C208.08 131.006 208.055 131.207 208.004 131.418C207.953 131.625 207.883 131.828 207.793 132.027C207.695 132.227 207.582 132.418 207.453 132.602C207.328 132.781 207.188 132.939 207.031 133.076L206.352 132.631C206.516 132.369 206.645 132.094 206.738 131.805C206.832 131.512 206.879 131.184 206.879 130.82V129.865H208.08V130.814Z" fill="#C58D73"/>
<rect width="268" height="200" fill="url(#paint1_linear_2427_286)"/>
</g>
<defs>
<linearGradient id="paint0_linear_2427_286" x1="48" y1="156" x2="48" y2="176" gradientUnits="userSpaceOnUse">
<stop stop-color="#646464"/>
<stop offset="1" stop-color="#4E4E4E"/>
</linearGradient>
<linearGradient id="paint1_linear_2427_286" x1="268" y1="100" x2="57.7167" y2="99.4779" gradientUnits="userSpaceOnUse">
<stop stop-color="#1B1B1B" stop-opacity="0.9"/>
<stop offset="1" stop-color="#282828" stop-opacity="0"/>
</linearGradient>
<clipPath id="clip0_2427_286">
<rect width="268" height="200" rx="12" fill="white"/>
</clipPath>
</defs>
</svg>
