<svg width="268" height="200" viewBox="0 0 268 200" fill="none" xmlns="http://www.w3.org/2000/svg">
<g clip-path="url(#clip0_2430_329)">
<rect width="268" height="200" rx="12" fill="#282828"/>
<rect x="13.5" y="27.5" width="498" height="30" rx="7.5" fill="white" fill-opacity="0.08" stroke="#282828"/>
<path d="M21.8608 47V38.2727H25.1335C25.804 38.2727 26.3665 38.3892 26.821 38.6222C27.2784 38.8551 27.6236 39.1818 27.8565 39.6023C28.0923 40.0199 28.2102 40.5071 28.2102 41.0639C28.2102 41.6236 28.0909 42.1094 27.8523 42.5213C27.6165 42.9304 27.2685 43.2472 26.8082 43.4716C26.348 43.6932 25.7827 43.804 25.1122 43.804H22.7812V42.4915H24.8991C25.2912 42.4915 25.6122 42.4375 25.8622 42.3295C26.1122 42.2187 26.2969 42.0582 26.4162 41.848C26.5384 41.6349 26.5994 41.3736 26.5994 41.0639C26.5994 40.7543 26.5384 40.4901 26.4162 40.2713C26.294 40.0497 26.108 39.8821 25.858 39.7685C25.608 39.652 25.2855 39.5938 24.8906 39.5938H23.4418V47H21.8608ZM26.3693 43.0455L28.5298 47H26.7656L24.6435 43.0455H26.3693ZM32.6513 47.1278C31.995 47.1278 31.4283 46.9915 30.951 46.7188C30.4766 46.4432 30.1115 46.054 29.8558 45.5511C29.6001 45.0455 29.4723 44.4503 29.4723 43.7656C29.4723 43.0923 29.6001 42.5014 29.8558 41.9929C30.1143 41.4815 30.4751 41.0838 30.9382 40.7997C31.4013 40.5128 31.9453 40.3693 32.5703 40.3693C32.9737 40.3693 33.3544 40.4347 33.7124 40.5653C34.0732 40.6932 34.3913 40.892 34.6669 41.1619C34.9453 41.4318 35.1641 41.7756 35.3232 42.1932C35.4822 42.608 35.5618 43.1023 35.5618 43.6761V44.1491H30.1967V43.1094H34.0831C34.0803 42.8139 34.0163 42.5511 33.8913 42.321C33.7663 42.0881 33.5916 41.9048 33.3672 41.7713C33.1456 41.6378 32.8871 41.571 32.5916 41.571C32.2763 41.571 31.9993 41.6477 31.7607 41.8011C31.522 41.9517 31.3359 42.1506 31.2024 42.3977C31.0717 42.642 31.005 42.9105 31.0021 43.2031V44.1108C31.0021 44.4915 31.0717 44.8182 31.2109 45.0909C31.3501 45.3608 31.5447 45.5682 31.7947 45.7131C32.0447 45.8551 32.3374 45.9261 32.6726 45.9261C32.897 45.9261 33.1001 45.8949 33.282 45.8324C33.4638 45.767 33.6214 45.6719 33.755 45.5469C33.8885 45.4219 33.9893 45.267 34.0575 45.0824L35.4979 45.2443C35.407 45.625 35.2337 45.9574 34.978 46.2415C34.7251 46.5227 34.4013 46.7415 34.0064 46.8977C33.6115 47.0511 33.1598 47.1278 32.6513 47.1278ZM39.9634 49.5909C39.4094 49.5909 38.9336 49.5156 38.5359 49.3651C38.1381 49.2173 37.8185 49.0185 37.5771 48.7685C37.3356 48.5185 37.168 48.2415 37.0742 47.9375L38.4634 47.6009C38.5259 47.7287 38.6168 47.8551 38.7362 47.9801C38.8555 48.108 39.016 48.2131 39.2177 48.2955C39.4222 48.3807 39.6793 48.4233 39.989 48.4233C40.4265 48.4233 40.7887 48.3168 41.0756 48.1037C41.3626 47.8935 41.506 47.5469 41.506 47.0639V45.8239H41.4293C41.3498 45.983 41.2333 46.1463 41.0799 46.3139C40.9293 46.4815 40.729 46.6222 40.479 46.7358C40.2319 46.8494 39.9208 46.9062 39.5458 46.9062C39.043 46.9062 38.587 46.7884 38.1779 46.5526C37.7717 46.3139 37.4478 45.9588 37.2063 45.4872C36.9677 45.0128 36.8484 44.419 36.8484 43.706C36.8484 42.9872 36.9677 42.3807 37.2063 41.8864C37.4478 41.3892 37.7731 41.0128 38.1822 40.7571C38.5913 40.4986 39.0472 40.3693 39.5501 40.3693C39.9336 40.3693 40.2489 40.4347 40.4961 40.5653C40.7461 40.6932 40.945 40.848 41.0927 41.0298C41.2404 41.2088 41.3526 41.3778 41.4293 41.5369H41.5146V40.4545H43.0359V47.1065C43.0359 47.6662 42.9023 48.1293 42.6353 48.4957C42.3683 48.8622 42.0032 49.1364 41.5401 49.3182C41.0771 49.5 40.5515 49.5909 39.9634 49.5909ZM39.9762 45.696C40.3029 45.696 40.5813 45.6165 40.8114 45.4574C41.0415 45.2983 41.2163 45.0696 41.3356 44.7713C41.4549 44.473 41.5146 44.1151 41.5146 43.6974C41.5146 43.2855 41.4549 42.9247 41.3356 42.6151C41.2191 42.3054 41.0458 42.0653 40.8157 41.8949C40.5884 41.7216 40.3086 41.6349 39.9762 41.6349C39.6325 41.6349 39.3455 41.7244 39.1154 41.9034C38.8853 42.0824 38.712 42.3281 38.5955 42.6406C38.479 42.9503 38.4208 43.3026 38.4208 43.6974C38.4208 44.098 38.479 44.4489 38.5955 44.75C38.7148 45.0483 38.8896 45.2812 39.1197 45.4489C39.3526 45.6136 39.6381 45.696 39.9762 45.696ZM48.1353 40.4545V41.6477H44.3725V40.4545H48.1353ZM45.3015 38.8864H46.8441V45.0312C46.8441 45.2386 46.8754 45.3977 46.9379 45.5085C47.0032 45.6165 47.0884 45.6903 47.1935 45.7301C47.2987 45.7699 47.4151 45.7898 47.543 45.7898C47.6396 45.7898 47.7276 45.7827 47.8072 45.7685C47.8896 45.7543 47.9521 45.7415 47.9947 45.7301L48.2546 46.9361C48.1722 46.9645 48.0543 46.9957 47.9009 47.0298C47.7504 47.0639 47.5657 47.0838 47.3469 47.0895C46.9606 47.1009 46.6126 47.0426 46.3029 46.9148C45.9933 46.7841 45.7475 46.5824 45.5657 46.3097C45.3867 46.0369 45.2987 45.696 45.3015 45.2869V38.8864ZM52.5028 47.1278C51.8466 47.1278 51.2798 46.9915 50.8026 46.7188C50.3281 46.4432 49.9631 46.054 49.7074 45.5511C49.4517 45.0455 49.3239 44.4503 49.3239 43.7656C49.3239 43.0923 49.4517 42.5014 49.7074 41.9929C49.9659 41.4815 50.3267 41.0838 50.7898 40.7997C51.2528 40.5128 51.7969 40.3693 52.4219 40.3693C52.8253 40.3693 53.206 40.4347 53.5639 40.5653C53.9247 40.6932 54.2429 40.892 54.5185 41.1619C54.7969 41.4318 55.0156 41.7756 55.1747 42.1932C55.3338 42.608 55.4134 43.1023 55.4134 43.6761V44.1491H50.0483V43.1094H53.9347C53.9318 42.8139 53.8679 42.5511 53.7429 42.321C53.6179 42.0881 53.4432 41.9048 53.2188 41.7713C52.9972 41.6378 52.7386 41.571 52.4432 41.571C52.1278 41.571 51.8509 41.6477 51.6122 41.8011C51.3736 41.9517 51.1875 42.1506 51.054 42.3977C50.9233 42.642 50.8565 42.9105 50.8537 43.2031V44.1108C50.8537 44.4915 50.9233 44.8182 51.0625 45.0909C51.2017 45.3608 51.3963 45.5682 51.6463 45.7131C51.8963 45.8551 52.1889 45.9261 52.5241 45.9261C52.7486 45.9261 52.9517 45.8949 53.1335 45.8324C53.3153 45.767 53.473 45.6719 53.6065 45.5469C53.7401 45.4219 53.8409 45.267 53.9091 45.0824L55.3494 45.2443C55.2585 45.625 55.0852 45.9574 54.8295 46.2415C54.5767 46.5227 54.2528 46.7415 53.858 46.8977C53.4631 47.0511 53.0114 47.1278 52.5028 47.1278ZM62.1417 42.1847L60.7354 42.3381C60.6957 42.196 60.6261 42.0625 60.5266 41.9375C60.43 41.8125 60.2994 41.7116 60.1346 41.6349C59.9698 41.5582 59.7681 41.5199 59.5295 41.5199C59.2085 41.5199 58.9386 41.5895 58.7198 41.7287C58.5039 41.8679 58.3974 42.0483 58.4002 42.2699C58.3974 42.4602 58.467 42.6151 58.609 42.7344C58.7539 42.8537 58.9925 42.9517 59.3249 43.0284L60.4414 43.267C61.0607 43.4006 61.521 43.6122 61.8221 43.902C62.1261 44.1918 62.2795 44.571 62.2823 45.0398C62.2795 45.4517 62.1587 45.8153 61.9201 46.1307C61.6843 46.4432 61.3562 46.6875 60.9357 46.8636C60.5153 47.0398 60.0323 47.1278 59.4869 47.1278C58.6857 47.1278 58.0408 46.9602 57.5522 46.625C57.0636 46.2869 56.7724 45.8168 56.6786 45.2145L58.1829 45.0696C58.2511 45.3651 58.396 45.5881 58.6175 45.7386C58.8391 45.8892 59.1275 45.9645 59.4826 45.9645C59.8491 45.9645 60.1431 45.8892 60.3647 45.7386C60.5891 45.5881 60.7013 45.402 60.7013 45.1804C60.7013 44.9929 60.6289 44.8381 60.484 44.7159C60.342 44.5937 60.1204 44.5 59.8192 44.4347L58.7028 44.2003C58.0749 44.0696 57.6104 43.8494 57.3093 43.5398C57.0082 43.2273 56.859 42.8324 56.8619 42.3551C56.859 41.9517 56.9684 41.6023 57.19 41.3068C57.4144 41.0085 57.7255 40.7784 58.1232 40.6165C58.5238 40.4517 58.9854 40.3693 59.5082 40.3693C60.2752 40.3693 60.8789 40.5327 61.3192 40.8594C61.7624 41.1861 62.0366 41.6278 62.1417 42.1847ZM67.0728 40.4545V41.6477H63.31V40.4545H67.0728ZM64.239 38.8864H65.7816V45.0312C65.7816 45.2386 65.8129 45.3977 65.8754 45.5085C65.9407 45.6165 66.0259 45.6903 66.131 45.7301C66.2362 45.7699 66.3526 45.7898 66.4805 45.7898C66.5771 45.7898 66.6651 45.7827 66.7447 45.7685C66.8271 45.7543 66.8896 45.7415 66.9322 45.7301L67.1921 46.9361C67.1097 46.9645 66.9918 46.9957 66.8384 47.0298C66.6879 47.0639 66.5032 47.0838 66.2844 47.0895C65.8981 47.1009 65.5501 47.0426 65.2404 46.9148C64.9308 46.7841 64.685 46.5824 64.5032 46.3097C64.3242 46.0369 64.2362 45.696 64.239 45.2869V38.8864Z" fill="white" fill-opacity="0.8"/>
<path d="M13.8608 9.27273H15.7955L18.3864 15.5966H18.4886L21.0795 9.27273H23.0142V18H21.4972V12.0043H21.4162L19.0043 17.9744H17.8707L15.4588 11.9915H15.3778V18H13.8608V9.27273ZM28.0227 18.1278C27.3835 18.1278 26.8295 17.9872 26.3608 17.706C25.892 17.4247 25.5284 17.0312 25.2699 16.5256C25.0142 16.0199 24.8864 15.429 24.8864 14.7528C24.8864 14.0767 25.0142 13.4844 25.2699 12.9759C25.5284 12.4673 25.892 12.0724 26.3608 11.7912C26.8295 11.5099 27.3835 11.3693 28.0227 11.3693C28.6619 11.3693 29.2159 11.5099 29.6847 11.7912C30.1534 12.0724 30.5156 12.4673 30.7713 12.9759C31.0298 13.4844 31.1591 14.0767 31.1591 14.7528C31.1591 15.429 31.0298 16.0199 30.7713 16.5256C30.5156 17.0312 30.1534 17.4247 29.6847 17.706C29.2159 17.9872 28.6619 18.1278 28.0227 18.1278ZM28.0312 16.892C28.3778 16.892 28.6676 16.7969 28.9006 16.6065C29.1335 16.4134 29.3068 16.1548 29.4205 15.831C29.5369 15.5071 29.5952 15.1463 29.5952 14.7486C29.5952 14.348 29.5369 13.9858 29.4205 13.6619C29.3068 13.3352 29.1335 13.0753 28.9006 12.8821C28.6676 12.6889 28.3778 12.5923 28.0312 12.5923C27.6761 12.5923 27.3807 12.6889 27.1449 12.8821C26.9119 13.0753 26.7372 13.3352 26.6207 13.6619C26.5071 13.9858 26.4503 14.348 26.4503 14.7486C26.4503 15.1463 26.5071 15.5071 26.6207 15.831C26.7372 16.1548 26.9119 16.4134 27.1449 16.6065C27.3807 16.7969 27.6761 16.892 28.0312 16.892ZM35.3974 18.1151C34.8832 18.1151 34.4229 17.983 34.0167 17.7188C33.6104 17.4545 33.2894 17.071 33.0536 16.5682C32.8178 16.0653 32.6999 15.4545 32.6999 14.7358C32.6999 14.0085 32.8192 13.3949 33.0579 12.8949C33.2994 12.392 33.6246 12.0128 34.0337 11.7571C34.4428 11.4986 34.8988 11.3693 35.4016 11.3693C35.7852 11.3693 36.1005 11.4347 36.3477 11.5653C36.5948 11.6932 36.7908 11.848 36.9357 12.0298C37.0806 12.2088 37.1928 12.3778 37.2724 12.5369H37.3363V9.27273H38.8832V18H37.3661V16.9688H37.2724C37.1928 17.1278 37.0778 17.2969 36.9272 17.4759C36.7766 17.652 36.5778 17.8026 36.3306 17.9276C36.0835 18.0526 35.7724 18.1151 35.3974 18.1151ZM35.8278 16.8494C36.1545 16.8494 36.4329 16.7614 36.663 16.5852C36.8931 16.4062 37.0678 16.1577 37.1871 15.8395C37.3065 15.5213 37.3661 15.1506 37.3661 14.7273C37.3661 14.304 37.3065 13.9361 37.1871 13.6236C37.0707 13.3111 36.8974 13.0682 36.6673 12.8949C36.44 12.7216 36.1602 12.6349 35.8278 12.6349C35.484 12.6349 35.1971 12.7244 34.967 12.9034C34.7369 13.0824 34.5636 13.3295 34.4471 13.6449C34.3306 13.9602 34.2724 14.321 34.2724 14.7273C34.2724 15.1364 34.3306 15.5014 34.4471 15.8224C34.5664 16.1406 34.7411 16.392 34.9712 16.5767C35.2042 16.7585 35.4897 16.8494 35.8278 16.8494ZM43.9247 18.1278C43.2685 18.1278 42.7017 17.9915 42.2244 17.7188C41.75 17.4432 41.3849 17.054 41.1293 16.5511C40.8736 16.0455 40.7457 15.4503 40.7457 14.7656C40.7457 14.0923 40.8736 13.5014 41.1293 12.9929C41.3878 12.4815 41.7486 12.0838 42.2116 11.7997C42.6747 11.5128 43.2188 11.3693 43.8438 11.3693C44.2472 11.3693 44.6278 11.4347 44.9858 11.5653C45.3466 11.6932 45.6648 11.892 45.9403 12.1619C46.2188 12.4318 46.4375 12.7756 46.5966 13.1932C46.7557 13.608 46.8352 14.1023 46.8352 14.6761V15.1491H41.4702V14.1094H45.3565C45.3537 13.8139 45.2898 13.5511 45.1648 13.321C45.0398 13.0881 44.8651 12.9048 44.6406 12.7713C44.419 12.6378 44.1605 12.571 43.8651 12.571C43.5497 12.571 43.2727 12.6477 43.0341 12.8011C42.7955 12.9517 42.6094 13.1506 42.4759 13.3977C42.3452 13.642 42.2784 13.9105 42.2756 14.2031V15.1108C42.2756 15.4915 42.3452 15.8182 42.4844 16.0909C42.6236 16.3608 42.8182 16.5682 43.0682 16.7131C43.3182 16.8551 43.6108 16.9261 43.946 16.9261C44.1705 16.9261 44.3736 16.8949 44.5554 16.8324C44.7372 16.767 44.8949 16.6719 45.0284 16.5469C45.1619 16.4219 45.2628 16.267 45.331 16.0824L46.7713 16.2443C46.6804 16.625 46.5071 16.9574 46.2514 17.2415C45.9986 17.5227 45.6747 17.7415 45.2798 17.8977C44.8849 18.0511 44.4332 18.1278 43.9247 18.1278Z" fill="white" fill-opacity="0.7"/>
<rect x="13.5" y="95.5" width="498" height="30" rx="7.5" fill="white" fill-opacity="0.08" stroke="#282828"/>
<path d="M23.3352 111.165V115H21.7926V106.273H23.3011V109.567H23.3778C23.5313 109.197 23.7685 108.906 24.0895 108.693C24.4134 108.477 24.8253 108.369 25.3253 108.369C25.7798 108.369 26.1761 108.464 26.5142 108.655C26.8523 108.845 27.1136 109.124 27.2983 109.49C27.4858 109.857 27.5795 110.304 27.5795 110.832V115H26.0369V111.071C26.0369 110.631 25.9233 110.288 25.696 110.044C25.4716 109.797 25.1562 109.673 24.75 109.673C24.4773 109.673 24.233 109.733 24.017 109.852C23.804 109.969 23.6364 110.138 23.5142 110.359C23.3949 110.581 23.3352 110.849 23.3352 111.165ZM32.6705 108.455V109.648H28.9077V108.455H32.6705ZM29.8366 106.886H31.3793V113.031C31.3793 113.239 31.4105 113.398 31.473 113.509C31.5384 113.616 31.6236 113.69 31.7287 113.73C31.8338 113.77 31.9503 113.79 32.0781 113.79C32.1747 113.79 32.2628 113.783 32.3423 113.768C32.4247 113.754 32.4872 113.741 32.5298 113.73L32.7898 114.936C32.7074 114.964 32.5895 114.996 32.4361 115.03C32.2855 115.064 32.1009 115.084 31.8821 115.089C31.4957 115.101 31.1477 115.043 30.8381 114.915C30.5284 114.784 30.2827 114.582 30.1009 114.31C29.9219 114.037 29.8338 113.696 29.8366 113.287V106.886ZM37.479 108.455V109.648H33.7163V108.455H37.479ZM34.6452 106.886H36.1879V113.031C36.1879 113.239 36.2191 113.398 36.2816 113.509C36.3469 113.616 36.4322 113.69 36.5373 113.73C36.6424 113.77 36.7589 113.79 36.8867 113.79C36.9833 113.79 37.0714 113.783 37.1509 113.768C37.2333 113.754 37.2958 113.741 37.3384 113.73L37.5984 114.936C37.516 114.964 37.3981 114.996 37.2447 115.03C37.0941 115.064 36.9094 115.084 36.6907 115.089C36.3043 115.101 35.9563 115.043 35.6467 114.915C35.337 114.784 35.0913 114.582 34.9094 114.31C34.7305 114.037 34.6424 113.696 34.6452 113.287V106.886ZM39.0192 117.455V108.455H40.5362V109.537H40.6257C40.7053 109.378 40.8175 109.209 40.9624 109.03C41.1072 108.848 41.3033 108.693 41.5504 108.565C41.7976 108.435 42.1129 108.369 42.4964 108.369C43.0021 108.369 43.4581 108.499 43.8643 108.757C44.2734 109.013 44.5973 109.392 44.8359 109.895C45.0774 110.395 45.1982 111.009 45.1982 111.736C45.1982 112.455 45.0803 113.065 44.8445 113.568C44.6087 114.071 44.2876 114.455 43.8814 114.719C43.4751 114.983 43.0149 115.115 42.5007 115.115C42.1257 115.115 41.8146 115.053 41.5675 114.928C41.3203 114.803 41.1214 114.652 40.9709 114.476C40.8232 114.297 40.7081 114.128 40.6257 113.969H40.5618V117.455H39.0192ZM40.532 111.727C40.532 112.151 40.5916 112.521 40.7109 112.839C40.8331 113.158 41.0078 113.406 41.2351 113.585C41.4652 113.761 41.7436 113.849 42.0703 113.849C42.4112 113.849 42.6967 113.759 42.9268 113.577C43.157 113.392 43.3303 113.141 43.4467 112.822C43.5661 112.501 43.6257 112.136 43.6257 111.727C43.6257 111.321 43.5675 110.96 43.451 110.645C43.3345 110.33 43.1612 110.082 42.9311 109.903C42.701 109.724 42.4141 109.635 42.0703 109.635C41.7408 109.635 41.4609 109.722 41.2308 109.895C41.0007 110.068 40.826 110.311 40.7067 110.624C40.5902 110.936 40.532 111.304 40.532 111.727ZM51.9425 110.185L50.5362 110.338C50.4964 110.196 50.4268 110.062 50.3274 109.938C50.2308 109.812 50.1001 109.712 49.9354 109.635C49.7706 109.558 49.5689 109.52 49.3303 109.52C49.0092 109.52 48.7393 109.589 48.5206 109.729C48.3047 109.868 48.1982 110.048 48.201 110.27C48.1982 110.46 48.2678 110.615 48.4098 110.734C48.5547 110.854 48.7933 110.952 49.1257 111.028L50.2422 111.267C50.8615 111.401 51.3217 111.612 51.6229 111.902C51.9268 112.192 52.0803 112.571 52.0831 113.04C52.0803 113.452 51.9595 113.815 51.7209 114.131C51.4851 114.443 51.157 114.687 50.7365 114.864C50.3161 115.04 49.8331 115.128 49.2876 115.128C48.4865 115.128 47.8416 114.96 47.353 114.625C46.8643 114.287 46.5732 113.817 46.4794 113.214L47.9837 113.07C48.0518 113.365 48.1967 113.588 48.4183 113.739C48.6399 113.889 48.9283 113.964 49.2834 113.964C49.6499 113.964 49.9439 113.889 50.1655 113.739C50.3899 113.588 50.5021 113.402 50.5021 113.18C50.5021 112.993 50.4297 112.838 50.2848 112.716C50.1428 112.594 49.9212 112.5 49.62 112.435L48.5036 112.2C47.8757 112.07 47.4112 111.849 47.1101 111.54C46.8089 111.227 46.6598 110.832 46.6626 110.355C46.6598 109.952 46.7692 109.602 46.9908 109.307C47.2152 109.009 47.5263 108.778 47.924 108.616C48.3246 108.452 48.7862 108.369 49.3089 108.369C50.076 108.369 50.6797 108.533 51.12 108.859C51.5632 109.186 51.8374 109.628 51.9425 110.185ZM54.5554 115.094C54.2969 115.094 54.0753 115.003 53.8906 114.821C53.706 114.639 53.6151 114.418 53.6179 114.156C53.6151 113.901 53.706 113.682 53.8906 113.5C54.0753 113.318 54.2969 113.227 54.5554 113.227C54.8054 113.227 55.0227 113.318 55.2074 113.5C55.3949 113.682 55.4901 113.901 55.4929 114.156C55.4901 114.33 55.4446 114.487 55.3565 114.629C55.2713 114.771 55.1577 114.885 55.0156 114.97C54.8764 115.053 54.723 115.094 54.5554 115.094ZM54.5554 110.423C54.2969 110.423 54.0753 110.332 53.8906 110.151C53.706 109.966 53.6151 109.744 53.6179 109.486C53.6151 109.23 53.706 109.011 53.8906 108.83C54.0753 108.645 54.2969 108.553 54.5554 108.553C54.8054 108.553 55.0227 108.645 55.2074 108.83C55.3949 109.011 55.4901 109.23 55.4929 109.486C55.4901 109.656 55.4446 109.812 55.3565 109.955C55.2713 110.097 55.1577 110.21 55.0156 110.295C54.8764 110.381 54.723 110.423 54.5554 110.423ZM60.8981 105.864L58.0856 116.312H56.7347L59.5472 105.864H60.8981ZM65.695 105.864L62.8825 116.312H61.5316L64.3441 105.864H65.695ZM68.8129 115.132C68.3981 115.132 68.0245 115.058 67.6921 114.911C67.3626 114.76 67.1012 114.538 66.908 114.246C66.7177 113.953 66.6225 113.592 66.6225 113.163C66.6225 112.794 66.6907 112.489 66.8271 112.247C66.9634 112.006 67.1495 111.812 67.3853 111.668C67.6211 111.523 67.8867 111.413 68.1822 111.339C68.4805 111.263 68.7887 111.207 69.1069 111.173C69.4904 111.134 69.8015 111.098 70.0401 111.067C70.2788 111.033 70.4521 110.982 70.56 110.913C70.6708 110.842 70.7262 110.733 70.7262 110.585V110.56C70.7262 110.239 70.631 109.99 70.4407 109.814C70.2504 109.638 69.9762 109.55 69.6183 109.55C69.2404 109.55 68.9407 109.632 68.7191 109.797C68.5004 109.962 68.3526 110.156 68.2759 110.381L66.8356 110.176C66.9492 109.778 67.1367 109.446 67.3981 109.179C67.6594 108.909 67.979 108.707 68.3569 108.574C68.7347 108.438 69.1523 108.369 69.6097 108.369C69.9251 108.369 70.239 108.406 70.5515 108.48C70.864 108.554 71.1495 108.676 71.408 108.847C71.6665 109.014 71.8739 109.243 72.0302 109.533C72.1893 109.822 72.2688 110.185 72.2688 110.619V115H70.7859V114.101H70.7347C70.641 114.283 70.5089 114.453 70.3384 114.612C70.1708 114.768 69.9592 114.895 69.7035 114.991C69.4506 115.085 69.1538 115.132 68.8129 115.132ZM69.2134 113.999C69.5231 113.999 69.7915 113.937 70.0188 113.815C70.2461 113.69 70.4208 113.526 70.543 113.321C70.668 113.116 70.7305 112.893 70.7305 112.652V111.881C70.6822 111.92 70.5998 111.957 70.4833 111.991C70.3697 112.026 70.2418 112.055 70.0998 112.081C69.9577 112.107 69.8171 112.129 69.6779 112.149C69.5387 112.169 69.418 112.186 69.3157 112.2C69.0856 112.232 68.8796 112.283 68.6978 112.354C68.516 112.425 68.3725 112.524 68.2674 112.652C68.1623 112.777 68.1097 112.939 68.1097 113.138C68.1097 113.422 68.2134 113.636 68.4208 113.781C68.6282 113.926 68.8924 113.999 69.2134 113.999ZM74.07 117.455V108.455H75.587V109.537H75.6765C75.756 109.378 75.8683 109.209 76.0131 109.03C76.158 108.848 76.354 108.693 76.6012 108.565C76.8484 108.435 77.1637 108.369 77.5472 108.369C78.0529 108.369 78.5089 108.499 78.9151 108.757C79.3242 109.013 79.6481 109.392 79.8867 109.895C80.1282 110.395 80.2489 111.009 80.2489 111.736C80.2489 112.455 80.131 113.065 79.8952 113.568C79.6594 114.071 79.3384 114.455 78.9322 114.719C78.5259 114.983 78.0657 115.115 77.5515 115.115C77.1765 115.115 76.8654 115.053 76.6183 114.928C76.3711 114.803 76.1722 114.652 76.0217 114.476C75.8739 114.297 75.7589 114.128 75.6765 113.969H75.6126V117.455H74.07ZM75.5827 111.727C75.5827 112.151 75.6424 112.521 75.7617 112.839C75.8839 113.158 76.0586 113.406 76.2859 113.585C76.516 113.761 76.7944 113.849 77.1211 113.849C77.462 113.849 77.7475 113.759 77.9776 113.577C78.2077 113.392 78.381 113.141 78.4975 112.822C78.6168 112.501 78.6765 112.136 78.6765 111.727C78.6765 111.321 78.6183 110.96 78.5018 110.645C78.3853 110.33 78.212 110.082 77.9819 109.903C77.7518 109.724 77.4648 109.635 77.1211 109.635C76.7915 109.635 76.5117 109.722 76.2816 109.895C76.0515 110.068 75.8768 110.311 75.7575 110.624C75.641 110.936 75.5827 111.304 75.5827 111.727ZM81.82 115V108.455H83.3626V115H81.82ZM82.5955 107.526C82.3512 107.526 82.141 107.445 81.9648 107.283C81.7887 107.118 81.7006 106.92 81.7006 106.69C81.7006 106.457 81.7887 106.26 81.9648 106.098C82.141 105.933 82.3512 105.851 82.5955 105.851C82.8427 105.851 83.0529 105.933 83.2262 106.098C83.4023 106.26 83.4904 106.457 83.4904 106.69C83.4904 106.92 83.4023 107.118 83.2262 107.283C83.0529 107.445 82.8427 107.526 82.5955 107.526ZM86.1491 115.094C85.8906 115.094 85.669 115.003 85.4844 114.821C85.2997 114.639 85.2088 114.418 85.2116 114.156C85.2088 113.901 85.2997 113.682 85.4844 113.5C85.669 113.318 85.8906 113.227 86.1491 113.227C86.3991 113.227 86.6165 113.318 86.8011 113.5C86.9886 113.682 87.0838 113.901 87.0866 114.156C87.0838 114.33 87.0384 114.487 86.9503 114.629C86.8651 114.771 86.7514 114.885 86.6094 114.97C86.4702 115.053 86.3168 115.094 86.1491 115.094ZM88.9293 115V108.455H90.4251V109.545H90.4933C90.6126 109.168 90.8171 108.876 91.1069 108.672C91.3995 108.464 91.7333 108.361 92.1083 108.361C92.1935 108.361 92.2887 108.365 92.3938 108.374C92.5018 108.379 92.5913 108.389 92.6623 108.403V109.822C92.5969 109.8 92.4933 109.78 92.3512 109.763C92.212 109.743 92.0771 109.733 91.9464 109.733C91.6651 109.733 91.4123 109.794 91.1879 109.916C90.9663 110.036 90.7915 110.202 90.6637 110.415C90.5359 110.628 90.4719 110.874 90.4719 111.152V115H88.9293ZM96.5653 115.128C95.9091 115.128 95.3423 114.991 94.8651 114.719C94.3906 114.443 94.0256 114.054 93.7699 113.551C93.5142 113.045 93.3864 112.45 93.3864 111.766C93.3864 111.092 93.5142 110.501 93.7699 109.993C94.0284 109.482 94.3892 109.084 94.8523 108.8C95.3153 108.513 95.8594 108.369 96.4844 108.369C96.8878 108.369 97.2685 108.435 97.6264 108.565C97.9872 108.693 98.3054 108.892 98.581 109.162C98.8594 109.432 99.0781 109.776 99.2372 110.193C99.3963 110.608 99.4759 111.102 99.4759 111.676V112.149H94.1108V111.109H97.9972C97.9943 110.814 97.9304 110.551 97.8054 110.321C97.6804 110.088 97.5057 109.905 97.2812 109.771C97.0597 109.638 96.8011 109.571 96.5057 109.571C96.1903 109.571 95.9134 109.648 95.6747 109.801C95.4361 109.952 95.25 110.151 95.1165 110.398C94.9858 110.642 94.919 110.911 94.9162 111.203V112.111C94.9162 112.491 94.9858 112.818 95.125 113.091C95.2642 113.361 95.4588 113.568 95.7088 113.713C95.9588 113.855 96.2514 113.926 96.5866 113.926C96.8111 113.926 97.0142 113.895 97.196 113.832C97.3778 113.767 97.5355 113.672 97.669 113.547C97.8026 113.422 97.9034 113.267 97.9716 113.082L99.4119 113.244C99.321 113.625 99.1477 113.957 98.892 114.241C98.6392 114.523 98.3153 114.741 97.9205 114.898C97.5256 115.051 97.0739 115.128 96.5653 115.128ZM103.877 117.591C103.324 117.591 102.848 117.516 102.45 117.365C102.052 117.217 101.733 117.018 101.491 116.768C101.25 116.518 101.082 116.241 100.988 115.938L102.377 115.601C102.44 115.729 102.531 115.855 102.65 115.98C102.77 116.108 102.93 116.213 103.132 116.295C103.336 116.381 103.593 116.423 103.903 116.423C104.341 116.423 104.703 116.317 104.99 116.104C105.277 115.893 105.42 115.547 105.42 115.064V113.824H105.343C105.264 113.983 105.147 114.146 104.994 114.314C104.843 114.482 104.643 114.622 104.393 114.736C104.146 114.849 103.835 114.906 103.46 114.906C102.957 114.906 102.501 114.788 102.092 114.553C101.686 114.314 101.362 113.959 101.12 113.487C100.882 113.013 100.762 112.419 100.762 111.706C100.762 110.987 100.882 110.381 101.12 109.886C101.362 109.389 101.687 109.013 102.096 108.757C102.505 108.499 102.961 108.369 103.464 108.369C103.848 108.369 104.163 108.435 104.41 108.565C104.66 108.693 104.859 108.848 105.007 109.03C105.154 109.209 105.267 109.378 105.343 109.537H105.429V108.455H106.95V115.107C106.95 115.666 106.816 116.129 106.549 116.496C106.282 116.862 105.917 117.136 105.454 117.318C104.991 117.5 104.466 117.591 103.877 117.591ZM103.89 113.696C104.217 113.696 104.495 113.616 104.725 113.457C104.956 113.298 105.13 113.07 105.25 112.771C105.369 112.473 105.429 112.115 105.429 111.697C105.429 111.286 105.369 110.925 105.25 110.615C105.133 110.305 104.96 110.065 104.73 109.895C104.502 109.722 104.223 109.635 103.89 109.635C103.547 109.635 103.26 109.724 103.029 109.903C102.799 110.082 102.626 110.328 102.51 110.641C102.393 110.95 102.335 111.303 102.335 111.697C102.335 112.098 102.393 112.449 102.51 112.75C102.629 113.048 102.804 113.281 103.034 113.449C103.267 113.614 103.552 113.696 103.89 113.696ZM110.324 111.165V115H108.781V108.455H110.255V109.567H110.332C110.483 109.2 110.723 108.909 111.052 108.693C111.385 108.477 111.795 108.369 112.284 108.369C112.735 108.369 113.129 108.466 113.464 108.659C113.802 108.852 114.064 109.132 114.248 109.499C114.436 109.865 114.528 110.31 114.525 110.832V115H112.983V111.071C112.983 110.634 112.869 110.291 112.642 110.044C112.417 109.797 112.106 109.673 111.708 109.673C111.439 109.673 111.199 109.733 110.988 109.852C110.781 109.969 110.618 110.138 110.498 110.359C110.382 110.581 110.324 110.849 110.324 111.165ZM119.241 115.128C118.585 115.128 118.018 114.991 117.541 114.719C117.066 114.443 116.701 114.054 116.446 113.551C116.19 113.045 116.062 112.45 116.062 111.766C116.062 111.092 116.19 110.501 116.446 109.993C116.704 109.482 117.065 109.084 117.528 108.8C117.991 108.513 118.535 108.369 119.16 108.369C119.564 108.369 119.944 108.435 120.302 108.565C120.663 108.693 120.981 108.892 121.257 109.162C121.535 109.432 121.754 109.776 121.913 110.193C122.072 110.608 122.152 111.102 122.152 111.676V112.149H116.787V111.109H120.673C120.67 110.814 120.606 110.551 120.481 110.321C120.356 110.088 120.181 109.905 119.957 109.771C119.735 109.638 119.477 109.571 119.181 109.571C118.866 109.571 118.589 109.648 118.35 109.801C118.112 109.952 117.926 110.151 117.792 110.398C117.662 110.642 117.595 110.911 117.592 111.203V112.111C117.592 112.491 117.662 112.818 117.801 113.091C117.94 113.361 118.135 113.568 118.385 113.713C118.635 113.855 118.927 113.926 119.262 113.926C119.487 113.926 119.69 113.895 119.872 113.832C120.054 113.767 120.211 113.672 120.345 113.547C120.478 113.422 120.579 113.267 120.647 113.082L122.088 113.244C121.997 113.625 121.824 113.957 121.568 114.241C121.315 114.523 120.991 114.741 120.596 114.898C120.201 115.051 119.75 115.128 119.241 115.128ZM126.975 108.455V109.648H123.212V108.455H126.975ZM124.141 106.886H125.684V113.031C125.684 113.239 125.715 113.398 125.778 113.509C125.843 113.616 125.928 113.69 126.033 113.73C126.138 113.77 126.255 113.79 126.383 113.79C126.479 113.79 126.567 113.783 126.647 113.768C126.729 113.754 126.792 113.741 126.835 113.73L127.094 114.936C127.012 114.964 126.894 114.996 126.741 115.03C126.59 115.064 126.406 115.084 126.187 115.089C125.8 115.101 125.452 115.043 125.143 114.915C124.833 114.784 124.587 114.582 124.406 114.31C124.227 114.037 124.138 113.696 124.141 113.287V106.886ZM129.466 115.094C129.207 115.094 128.985 115.003 128.801 114.821C128.616 114.639 128.525 114.418 128.528 114.156C128.525 113.901 128.616 113.682 128.801 113.5C128.985 113.318 129.207 113.227 129.466 113.227C129.716 113.227 129.933 113.318 130.118 113.5C130.305 113.682 130.4 113.901 130.403 114.156C130.4 114.33 130.355 114.487 130.267 114.629C130.181 114.771 130.068 114.885 129.926 114.97C129.787 115.053 129.633 115.094 129.466 115.094ZM132.314 115V106.273H133.857V109.537H133.92C134 109.378 134.112 109.209 134.257 109.03C134.402 108.848 134.598 108.693 134.845 108.565C135.092 108.435 135.408 108.369 135.791 108.369C136.297 108.369 136.753 108.499 137.159 108.757C137.568 109.013 137.892 109.392 138.131 109.895C138.372 110.395 138.493 111.009 138.493 111.736C138.493 112.455 138.375 113.065 138.139 113.568C137.903 114.071 137.582 114.455 137.176 114.719C136.77 114.983 136.31 115.115 135.795 115.115C135.42 115.115 135.109 115.053 134.862 114.928C134.615 114.803 134.416 114.652 134.266 114.476C134.118 114.297 134.003 114.128 133.92 113.969H133.831V115H132.314ZM133.827 111.727C133.827 112.151 133.886 112.521 134.006 112.839C134.128 113.158 134.303 113.406 134.53 113.585C134.76 113.761 135.038 113.849 135.365 113.849C135.706 113.849 135.991 113.759 136.222 113.577C136.452 113.392 136.625 113.141 136.741 112.822C136.861 112.501 136.92 112.136 136.92 111.727C136.92 111.321 136.862 110.96 136.746 110.645C136.629 110.33 136.456 110.082 136.226 109.903C135.996 109.724 135.709 109.635 135.365 109.635C135.036 109.635 134.756 109.722 134.526 109.895C134.295 110.068 134.121 110.311 134.001 110.624C133.885 110.936 133.827 111.304 133.827 111.727ZM143.323 108.455V109.648H139.56V108.455H143.323ZM140.489 106.886H142.032V113.031C142.032 113.239 142.063 113.398 142.125 113.509C142.191 113.616 142.276 113.69 142.381 113.73C142.486 113.77 142.603 113.79 142.73 113.79C142.827 113.79 142.915 113.783 142.995 113.768C143.077 113.754 143.14 113.741 143.182 113.73L143.442 114.936C143.36 114.964 143.242 114.996 143.088 115.03C142.938 115.064 142.753 115.084 142.534 115.089C142.148 115.101 141.8 115.043 141.49 114.915C141.181 114.784 140.935 114.582 140.753 114.31C140.574 114.037 140.486 113.696 140.489 113.287V106.886ZM147.648 115.128C146.994 115.128 146.433 114.984 145.964 114.697C145.499 114.411 145.139 114.014 144.886 113.509C144.636 113 144.511 112.415 144.511 111.753C144.511 111.088 144.639 110.501 144.895 109.993C145.151 109.482 145.511 109.084 145.977 108.8C146.446 108.513 147 108.369 147.639 108.369C148.17 108.369 148.641 108.467 149.05 108.663C149.462 108.857 149.79 109.131 150.034 109.486C150.278 109.838 150.418 110.25 150.452 110.722H148.977C148.918 110.406 148.776 110.143 148.551 109.933C148.33 109.72 148.033 109.614 147.661 109.614C147.345 109.614 147.068 109.699 146.83 109.869C146.591 110.037 146.405 110.278 146.271 110.594C146.141 110.909 146.075 111.287 146.075 111.727C146.075 112.173 146.141 112.557 146.271 112.878C146.402 113.196 146.585 113.442 146.821 113.615C147.06 113.786 147.339 113.871 147.661 113.871C147.888 113.871 148.091 113.828 148.27 113.743C148.452 113.655 148.604 113.528 148.726 113.364C148.848 113.199 148.932 112.999 148.977 112.763H150.452C150.415 113.226 150.278 113.636 150.043 113.994C149.807 114.349 149.486 114.628 149.08 114.83C148.673 115.028 148.196 115.128 147.648 115.128ZM152.919 115.094C152.66 115.094 152.439 115.003 152.254 114.821C152.069 114.639 151.978 114.418 151.981 114.156C151.978 113.901 152.069 113.682 152.254 113.5C152.439 113.318 152.66 113.227 152.919 113.227C153.169 113.227 153.386 113.318 153.571 113.5C153.758 113.682 153.853 113.901 153.856 114.156C153.853 114.33 153.808 114.487 153.72 114.629C153.635 114.771 153.521 114.885 153.379 114.97C153.24 115.053 153.086 115.094 152.919 115.094ZM158.597 115.128C157.94 115.128 157.374 114.991 156.896 114.719C156.422 114.443 156.057 114.054 155.801 113.551C155.545 113.045 155.418 112.45 155.418 111.766C155.418 111.092 155.545 110.501 155.801 109.993C156.06 109.482 156.42 109.084 156.884 108.8C157.347 108.513 157.891 108.369 158.516 108.369C158.919 108.369 159.3 108.435 159.658 108.565C160.018 108.693 160.337 108.892 160.612 109.162C160.891 109.432 161.109 109.776 161.268 110.193C161.428 110.608 161.507 111.102 161.507 111.676V112.149H156.142V111.109H160.028C160.026 110.814 159.962 110.551 159.837 110.321C159.712 110.088 159.537 109.905 159.312 109.771C159.091 109.638 158.832 109.571 158.537 109.571C158.222 109.571 157.945 109.648 157.706 109.801C157.467 109.952 157.281 110.151 157.148 110.398C157.017 110.642 156.95 110.911 156.947 111.203V112.111C156.947 112.491 157.017 112.818 157.156 113.091C157.295 113.361 157.49 113.568 157.74 113.713C157.99 113.855 158.283 113.926 158.618 113.926C158.842 113.926 159.045 113.895 159.227 113.832C159.409 113.767 159.567 113.672 159.7 113.547C159.834 113.422 159.935 113.267 160.003 113.082L161.443 113.244C161.352 113.625 161.179 113.957 160.923 114.241C160.67 114.523 160.347 114.741 159.952 114.898C159.557 115.051 159.105 115.128 158.597 115.128ZM164.946 115.132C164.531 115.132 164.157 115.058 163.825 114.911C163.495 114.76 163.234 114.538 163.041 114.246C162.85 113.953 162.755 113.592 162.755 113.163C162.755 112.794 162.824 112.489 162.96 112.247C163.096 112.006 163.282 111.812 163.518 111.668C163.754 111.523 164.02 111.413 164.315 111.339C164.613 111.263 164.922 111.207 165.24 111.173C165.623 111.134 165.934 111.098 166.173 111.067C166.412 111.033 166.585 110.982 166.693 110.913C166.804 110.842 166.859 110.733 166.859 110.585V110.56C166.859 110.239 166.764 109.99 166.574 109.814C166.383 109.638 166.109 109.55 165.751 109.55C165.373 109.55 165.074 109.632 164.852 109.797C164.633 109.962 164.485 110.156 164.409 110.381L162.968 110.176C163.082 109.778 163.27 109.446 163.531 109.179C163.792 108.909 164.112 108.707 164.49 108.574C164.868 108.438 165.285 108.369 165.743 108.369C166.058 108.369 166.372 108.406 166.684 108.48C166.997 108.554 167.282 108.676 167.541 108.847C167.799 109.014 168.007 109.243 168.163 109.533C168.322 109.822 168.402 110.185 168.402 110.619V115H166.919V114.101H166.868C166.774 114.283 166.642 114.453 166.471 114.612C166.304 114.768 166.092 114.895 165.836 114.991C165.583 115.085 165.287 115.132 164.946 115.132ZM165.346 113.999C165.656 113.999 165.924 113.937 166.152 113.815C166.379 113.69 166.554 113.526 166.676 113.321C166.801 113.116 166.863 112.893 166.863 112.652V111.881C166.815 111.92 166.733 111.957 166.616 111.991C166.502 112.026 166.375 112.055 166.233 112.081C166.091 112.107 165.95 112.129 165.811 112.149C165.672 112.169 165.551 112.186 165.449 112.2C165.218 112.232 165.012 112.283 164.831 112.354C164.649 112.425 164.505 112.524 164.4 112.652C164.295 112.777 164.243 112.939 164.243 113.138C164.243 113.422 164.346 113.636 164.554 113.781C164.761 113.926 165.025 113.999 165.346 113.999ZM175.376 110.185L173.97 110.338C173.93 110.196 173.86 110.062 173.761 109.938C173.664 109.812 173.534 109.712 173.369 109.635C173.204 109.558 173.002 109.52 172.764 109.52C172.443 109.52 172.173 109.589 171.954 109.729C171.738 109.868 171.632 110.048 171.635 110.27C171.632 110.46 171.701 110.615 171.843 110.734C171.988 110.854 172.227 110.952 172.559 111.028L173.676 111.267C174.295 111.401 174.755 111.612 175.056 111.902C175.36 112.192 175.514 112.571 175.517 113.04C175.514 113.452 175.393 113.815 175.154 114.131C174.919 114.443 174.591 114.687 174.17 114.864C173.75 115.04 173.267 115.128 172.721 115.128C171.92 115.128 171.275 114.96 170.787 114.625C170.298 114.287 170.007 113.817 169.913 113.214L171.417 113.07C171.485 113.365 171.63 113.588 171.852 113.739C172.074 113.889 172.362 113.964 172.717 113.964C173.083 113.964 173.377 113.889 173.599 113.739C173.824 113.588 173.936 113.402 173.936 113.18C173.936 112.993 173.863 112.838 173.718 112.716C173.576 112.594 173.355 112.5 173.054 112.435L171.937 112.2C171.309 112.07 170.845 111.849 170.544 111.54C170.243 111.227 170.093 110.832 170.096 110.355C170.093 109.952 170.203 109.602 170.424 109.307C170.649 109.009 170.96 108.778 171.358 108.616C171.758 108.452 172.22 108.369 172.743 108.369C173.51 108.369 174.113 108.533 174.554 108.859C174.997 109.186 175.271 109.628 175.376 110.185ZM180.307 108.455V109.648H176.544V108.455H180.307ZM177.473 106.886H179.016V113.031C179.016 113.239 179.047 113.398 179.11 113.509C179.175 113.616 179.26 113.69 179.365 113.73C179.471 113.77 179.587 113.79 179.715 113.79C179.811 113.79 179.9 113.783 179.979 113.768C180.061 113.754 180.124 113.741 180.167 113.73L180.426 114.936C180.344 114.964 180.226 114.996 180.073 115.03C179.922 115.064 179.738 115.084 179.519 115.089C179.132 115.101 178.784 115.043 178.475 114.915C178.165 114.784 177.919 114.582 177.738 114.31C177.559 114.037 177.471 113.696 177.473 113.287V106.886ZM183.531 106.273V115H181.988V106.273H183.531ZM187.25 115.132C186.836 115.132 186.462 115.058 186.13 114.911C185.8 114.76 185.539 114.538 185.346 114.246C185.155 113.953 185.06 113.592 185.06 113.163C185.06 112.794 185.128 112.489 185.265 112.247C185.401 112.006 185.587 111.812 185.823 111.668C186.059 111.523 186.324 111.413 186.62 111.339C186.918 111.263 187.226 111.207 187.544 111.173C187.928 111.134 188.239 111.098 188.478 111.067C188.716 111.033 188.89 110.982 188.998 110.913C189.108 110.842 189.164 110.733 189.164 110.585V110.56C189.164 110.239 189.069 109.99 188.878 109.814C188.688 109.638 188.414 109.55 188.056 109.55C187.678 109.55 187.378 109.632 187.157 109.797C186.938 109.962 186.79 110.156 186.713 110.381L185.273 110.176C185.387 109.778 185.574 109.446 185.836 109.179C186.097 108.909 186.417 108.707 186.794 108.574C187.172 108.438 187.59 108.369 188.047 108.369C188.363 108.369 188.676 108.406 188.989 108.48C189.301 108.554 189.587 108.676 189.846 108.847C190.104 109.014 190.311 109.243 190.468 109.533C190.627 109.822 190.706 110.185 190.706 110.619V115H189.223V114.101H189.172C189.078 114.283 188.946 114.453 188.776 114.612C188.608 114.768 188.397 114.895 188.141 114.991C187.888 115.085 187.591 115.132 187.25 115.132ZM187.651 113.999C187.961 113.999 188.229 113.937 188.456 113.815C188.684 113.69 188.858 113.526 188.98 113.321C189.105 113.116 189.168 112.893 189.168 112.652V111.881C189.12 111.92 189.037 111.957 188.921 111.991C188.807 112.026 188.679 112.055 188.537 112.081C188.395 112.107 188.255 112.129 188.115 112.149C187.976 112.169 187.855 112.186 187.753 112.2C187.523 112.232 187.317 112.283 187.135 112.354C186.953 112.425 186.81 112.524 186.705 112.652C186.6 112.777 186.547 112.939 186.547 113.138C186.547 113.422 186.651 113.636 186.858 113.781C187.066 113.926 187.33 113.999 187.651 113.999ZM193.232 117.455C193.022 117.455 192.827 117.438 192.648 117.403C192.472 117.372 192.331 117.335 192.226 117.293L192.584 116.091C192.809 116.156 193.009 116.188 193.185 116.185C193.361 116.182 193.516 116.126 193.65 116.018C193.786 115.913 193.901 115.737 193.995 115.49L194.127 115.136L191.753 108.455H193.39L194.898 113.398H194.966L196.479 108.455H198.12L195.499 115.793C195.377 116.139 195.215 116.436 195.013 116.683C194.811 116.933 194.564 117.124 194.272 117.254C193.982 117.388 193.635 117.455 193.232 117.455ZM202.112 115.128C201.456 115.128 200.889 114.991 200.412 114.719C199.938 114.443 199.572 114.054 199.317 113.551C199.061 113.045 198.933 112.45 198.933 111.766C198.933 111.092 199.061 110.501 199.317 109.993C199.575 109.482 199.936 109.084 200.399 108.8C200.862 108.513 201.406 108.369 202.031 108.369C202.435 108.369 202.815 108.435 203.173 108.565C203.534 108.693 203.852 108.892 204.128 109.162C204.406 109.432 204.625 109.776 204.784 110.193C204.943 110.608 205.023 111.102 205.023 111.676V112.149H199.658V111.109H203.544C203.541 110.814 203.477 110.551 203.352 110.321C203.227 110.088 203.053 109.905 202.828 109.771C202.607 109.638 202.348 109.571 202.053 109.571C201.737 109.571 201.46 109.648 201.222 109.801C200.983 109.952 200.797 110.151 200.663 110.398C200.533 110.642 200.466 110.911 200.463 111.203V112.111C200.463 112.491 200.533 112.818 200.672 113.091C200.811 113.361 201.006 113.568 201.256 113.713C201.506 113.855 201.798 113.926 202.134 113.926C202.358 113.926 202.561 113.895 202.743 113.832C202.925 113.767 203.082 113.672 203.216 113.547C203.349 113.422 203.45 113.267 203.518 113.082L204.959 113.244C204.868 113.625 204.695 113.957 204.439 114.241C204.186 114.523 203.862 114.741 203.467 114.898C203.072 115.051 202.621 115.128 202.112 115.128ZM206.578 115V108.455H208.074V109.545H208.142C208.261 109.168 208.466 108.876 208.755 108.672C209.048 108.464 209.382 108.361 209.757 108.361C209.842 108.361 209.937 108.365 210.042 108.374C210.15 108.379 210.24 108.389 210.311 108.403V109.822C210.245 109.8 210.142 109.78 210 109.763C209.86 109.743 209.725 109.733 209.595 109.733C209.314 109.733 209.061 109.794 208.836 109.916C208.615 110.036 208.44 110.202 208.312 110.415C208.184 110.628 208.12 110.874 208.12 111.152V115H206.578ZM211.786 115.094C211.527 115.094 211.306 115.003 211.121 114.821C210.936 114.639 210.846 114.418 210.848 114.156C210.846 113.901 210.936 113.682 211.121 113.5C211.306 113.318 211.527 113.227 211.786 113.227C212.036 113.227 212.253 113.318 212.438 113.5C212.625 113.682 212.721 113.901 212.723 114.156C212.721 114.33 212.675 114.487 212.587 114.629C212.502 114.771 212.388 114.885 212.246 114.97C212.107 115.053 211.953 115.094 211.786 115.094ZM214.566 115V108.455H216.109V115H214.566ZM215.342 107.526C215.097 107.526 214.887 107.445 214.711 107.283C214.535 107.118 214.447 106.92 214.447 106.69C214.447 106.457 214.535 106.26 214.711 106.098C214.887 105.933 215.097 105.851 215.342 105.851C215.589 105.851 215.799 105.933 215.972 106.098C216.148 106.26 216.237 106.457 216.237 106.69C216.237 106.92 216.148 107.118 215.972 107.283C215.799 107.445 215.589 107.526 215.342 107.526ZM220.8 115.128C220.161 115.128 219.607 114.987 219.138 114.706C218.669 114.425 218.306 114.031 218.047 113.526C217.792 113.02 217.664 112.429 217.664 111.753C217.664 111.077 217.792 110.484 218.047 109.976C218.306 109.467 218.669 109.072 219.138 108.791C219.607 108.51 220.161 108.369 220.8 108.369C221.439 108.369 221.993 108.51 222.462 108.791C222.931 109.072 223.293 109.467 223.549 109.976C223.807 110.484 223.936 111.077 223.936 111.753C223.936 112.429 223.807 113.02 223.549 113.526C223.293 114.031 222.931 114.425 222.462 114.706C221.993 114.987 221.439 115.128 220.8 115.128ZM220.809 113.892C221.155 113.892 221.445 113.797 221.678 113.607C221.911 113.413 222.084 113.155 222.198 112.831C222.314 112.507 222.373 112.146 222.373 111.749C222.373 111.348 222.314 110.986 222.198 110.662C222.084 110.335 221.911 110.075 221.678 109.882C221.445 109.689 221.155 109.592 220.809 109.592C220.453 109.592 220.158 109.689 219.922 109.882C219.689 110.075 219.515 110.335 219.398 110.662C219.284 110.986 219.228 111.348 219.228 111.749C219.228 112.146 219.284 112.507 219.398 112.831C219.515 113.155 219.689 113.413 219.922 113.607C220.158 113.797 220.453 113.892 220.809 113.892Z" fill="white" fill-opacity="0.8"/>
<path d="M19.3622 77.2727H20.9432V82.9744C20.9432 83.5994 20.7955 84.1491 20.5 84.6236C20.2074 85.098 19.7955 85.4687 19.2642 85.7358C18.733 86 18.1122 86.1321 17.402 86.1321C16.6889 86.1321 16.0668 86 15.5355 85.7358C15.0043 85.4687 14.5923 85.098 14.2997 84.6236C14.0071 84.1491 13.8608 83.5994 13.8608 82.9744V77.2727H15.4418V82.8423C15.4418 83.206 15.5213 83.5298 15.6804 83.8139C15.8423 84.098 16.0696 84.321 16.3622 84.483C16.6548 84.642 17.0014 84.7216 17.402 84.7216C17.8026 84.7216 18.1491 84.642 18.4418 84.483C18.7372 84.321 18.9645 84.098 19.1236 83.8139C19.2827 83.5298 19.3622 83.206 19.3622 82.8423V77.2727ZM23.1616 86V77.2727H26.4343C27.1048 77.2727 27.6673 77.3892 28.1218 77.6222C28.5792 77.8551 28.9244 78.1818 29.1573 78.6023C29.3931 79.0199 29.511 79.5071 29.511 80.0639C29.511 80.6236 29.3917 81.1094 29.1531 81.5213C28.9173 81.9304 28.5692 82.2472 28.109 82.4716C27.6488 82.6932 27.0835 82.804 26.413 82.804H24.082V81.4915H26.1999C26.592 81.4915 26.913 81.4375 27.163 81.3295C27.413 81.2187 27.5977 81.0582 27.717 80.848C27.8391 80.6349 27.9002 80.3736 27.9002 80.0639C27.9002 79.7543 27.8391 79.4901 27.717 79.2713C27.5948 79.0497 27.4087 78.8821 27.1587 78.7685C26.9087 78.652 26.5863 78.5938 26.1914 78.5938H24.7425V86H23.1616ZM27.6701 82.0455L29.8306 86H28.0664L25.9442 82.0455H27.6701ZM33.0472 77.2727V86H31.4663V77.2727H33.0472Z" fill="white" fill-opacity="0.7"/>
<rect x="13.5" y="163.5" width="498" height="30" rx="7.5" fill="white" fill-opacity="0.08" stroke="#282828"/>
<path d="M23.3352 179.165V183H21.7926V174.273H23.3011V177.567H23.3778C23.5313 177.197 23.7685 176.906 24.0895 176.693C24.4134 176.477 24.8253 176.369 25.3253 176.369C25.7798 176.369 26.1761 176.464 26.5142 176.655C26.8523 176.845 27.1136 177.124 27.2983 177.49C27.4858 177.857 27.5795 178.304 27.5795 178.832V183H26.0369V179.071C26.0369 178.631 25.9233 178.288 25.696 178.044C25.4716 177.797 25.1562 177.673 24.75 177.673C24.4773 177.673 24.233 177.733 24.017 177.852C23.804 177.969 23.6364 178.138 23.5142 178.359C23.3949 178.581 23.3352 178.849 23.3352 179.165ZM32.6705 176.455V177.648H28.9077V176.455H32.6705ZM29.8366 174.886H31.3793V181.031C31.3793 181.239 31.4105 181.398 31.473 181.509C31.5384 181.616 31.6236 181.69 31.7287 181.73C31.8338 181.77 31.9503 181.79 32.0781 181.79C32.1747 181.79 32.2628 181.783 32.3423 181.768C32.4247 181.754 32.4872 181.741 32.5298 181.73L32.7898 182.936C32.7074 182.964 32.5895 182.996 32.4361 183.03C32.2855 183.064 32.1009 183.084 31.8821 183.089C31.4957 183.101 31.1477 183.043 30.8381 182.915C30.5284 182.784 30.2827 182.582 30.1009 182.31C29.9219 182.037 29.8338 181.696 29.8366 181.287V174.886ZM37.479 176.455V177.648H33.7163V176.455H37.479ZM34.6452 174.886H36.1879V181.031C36.1879 181.239 36.2191 181.398 36.2816 181.509C36.3469 181.616 36.4322 181.69 36.5373 181.73C36.6424 181.77 36.7589 181.79 36.8867 181.79C36.9833 181.79 37.0714 181.783 37.1509 181.768C37.2333 181.754 37.2958 181.741 37.3384 181.73L37.5984 182.936C37.516 182.964 37.3981 182.996 37.2447 183.03C37.0941 183.064 36.9094 183.084 36.6907 183.089C36.3043 183.101 35.9563 183.043 35.6467 182.915C35.337 182.784 35.0913 182.582 34.9094 182.31C34.7305 182.037 34.6424 181.696 34.6452 181.287V174.886ZM39.0192 185.455V176.455H40.5362V177.537H40.6257C40.7053 177.378 40.8175 177.209 40.9624 177.03C41.1072 176.848 41.3033 176.693 41.5504 176.565C41.7976 176.435 42.1129 176.369 42.4964 176.369C43.0021 176.369 43.4581 176.499 43.8643 176.757C44.2734 177.013 44.5973 177.392 44.8359 177.895C45.0774 178.395 45.1982 179.009 45.1982 179.736C45.1982 180.455 45.0803 181.065 44.8445 181.568C44.6087 182.071 44.2876 182.455 43.8814 182.719C43.4751 182.983 43.0149 183.115 42.5007 183.115C42.1257 183.115 41.8146 183.053 41.5675 182.928C41.3203 182.803 41.1214 182.652 40.9709 182.476C40.8232 182.297 40.7081 182.128 40.6257 181.969H40.5618V185.455H39.0192ZM40.532 179.727C40.532 180.151 40.5916 180.521 40.7109 180.839C40.8331 181.158 41.0078 181.406 41.2351 181.585C41.4652 181.761 41.7436 181.849 42.0703 181.849C42.4112 181.849 42.6967 181.759 42.9268 181.577C43.157 181.392 43.3303 181.141 43.4467 180.822C43.5661 180.501 43.6257 180.136 43.6257 179.727C43.6257 179.321 43.5675 178.96 43.451 178.645C43.3345 178.33 43.1612 178.082 42.9311 177.903C42.701 177.724 42.4141 177.635 42.0703 177.635C41.7408 177.635 41.4609 177.722 41.2308 177.895C41.0007 178.068 40.826 178.311 40.7067 178.624C40.5902 178.936 40.532 179.304 40.532 179.727ZM51.9425 178.185L50.5362 178.338C50.4964 178.196 50.4268 178.062 50.3274 177.938C50.2308 177.812 50.1001 177.712 49.9354 177.635C49.7706 177.558 49.5689 177.52 49.3303 177.52C49.0092 177.52 48.7393 177.589 48.5206 177.729C48.3047 177.868 48.1982 178.048 48.201 178.27C48.1982 178.46 48.2678 178.615 48.4098 178.734C48.5547 178.854 48.7933 178.952 49.1257 179.028L50.2422 179.267C50.8615 179.401 51.3217 179.612 51.6229 179.902C51.9268 180.192 52.0803 180.571 52.0831 181.04C52.0803 181.452 51.9595 181.815 51.7209 182.131C51.4851 182.443 51.157 182.687 50.7365 182.864C50.3161 183.04 49.8331 183.128 49.2876 183.128C48.4865 183.128 47.8416 182.96 47.353 182.625C46.8643 182.287 46.5732 181.817 46.4794 181.214L47.9837 181.07C48.0518 181.365 48.1967 181.588 48.4183 181.739C48.6399 181.889 48.9283 181.964 49.2834 181.964C49.6499 181.964 49.9439 181.889 50.1655 181.739C50.3899 181.588 50.5021 181.402 50.5021 181.18C50.5021 180.993 50.4297 180.838 50.2848 180.716C50.1428 180.594 49.9212 180.5 49.62 180.435L48.5036 180.2C47.8757 180.07 47.4112 179.849 47.1101 179.54C46.8089 179.227 46.6598 178.832 46.6626 178.355C46.6598 177.952 46.7692 177.602 46.9908 177.307C47.2152 177.009 47.5263 176.778 47.924 176.616C48.3246 176.452 48.7862 176.369 49.3089 176.369C50.076 176.369 50.6797 176.533 51.12 176.859C51.5632 177.186 51.8374 177.628 51.9425 178.185ZM54.5554 183.094C54.2969 183.094 54.0753 183.003 53.8906 182.821C53.706 182.639 53.6151 182.418 53.6179 182.156C53.6151 181.901 53.706 181.682 53.8906 181.5C54.0753 181.318 54.2969 181.227 54.5554 181.227C54.8054 181.227 55.0227 181.318 55.2074 181.5C55.3949 181.682 55.4901 181.901 55.4929 182.156C55.4901 182.33 55.4446 182.487 55.3565 182.629C55.2713 182.771 55.1577 182.885 55.0156 182.97C54.8764 183.053 54.723 183.094 54.5554 183.094ZM54.5554 178.423C54.2969 178.423 54.0753 178.332 53.8906 178.151C53.706 177.966 53.6151 177.744 53.6179 177.486C53.6151 177.23 53.706 177.011 53.8906 176.83C54.0753 176.645 54.2969 176.553 54.5554 176.553C54.8054 176.553 55.0227 176.645 55.2074 176.83C55.3949 177.011 55.4901 177.23 55.4929 177.486C55.4901 177.656 55.4446 177.812 55.3565 177.955C55.2713 178.097 55.1577 178.21 55.0156 178.295C54.8764 178.381 54.723 178.423 54.5554 178.423ZM60.8981 173.864L58.0856 184.312H56.7347L59.5472 173.864H60.8981ZM65.695 173.864L62.8825 184.312H61.5316L64.3441 173.864H65.695ZM69.8271 183.128C69.1708 183.128 68.604 182.991 68.1268 182.719C67.6523 182.443 67.2873 182.054 67.0316 181.551C66.7759 181.045 66.6481 180.45 66.6481 179.766C66.6481 179.092 66.7759 178.501 67.0316 177.993C67.2901 177.482 67.6509 177.084 68.114 176.8C68.5771 176.513 69.1211 176.369 69.7461 176.369C70.1495 176.369 70.5302 176.435 70.8881 176.565C71.2489 176.693 71.5671 176.892 71.8427 177.162C72.1211 177.432 72.3398 177.776 72.4989 178.193C72.658 178.608 72.7376 179.102 72.7376 179.676V180.149H67.3725V179.109H71.2589C71.256 178.814 71.1921 178.551 71.0671 178.321C70.9421 178.088 70.7674 177.905 70.543 177.771C70.3214 177.638 70.0629 177.571 69.7674 177.571C69.4521 177.571 69.1751 177.648 68.9364 177.801C68.6978 177.952 68.5117 178.151 68.3782 178.398C68.2475 178.642 68.1808 178.911 68.1779 179.203V180.111C68.1779 180.491 68.2475 180.818 68.3867 181.091C68.5259 181.361 68.7205 181.568 68.9705 181.713C69.2205 181.855 69.5131 181.926 69.8484 181.926C70.0728 181.926 70.2759 181.895 70.4577 181.832C70.6396 181.767 70.7972 181.672 70.9308 181.547C71.0643 181.422 71.1651 181.267 71.2333 181.082L72.6737 181.244C72.5827 181.625 72.4094 181.957 72.1538 182.241C71.9009 182.523 71.5771 182.741 71.1822 182.898C70.7873 183.051 70.3356 183.128 69.8271 183.128ZM75.4134 176.455L76.7344 178.871L78.0767 176.455H79.7088L77.7358 179.727L79.7429 183H78.1193L76.7344 180.643L75.3622 183H73.7259L75.7202 179.727L73.777 176.455H75.4134ZM81.152 185.455V176.455H82.669V177.537H82.7585C82.8381 177.378 82.9503 177.209 83.0952 177.03C83.2401 176.848 83.4361 176.693 83.6832 176.565C83.9304 176.435 84.2457 176.369 84.6293 176.369C85.1349 176.369 85.5909 176.499 85.9972 176.757C86.4063 177.013 86.7301 177.392 86.9688 177.895C87.2102 178.395 87.331 179.009 87.331 179.736C87.331 180.455 87.2131 181.065 86.9773 181.568C86.7415 182.071 86.4205 182.455 86.0142 182.719C85.608 182.983 85.1477 183.115 84.6335 183.115C84.2585 183.115 83.9474 183.053 83.7003 182.928C83.4531 182.803 83.2543 182.652 83.1037 182.476C82.956 182.297 82.8409 182.128 82.7585 181.969H82.6946V185.455H81.152ZM82.6648 179.727C82.6648 180.151 82.7244 180.521 82.8438 180.839C82.9659 181.158 83.1406 181.406 83.3679 181.585C83.598 181.761 83.8764 181.849 84.2031 181.849C84.544 181.849 84.8295 181.759 85.0597 181.577C85.2898 181.392 85.4631 181.141 85.5795 180.822C85.6989 180.501 85.7585 180.136 85.7585 179.727C85.7585 179.321 85.7003 178.96 85.5838 178.645C85.4673 178.33 85.294 178.082 85.0639 177.903C84.8338 177.724 84.5469 177.635 84.2031 177.635C83.8736 177.635 83.5938 177.722 83.3636 177.895C83.1335 178.068 82.9588 178.311 82.8395 178.624C82.723 178.936 82.6648 179.304 82.6648 179.727ZM90.4446 174.273V183H88.902V174.273H90.4446ZM95.136 183.128C94.4968 183.128 93.9428 182.987 93.4741 182.706C93.0053 182.425 92.6417 182.031 92.3832 181.526C92.1275 181.02 91.9996 180.429 91.9996 179.753C91.9996 179.077 92.1275 178.484 92.3832 177.976C92.6417 177.467 93.0053 177.072 93.4741 176.791C93.9428 176.51 94.4968 176.369 95.136 176.369C95.7752 176.369 96.3292 176.51 96.7979 176.791C97.2667 177.072 97.6289 177.467 97.8846 177.976C98.1431 178.484 98.2724 179.077 98.2724 179.753C98.2724 180.429 98.1431 181.02 97.8846 181.526C97.6289 182.031 97.2667 182.425 96.7979 182.706C96.3292 182.987 95.7752 183.128 95.136 183.128ZM95.1445 181.892C95.4911 181.892 95.7809 181.797 96.0138 181.607C96.2468 181.413 96.4201 181.155 96.5337 180.831C96.6502 180.507 96.7085 180.146 96.7085 179.749C96.7085 179.348 96.6502 178.986 96.5337 178.662C96.4201 178.335 96.2468 178.075 96.0138 177.882C95.7809 177.689 95.4911 177.592 95.1445 177.592C94.7894 177.592 94.494 177.689 94.2582 177.882C94.0252 178.075 93.8505 178.335 93.734 178.662C93.6204 178.986 93.5636 179.348 93.5636 179.749C93.5636 180.146 93.6204 180.507 93.734 180.831C93.8505 181.155 94.0252 181.413 94.2582 181.607C94.494 181.797 94.7894 181.892 95.1445 181.892ZM99.8317 183V176.455H101.327V177.545H101.396C101.515 177.168 101.719 176.876 102.009 176.672C102.302 176.464 102.636 176.361 103.011 176.361C103.096 176.361 103.191 176.365 103.296 176.374C103.404 176.379 103.494 176.389 103.565 176.403V177.822C103.499 177.8 103.396 177.78 103.254 177.763C103.114 177.743 102.979 177.733 102.849 177.733C102.567 177.733 102.315 177.794 102.09 177.916C101.869 178.036 101.694 178.202 101.566 178.415C101.438 178.628 101.374 178.874 101.374 179.152V183H99.8317ZM107.468 183.128C106.811 183.128 106.245 182.991 105.767 182.719C105.293 182.443 104.928 182.054 104.672 181.551C104.417 181.045 104.289 180.45 104.289 179.766C104.289 179.092 104.417 178.501 104.672 177.993C104.931 177.482 105.292 177.084 105.755 176.8C106.218 176.513 106.762 176.369 107.387 176.369C107.79 176.369 108.171 176.435 108.529 176.565C108.89 176.693 109.208 176.892 109.483 177.162C109.762 177.432 109.98 177.776 110.14 178.193C110.299 178.608 110.378 179.102 110.378 179.676V180.149H105.013V179.109H108.9C108.897 178.814 108.833 178.551 108.708 178.321C108.583 178.088 108.408 177.905 108.184 177.771C107.962 177.638 107.703 177.571 107.408 177.571C107.093 177.571 106.816 177.648 106.577 177.801C106.338 177.952 106.152 178.151 106.019 178.398C105.888 178.642 105.821 178.911 105.819 179.203V180.111C105.819 180.491 105.888 180.818 106.027 181.091C106.167 181.361 106.361 181.568 106.611 181.713C106.861 181.855 107.154 181.926 107.489 181.926C107.713 181.926 107.917 181.895 108.098 181.832C108.28 181.767 108.438 181.672 108.571 181.547C108.705 181.422 108.806 181.267 108.874 181.082L110.314 181.244C110.223 181.625 110.05 181.957 109.794 182.241C109.542 182.523 109.218 182.741 108.823 182.898C108.428 183.051 107.976 183.128 107.468 183.128ZM111.933 183V176.455H113.429V177.545H113.497C113.616 177.168 113.821 176.876 114.111 176.672C114.403 176.464 114.737 176.361 115.112 176.361C115.197 176.361 115.293 176.365 115.398 176.374C115.506 176.379 115.595 176.389 115.666 176.403V177.822C115.601 177.8 115.497 177.78 115.355 177.763C115.216 177.743 115.081 177.733 114.95 177.733C114.669 177.733 114.416 177.794 114.192 177.916C113.97 178.036 113.795 178.202 113.668 178.415C113.54 178.628 113.476 178.874 113.476 179.152V183H111.933ZM117.141 183.094C116.883 183.094 116.661 183.003 116.477 182.821C116.292 182.639 116.201 182.418 116.204 182.156C116.201 181.901 116.292 181.682 116.477 181.5C116.661 181.318 116.883 181.227 117.141 181.227C117.391 181.227 117.609 181.318 117.793 181.5C117.981 181.682 118.076 181.901 118.079 182.156C118.076 182.33 118.031 182.487 117.942 182.629C117.857 182.771 117.744 182.885 117.602 182.97C117.462 183.053 117.309 183.094 117.141 183.094ZM119.922 183V176.455H121.417V177.545H121.485C121.605 177.168 121.809 176.876 122.099 176.672C122.392 176.464 122.725 176.361 123.1 176.361C123.186 176.361 123.281 176.365 123.386 176.374C123.494 176.379 123.583 176.389 123.654 176.403V177.822C123.589 177.8 123.485 177.78 123.343 177.763C123.204 177.743 123.069 177.733 122.939 177.733C122.657 177.733 122.404 177.794 122.18 177.916C121.958 178.036 121.784 178.202 121.656 178.415C121.528 178.628 121.464 178.874 121.464 179.152V183H119.922ZM127.558 183.128C126.901 183.128 126.335 182.991 125.857 182.719C125.383 182.443 125.018 182.054 124.762 181.551C124.506 181.045 124.379 180.45 124.379 179.766C124.379 179.092 124.506 178.501 124.762 177.993C125.021 177.482 125.381 177.084 125.844 176.8C126.308 176.513 126.852 176.369 127.477 176.369C127.88 176.369 128.261 176.435 128.619 176.565C128.979 176.693 129.298 176.892 129.573 177.162C129.852 177.432 130.07 177.776 130.229 178.193C130.388 178.608 130.468 179.102 130.468 179.676V180.149H125.103V179.109H128.989C128.987 178.814 128.923 178.551 128.798 178.321C128.673 178.088 128.498 177.905 128.273 177.771C128.052 177.638 127.793 177.571 127.498 177.571C127.183 177.571 126.906 177.648 126.667 177.801C126.428 177.952 126.242 178.151 126.109 178.398C125.978 178.642 125.911 178.911 125.908 179.203V180.111C125.908 180.491 125.978 180.818 126.117 181.091C126.256 181.361 126.451 181.568 126.701 181.713C126.951 181.855 127.244 181.926 127.579 181.926C127.803 181.926 128.006 181.895 128.188 181.832C128.37 181.767 128.528 181.672 128.661 181.547C128.795 181.422 128.896 181.267 128.964 181.082L130.404 181.244C130.313 181.625 130.14 181.957 129.884 182.241C129.631 182.523 129.308 182.741 128.913 182.898C128.518 183.051 128.066 183.128 127.558 183.128ZM134.87 185.591C134.316 185.591 133.84 185.516 133.442 185.365C133.044 185.217 132.725 185.018 132.483 184.768C132.242 184.518 132.074 184.241 131.98 183.938L133.37 183.601C133.432 183.729 133.523 183.855 133.642 183.98C133.762 184.108 133.922 184.213 134.124 184.295C134.328 184.381 134.586 184.423 134.895 184.423C135.333 184.423 135.695 184.317 135.982 184.104C136.269 183.893 136.412 183.547 136.412 183.064V181.824H136.336C136.256 181.983 136.14 182.146 135.986 182.314C135.836 182.482 135.635 182.622 135.385 182.736C135.138 182.849 134.827 182.906 134.452 182.906C133.949 182.906 133.493 182.788 133.084 182.553C132.678 182.314 132.354 181.959 132.113 181.487C131.874 181.013 131.755 180.419 131.755 179.706C131.755 178.987 131.874 178.381 132.113 177.886C132.354 177.389 132.679 177.013 133.088 176.757C133.498 176.499 133.953 176.369 134.456 176.369C134.84 176.369 135.155 176.435 135.402 176.565C135.652 176.693 135.851 176.848 135.999 177.03C136.147 177.209 136.259 177.378 136.336 177.537H136.421V176.455H137.942V183.107C137.942 183.666 137.809 184.129 137.542 184.496C137.275 184.862 136.909 185.136 136.446 185.318C135.983 185.5 135.458 185.591 134.87 185.591ZM134.882 181.696C135.209 181.696 135.488 181.616 135.718 181.457C135.948 181.298 136.123 181.07 136.242 180.771C136.361 180.473 136.421 180.115 136.421 179.697C136.421 179.286 136.361 178.925 136.242 178.615C136.125 178.305 135.952 178.065 135.722 177.895C135.495 177.722 135.215 177.635 134.882 177.635C134.539 177.635 134.252 177.724 134.022 177.903C133.792 178.082 133.618 178.328 133.502 178.641C133.385 178.95 133.327 179.303 133.327 179.697C133.327 180.098 133.385 180.449 133.502 180.75C133.621 181.048 133.796 181.281 134.026 181.449C134.259 181.614 134.544 181.696 134.882 181.696ZM141.316 179.165V183H139.773V176.455H141.248V177.567H141.324C141.475 177.2 141.715 176.909 142.044 176.693C142.377 176.477 142.787 176.369 143.276 176.369C143.728 176.369 144.121 176.466 144.456 176.659C144.794 176.852 145.056 177.132 145.24 177.499C145.428 177.865 145.52 178.31 145.517 178.832V183H143.975V179.071C143.975 178.634 143.861 178.291 143.634 178.044C143.409 177.797 143.098 177.673 142.701 177.673C142.431 177.673 142.191 177.733 141.98 177.852C141.773 177.969 141.61 178.138 141.49 178.359C141.374 178.581 141.316 178.849 141.316 179.165ZM150.233 183.128C149.577 183.128 149.01 182.991 148.533 182.719C148.059 182.443 147.694 182.054 147.438 181.551C147.182 181.045 147.054 180.45 147.054 179.766C147.054 179.092 147.182 178.501 147.438 177.993C147.696 177.482 148.057 177.084 148.52 176.8C148.983 176.513 149.527 176.369 150.152 176.369C150.556 176.369 150.936 176.435 151.294 176.565C151.655 176.693 151.973 176.892 152.249 177.162C152.527 177.432 152.746 177.776 152.905 178.193C153.064 178.608 153.144 179.102 153.144 179.676V180.149H147.779V179.109H151.665C151.662 178.814 151.598 178.551 151.473 178.321C151.348 178.088 151.174 177.905 150.949 177.771C150.728 177.638 150.469 177.571 150.174 177.571C149.858 177.571 149.581 177.648 149.343 177.801C149.104 177.952 148.918 178.151 148.784 178.398C148.654 178.642 148.587 178.911 148.584 179.203V180.111C148.584 180.491 148.654 180.818 148.793 181.091C148.932 181.361 149.127 181.568 149.377 181.713C149.627 181.855 149.919 181.926 150.255 181.926C150.479 181.926 150.682 181.895 150.864 181.832C151.046 181.767 151.203 181.672 151.337 181.547C151.471 181.422 151.571 181.267 151.64 181.082L153.08 181.244C152.989 181.625 152.816 181.957 152.56 182.241C152.307 182.523 151.983 182.741 151.588 182.898C151.194 183.051 150.742 183.128 150.233 183.128ZM157.967 176.455V177.648H154.205V176.455H157.967ZM155.134 174.886H156.676V181.031C156.676 181.239 156.707 181.398 156.77 181.509C156.835 181.616 156.92 181.69 157.026 181.73C157.131 181.77 157.247 181.79 157.375 181.79C157.472 181.79 157.56 181.783 157.639 181.768C157.722 181.754 157.784 181.741 157.827 181.73L158.087 182.936C158.004 182.964 157.886 182.996 157.733 183.03C157.582 183.064 157.398 183.084 157.179 183.089C156.793 183.101 156.445 183.043 156.135 182.915C155.825 182.784 155.58 182.582 155.398 182.31C155.219 182.037 155.131 181.696 155.134 181.287V174.886ZM160.458 183.094C160.199 183.094 159.978 183.003 159.793 182.821C159.608 182.639 159.517 182.418 159.52 182.156C159.517 181.901 159.608 181.682 159.793 181.5C159.978 181.318 160.199 181.227 160.458 181.227C160.708 181.227 160.925 181.318 161.11 181.5C161.297 181.682 161.392 181.901 161.395 182.156C161.392 182.33 161.347 182.487 161.259 182.629C161.174 182.771 161.06 182.885 160.918 182.97C160.779 183.053 160.625 183.094 160.458 183.094ZM163.306 183V174.273H164.849V177.537H164.913C164.992 177.378 165.104 177.209 165.249 177.03C165.394 176.848 165.59 176.693 165.837 176.565C166.085 176.435 166.4 176.369 166.783 176.369C167.289 176.369 167.745 176.499 168.151 176.757C168.56 177.013 168.884 177.392 169.123 177.895C169.364 178.395 169.485 179.009 169.485 179.736C169.485 180.455 169.367 181.065 169.131 181.568C168.896 182.071 168.575 182.455 168.168 182.719C167.762 182.983 167.302 183.115 166.788 183.115C166.413 183.115 166.102 183.053 165.854 182.928C165.607 182.803 165.408 182.652 165.258 182.476C165.11 182.297 164.995 182.128 164.913 181.969H164.823V183H163.306ZM164.819 179.727C164.819 180.151 164.879 180.521 164.998 180.839C165.12 181.158 165.295 181.406 165.522 181.585C165.752 181.761 166.031 181.849 166.357 181.849C166.698 181.849 166.984 181.759 167.214 181.577C167.444 181.392 167.617 181.141 167.734 180.822C167.853 180.501 167.913 180.136 167.913 179.727C167.913 179.321 167.854 178.96 167.738 178.645C167.621 178.33 167.448 178.082 167.218 177.903C166.988 177.724 166.701 177.635 166.357 177.635C166.028 177.635 165.748 177.722 165.518 177.895C165.288 178.068 165.113 178.311 164.994 178.624C164.877 178.936 164.819 179.304 164.819 179.727ZM174.315 176.455V177.648H170.552V176.455H174.315ZM171.481 174.886H173.024V181.031C173.024 181.239 173.055 181.398 173.118 181.509C173.183 181.616 173.268 181.69 173.373 181.73C173.478 181.77 173.595 181.79 173.723 181.79C173.819 181.79 173.907 181.783 173.987 181.768C174.069 181.754 174.132 181.741 174.174 181.73L174.434 182.936C174.352 182.964 174.234 182.996 174.081 183.03C173.93 183.064 173.745 183.084 173.527 183.089C173.14 183.101 172.792 183.043 172.483 182.915C172.173 182.784 171.927 182.582 171.745 182.31C171.566 182.037 171.478 181.696 171.481 181.287V174.886ZM178.64 183.128C177.987 183.128 177.425 182.984 176.957 182.697C176.491 182.411 176.131 182.014 175.879 181.509C175.629 181 175.504 180.415 175.504 179.753C175.504 179.088 175.631 178.501 175.887 177.993C176.143 177.482 176.504 177.084 176.969 176.8C177.438 176.513 177.992 176.369 178.631 176.369C179.163 176.369 179.633 176.467 180.042 176.663C180.454 176.857 180.782 177.131 181.026 177.486C181.271 177.838 181.41 178.25 181.444 178.722H179.969C179.91 178.406 179.768 178.143 179.543 177.933C179.322 177.72 179.025 177.614 178.653 177.614C178.337 177.614 178.06 177.699 177.822 177.869C177.583 178.037 177.397 178.278 177.263 178.594C177.133 178.909 177.067 179.287 177.067 179.727C177.067 180.173 177.133 180.557 177.263 180.878C177.394 181.196 177.577 181.442 177.813 181.615C178.052 181.786 178.332 181.871 178.653 181.871C178.88 181.871 179.083 181.828 179.262 181.743C179.444 181.655 179.596 181.528 179.718 181.364C179.84 181.199 179.924 180.999 179.969 180.763H181.444C181.407 181.226 181.271 181.636 181.035 181.994C180.799 182.349 180.478 182.628 180.072 182.83C179.665 183.028 179.188 183.128 178.64 183.128ZM183.911 183.094C183.652 183.094 183.431 183.003 183.246 182.821C183.061 182.639 182.971 182.418 182.973 182.156C182.971 181.901 183.061 181.682 183.246 181.5C183.431 181.318 183.652 181.227 183.911 181.227C184.161 181.227 184.378 181.318 184.563 181.5C184.75 181.682 184.846 181.901 184.848 182.156C184.846 182.33 184.8 182.487 184.712 182.629C184.627 182.771 184.513 182.885 184.371 182.97C184.232 183.053 184.078 183.094 183.911 183.094ZM189.589 183.128C188.933 183.128 188.366 182.991 187.888 182.719C187.414 182.443 187.049 182.054 186.793 181.551C186.538 181.045 186.41 180.45 186.41 179.766C186.41 179.092 186.538 178.501 186.793 177.993C187.052 177.482 187.413 177.084 187.876 176.8C188.339 176.513 188.883 176.369 189.508 176.369C189.911 176.369 190.292 176.435 190.65 176.565C191.011 176.693 191.329 176.892 191.604 177.162C191.883 177.432 192.102 177.776 192.261 178.193C192.42 178.608 192.499 179.102 192.499 179.676V180.149H187.134V179.109H191.021C191.018 178.814 190.954 178.551 190.829 178.321C190.704 178.088 190.529 177.905 190.305 177.771C190.083 177.638 189.825 177.571 189.529 177.571C189.214 177.571 188.937 177.648 188.698 177.801C188.46 177.952 188.273 178.151 188.14 178.398C188.009 178.642 187.942 178.911 187.94 179.203V180.111C187.94 180.491 188.009 180.818 188.148 181.091C188.288 181.361 188.482 181.568 188.732 181.713C188.982 181.855 189.275 181.926 189.61 181.926C189.835 181.926 190.038 181.895 190.219 181.832C190.401 181.767 190.559 181.672 190.692 181.547C190.826 181.422 190.927 181.267 190.995 181.082L192.435 181.244C192.344 181.625 192.171 181.957 191.915 182.241C191.663 182.523 191.339 182.741 190.944 182.898C190.549 183.051 190.097 183.128 189.589 183.128ZM195.938 183.132C195.523 183.132 195.15 183.058 194.817 182.911C194.488 182.76 194.226 182.538 194.033 182.246C193.843 181.953 193.748 181.592 193.748 181.163C193.748 180.794 193.816 180.489 193.952 180.247C194.088 180.006 194.275 179.812 194.51 179.668C194.746 179.523 195.012 179.413 195.307 179.339C195.605 179.263 195.914 179.207 196.232 179.173C196.615 179.134 196.926 179.098 197.165 179.067C197.404 179.033 197.577 178.982 197.685 178.913C197.796 178.842 197.851 178.733 197.851 178.585V178.56C197.851 178.239 197.756 177.99 197.566 177.814C197.375 177.638 197.101 177.55 196.743 177.55C196.365 177.55 196.066 177.632 195.844 177.797C195.625 177.962 195.478 178.156 195.401 178.381L193.961 178.176C194.074 177.778 194.262 177.446 194.523 177.179C194.784 176.909 195.104 176.707 195.482 176.574C195.86 176.438 196.277 176.369 196.735 176.369C197.05 176.369 197.364 176.406 197.676 176.48C197.989 176.554 198.275 176.676 198.533 176.847C198.792 177.014 198.999 177.243 199.155 177.533C199.314 177.822 199.394 178.185 199.394 178.619V183H197.911V182.101H197.86C197.766 182.283 197.634 182.453 197.463 182.612C197.296 182.768 197.084 182.895 196.828 182.991C196.576 183.085 196.279 183.132 195.938 183.132ZM196.338 181.999C196.648 181.999 196.917 181.937 197.144 181.815C197.371 181.69 197.546 181.526 197.668 181.321C197.793 181.116 197.855 180.893 197.855 180.652V179.881C197.807 179.92 197.725 179.957 197.608 179.991C197.495 180.026 197.367 180.055 197.225 180.081C197.083 180.107 196.942 180.129 196.803 180.149C196.664 180.169 196.543 180.186 196.441 180.2C196.211 180.232 196.005 180.283 195.823 180.354C195.641 180.425 195.498 180.524 195.392 180.652C195.287 180.777 195.235 180.939 195.235 181.138C195.235 181.422 195.338 181.636 195.546 181.781C195.753 181.926 196.017 181.999 196.338 181.999ZM206.368 178.185L204.962 178.338C204.922 178.196 204.853 178.062 204.753 177.938C204.657 177.812 204.526 177.712 204.361 177.635C204.196 177.558 203.995 177.52 203.756 177.52C203.435 177.52 203.165 177.589 202.946 177.729C202.73 177.868 202.624 178.048 202.627 178.27C202.624 178.46 202.694 178.615 202.836 178.734C202.98 178.854 203.219 178.952 203.551 179.028L204.668 179.267C205.287 179.401 205.748 179.612 206.049 179.902C206.353 180.192 206.506 180.571 206.509 181.04C206.506 181.452 206.385 181.815 206.147 182.131C205.911 182.443 205.583 182.687 205.162 182.864C204.742 183.04 204.259 183.128 203.713 183.128C202.912 183.128 202.267 182.96 201.779 182.625C201.29 182.287 200.999 181.817 200.905 181.214L202.409 181.07C202.478 181.365 202.623 181.588 202.844 181.739C203.066 181.889 203.354 181.964 203.709 181.964C204.076 181.964 204.37 181.889 204.591 181.739C204.816 181.588 204.928 181.402 204.928 181.18C204.928 180.993 204.855 180.838 204.711 180.716C204.569 180.594 204.347 180.5 204.046 180.435L202.929 180.2C202.301 180.07 201.837 179.849 201.536 179.54C201.235 179.227 201.086 178.832 201.088 178.355C201.086 177.952 201.195 177.602 201.417 177.307C201.641 177.009 201.952 176.778 202.35 176.616C202.75 176.452 203.212 176.369 203.735 176.369C204.502 176.369 205.105 176.533 205.546 176.859C205.989 177.186 206.263 177.628 206.368 178.185ZM211.299 176.455V177.648H207.537V176.455H211.299ZM208.466 174.886H210.008V181.031C210.008 181.239 210.039 181.398 210.102 181.509C210.167 181.616 210.252 181.69 210.358 181.73C210.463 181.77 210.579 181.79 210.707 181.79C210.804 181.79 210.892 181.783 210.971 181.768C211.054 181.754 211.116 181.741 211.159 181.73L211.419 182.936C211.336 182.964 211.218 182.996 211.065 183.03C210.914 183.064 210.73 183.084 210.511 183.089C210.125 183.101 209.777 183.043 209.467 182.915C209.157 182.784 208.912 182.582 208.73 182.31C208.551 182.037 208.463 181.696 208.466 181.287V174.886ZM214.523 174.273V183H212.98V174.273H214.523ZM218.243 183.132C217.828 183.132 217.454 183.058 217.122 182.911C216.792 182.76 216.531 182.538 216.338 182.246C216.147 181.953 216.052 181.592 216.052 181.163C216.052 180.794 216.12 180.489 216.257 180.247C216.393 180.006 216.579 179.812 216.815 179.668C217.051 179.523 217.316 179.413 217.612 179.339C217.91 179.263 218.218 179.207 218.537 179.173C218.92 179.134 219.231 179.098 219.47 179.067C219.708 179.033 219.882 178.982 219.99 178.913C220.1 178.842 220.156 178.733 220.156 178.585V178.56C220.156 178.239 220.061 177.99 219.87 177.814C219.68 177.638 219.406 177.55 219.048 177.55C218.67 177.55 218.37 177.632 218.149 177.797C217.93 177.962 217.782 178.156 217.706 178.381L216.265 178.176C216.379 177.778 216.566 177.446 216.828 177.179C217.089 176.909 217.409 176.707 217.787 176.574C218.164 176.438 218.582 176.369 219.039 176.369C219.355 176.369 219.669 176.406 219.981 176.48C220.294 176.554 220.579 176.676 220.838 176.847C221.096 177.014 221.304 177.243 221.46 177.533C221.619 177.822 221.699 178.185 221.699 178.619V183H220.216V182.101H220.164C220.071 182.283 219.939 182.453 219.768 182.612C219.6 182.768 219.389 182.895 219.133 182.991C218.88 183.085 218.583 183.132 218.243 183.132ZM218.643 181.999C218.953 181.999 219.221 181.937 219.449 181.815C219.676 181.69 219.85 181.526 219.973 181.321C220.098 181.116 220.16 180.893 220.16 180.652V179.881C220.112 179.92 220.029 179.957 219.913 179.991C219.799 180.026 219.672 180.055 219.529 180.081C219.387 180.107 219.247 180.129 219.108 180.149C218.968 180.169 218.848 180.186 218.745 180.2C218.515 180.232 218.309 180.283 218.127 180.354C217.946 180.425 217.802 180.524 217.697 180.652C217.592 180.777 217.539 180.939 217.539 181.138C217.539 181.422 217.643 181.636 217.85 181.781C218.058 181.926 218.322 181.999 218.643 181.999ZM224.224 185.455C224.014 185.455 223.819 185.438 223.64 185.403C223.464 185.372 223.324 185.335 223.218 185.293L223.576 184.091C223.801 184.156 224.001 184.188 224.177 184.185C224.353 184.182 224.508 184.126 224.642 184.018C224.778 183.913 224.893 183.737 224.987 183.49L225.119 183.136L222.745 176.455H224.382L225.89 181.398H225.958L227.471 176.455H229.112L226.491 183.793C226.369 184.139 226.207 184.436 226.005 184.683C225.804 184.933 225.556 185.124 225.264 185.254C224.974 185.388 224.627 185.455 224.224 185.455ZM233.104 183.128C232.448 183.128 231.881 182.991 231.404 182.719C230.93 182.443 230.565 182.054 230.309 181.551C230.053 181.045 229.925 180.45 229.925 179.766C229.925 179.092 230.053 178.501 230.309 177.993C230.567 177.482 230.928 177.084 231.391 176.8C231.854 176.513 232.398 176.369 233.023 176.369C233.427 176.369 233.808 176.435 234.165 176.565C234.526 176.693 234.844 176.892 235.12 177.162C235.398 177.432 235.617 177.776 235.776 178.193C235.935 178.608 236.015 179.102 236.015 179.676V180.149H230.65V179.109H234.536C234.533 178.814 234.469 178.551 234.344 178.321C234.219 178.088 234.045 177.905 233.82 177.771C233.599 177.638 233.34 177.571 233.045 177.571C232.729 177.571 232.452 177.648 232.214 177.801C231.975 177.952 231.789 178.151 231.656 178.398C231.525 178.642 231.458 178.911 231.455 179.203V180.111C231.455 180.491 231.525 180.818 231.664 181.091C231.803 181.361 231.998 181.568 232.248 181.713C232.498 181.855 232.79 181.926 233.126 181.926C233.35 181.926 233.553 181.895 233.735 181.832C233.917 181.767 234.075 181.672 234.208 181.547C234.342 181.422 234.442 181.267 234.511 181.082L235.951 181.244C235.86 181.625 235.687 181.957 235.431 182.241C235.178 182.523 234.854 182.741 234.46 182.898C234.065 183.051 233.613 183.128 233.104 183.128ZM237.57 183V176.455H239.066V177.545H239.134C239.253 177.168 239.458 176.876 239.748 176.672C240.04 176.464 240.374 176.361 240.749 176.361C240.834 176.361 240.929 176.365 241.034 176.374C241.142 176.379 241.232 176.389 241.303 176.403V177.822C241.238 177.8 241.134 177.78 240.992 177.763C240.853 177.743 240.718 177.733 240.587 177.733C240.306 177.733 240.053 177.794 239.828 177.916C239.607 178.036 239.432 178.202 239.304 178.415C239.176 178.628 239.113 178.874 239.113 179.152V183H237.57ZM242.778 183.094C242.52 183.094 242.298 183.003 242.113 182.821C241.929 182.639 241.838 182.418 241.841 182.156C241.838 181.901 241.929 181.682 242.113 181.5C242.298 181.318 242.52 181.227 242.778 181.227C243.028 181.227 243.245 181.318 243.43 181.5C243.618 181.682 243.713 181.901 243.716 182.156C243.713 182.33 243.667 182.487 243.579 182.629C243.494 182.771 243.38 182.885 243.238 182.97C243.099 183.053 242.946 183.094 242.778 183.094ZM245.558 183V176.455H247.101V183H245.558ZM246.334 175.526C246.089 175.526 245.879 175.445 245.703 175.283C245.527 175.118 245.439 174.92 245.439 174.69C245.439 174.457 245.527 174.26 245.703 174.098C245.879 173.933 246.089 173.851 246.334 173.851C246.581 173.851 246.791 173.933 246.964 174.098C247.141 174.26 247.229 174.457 247.229 174.69C247.229 174.92 247.141 175.118 246.964 175.283C246.791 175.445 246.581 175.526 246.334 175.526ZM251.792 183.128C251.153 183.128 250.599 182.987 250.13 182.706C249.662 182.425 249.298 182.031 249.039 181.526C248.784 181.02 248.656 180.429 248.656 179.753C248.656 179.077 248.784 178.484 249.039 177.976C249.298 177.467 249.662 177.072 250.13 176.791C250.599 176.51 251.153 176.369 251.792 176.369C252.431 176.369 252.985 176.51 253.454 176.791C253.923 177.072 254.285 177.467 254.541 177.976C254.799 178.484 254.929 179.077 254.929 179.753C254.929 180.429 254.799 181.02 254.541 181.526C254.285 182.031 253.923 182.425 253.454 182.706C252.985 182.987 252.431 183.128 251.792 183.128ZM251.801 181.892C252.147 181.892 252.437 181.797 252.67 181.607C252.903 181.413 253.076 181.155 253.19 180.831C253.306 180.507 253.365 180.146 253.365 179.749C253.365 179.348 253.306 178.986 253.19 178.662C253.076 178.335 252.903 178.075 252.67 177.882C252.437 177.689 252.147 177.592 251.801 177.592C251.446 177.592 251.15 177.689 250.914 177.882C250.681 178.075 250.507 178.335 250.39 178.662C250.277 178.986 250.22 179.348 250.22 179.749C250.22 180.146 250.277 180.507 250.39 180.831C250.507 181.155 250.681 181.413 250.914 181.607C251.15 181.797 251.446 181.892 251.801 181.892Z" fill="white" fill-opacity="0.8"/>
<path d="M13.8608 154V145.273H19.5369V146.598H15.4418V148.967H19.2429V150.293H15.4418V152.675H19.571V154H13.8608ZM22.843 147.455L24.1641 149.871L25.5064 147.455H27.1385L25.1655 150.727L27.1726 154H25.549L24.1641 151.643L22.7919 154H21.1555L23.1499 150.727L21.2067 147.455H22.843ZM28.8317 156.455V147.455H30.3487V148.537H30.4382C30.5178 148.378 30.63 148.209 30.7749 148.03C30.9197 147.848 31.1158 147.693 31.3629 147.565C31.6101 147.435 31.9254 147.369 32.3089 147.369C32.8146 147.369 33.2706 147.499 33.6768 147.757C34.0859 148.013 34.4098 148.392 34.6484 148.895C34.8899 149.395 35.0107 150.009 35.0107 150.736C35.0107 151.455 34.8928 152.065 34.657 152.568C34.4212 153.071 34.1001 153.455 33.6939 153.719C33.2876 153.983 32.8274 154.115 32.3132 154.115C31.9382 154.115 31.6271 154.053 31.38 153.928C31.1328 153.803 30.9339 153.652 30.7834 153.476C30.6357 153.297 30.5206 153.128 30.4382 152.969H30.3743V156.455H28.8317ZM30.3445 150.727C30.3445 151.151 30.4041 151.521 30.5234 151.839C30.6456 152.158 30.8203 152.406 31.0476 152.585C31.2777 152.761 31.5561 152.849 31.8828 152.849C32.2237 152.849 32.5092 152.759 32.7393 152.577C32.9695 152.392 33.1428 152.141 33.2592 151.822C33.3786 151.501 33.4382 151.136 33.4382 150.727C33.4382 150.321 33.38 149.96 33.2635 149.645C33.147 149.33 32.9737 149.082 32.7436 148.903C32.5135 148.724 32.2266 148.635 31.8828 148.635C31.5533 148.635 31.2734 148.722 31.0433 148.895C30.8132 149.068 30.6385 149.311 30.5192 149.624C30.4027 149.936 30.3445 150.304 30.3445 150.727ZM38.3743 145.273V154H36.8317V145.273H38.3743ZM43.3157 154.128C42.6765 154.128 42.1225 153.987 41.6538 153.706C41.185 153.425 40.8214 153.031 40.5629 152.526C40.3072 152.02 40.1793 151.429 40.1793 150.753C40.1793 150.077 40.3072 149.484 40.5629 148.976C40.8214 148.467 41.185 148.072 41.6538 147.791C42.1225 147.51 42.6765 147.369 43.3157 147.369C43.9549 147.369 44.5089 147.51 44.9776 147.791C45.4464 148.072 45.8086 148.467 46.0643 148.976C46.3228 149.484 46.4521 150.077 46.4521 150.753C46.4521 151.429 46.3228 152.02 46.0643 152.526C45.8086 153.031 45.4464 153.425 44.9776 153.706C44.5089 153.987 43.9549 154.128 43.3157 154.128ZM43.3242 152.892C43.6708 152.892 43.9606 152.797 44.1935 152.607C44.4265 152.413 44.5998 152.155 44.7134 151.831C44.8299 151.507 44.8881 151.146 44.8881 150.749C44.8881 150.348 44.8299 149.986 44.7134 149.662C44.5998 149.335 44.4265 149.075 44.1935 148.882C43.9606 148.689 43.6708 148.592 43.3242 148.592C42.9691 148.592 42.6737 148.689 42.4379 148.882C42.2049 149.075 42.0302 149.335 41.9137 149.662C41.8001 149.986 41.7433 150.348 41.7433 150.749C41.7433 151.146 41.8001 151.507 41.9137 151.831C42.0302 152.155 42.2049 152.413 42.4379 152.607C42.6737 152.797 42.9691 152.892 43.3242 152.892ZM48.2614 154V147.455H49.7571V148.545H49.8253C49.9446 148.168 50.1491 147.876 50.4389 147.672C50.7315 147.464 51.0653 147.361 51.4403 147.361C51.5256 147.361 51.6207 147.365 51.7259 147.374C51.8338 147.379 51.9233 147.389 51.9943 147.403V148.822C51.929 148.8 51.8253 148.78 51.6832 148.763C51.544 148.743 51.4091 148.733 51.2784 148.733C50.9972 148.733 50.7443 148.794 50.5199 148.916C50.2983 149.036 50.1236 149.202 49.9957 149.415C49.8679 149.628 49.804 149.874 49.804 150.152V154H48.2614ZM56.1474 154.128C55.4911 154.128 54.9244 153.991 54.4471 153.719C53.9727 153.443 53.6076 153.054 53.3519 152.551C53.0962 152.045 52.9684 151.45 52.9684 150.766C52.9684 150.092 53.0962 149.501 53.3519 148.993C53.6104 148.482 53.9712 148.084 54.4343 147.8C54.8974 147.513 55.4414 147.369 56.0664 147.369C56.4698 147.369 56.8505 147.435 57.2085 147.565C57.5692 147.693 57.8874 147.892 58.163 148.162C58.4414 148.432 58.6602 148.776 58.8192 149.193C58.9783 149.608 59.0579 150.102 59.0579 150.676V151.149H53.6928V150.109H57.5792C57.5763 149.814 57.5124 149.551 57.3874 149.321C57.2624 149.088 57.0877 148.905 56.8633 148.771C56.6417 148.638 56.3832 148.571 56.0877 148.571C55.7724 148.571 55.4954 148.648 55.2567 148.801C55.0181 148.952 54.832 149.151 54.6985 149.398C54.5678 149.642 54.5011 149.911 54.4982 150.203V151.111C54.4982 151.491 54.5678 151.818 54.707 152.091C54.8462 152.361 55.0408 152.568 55.2908 152.713C55.5408 152.855 55.8335 152.926 56.1687 152.926C56.3931 152.926 56.5962 152.895 56.7781 152.832C56.9599 152.767 57.1175 152.672 57.2511 152.547C57.3846 152.422 57.4854 152.267 57.5536 152.082L58.994 152.244C58.9031 152.625 58.7298 152.957 58.4741 153.241C58.2212 153.523 57.8974 153.741 57.5025 153.898C57.1076 154.051 56.6559 154.128 56.1474 154.128ZM60.8629 154V147.455H62.3587V148.545H62.4268C62.5462 148.168 62.7507 147.876 63.0405 147.672C63.3331 147.464 63.6669 147.361 64.0419 147.361C64.1271 147.361 64.2223 147.365 64.3274 147.374C64.4354 147.379 64.5249 147.389 64.5959 147.403V148.822C64.5305 148.8 64.4268 148.78 64.2848 148.763C64.1456 148.743 64.0107 148.733 63.88 148.733C63.5987 148.733 63.3459 148.794 63.1214 148.916C62.8999 149.036 62.7251 149.202 62.5973 149.415C62.4695 149.628 62.4055 149.874 62.4055 150.152V154H60.8629Z" fill="white" fill-opacity="0.7"/>
<rect width="268" height="200" fill="url(#paint0_linear_2430_329)"/>
</g>
<defs>
<linearGradient id="paint0_linear_2430_329" x1="268" y1="100" x2="57.7167" y2="99.4779" gradientUnits="userSpaceOnUse">
<stop stop-color="#1B1B1B" stop-opacity="0.9"/>
<stop offset="1" stop-color="#282828" stop-opacity="0"/>
</linearGradient>
<clipPath id="clip0_2430_329">
<rect width="268" height="200" rx="12" fill="white"/>
</clipPath>
</defs>
</svg>
