<svg width="268" height="200" viewBox="0 0 268 200" fill="none" xmlns="http://www.w3.org/2000/svg">
<rect width="267" height="200" rx="12" fill="#282828"/>
<path d="M24 18L28 22L32 18" stroke="#E7E7E7" strokeWidth="2" strokeLinecap="round" strokeLinejoin="round"/>
<path d="M48.0165 8H56.6064L60 11.7059H48.0165C46.3506 11.7059 45 13.1807 45 15V11.2941C45 9.47483 46.3506 8 48.0165 8Z" fill="#FFA000"/>
<path d="M45 13.8475C45 12.2749 46.2792 11 47.8571 11H72.1429C73.7208 11 75 12.2749 75 13.8475V29.1525C75 30.7251 73.7208 32 72.1429 32H47.8571C46.2792 32 45 30.7251 45 29.1525V13.8475Z" fill="#FFCA28"/>
<path d="M80 20.0879V19.8857C80 19.2002 80.0996 18.5645 80.2988 17.9785C80.498 17.3867 80.7852 16.874 81.1602 16.4404C81.541 16.001 82.0039 15.6611 82.5488 15.4209C83.0996 15.1748 83.7207 15.0518 84.4121 15.0518C85.1094 15.0518 85.7305 15.1748 86.2754 15.4209C86.8262 15.6611 87.292 16.001 87.6729 16.4404C88.0537 16.874 88.3438 17.3867 88.543 17.9785C88.7422 18.5645 88.8418 19.2002 88.8418 19.8857V20.0879C88.8418 20.7734 88.7422 21.4092 88.543 21.9951C88.3438 22.5811 88.0537 23.0938 87.6729 23.5332C87.292 23.9668 86.8291 24.3066 86.2842 24.5527C85.7393 24.793 85.1211 24.9131 84.4297 24.9131C83.7324 24.9131 83.1084 24.793 82.5576 24.5527C82.0127 24.3066 81.5498 23.9668 81.1689 23.5332C80.7881 23.0938 80.498 22.5811 80.2988 21.9951C80.0996 21.4092 80 20.7734 80 20.0879ZM82.1182 19.8857V20.0879C82.1182 20.5156 82.1621 20.9199 82.25 21.3008C82.3379 21.6816 82.4756 22.0156 82.6631 22.3027C82.8506 22.5898 83.0908 22.8154 83.3838 22.9795C83.6768 23.1436 84.0254 23.2256 84.4297 23.2256C84.8223 23.2256 85.1621 23.1436 85.4492 22.9795C85.7422 22.8154 85.9824 22.5898 86.1699 22.3027C86.3574 22.0156 86.4951 21.6816 86.583 21.3008C86.6768 20.9199 86.7236 20.5156 86.7236 20.0879V19.8857C86.7236 19.4639 86.6768 19.0654 86.583 18.6904C86.4951 18.3096 86.3545 17.9727 86.1611 17.6797C85.9736 17.3867 85.7334 17.1582 85.4404 16.9941C85.1533 16.8242 84.8105 16.7393 84.4121 16.7393C84.0137 16.7393 83.668 16.8242 83.375 16.9941C83.0879 17.1582 82.8506 17.3867 82.6631 17.6797C82.4756 17.9727 82.3379 18.3096 82.25 18.6904C82.1621 19.0654 82.1182 19.4639 82.1182 19.8857Z" fill="#E7E7E7"/>
<path d="M92.7441 17.0557V28.3936H90.626V15.2275H92.5771L92.7441 17.0557ZM98.9404 19.8945V20.0791C98.9404 20.7705 98.8584 21.4121 98.6943 22.0039C98.5361 22.5898 98.2988 23.1025 97.9824 23.542C97.6719 23.9756 97.2881 24.3125 96.8311 24.5527C96.374 24.793 95.8467 24.9131 95.249 24.9131C94.6572 24.9131 94.1387 24.8047 93.6934 24.5879C93.2539 24.3652 92.8818 24.0518 92.5771 23.6475C92.2725 23.2432 92.0264 22.7686 91.8389 22.2236C91.6572 21.6729 91.5283 21.0693 91.4521 20.4131V19.7012C91.5283 19.0039 91.6572 18.3711 91.8389 17.8027C92.0264 17.2344 92.2725 16.7451 92.5771 16.335C92.8818 15.9248 93.2539 15.6084 93.6934 15.3857C94.1328 15.1631 94.6455 15.0518 95.2314 15.0518C95.8291 15.0518 96.3594 15.1689 96.8223 15.4033C97.2852 15.6318 97.6748 15.96 97.9912 16.3877C98.3076 16.8096 98.5449 17.3193 98.7031 17.917C98.8613 18.5088 98.9404 19.168 98.9404 19.8945ZM96.8223 20.0791V19.8945C96.8223 19.4551 96.7812 19.0479 96.6992 18.6729C96.6172 18.292 96.4883 17.958 96.3125 17.6709C96.1367 17.3838 95.9111 17.1611 95.6357 17.0029C95.3662 16.8389 95.041 16.7568 94.6602 16.7568C94.2852 16.7568 93.9629 16.8213 93.6934 16.9502C93.4238 17.0732 93.1982 17.2461 93.0166 17.4688C92.835 17.6914 92.6943 17.9521 92.5947 18.251C92.4951 18.5439 92.4248 18.8633 92.3838 19.209V20.9141C92.4541 21.3359 92.5742 21.7227 92.7441 22.0742C92.9141 22.4258 93.1543 22.707 93.4648 22.918C93.7812 23.123 94.1855 23.2256 94.6777 23.2256C95.0586 23.2256 95.3838 23.1436 95.6533 22.9795C95.9229 22.8154 96.1426 22.5898 96.3125 22.3027C96.4883 22.0098 96.6172 21.6729 96.6992 21.292C96.7812 20.9111 96.8223 20.5068 96.8223 20.0791Z" fill="#E7E7E7"/>
<path d="M105.005 18.4268V20.1143H100.355V18.4268H105.005Z" fill="#E7E7E7"/>
<path d="M108.986 17.0381V24.7373H106.868V15.2275H108.89L108.986 17.0381ZM111.896 15.166L111.878 17.1348C111.749 17.1113 111.608 17.0938 111.456 17.082C111.31 17.0703 111.163 17.0645 111.017 17.0645C110.653 17.0645 110.334 17.1172 110.059 17.2227C109.783 17.3223 109.552 17.4688 109.364 17.6621C109.183 17.8496 109.042 18.0781 108.942 18.3477C108.843 18.6172 108.784 18.9189 108.767 19.2529L108.283 19.2881C108.283 18.6904 108.342 18.1367 108.459 17.627C108.576 17.1172 108.752 16.6689 108.986 16.2822C109.227 15.8955 109.525 15.5938 109.883 15.377C110.246 15.1602 110.665 15.0518 111.14 15.0518C111.269 15.0518 111.406 15.0635 111.553 15.0869C111.705 15.1104 111.819 15.1367 111.896 15.166Z" fill="#E7E7E7"/>
<path d="M117.239 24.9131C116.536 24.9131 115.9 24.7988 115.332 24.5703C114.77 24.3359 114.289 24.0107 113.891 23.5947C113.498 23.1787 113.196 22.6895 112.985 22.127C112.774 21.5645 112.669 20.958 112.669 20.3076V19.9561C112.669 19.2119 112.777 18.5381 112.994 17.9346C113.211 17.3311 113.513 16.8154 113.899 16.3877C114.286 15.9541 114.743 15.623 115.271 15.3945C115.798 15.166 116.369 15.0518 116.984 15.0518C117.664 15.0518 118.259 15.166 118.769 15.3945C119.278 15.623 119.7 15.9453 120.034 16.3613C120.374 16.7715 120.626 17.2607 120.79 17.8291C120.96 18.3975 121.045 19.0244 121.045 19.71V20.6152H113.697V19.0947H118.953V18.9277C118.941 18.5469 118.865 18.1895 118.725 17.8555C118.59 17.5215 118.382 17.252 118.101 17.0469C117.819 16.8418 117.444 16.7393 116.976 16.7393C116.624 16.7393 116.311 16.8154 116.035 16.9678C115.766 17.1143 115.54 17.3281 115.358 17.6094C115.177 17.8906 115.036 18.2305 114.937 18.6289C114.843 19.0215 114.796 19.4639 114.796 19.9561V20.3076C114.796 20.7236 114.852 21.1104 114.963 21.4678C115.08 21.8193 115.25 22.127 115.473 22.3906C115.695 22.6543 115.965 22.8623 116.281 23.0146C116.598 23.1611 116.958 23.2344 117.362 23.2344C117.872 23.2344 118.326 23.1318 118.725 22.9268C119.123 22.7217 119.469 22.4316 119.762 22.0566L120.878 23.1377C120.673 23.4365 120.406 23.7236 120.078 23.999C119.75 24.2686 119.349 24.4883 118.874 24.6582C118.405 24.8281 117.86 24.9131 117.239 24.9131Z" fill="#E7E7E7"/>
<path d="M127.057 15.2275V16.7744H121.695V15.2275H127.057ZM123.242 12.8984H125.36V22.1094C125.36 22.4023 125.401 22.6279 125.483 22.7861C125.571 22.9385 125.691 23.041 125.844 23.0938C125.996 23.1465 126.175 23.1729 126.38 23.1729C126.526 23.1729 126.667 23.1641 126.802 23.1465C126.937 23.1289 127.045 23.1113 127.127 23.0938L127.136 24.7109C126.96 24.7637 126.755 24.8105 126.521 24.8516C126.292 24.8926 126.028 24.9131 125.729 24.9131C125.243 24.9131 124.812 24.8281 124.438 24.6582C124.062 24.4824 123.77 24.1982 123.559 23.8057C123.348 23.4131 123.242 22.8916 123.242 22.2412V12.8984Z" fill="#E7E7E7"/>
<path d="M134.413 22.4961V15.2275H136.54V24.7373H134.536L134.413 22.4961ZM134.712 20.5186L135.424 20.501C135.424 21.1396 135.354 21.7285 135.213 22.2676C135.072 22.8008 134.855 23.2666 134.562 23.665C134.27 24.0576 133.895 24.3652 133.438 24.5879C132.98 24.8047 132.433 24.9131 131.794 24.9131C131.331 24.9131 130.906 24.8457 130.52 24.7109C130.133 24.5762 129.799 24.3682 129.518 24.0869C129.242 23.8057 129.028 23.4395 128.876 22.9883C128.724 22.5371 128.647 21.998 128.647 21.3711V15.2275H130.766V21.3887C130.766 21.7344 130.807 22.0244 130.889 22.2588C130.971 22.4873 131.082 22.6719 131.223 22.8125C131.363 22.9531 131.527 23.0527 131.715 23.1113C131.902 23.1699 132.102 23.1992 132.312 23.1992C132.916 23.1992 133.391 23.082 133.736 22.8477C134.088 22.6074 134.337 22.2852 134.483 21.8809C134.636 21.4766 134.712 21.0225 134.712 20.5186Z" fill="#E7E7E7"/>
<path d="M140.838 17.0381V24.7373H138.72V15.2275H140.741L140.838 17.0381ZM143.747 15.166L143.729 17.1348C143.601 17.1113 143.46 17.0938 143.308 17.082C143.161 17.0703 143.015 17.0645 142.868 17.0645C142.505 17.0645 142.186 17.1172 141.91 17.2227C141.635 17.3223 141.403 17.4688 141.216 17.6621C141.034 17.8496 140.894 18.0781 140.794 18.3477C140.694 18.6172 140.636 18.9189 140.618 19.2529L140.135 19.2881C140.135 18.6904 140.193 18.1367 140.311 17.627C140.428 17.1172 140.604 16.6689 140.838 16.2822C141.078 15.8955 141.377 15.5938 141.734 15.377C142.098 15.1602 142.517 15.0518 142.991 15.0518C143.12 15.0518 143.258 15.0635 143.404 15.0869C143.557 15.1104 143.671 15.1367 143.747 15.166Z" fill="#E7E7E7"/>
<path d="M147.175 17.2578V24.7373H145.057V15.2275H147.052L147.175 17.2578ZM146.797 19.6309L146.111 19.6221C146.117 18.9482 146.211 18.3301 146.393 17.7676C146.58 17.2051 146.838 16.7217 147.166 16.3174C147.5 15.9131 147.898 15.6025 148.361 15.3857C148.824 15.1631 149.34 15.0518 149.908 15.0518C150.365 15.0518 150.778 15.1162 151.147 15.2451C151.522 15.3682 151.842 15.5703 152.105 15.8516C152.375 16.1328 152.58 16.499 152.721 16.9502C152.861 17.3955 152.932 17.9434 152.932 18.5938V24.7373H150.805V18.585C150.805 18.1279 150.737 17.7676 150.603 17.5039C150.474 17.2344 150.283 17.0439 150.031 16.9326C149.785 16.8154 149.478 16.7568 149.108 16.7568C148.745 16.7568 148.42 16.833 148.133 16.9854C147.846 17.1377 147.603 17.3457 147.403 17.6094C147.21 17.873 147.061 18.1777 146.955 18.5234C146.85 18.8691 146.797 19.2383 146.797 19.6309Z" fill="#E7E7E7"/>
<path d="M159.356 18.4268V20.1143H154.707V18.4268H159.356Z" fill="#E7E7E7"/>
<path d="M165.096 23.2256C165.441 23.2256 165.752 23.1582 166.027 23.0234C166.309 22.8828 166.534 22.6895 166.704 22.4434C166.88 22.1973 166.977 21.9131 166.994 21.5908H168.989C168.978 22.2061 168.796 22.7656 168.444 23.2695C168.093 23.7734 167.627 24.1748 167.047 24.4736C166.467 24.7666 165.825 24.9131 165.122 24.9131C164.396 24.9131 163.763 24.79 163.224 24.5439C162.685 24.292 162.236 23.9463 161.879 23.5068C161.521 23.0674 161.252 22.5605 161.07 21.9863C160.895 21.4121 160.807 20.7969 160.807 20.1406V19.833C160.807 19.1768 160.895 18.5615 161.07 17.9873C161.252 17.4072 161.521 16.8975 161.879 16.458C162.236 16.0186 162.685 15.6758 163.224 15.4297C163.763 15.1777 164.393 15.0518 165.113 15.0518C165.875 15.0518 166.543 15.2041 167.117 15.5088C167.691 15.8076 168.143 16.2266 168.471 16.7656C168.805 17.2988 168.978 17.9199 168.989 18.6289H166.994C166.977 18.2773 166.889 17.9609 166.73 17.6797C166.578 17.3926 166.361 17.1641 166.08 16.9941C165.805 16.8242 165.474 16.7393 165.087 16.7393C164.659 16.7393 164.305 16.8271 164.023 17.0029C163.742 17.1729 163.522 17.4072 163.364 17.7061C163.206 17.999 163.092 18.3301 163.021 18.6992C162.957 19.0625 162.925 19.4404 162.925 19.833V20.1406C162.925 20.5332 162.957 20.9141 163.021 21.2832C163.086 21.6523 163.197 21.9834 163.355 22.2764C163.52 22.5635 163.742 22.7949 164.023 22.9707C164.305 23.1406 164.662 23.2256 165.096 23.2256Z" fill="#E7E7E7"/>
<path d="M170.211 20.0879V19.8857C170.211 19.2002 170.311 18.5645 170.51 17.9785C170.709 17.3867 170.996 16.874 171.371 16.4404C171.752 16.001 172.215 15.6611 172.76 15.4209C173.311 15.1748 173.932 15.0518 174.623 15.0518C175.32 15.0518 175.941 15.1748 176.486 15.4209C177.037 15.6611 177.503 16.001 177.884 16.4404C178.265 16.874 178.555 17.3867 178.754 17.9785C178.953 18.5645 179.053 19.2002 179.053 19.8857V20.0879C179.053 20.7734 178.953 21.4092 178.754 21.9951C178.555 22.5811 178.265 23.0938 177.884 23.5332C177.503 23.9668 177.04 24.3066 176.495 24.5527C175.95 24.793 175.332 24.9131 174.641 24.9131C173.943 24.9131 173.319 24.793 172.769 24.5527C172.224 24.3066 171.761 23.9668 171.38 23.5332C170.999 23.0938 170.709 22.5811 170.51 21.9951C170.311 21.4092 170.211 20.7734 170.211 20.0879ZM172.329 19.8857V20.0879C172.329 20.5156 172.373 20.9199 172.461 21.3008C172.549 21.6816 172.687 22.0156 172.874 22.3027C173.062 22.5898 173.302 22.8154 173.595 22.9795C173.888 23.1436 174.236 23.2256 174.641 23.2256C175.033 23.2256 175.373 23.1436 175.66 22.9795C175.953 22.8154 176.193 22.5898 176.381 22.3027C176.568 22.0156 176.706 21.6816 176.794 21.3008C176.888 20.9199 176.935 20.5156 176.935 20.0879V19.8857C176.935 19.4639 176.888 19.0654 176.794 18.6904C176.706 18.3096 176.565 17.9727 176.372 17.6797C176.185 17.3867 175.944 17.1582 175.651 16.9941C175.364 16.8242 175.021 16.7393 174.623 16.7393C174.225 16.7393 173.879 16.8242 173.586 16.9941C173.299 17.1582 173.062 17.3867 172.874 17.6797C172.687 17.9727 172.549 18.3096 172.461 18.6904C172.373 19.0654 172.329 19.4639 172.329 19.8857Z" fill="#E7E7E7"/>
<path d="M183.096 15.2275V24.7373H180.969V15.2275H183.096ZM180.828 12.7314C180.828 12.4092 180.934 12.1426 181.145 11.9316C181.361 11.7148 181.66 11.6064 182.041 11.6064C182.416 11.6064 182.712 11.7148 182.929 11.9316C183.146 12.1426 183.254 12.4092 183.254 12.7314C183.254 13.0479 183.146 13.3115 182.929 13.5225C182.712 13.7334 182.416 13.8389 182.041 13.8389C181.66 13.8389 181.361 13.7334 181.145 13.5225C180.934 13.3115 180.828 13.0479 180.828 12.7314Z" fill="#E7E7E7"/>
<path d="M187.517 17.2578V24.7373H185.398V15.2275H187.394L187.517 17.2578ZM187.139 19.6309L186.453 19.6221C186.459 18.9482 186.553 18.3301 186.734 17.7676C186.922 17.2051 187.18 16.7217 187.508 16.3174C187.842 15.9131 188.24 15.6025 188.703 15.3857C189.166 15.1631 189.682 15.0518 190.25 15.0518C190.707 15.0518 191.12 15.1162 191.489 15.2451C191.864 15.3682 192.184 15.5703 192.447 15.8516C192.717 16.1328 192.922 16.499 193.062 16.9502C193.203 17.3955 193.273 17.9434 193.273 18.5938V24.7373H191.146V18.585C191.146 18.1279 191.079 17.7676 190.944 17.5039C190.815 17.2344 190.625 17.0439 190.373 16.9326C190.127 16.8154 189.819 16.7568 189.45 16.7568C189.087 16.7568 188.762 16.833 188.475 16.9854C188.188 17.1377 187.944 17.3457 187.745 17.6094C187.552 17.873 187.402 18.1777 187.297 18.5234C187.191 18.8691 187.139 19.2383 187.139 19.6309Z" fill="#E7E7E7"/>
<mask id="path-5-inside-1_2390_522" fill="white">
<path d="M16 32H32V64H16V32Z"/>
</mask>
<path d="M31 32V64H33V32H31Z" fill="#AFAFAF" mask="url(#path-5-inside-1_2390_522)"/>
<path d="M45 46L49 50L53 46" stroke="#E7E7E7" strokeWidth="2" strokeLinecap="round" strokeLinejoin="round"/>
<path d="M70.0165 36H78.6064L82 39.7059H70.0165C68.3506 39.7059 67 41.1807 67 43V39.2941C67 37.4748 68.3506 36 70.0165 36Z" fill="#FFA000"/>
<path d="M67 41.8475C67 40.2749 68.2792 39 69.8571 39H94.1429C95.7208 39 97 40.2749 97 41.8475V57.1525C97 58.7251 95.7208 60 94.1429 60H69.8571C68.2792 60 67 58.7251 67 57.1525V41.8475Z" fill="#FFCA28"/>
<path d="M109.451 52.5928V48.0576C109.451 47.7178 109.39 47.4248 109.267 47.1787C109.144 46.9326 108.956 46.7422 108.704 46.6074C108.458 46.4727 108.147 46.4053 107.772 46.4053C107.427 46.4053 107.128 46.4639 106.876 46.5811C106.624 46.6982 106.428 46.8564 106.287 47.0557C106.146 47.2549 106.076 47.4805 106.076 47.7324H103.967C103.967 47.3574 104.058 46.9941 104.239 46.6426C104.421 46.291 104.685 45.9775 105.03 45.7021C105.376 45.4268 105.789 45.21 106.27 45.0518C106.75 44.8936 107.289 44.8145 107.887 44.8145C108.602 44.8145 109.234 44.9346 109.785 45.1748C110.342 45.415 110.778 45.7783 111.095 46.2646C111.417 46.7451 111.578 47.3486 111.578 48.0752V52.3027C111.578 52.7363 111.607 53.126 111.666 53.4717C111.73 53.8115 111.821 54.1074 111.938 54.3594V54.5H109.768C109.668 54.2715 109.589 53.9814 109.53 53.6299C109.478 53.2725 109.451 52.9268 109.451 52.5928ZM109.759 48.7168L109.776 50.0264H108.256C107.863 50.0264 107.518 50.0645 107.219 50.1406C106.92 50.2109 106.671 50.3164 106.472 50.457C106.272 50.5977 106.123 50.7676 106.023 50.9668C105.924 51.166 105.874 51.3916 105.874 51.6436C105.874 51.8955 105.933 52.127 106.05 52.3379C106.167 52.543 106.337 52.7041 106.56 52.8213C106.788 52.9385 107.063 52.9971 107.386 52.9971C107.819 52.9971 108.197 52.9092 108.52 52.7334C108.848 52.5518 109.105 52.332 109.293 52.0742C109.48 51.8105 109.58 51.5615 109.592 51.3271L110.277 52.2676C110.207 52.5078 110.087 52.7656 109.917 53.041C109.747 53.3164 109.524 53.5801 109.249 53.832C108.979 54.0781 108.654 54.2803 108.273 54.4385C107.898 54.5967 107.465 54.6758 106.973 54.6758C106.352 54.6758 105.798 54.5527 105.312 54.3066C104.825 54.0547 104.444 53.7178 104.169 53.2959C103.894 52.8682 103.756 52.3848 103.756 51.8457C103.756 51.3418 103.85 50.8965 104.037 50.5098C104.23 50.1172 104.512 49.7891 104.881 49.5254C105.256 49.2617 105.713 49.0625 106.252 48.9277C106.791 48.7871 107.406 48.7168 108.098 48.7168H109.759ZM119.128 51.9248C119.128 51.7139 119.075 51.5234 118.97 51.3535C118.864 51.1777 118.662 51.0195 118.363 50.8789C118.07 50.7383 117.637 50.6094 117.062 50.4922C116.559 50.3809 116.096 50.249 115.674 50.0967C115.258 49.9385 114.9 49.748 114.602 49.5254C114.303 49.3027 114.071 49.0391 113.907 48.7344C113.743 48.4297 113.661 48.0781 113.661 47.6797C113.661 47.293 113.746 46.9268 113.916 46.5811C114.086 46.2354 114.329 45.9307 114.646 45.667C114.962 45.4033 115.346 45.1953 115.797 45.043C116.254 44.8906 116.764 44.8145 117.326 44.8145C118.123 44.8145 118.806 44.9492 119.374 45.2188C119.948 45.4824 120.388 45.8428 120.692 46.2998C120.997 46.751 121.149 47.2607 121.149 47.8291H119.031C119.031 47.5771 118.967 47.3428 118.838 47.126C118.715 46.9033 118.527 46.7246 118.275 46.5898C118.023 46.4492 117.707 46.3789 117.326 46.3789C116.963 46.3789 116.661 46.4375 116.421 46.5547C116.187 46.666 116.011 46.8125 115.894 46.9941C115.782 47.1758 115.727 47.375 115.727 47.5918C115.727 47.75 115.756 47.8936 115.814 48.0225C115.879 48.1455 115.984 48.2598 116.131 48.3652C116.277 48.4648 116.477 48.5586 116.729 48.6465C116.986 48.7344 117.309 48.8193 117.695 48.9014C118.422 49.0537 119.046 49.25 119.567 49.4902C120.095 49.7246 120.499 50.0293 120.78 50.4043C121.062 50.7734 121.202 51.2422 121.202 51.8105C121.202 52.2324 121.111 52.6191 120.93 52.9707C120.754 53.3164 120.496 53.6182 120.156 53.876C119.816 54.1279 119.409 54.3242 118.935 54.4648C118.466 54.6055 117.938 54.6758 117.353 54.6758C116.491 54.6758 115.762 54.5234 115.164 54.2188C114.566 53.9082 114.112 53.5127 113.802 53.0322C113.497 52.5459 113.345 52.042 113.345 51.5205H115.393C115.416 51.9131 115.524 52.2266 115.718 52.4609C115.917 52.6895 116.163 52.8564 116.456 52.9619C116.755 53.0615 117.062 53.1113 117.379 53.1113C117.76 53.1113 118.079 53.0615 118.337 52.9619C118.595 52.8564 118.791 52.7158 118.926 52.54C119.061 52.3584 119.128 52.1533 119.128 51.9248ZM128.392 51.9248C128.392 51.7139 128.339 51.5234 128.233 51.3535C128.128 51.1777 127.926 51.0195 127.627 50.8789C127.334 50.7383 126.9 50.6094 126.326 50.4922C125.822 50.3809 125.359 50.249 124.938 50.0967C124.521 49.9385 124.164 49.748 123.865 49.5254C123.566 49.3027 123.335 49.0391 123.171 48.7344C123.007 48.4297 122.925 48.0781 122.925 47.6797C122.925 47.293 123.01 46.9268 123.18 46.5811C123.35 46.2354 123.593 45.9307 123.909 45.667C124.226 45.4033 124.609 45.1953 125.061 45.043C125.518 44.8906 126.027 44.8145 126.59 44.8145C127.387 44.8145 128.069 44.9492 128.638 45.2188C129.212 45.4824 129.651 45.8428 129.956 46.2998C130.261 46.751 130.413 47.2607 130.413 47.8291H128.295C128.295 47.5771 128.23 47.3428 128.102 47.126C127.979 46.9033 127.791 46.7246 127.539 46.5898C127.287 46.4492 126.971 46.3789 126.59 46.3789C126.227 46.3789 125.925 46.4375 125.685 46.5547C125.45 46.666 125.274 46.8125 125.157 46.9941C125.046 47.1758 124.99 47.375 124.99 47.5918C124.99 47.75 125.02 47.8936 125.078 48.0225C125.143 48.1455 125.248 48.2598 125.395 48.3652C125.541 48.4648 125.74 48.5586 125.992 48.6465C126.25 48.7344 126.572 48.8193 126.959 48.9014C127.686 49.0537 128.31 49.25 128.831 49.4902C129.358 49.7246 129.763 50.0293 130.044 50.4043C130.325 50.7734 130.466 51.2422 130.466 51.8105C130.466 52.2324 130.375 52.6191 130.193 52.9707C130.018 53.3164 129.76 53.6182 129.42 53.876C129.08 54.1279 128.673 54.3242 128.198 54.4648C127.729 54.6055 127.202 54.6758 126.616 54.6758C125.755 54.6758 125.025 54.5234 124.428 54.2188C123.83 53.9082 123.376 53.5127 123.065 53.0322C122.761 52.5459 122.608 52.042 122.608 51.5205H124.656C124.68 51.9131 124.788 52.2266 124.981 52.4609C125.181 52.6895 125.427 52.8564 125.72 52.9619C126.019 53.0615 126.326 53.1113 126.643 53.1113C127.023 53.1113 127.343 53.0615 127.601 52.9619C127.858 52.8564 128.055 52.7158 128.189 52.54C128.324 52.3584 128.392 52.1533 128.392 51.9248ZM136.513 54.6758C135.81 54.6758 135.174 54.5615 134.605 54.333C134.043 54.0986 133.562 53.7734 133.164 53.3574C132.771 52.9414 132.47 52.4521 132.259 51.8896C132.048 51.3271 131.942 50.7207 131.942 50.0703V49.7188C131.942 48.9746 132.051 48.3008 132.268 47.6973C132.484 47.0938 132.786 46.5781 133.173 46.1504C133.56 45.7168 134.017 45.3857 134.544 45.1572C135.071 44.9287 135.643 44.8145 136.258 44.8145C136.938 44.8145 137.532 44.9287 138.042 45.1572C138.552 45.3857 138.974 45.708 139.308 46.124C139.647 46.5342 139.899 47.0234 140.063 47.5918C140.233 48.1602 140.318 48.7871 140.318 49.4727V50.3779H132.971V48.8574H138.227V48.6904C138.215 48.3096 138.139 47.9521 137.998 47.6182C137.863 47.2842 137.655 47.0146 137.374 46.8096C137.093 46.6045 136.718 46.502 136.249 46.502C135.897 46.502 135.584 46.5781 135.309 46.7305C135.039 46.877 134.813 47.0908 134.632 47.3721C134.45 47.6533 134.31 47.9932 134.21 48.3916C134.116 48.7842 134.069 49.2266 134.069 49.7188V50.0703C134.069 50.4863 134.125 50.873 134.236 51.2305C134.354 51.582 134.523 51.8896 134.746 52.1533C134.969 52.417 135.238 52.625 135.555 52.7773C135.871 52.9238 136.231 52.9971 136.636 52.9971C137.146 52.9971 137.6 52.8945 137.998 52.6895C138.396 52.4844 138.742 52.1943 139.035 51.8193L140.151 52.9004C139.946 53.1992 139.68 53.4863 139.352 53.7617C139.023 54.0312 138.622 54.251 138.147 54.4209C137.679 54.5908 137.134 54.6758 136.513 54.6758ZM144.089 46.9238V54.5H141.971V44.9902H143.966L144.089 46.9238ZM143.746 49.3936L143.025 49.3848C143.025 48.7285 143.107 48.1221 143.271 47.5654C143.436 47.0088 143.676 46.5254 143.992 46.1152C144.309 45.6992 144.701 45.3799 145.17 45.1572C145.645 44.9287 146.192 44.8145 146.813 44.8145C147.247 44.8145 147.643 44.8789 148 45.0078C148.363 45.1309 148.677 45.3271 148.94 45.5967C149.21 45.8662 149.415 46.2119 149.556 46.6338C149.702 47.0557 149.775 47.5654 149.775 48.1631V54.5H147.657V48.3477C147.657 47.8848 147.587 47.5215 147.446 47.2578C147.312 46.9941 147.115 46.8066 146.857 46.6953C146.605 46.5781 146.304 46.5195 145.952 46.5195C145.554 46.5195 145.214 46.5957 144.933 46.748C144.657 46.9004 144.432 47.1084 144.256 47.3721C144.08 47.6357 143.951 47.9404 143.869 48.2861C143.787 48.6318 143.746 49.001 143.746 49.3936ZM149.644 48.8311L148.65 49.0508C148.65 48.4766 148.729 47.9346 148.888 47.4248C149.052 46.9092 149.289 46.458 149.6 46.0713C149.916 45.6787 150.306 45.3711 150.769 45.1484C151.231 44.9258 151.762 44.8145 152.359 44.8145C152.846 44.8145 153.279 44.8818 153.66 45.0166C154.047 45.1455 154.375 45.3506 154.645 45.6318C154.914 45.9131 155.119 46.2793 155.26 46.7305C155.4 47.1758 155.471 47.7148 155.471 48.3477V54.5H153.344V48.3389C153.344 47.8584 153.273 47.4863 153.133 47.2227C152.998 46.959 152.805 46.7773 152.553 46.6777C152.301 46.5723 151.999 46.5195 151.647 46.5195C151.319 46.5195 151.029 46.5811 150.777 46.7041C150.531 46.8213 150.323 46.9883 150.153 47.2051C149.983 47.416 149.854 47.6592 149.767 47.9346C149.685 48.21 149.644 48.5088 149.644 48.8311ZM157.659 41H159.777V52.4697L159.575 54.5H157.659V41ZM165.982 49.6572V49.8418C165.982 50.5449 165.903 51.1924 165.745 51.7842C165.593 52.3701 165.358 52.8799 165.042 53.3135C164.731 53.7471 164.345 54.084 163.882 54.3242C163.425 54.5586 162.895 54.6758 162.291 54.6758C161.699 54.6758 161.184 54.5645 160.744 54.3418C160.305 54.1191 159.936 53.8027 159.637 53.3926C159.344 52.9824 159.106 52.4932 158.925 51.9248C158.743 51.3564 158.614 50.7295 158.538 50.0439V49.4551C158.614 48.7637 158.743 48.1367 158.925 47.5742C159.106 47.0059 159.344 46.5166 159.637 46.1064C159.936 45.6904 160.302 45.3711 160.735 45.1484C161.175 44.9258 161.688 44.8145 162.273 44.8145C162.883 44.8145 163.419 44.9316 163.882 45.166C164.351 45.4004 164.74 45.7344 165.051 46.168C165.361 46.5957 165.593 47.1055 165.745 47.6973C165.903 48.2891 165.982 48.9424 165.982 49.6572ZM163.864 49.8418V49.6572C163.864 49.2295 163.829 48.8281 163.759 48.4531C163.688 48.0723 163.571 47.7383 163.407 47.4512C163.249 47.1641 163.032 46.9385 162.757 46.7744C162.487 46.6045 162.15 46.5195 161.746 46.5195C161.371 46.5195 161.049 46.584 160.779 46.7129C160.51 46.8418 160.284 47.0176 160.103 47.2402C159.921 47.4629 159.777 47.7207 159.672 48.0137C159.572 48.3066 159.505 48.623 159.47 48.9629V50.5537C159.522 50.9932 159.634 51.3975 159.804 51.7666C159.979 52.1299 160.226 52.4229 160.542 52.6455C160.858 52.8623 161.266 52.9707 161.764 52.9707C162.156 52.9707 162.487 52.8916 162.757 52.7334C163.026 52.5752 163.24 52.3555 163.398 52.0742C163.562 51.7871 163.68 51.4531 163.75 51.0723C163.826 50.6914 163.864 50.2812 163.864 49.8418ZM170.043 41V54.5H167.916V41H170.043ZM175.123 53.4629L177.707 44.9902H179.975L176.16 55.9502C176.072 56.1846 175.958 56.4395 175.817 56.7148C175.677 56.9902 175.492 57.251 175.264 57.4971C175.041 57.749 174.763 57.9512 174.429 58.1035C174.095 58.2617 173.69 58.3408 173.216 58.3408C173.028 58.3408 172.847 58.3232 172.671 58.2881C172.501 58.2588 172.34 58.2266 172.188 58.1914L172.179 56.5742C172.237 56.5801 172.308 56.5859 172.39 56.5918C172.478 56.5977 172.548 56.6006 172.601 56.6006C172.952 56.6006 173.245 56.5566 173.479 56.4688C173.714 56.3867 173.904 56.252 174.051 56.0645C174.203 55.877 174.332 55.625 174.438 55.3086L175.123 53.4629ZM173.664 44.9902L175.923 52.1094L176.301 54.3418L174.833 54.7197L171.379 44.9902H173.664Z" fill="#E7E7E7"/>
<mask id="path-11-inside-2_2390_522" fill="white">
<path d="M16 64H32V96H16V64Z"/>
</mask>
<path d="M31 64V96H33V64H31Z" fill="#AFAFAF" mask="url(#path-11-inside-2_2390_522)"/>
<mask id="path-13-inside-3_2390_522" fill="white">
<path d="M31 64H47V96H31V64Z"/>
</mask>
<path d="M46 64V96H48V64H46ZM32 96V64H30V96H32Z" fill="#AFAFAF" mask="url(#path-13-inside-3_2390_522)"/>
<path d="M100.827 72.243C101.678 72.4411 102.452 72.8868 103.05 73.524C103.38 73.8689 103.666 74.2527 103.902 74.667C103.913 74.712 102.368 75.75 101.431 76.329C101.397 76.352 101.262 76.205 101.109 75.979C100.938 75.6848 100.695 75.4388 100.403 75.2639C100.111 75.089 99.7792 74.991 99.439 74.979C98.362 74.905 97.668 75.469 97.673 76.412C97.6637 76.6437 97.7165 76.8737 97.826 77.078C98.063 77.568 98.503 77.862 99.885 78.461C102.429 79.556 103.521 80.278 104.195 81.304C104.576 81.9523 104.811 82.676 104.882 83.4245C104.954 84.173 104.862 84.9281 104.611 85.637C104.266 86.4145 103.72 87.0855 103.029 87.5805C102.337 88.0755 101.526 88.3764 100.679 88.452C99.7787 88.5553 98.869 88.5459 97.971 88.424C96.5955 88.198 95.3284 87.5378 94.355 86.54C93.9872 86.1259 93.6758 85.6649 93.429 85.169C93.5328 85.0918 93.6421 85.0223 93.756 84.961C93.914 84.871 94.512 84.527 95.076 84.2L96.1 83.6L96.314 83.912C96.6744 84.4275 97.1332 84.8666 97.664 85.204C98.2 85.498 98.8072 85.6374 99.4178 85.6065C100.028 85.5756 100.618 85.3757 101.122 85.029C101.382 84.7758 101.544 84.4393 101.581 84.0784C101.617 83.7175 101.526 83.3552 101.322 83.055C101.046 82.66 100.482 82.328 98.879 81.633C97.6221 81.2092 96.4772 80.5067 95.53 79.578C95.0789 79.064 94.7458 78.4575 94.554 77.801C94.4122 77.0532 94.3912 76.2875 94.492 75.533C94.6802 74.6649 95.1307 73.8756 95.7825 73.272C96.4344 72.6685 97.256 72.28 98.136 72.159C99.0321 72.052 99.9393 72.0803 100.827 72.243ZM92.484 73.726L92.495 75.18H87.865V88.328H84.6V75.183H79.97V73.755C79.9577 73.266 79.971 72.7767 80.01 72.289C80.027 72.266 82.842 72.255 86.255 72.261L92.466 72.278L92.484 73.726Z" fill="#007ACC"/>
<path d="M117.006 76.9902V86.5H115.371V76.9902H117.006ZM115.248 74.4678C115.248 74.2041 115.327 73.9814 115.485 73.7998C115.649 73.6182 115.89 73.5273 116.206 73.5273C116.517 73.5273 116.754 73.6182 116.918 73.7998C117.088 73.9814 117.173 74.2041 117.173 74.4678C117.173 74.7197 117.088 74.9365 116.918 75.1182C116.754 75.2939 116.517 75.3818 116.206 75.3818C115.89 75.3818 115.649 75.2939 115.485 75.1182C115.327 74.9365 115.248 74.7197 115.248 74.4678ZM121.242 79.0205V86.5H119.616V76.9902H121.154L121.242 79.0205ZM120.855 81.3848L120.179 81.3584C120.185 80.708 120.281 80.1074 120.469 79.5566C120.656 79 120.92 78.5166 121.26 78.1064C121.6 77.6963 122.004 77.3799 122.473 77.1572C122.947 76.9287 123.472 76.8145 124.046 76.8145C124.515 76.8145 124.937 76.8789 125.312 77.0078C125.687 77.1309 126.006 77.3301 126.27 77.6055C126.539 77.8809 126.744 78.2383 126.885 78.6777C127.025 79.1113 127.096 79.6416 127.096 80.2686V86.5H125.461V80.251C125.461 79.7529 125.388 79.3545 125.241 79.0557C125.095 78.751 124.881 78.5312 124.6 78.3965C124.318 78.2559 123.973 78.1855 123.562 78.1855C123.158 78.1855 122.789 78.2705 122.455 78.4404C122.127 78.6104 121.843 78.8447 121.603 79.1436C121.368 79.4424 121.184 79.7852 121.049 80.1719C120.92 80.5527 120.855 80.957 120.855 81.3848ZM135.56 84.6543V73H137.194V86.5H135.7L135.56 84.6543ZM129.161 81.8506V81.666C129.161 80.9395 129.249 80.2803 129.425 79.6885C129.606 79.0908 129.861 78.5781 130.189 78.1504C130.523 77.7227 130.919 77.3945 131.376 77.166C131.839 76.9316 132.354 76.8145 132.923 76.8145C133.521 76.8145 134.042 76.9199 134.487 77.1309C134.938 77.3359 135.319 77.6377 135.63 78.0361C135.946 78.4287 136.195 78.9033 136.377 79.46C136.559 80.0166 136.685 80.6465 136.755 81.3496V82.1582C136.69 82.8555 136.564 83.4824 136.377 84.0391C136.195 84.5957 135.946 85.0703 135.63 85.4629C135.319 85.8555 134.938 86.1572 134.487 86.3682C134.036 86.5732 133.509 86.6758 132.905 86.6758C132.349 86.6758 131.839 86.5557 131.376 86.3154C130.919 86.0752 130.523 85.7383 130.189 85.3047C129.861 84.8711 129.606 84.3613 129.425 83.7754C129.249 83.1836 129.161 82.542 129.161 81.8506ZM130.796 81.666V81.8506C130.796 82.3252 130.843 82.7705 130.937 83.1865C131.036 83.6025 131.188 83.9688 131.394 84.2852C131.599 84.6016 131.859 84.8506 132.176 85.0322C132.492 85.208 132.87 85.2959 133.31 85.2959C133.849 85.2959 134.291 85.1816 134.637 84.9531C134.988 84.7246 135.27 84.4229 135.48 84.0479C135.691 83.6729 135.855 83.2656 135.973 82.8262V80.708C135.902 80.3857 135.8 80.0752 135.665 79.7764C135.536 79.4717 135.366 79.2021 135.155 78.9678C134.95 78.7275 134.695 78.5371 134.391 78.3965C134.092 78.2559 133.737 78.1855 133.327 78.1855C132.882 78.1855 132.498 78.2793 132.176 78.4668C131.859 78.6484 131.599 78.9004 131.394 79.2227C131.188 79.5391 131.036 79.9082 130.937 80.3301C130.843 80.7461 130.796 81.1914 130.796 81.666ZM143.672 86.6758C143.01 86.6758 142.409 86.5645 141.87 86.3418C141.337 86.1133 140.877 85.7939 140.49 85.3838C140.109 84.9736 139.816 84.4873 139.611 83.9248C139.406 83.3623 139.304 82.7471 139.304 82.0791V81.71C139.304 80.9365 139.418 80.248 139.646 79.6445C139.875 79.0352 140.186 78.5195 140.578 78.0977C140.971 77.6758 141.416 77.3564 141.914 77.1396C142.412 76.9229 142.928 76.8145 143.461 76.8145C144.141 76.8145 144.727 76.9316 145.219 77.166C145.717 77.4004 146.124 77.7285 146.44 78.1504C146.757 78.5664 146.991 79.0586 147.144 79.627C147.296 80.1895 147.372 80.8047 147.372 81.4727V82.2021H140.271V80.875H145.746V80.752C145.723 80.3301 145.635 79.9199 145.482 79.5215C145.336 79.123 145.102 78.7949 144.779 78.5371C144.457 78.2793 144.018 78.1504 143.461 78.1504C143.092 78.1504 142.752 78.2295 142.441 78.3877C142.131 78.54 141.864 78.7686 141.642 79.0732C141.419 79.3779 141.246 79.75 141.123 80.1895C141 80.6289 140.938 81.1357 140.938 81.71V82.0791C140.938 82.5303 141 82.9551 141.123 83.3535C141.252 83.7461 141.437 84.0918 141.677 84.3906C141.923 84.6895 142.219 84.9238 142.564 85.0938C142.916 85.2637 143.314 85.3486 143.76 85.3486C144.334 85.3486 144.82 85.2314 145.219 84.9971C145.617 84.7627 145.966 84.4492 146.265 84.0566L147.249 84.8389C147.044 85.1494 146.783 85.4453 146.467 85.7266C146.15 86.0078 145.761 86.2363 145.298 86.4121C144.841 86.5879 144.299 86.6758 143.672 86.6758ZM150.369 76.9902L152.452 80.4531L154.562 76.9902H156.469L153.357 81.6836L156.565 86.5H154.685L152.487 82.9316L150.29 86.5H148.4L151.6 81.6836L148.497 76.9902H150.369ZM158.227 85.6387C158.227 85.3633 158.312 85.1318 158.481 84.9443C158.657 84.751 158.909 84.6543 159.237 84.6543C159.565 84.6543 159.814 84.751 159.984 84.9443C160.16 85.1318 160.248 85.3633 160.248 85.6387C160.248 85.9082 160.16 86.1367 159.984 86.3242C159.814 86.5117 159.565 86.6055 159.237 86.6055C158.909 86.6055 158.657 86.5117 158.481 86.3242C158.312 86.1367 158.227 85.9082 158.227 85.6387ZM166.928 76.9902V78.2383H161.786V76.9902H166.928ZM163.526 74.6787H165.152V84.1445C165.152 84.4668 165.202 84.71 165.302 84.874C165.401 85.0381 165.53 85.1465 165.688 85.1992C165.847 85.252 166.017 85.2783 166.198 85.2783C166.333 85.2783 166.474 85.2666 166.62 85.2432C166.772 85.2139 166.887 85.1904 166.963 85.1729L166.972 86.5C166.843 86.541 166.673 86.5791 166.462 86.6143C166.257 86.6553 166.008 86.6758 165.715 86.6758C165.316 86.6758 164.95 86.5967 164.616 86.4385C164.282 86.2803 164.016 86.0166 163.816 85.6475C163.623 85.2725 163.526 84.7686 163.526 84.1357V74.6787ZM174.372 83.9775C174.372 83.7432 174.319 83.5264 174.214 83.3271C174.114 83.1221 173.906 82.9375 173.59 82.7734C173.279 82.6035 172.811 82.457 172.184 82.334C171.656 82.2227 171.179 82.0908 170.751 81.9385C170.329 81.7861 169.969 81.6016 169.67 81.3848C169.377 81.168 169.151 80.9131 168.993 80.6201C168.835 80.3271 168.756 79.9844 168.756 79.5918C168.756 79.2168 168.838 78.8623 169.002 78.5283C169.172 78.1943 169.409 77.8984 169.714 77.6406C170.024 77.3828 170.396 77.1807 170.83 77.0342C171.264 76.8877 171.747 76.8145 172.28 76.8145C173.042 76.8145 173.692 76.9492 174.231 77.2188C174.771 77.4883 175.184 77.8486 175.471 78.2998C175.758 78.7451 175.901 79.2402 175.901 79.7852H174.275C174.275 79.5215 174.196 79.2666 174.038 79.0205C173.886 78.7686 173.66 78.5605 173.361 78.3965C173.068 78.2324 172.708 78.1504 172.28 78.1504C171.829 78.1504 171.463 78.2207 171.182 78.3613C170.906 78.4961 170.704 78.6689 170.575 78.8799C170.452 79.0908 170.391 79.3135 170.391 79.5479C170.391 79.7236 170.42 79.8818 170.479 80.0225C170.543 80.1572 170.654 80.2832 170.812 80.4004C170.971 80.5117 171.193 80.6172 171.48 80.7168C171.768 80.8164 172.134 80.916 172.579 81.0156C173.358 81.1914 174 81.4023 174.504 81.6484C175.008 81.8945 175.383 82.1963 175.629 82.5537C175.875 82.9111 175.998 83.3447 175.998 83.8545C175.998 84.2705 175.91 84.6514 175.734 84.9971C175.564 85.3428 175.315 85.6416 174.987 85.8936C174.665 86.1396 174.278 86.333 173.827 86.4736C173.382 86.6084 172.881 86.6758 172.324 86.6758C171.486 86.6758 170.777 86.5264 170.197 86.2275C169.617 85.9287 169.178 85.542 168.879 85.0674C168.58 84.5928 168.431 84.0918 168.431 83.5645H170.065C170.089 84.0098 170.218 84.3643 170.452 84.6279C170.687 84.8857 170.974 85.0703 171.313 85.1816C171.653 85.2871 171.99 85.3398 172.324 85.3398C172.77 85.3398 173.142 85.2812 173.44 85.1641C173.745 85.0469 173.977 84.8857 174.135 84.6807C174.293 84.4756 174.372 84.2412 174.372 83.9775Z" fill="#E7E7E7"/>
<mask id="path-17-inside-4_2390_522" fill="white">
<path d="M16 96H32V128H16V96Z"/>
</mask>
<path d="M31 96V128H33V96H31Z" fill="#AFAFAF" mask="url(#path-17-inside-4_2390_522)"/>
<mask id="path-19-inside-5_2390_522" fill="white">
<path d="M31 96H47V128H31V96Z"/>
</mask>
<path d="M46 96V128H48V96H46ZM32 128V96H30V128H32Z" fill="#AFAFAF" mask="url(#path-19-inside-5_2390_522)"/>
<path d="M81.014 110.976C81.5798 110.985 82.132 110.802 82.581 110.458C82.9962 110.11 83.2802 109.631 83.386 109.1C83.5523 108.128 83.624 107.142 83.6 106.156C83.608 104.766 83.633 103.85 83.675 103.409C83.7195 102.828 83.8608 102.258 84.093 101.723C84.27 101.334 84.5273 100.987 84.848 100.705C85.1862 100.432 85.579 100.234 86 100.125C86.5082 100.024 87.0263 99.9824 87.544 100H88.244V101.96H87.857C87.2434 101.882 86.6238 102.05 86.134 102.428C85.7714 103.062 85.6224 103.795 85.709 104.52C85.7425 105.899 85.6967 107.279 85.572 108.653C85.4812 109.39 85.2181 110.096 84.804 110.713C84.3457 111.271 83.7617 111.712 83.1 112C83.9528 112.327 84.6598 112.949 85.092 113.754C85.5835 114.98 85.7947 116.301 85.71 117.619C85.71 119.242 85.7267 120.209 85.76 120.519C85.7728 120.962 85.9529 121.384 86.264 121.7C86.7459 121.977 87.3031 122.095 87.856 122.037H88.243V124H87.543C86.9451 124.028 86.3467 123.96 85.77 123.8C85.2511 123.619 84.7928 123.297 84.446 122.87C84.0774 122.397 83.8422 121.834 83.765 121.24C83.6378 120.167 83.5827 119.086 83.6 118.006C83.6269 116.966 83.5553 115.926 83.386 114.9C83.2785 114.369 82.9949 113.889 82.581 113.539C82.1336 113.191 81.5808 113.006 81.014 113.015V110.976Z" fill="#FBC02D"/>
<path d="M104.986 113.011C104.419 113.002 103.866 113.187 103.419 113.535C103.005 113.885 102.721 114.365 102.614 114.896C102.445 115.923 102.374 116.964 102.402 118.005C102.418 119.085 102.362 120.166 102.233 121.239C102.156 121.833 101.921 122.396 101.552 122.869C101.205 123.295 100.747 123.617 100.228 123.799C99.6513 123.959 99.0529 124.026 98.455 123.999H97.755V122.04H98.142C98.6949 122.098 99.2521 121.98 99.734 121.703C100.047 121.386 100.228 120.962 100.24 120.517C100.273 120.209 100.29 119.242 100.29 117.617C100.205 116.299 100.416 114.978 100.908 113.752C101.341 112.948 102.048 112.326 102.9 112C102.24 111.711 101.657 111.271 101.2 110.714C100.786 110.097 100.523 109.391 100.432 108.654C100.307 107.28 100.262 105.9 100.295 104.521C100.382 103.796 100.233 103.063 99.87 102.429C99.3802 102.051 98.7606 101.883 98.147 101.961H97.76V99.9999H98.46C98.9764 99.9826 99.4931 100.025 100 100.125C100.42 100.234 100.812 100.433 101.149 100.706C101.47 100.988 101.727 101.335 101.904 101.724C102.136 102.259 102.278 102.829 102.322 103.41C102.363 103.851 102.388 104.767 102.397 106.157C102.372 107.144 102.443 108.131 102.609 109.104C102.715 109.634 102.999 110.112 103.414 110.459C103.863 110.803 104.415 110.986 104.981 110.977L104.986 113.011Z" fill="#FBC02D"/>
<path d="M119.221 108.99V110.238H114.079V108.99H119.221ZM115.819 106.679H117.445V116.145C117.445 116.467 117.495 116.71 117.595 116.874C117.694 117.038 117.823 117.146 117.981 117.199C118.14 117.252 118.31 117.278 118.491 117.278C118.626 117.278 118.767 117.267 118.913 117.243C119.065 117.214 119.18 117.19 119.256 117.173L119.265 118.5C119.136 118.541 118.966 118.579 118.755 118.614C118.55 118.655 118.301 118.676 118.008 118.676C117.609 118.676 117.243 118.597 116.909 118.438C116.575 118.28 116.309 118.017 116.109 117.647C115.916 117.272 115.819 116.769 115.819 116.136V106.679ZM126.665 115.978C126.665 115.743 126.612 115.526 126.507 115.327C126.407 115.122 126.199 114.938 125.883 114.773C125.572 114.604 125.104 114.457 124.477 114.334C123.949 114.223 123.472 114.091 123.044 113.938C122.622 113.786 122.262 113.602 121.963 113.385C121.67 113.168 121.444 112.913 121.286 112.62C121.128 112.327 121.049 111.984 121.049 111.592C121.049 111.217 121.131 110.862 121.295 110.528C121.465 110.194 121.702 109.898 122.007 109.641C122.317 109.383 122.689 109.181 123.123 109.034C123.557 108.888 124.04 108.814 124.573 108.814C125.335 108.814 125.985 108.949 126.524 109.219C127.063 109.488 127.477 109.849 127.764 110.3C128.051 110.745 128.194 111.24 128.194 111.785H126.568C126.568 111.521 126.489 111.267 126.331 111.021C126.179 110.769 125.953 110.561 125.654 110.396C125.361 110.232 125.001 110.15 124.573 110.15C124.122 110.15 123.756 110.221 123.475 110.361C123.199 110.496 122.997 110.669 122.868 110.88C122.745 111.091 122.684 111.313 122.684 111.548C122.684 111.724 122.713 111.882 122.771 112.022C122.836 112.157 122.947 112.283 123.105 112.4C123.264 112.512 123.486 112.617 123.773 112.717C124.061 112.816 124.427 112.916 124.872 113.016C125.651 113.191 126.293 113.402 126.797 113.648C127.301 113.895 127.676 114.196 127.922 114.554C128.168 114.911 128.291 115.345 128.291 115.854C128.291 116.271 128.203 116.651 128.027 116.997C127.857 117.343 127.608 117.642 127.28 117.894C126.958 118.14 126.571 118.333 126.12 118.474C125.675 118.608 125.174 118.676 124.617 118.676C123.779 118.676 123.07 118.526 122.49 118.228C121.91 117.929 121.471 117.542 121.172 117.067C120.873 116.593 120.724 116.092 120.724 115.564H122.358C122.382 116.01 122.511 116.364 122.745 116.628C122.979 116.886 123.267 117.07 123.606 117.182C123.946 117.287 124.283 117.34 124.617 117.34C125.062 117.34 125.435 117.281 125.733 117.164C126.038 117.047 126.27 116.886 126.428 116.681C126.586 116.476 126.665 116.241 126.665 115.978ZM134.232 117.34C134.619 117.34 134.977 117.261 135.305 117.103C135.633 116.944 135.902 116.728 136.113 116.452C136.324 116.171 136.444 115.852 136.474 115.494H138.021C137.991 116.057 137.801 116.581 137.449 117.067C137.104 117.548 136.649 117.938 136.087 118.236C135.524 118.529 134.906 118.676 134.232 118.676C133.518 118.676 132.894 118.55 132.36 118.298C131.833 118.046 131.394 117.7 131.042 117.261C130.696 116.821 130.436 116.317 130.26 115.749C130.09 115.175 130.005 114.568 130.005 113.93V113.561C130.005 112.922 130.09 112.318 130.26 111.75C130.436 111.176 130.696 110.669 131.042 110.229C131.394 109.79 131.833 109.444 132.36 109.192C132.894 108.94 133.518 108.814 134.232 108.814C134.977 108.814 135.627 108.967 136.184 109.271C136.74 109.57 137.177 109.98 137.493 110.502C137.815 111.018 137.991 111.604 138.021 112.26H136.474C136.444 111.867 136.333 111.513 136.14 111.196C135.952 110.88 135.694 110.628 135.366 110.44C135.044 110.247 134.666 110.15 134.232 110.15C133.734 110.15 133.315 110.25 132.976 110.449C132.642 110.643 132.375 110.906 132.176 111.24C131.982 111.568 131.842 111.935 131.754 112.339C131.672 112.737 131.631 113.145 131.631 113.561V113.93C131.631 114.346 131.672 114.756 131.754 115.16C131.836 115.564 131.974 115.931 132.167 116.259C132.366 116.587 132.633 116.851 132.967 117.05C133.307 117.243 133.729 117.34 134.232 117.34ZM139.418 113.851V113.648C139.418 112.963 139.518 112.327 139.717 111.741C139.916 111.149 140.203 110.637 140.578 110.203C140.953 109.764 141.407 109.424 141.94 109.184C142.474 108.938 143.071 108.814 143.733 108.814C144.401 108.814 145.002 108.938 145.535 109.184C146.074 109.424 146.531 109.764 146.906 110.203C147.287 110.637 147.577 111.149 147.776 111.741C147.976 112.327 148.075 112.963 148.075 113.648V113.851C148.075 114.536 147.976 115.172 147.776 115.758C147.577 116.344 147.287 116.856 146.906 117.296C146.531 117.729 146.077 118.069 145.544 118.315C145.017 118.556 144.419 118.676 143.751 118.676C143.083 118.676 142.482 118.556 141.949 118.315C141.416 118.069 140.959 117.729 140.578 117.296C140.203 116.856 139.916 116.344 139.717 115.758C139.518 115.172 139.418 114.536 139.418 113.851ZM141.044 113.648V113.851C141.044 114.325 141.1 114.773 141.211 115.195C141.322 115.611 141.489 115.98 141.712 116.303C141.94 116.625 142.225 116.88 142.564 117.067C142.904 117.249 143.3 117.34 143.751 117.34C144.196 117.34 144.586 117.249 144.92 117.067C145.26 116.88 145.541 116.625 145.764 116.303C145.986 115.98 146.153 115.611 146.265 115.195C146.382 114.773 146.44 114.325 146.44 113.851V113.648C146.44 113.18 146.382 112.737 146.265 112.321C146.153 111.899 145.983 111.527 145.755 111.205C145.532 110.877 145.251 110.619 144.911 110.432C144.577 110.244 144.185 110.15 143.733 110.15C143.288 110.15 142.896 110.244 142.556 110.432C142.222 110.619 141.94 110.877 141.712 111.205C141.489 111.527 141.322 111.899 141.211 112.321C141.1 112.737 141.044 113.18 141.044 113.648ZM151.74 111.021V118.5H150.114V108.99H151.652L151.74 111.021ZM151.354 113.385L150.677 113.358C150.683 112.708 150.779 112.107 150.967 111.557C151.154 111 151.418 110.517 151.758 110.106C152.098 109.696 152.502 109.38 152.971 109.157C153.445 108.929 153.97 108.814 154.544 108.814C155.013 108.814 155.435 108.879 155.81 109.008C156.185 109.131 156.504 109.33 156.768 109.605C157.037 109.881 157.242 110.238 157.383 110.678C157.523 111.111 157.594 111.642 157.594 112.269V118.5H155.959V112.251C155.959 111.753 155.886 111.354 155.739 111.056C155.593 110.751 155.379 110.531 155.098 110.396C154.816 110.256 154.471 110.186 154.061 110.186C153.656 110.186 153.287 110.271 152.953 110.44C152.625 110.61 152.341 110.845 152.101 111.144C151.866 111.442 151.682 111.785 151.547 112.172C151.418 112.553 151.354 112.957 151.354 113.385ZM162.234 118.5H160.608V108.164C160.608 107.443 160.749 106.834 161.03 106.336C161.312 105.838 161.713 105.46 162.234 105.202C162.756 104.944 163.374 104.815 164.089 104.815C164.511 104.815 164.924 104.868 165.328 104.974C165.732 105.073 166.148 105.199 166.576 105.352L166.304 106.723C166.034 106.617 165.721 106.518 165.363 106.424C165.012 106.324 164.625 106.274 164.203 106.274C163.506 106.274 163.002 106.433 162.691 106.749C162.387 107.06 162.234 107.531 162.234 108.164V118.5ZM164.177 108.99V110.238H159.105V108.99H164.177ZM167.376 108.99V118.5H165.75V108.99H167.376ZM176.209 108.99H177.686V118.298C177.686 119.136 177.516 119.851 177.176 120.442C176.836 121.034 176.361 121.482 175.752 121.787C175.148 122.098 174.451 122.253 173.66 122.253C173.332 122.253 172.945 122.2 172.5 122.095C172.061 121.995 171.627 121.822 171.199 121.576C170.777 121.336 170.423 121.011 170.136 120.601L170.988 119.634C171.387 120.114 171.803 120.448 172.236 120.636C172.676 120.823 173.109 120.917 173.537 120.917C174.053 120.917 174.498 120.82 174.873 120.627C175.248 120.434 175.538 120.146 175.743 119.766C175.954 119.391 176.06 118.928 176.06 118.377V111.082L176.209 108.99ZM169.661 113.851V113.666C169.661 112.939 169.746 112.28 169.916 111.688C170.092 111.091 170.341 110.578 170.663 110.15C170.991 109.723 171.387 109.395 171.85 109.166C172.312 108.932 172.834 108.814 173.414 108.814C174.012 108.814 174.533 108.92 174.979 109.131C175.43 109.336 175.811 109.638 176.121 110.036C176.438 110.429 176.687 110.903 176.868 111.46C177.05 112.017 177.176 112.646 177.246 113.35V114.158C177.182 114.855 177.056 115.482 176.868 116.039C176.687 116.596 176.438 117.07 176.121 117.463C175.811 117.855 175.43 118.157 174.979 118.368C174.527 118.573 174 118.676 173.396 118.676C172.828 118.676 172.312 118.556 171.85 118.315C171.393 118.075 171 117.738 170.672 117.305C170.344 116.871 170.092 116.361 169.916 115.775C169.746 115.184 169.661 114.542 169.661 113.851ZM171.287 113.666V113.851C171.287 114.325 171.334 114.771 171.428 115.187C171.527 115.603 171.677 115.969 171.876 116.285C172.081 116.602 172.342 116.851 172.658 117.032C172.975 117.208 173.353 117.296 173.792 117.296C174.331 117.296 174.776 117.182 175.128 116.953C175.479 116.725 175.758 116.423 175.963 116.048C176.174 115.673 176.338 115.266 176.455 114.826V112.708C176.391 112.386 176.291 112.075 176.156 111.776C176.027 111.472 175.857 111.202 175.646 110.968C175.441 110.728 175.187 110.537 174.882 110.396C174.577 110.256 174.22 110.186 173.81 110.186C173.364 110.186 172.98 110.279 172.658 110.467C172.342 110.648 172.081 110.9 171.876 111.223C171.677 111.539 171.527 111.908 171.428 112.33C171.334 112.746 171.287 113.191 171.287 113.666ZM180.182 117.639C180.182 117.363 180.267 117.132 180.437 116.944C180.612 116.751 180.864 116.654 181.192 116.654C181.521 116.654 181.77 116.751 181.939 116.944C182.115 117.132 182.203 117.363 182.203 117.639C182.203 117.908 182.115 118.137 181.939 118.324C181.77 118.512 181.521 118.605 181.192 118.605C180.864 118.605 180.612 118.512 180.437 118.324C180.267 118.137 180.182 117.908 180.182 117.639ZM184.945 108.99H186.58V119.634C186.58 120.214 186.486 120.706 186.299 121.11C186.117 121.515 185.842 121.819 185.473 122.024C185.109 122.235 184.649 122.341 184.093 122.341C183.946 122.341 183.776 122.326 183.583 122.297C183.384 122.268 183.217 122.232 183.082 122.191L183.091 120.882C183.202 120.905 183.328 120.923 183.469 120.935C183.609 120.952 183.732 120.961 183.838 120.961C184.078 120.961 184.28 120.917 184.444 120.829C184.608 120.741 184.731 120.601 184.813 120.407C184.901 120.214 184.945 119.956 184.945 119.634V108.99ZM184.778 106.468C184.778 106.204 184.86 105.981 185.024 105.8C185.188 105.618 185.426 105.527 185.736 105.527C186.053 105.527 186.293 105.618 186.457 105.8C186.621 105.981 186.703 106.204 186.703 106.468C186.703 106.72 186.621 106.937 186.457 107.118C186.293 107.294 186.053 107.382 185.736 107.382C185.426 107.382 185.188 107.294 185.024 107.118C184.86 106.937 184.778 106.72 184.778 106.468ZM194.745 115.978C194.745 115.743 194.692 115.526 194.587 115.327C194.487 115.122 194.279 114.938 193.963 114.773C193.652 114.604 193.184 114.457 192.557 114.334C192.029 114.223 191.552 114.091 191.124 113.938C190.702 113.786 190.342 113.602 190.043 113.385C189.75 113.168 189.524 112.913 189.366 112.62C189.208 112.327 189.129 111.984 189.129 111.592C189.129 111.217 189.211 110.862 189.375 110.528C189.545 110.194 189.782 109.898 190.087 109.641C190.397 109.383 190.77 109.181 191.203 109.034C191.637 108.888 192.12 108.814 192.653 108.814C193.415 108.814 194.065 108.949 194.604 109.219C195.144 109.488 195.557 109.849 195.844 110.3C196.131 110.745 196.274 111.24 196.274 111.785H194.648C194.648 111.521 194.569 111.267 194.411 111.021C194.259 110.769 194.033 110.561 193.734 110.396C193.441 110.232 193.081 110.15 192.653 110.15C192.202 110.15 191.836 110.221 191.555 110.361C191.279 110.496 191.077 110.669 190.948 110.88C190.825 111.091 190.764 111.313 190.764 111.548C190.764 111.724 190.793 111.882 190.852 112.022C190.916 112.157 191.027 112.283 191.186 112.4C191.344 112.512 191.566 112.617 191.854 112.717C192.141 112.816 192.507 112.916 192.952 113.016C193.731 113.191 194.373 113.402 194.877 113.648C195.381 113.895 195.756 114.196 196.002 114.554C196.248 114.911 196.371 115.345 196.371 115.854C196.371 116.271 196.283 116.651 196.107 116.997C195.938 117.343 195.688 117.642 195.36 117.894C195.038 118.14 194.651 118.333 194.2 118.474C193.755 118.608 193.254 118.676 192.697 118.676C191.859 118.676 191.15 118.526 190.57 118.228C189.99 117.929 189.551 117.542 189.252 117.067C188.953 116.593 188.804 116.092 188.804 115.564H190.438C190.462 116.01 190.591 116.364 190.825 116.628C191.06 116.886 191.347 117.07 191.687 117.182C192.026 117.287 192.363 117.34 192.697 117.34C193.143 117.34 193.515 117.281 193.813 117.164C194.118 117.047 194.35 116.886 194.508 116.681C194.666 116.476 194.745 116.241 194.745 115.978ZM198.076 113.851V113.648C198.076 112.963 198.176 112.327 198.375 111.741C198.574 111.149 198.861 110.637 199.236 110.203C199.611 109.764 200.065 109.424 200.599 109.184C201.132 108.938 201.729 108.814 202.392 108.814C203.06 108.814 203.66 108.938 204.193 109.184C204.732 109.424 205.189 109.764 205.564 110.203C205.945 110.637 206.235 111.149 206.435 111.741C206.634 112.327 206.733 112.963 206.733 113.648V113.851C206.733 114.536 206.634 115.172 206.435 115.758C206.235 116.344 205.945 116.856 205.564 117.296C205.189 117.729 204.735 118.069 204.202 118.315C203.675 118.556 203.077 118.676 202.409 118.676C201.741 118.676 201.141 118.556 200.607 118.315C200.074 118.069 199.617 117.729 199.236 117.296C198.861 116.856 198.574 116.344 198.375 115.758C198.176 115.172 198.076 114.536 198.076 113.851ZM199.702 113.648V113.851C199.702 114.325 199.758 114.773 199.869 115.195C199.98 115.611 200.147 115.98 200.37 116.303C200.599 116.625 200.883 116.88 201.223 117.067C201.562 117.249 201.958 117.34 202.409 117.34C202.854 117.34 203.244 117.249 203.578 117.067C203.918 116.88 204.199 116.625 204.422 116.303C204.645 115.98 204.812 115.611 204.923 115.195C205.04 114.773 205.099 114.325 205.099 113.851V113.648C205.099 113.18 205.04 112.737 204.923 112.321C204.812 111.899 204.642 111.527 204.413 111.205C204.19 110.877 203.909 110.619 203.569 110.432C203.235 110.244 202.843 110.15 202.392 110.15C201.946 110.15 201.554 110.244 201.214 110.432C200.88 110.619 200.599 110.877 200.37 111.205C200.147 111.527 199.98 111.899 199.869 112.321C199.758 112.737 199.702 113.18 199.702 113.648ZM210.398 111.021V118.5H208.772V108.99H210.311L210.398 111.021ZM210.012 113.385L209.335 113.358C209.341 112.708 209.438 112.107 209.625 111.557C209.812 111 210.076 110.517 210.416 110.106C210.756 109.696 211.16 109.38 211.629 109.157C212.104 108.929 212.628 108.814 213.202 108.814C213.671 108.814 214.093 108.879 214.468 109.008C214.843 109.131 215.162 109.33 215.426 109.605C215.695 109.881 215.9 110.238 216.041 110.678C216.182 111.111 216.252 111.642 216.252 112.269V118.5H214.617V112.251C214.617 111.753 214.544 111.354 214.397 111.056C214.251 110.751 214.037 110.531 213.756 110.396C213.475 110.256 213.129 110.186 212.719 110.186C212.314 110.186 211.945 110.271 211.611 110.44C211.283 110.61 210.999 110.845 210.759 111.144C210.524 111.442 210.34 111.785 210.205 112.172C210.076 112.553 210.012 112.957 210.012 113.385Z" fill="#E7E7E7"/>
<mask id="path-24-inside-6_2390_522" fill="white">
<path d="M16 128H32V160H16V128Z"/>
</mask>
<path d="M31 128V160H33V128H31Z" fill="#AFAFAF" mask="url(#path-24-inside-6_2390_522)"/>
<path d="M66.014 142.976C66.5798 142.985 67.132 142.802 67.581 142.458C67.9962 142.11 68.2802 141.631 68.386 141.1C68.5523 140.128 68.624 139.142 68.6 138.156C68.608 136.766 68.633 135.85 68.675 135.409C68.7195 134.828 68.8608 134.258 69.093 133.723C69.27 133.334 69.5273 132.987 69.848 132.705C70.1862 132.432 70.579 132.234 71 132.125C71.5082 132.024 72.0263 131.982 72.544 132H73.244V133.96H72.857C72.2434 133.882 71.6238 134.05 71.134 134.428C70.7714 135.062 70.6224 135.795 70.709 136.52C70.7425 137.899 70.6967 139.279 70.572 140.653C70.4812 141.39 70.2181 142.096 69.804 142.713C69.3457 143.271 68.7617 143.712 68.1 144C68.9528 144.327 69.6598 144.949 70.092 145.754C70.5835 146.98 70.7947 148.301 70.71 149.619C70.71 151.242 70.7267 152.209 70.76 152.519C70.7728 152.962 70.9529 153.384 71.264 153.7C71.7459 153.977 72.3031 154.095 72.856 154.037H73.243V156H72.543C71.9451 156.028 71.3467 155.96 70.77 155.8C70.2511 155.619 69.7928 155.297 69.446 154.87C69.0774 154.397 68.8422 153.834 68.765 153.24C68.6378 152.167 68.5827 151.086 68.6 150.006C68.6269 148.966 68.5553 147.926 68.386 146.9C68.2785 146.369 67.9949 145.889 67.581 145.539C67.1336 145.191 66.5808 145.006 66.014 145.015V142.976Z" fill="#FBC02D"/>
<path d="M89.986 145.011C89.4192 145.002 88.8664 145.187 88.419 145.535C88.0051 145.885 87.7215 146.365 87.614 146.896C87.4452 147.923 87.3742 148.964 87.402 150.005C87.418 151.085 87.3616 152.166 87.233 153.239C87.1558 153.833 86.9206 154.396 86.552 154.869C86.2052 155.295 85.7469 155.617 85.228 155.799C84.6513 155.959 84.0529 156.026 83.455 155.999H82.755V154.04H83.142C83.6949 154.098 84.2521 153.98 84.734 153.703C85.0471 153.386 85.2279 152.962 85.24 152.517C85.2733 152.209 85.29 151.242 85.29 149.617C85.2053 148.299 85.4165 146.978 85.908 145.752C86.3406 144.948 87.0475 144.326 87.9 144C87.2398 143.711 86.6573 143.271 86.2 142.714C85.7859 142.097 85.5228 141.391 85.432 140.654C85.3073 139.28 85.2616 137.9 85.295 136.521C85.3816 135.796 85.2326 135.063 84.87 134.429C84.3802 134.051 83.7606 133.883 83.147 133.961H82.76V132H83.46C83.9764 131.983 84.4931 132.025 85 132.125C85.42 132.234 85.8118 132.433 86.149 132.706C86.4697 132.988 86.727 133.335 86.904 133.724C87.1362 134.259 87.2775 134.829 87.322 135.41C87.3633 135.851 87.3883 136.767 87.397 138.157C87.3722 139.144 87.4432 140.131 87.609 141.104C87.7154 141.634 87.9994 142.112 88.414 142.459C88.863 142.803 89.4152 142.986 89.981 142.977L89.986 145.011Z" fill="#FBC02D"/>
<path d="M105.847 148.874V143.979C105.847 143.604 105.771 143.278 105.618 143.003C105.472 142.722 105.249 142.505 104.95 142.353C104.651 142.2 104.282 142.124 103.843 142.124C103.433 142.124 103.072 142.194 102.762 142.335C102.457 142.476 102.217 142.66 102.041 142.889C101.871 143.117 101.786 143.363 101.786 143.627H100.16C100.16 143.287 100.248 142.95 100.424 142.616C100.6 142.282 100.852 141.98 101.18 141.711C101.514 141.436 101.912 141.219 102.375 141.061C102.844 140.896 103.365 140.814 103.939 140.814C104.631 140.814 105.24 140.932 105.768 141.166C106.301 141.4 106.717 141.755 107.016 142.229C107.32 142.698 107.473 143.287 107.473 143.996V148.426C107.473 148.742 107.499 149.079 107.552 149.437C107.61 149.794 107.695 150.102 107.807 150.359V150.5H106.11C106.028 150.312 105.964 150.063 105.917 149.753C105.87 149.437 105.847 149.144 105.847 148.874ZM106.128 144.734L106.146 145.877H104.502C104.039 145.877 103.626 145.915 103.263 145.991C102.899 146.062 102.595 146.17 102.349 146.316C102.103 146.463 101.915 146.647 101.786 146.87C101.657 147.087 101.593 147.342 101.593 147.635C101.593 147.934 101.66 148.206 101.795 148.452C101.93 148.698 102.132 148.895 102.401 149.041C102.677 149.182 103.014 149.252 103.412 149.252C103.91 149.252 104.35 149.146 104.73 148.936C105.111 148.725 105.413 148.467 105.636 148.162C105.864 147.857 105.987 147.562 106.005 147.274L106.699 148.057C106.658 148.303 106.547 148.575 106.365 148.874C106.184 149.173 105.94 149.46 105.636 149.735C105.337 150.005 104.979 150.23 104.563 150.412C104.153 150.588 103.69 150.676 103.175 150.676C102.53 150.676 101.965 150.55 101.479 150.298C100.998 150.046 100.623 149.709 100.354 149.287C100.09 148.859 99.958 148.382 99.958 147.854C99.958 147.345 100.058 146.896 100.257 146.51C100.456 146.117 100.743 145.792 101.118 145.534C101.493 145.271 101.944 145.071 102.472 144.937C102.999 144.802 103.588 144.734 104.238 144.734H106.128ZM115.567 147.978C115.567 147.743 115.515 147.526 115.409 147.327C115.31 147.122 115.102 146.938 114.785 146.773C114.475 146.604 114.006 146.457 113.379 146.334C112.852 146.223 112.374 146.091 111.946 145.938C111.524 145.786 111.164 145.602 110.865 145.385C110.572 145.168 110.347 144.913 110.188 144.62C110.03 144.327 109.951 143.984 109.951 143.592C109.951 143.217 110.033 142.862 110.197 142.528C110.367 142.194 110.604 141.898 110.909 141.641C111.22 141.383 111.592 141.181 112.025 141.034C112.459 140.888 112.942 140.814 113.476 140.814C114.237 140.814 114.888 140.949 115.427 141.219C115.966 141.488 116.379 141.849 116.666 142.3C116.953 142.745 117.097 143.24 117.097 143.785H115.471C115.471 143.521 115.392 143.267 115.233 143.021C115.081 142.769 114.855 142.561 114.557 142.396C114.264 142.232 113.903 142.15 113.476 142.15C113.024 142.15 112.658 142.221 112.377 142.361C112.102 142.496 111.899 142.669 111.771 142.88C111.647 143.091 111.586 143.313 111.586 143.548C111.586 143.724 111.615 143.882 111.674 144.022C111.738 144.157 111.85 144.283 112.008 144.4C112.166 144.512 112.389 144.617 112.676 144.717C112.963 144.816 113.329 144.916 113.774 145.016C114.554 145.191 115.195 145.402 115.699 145.648C116.203 145.895 116.578 146.196 116.824 146.554C117.07 146.911 117.193 147.345 117.193 147.854C117.193 148.271 117.105 148.651 116.93 148.997C116.76 149.343 116.511 149.642 116.183 149.894C115.86 150.14 115.474 150.333 115.022 150.474C114.577 150.608 114.076 150.676 113.52 150.676C112.682 150.676 111.973 150.526 111.393 150.228C110.812 149.929 110.373 149.542 110.074 149.067C109.775 148.593 109.626 148.092 109.626 147.564H111.261C111.284 148.01 111.413 148.364 111.647 148.628C111.882 148.886 112.169 149.07 112.509 149.182C112.849 149.287 113.186 149.34 113.52 149.34C113.965 149.34 114.337 149.281 114.636 149.164C114.94 149.047 115.172 148.886 115.33 148.681C115.488 148.476 115.567 148.241 115.567 147.978ZM123.135 149.34C123.521 149.34 123.879 149.261 124.207 149.103C124.535 148.944 124.805 148.728 125.016 148.452C125.227 148.171 125.347 147.852 125.376 147.494H126.923C126.894 148.057 126.703 148.581 126.352 149.067C126.006 149.548 125.552 149.938 124.989 150.236C124.427 150.529 123.809 150.676 123.135 150.676C122.42 150.676 121.796 150.55 121.263 150.298C120.735 150.046 120.296 149.7 119.944 149.261C119.599 148.821 119.338 148.317 119.162 147.749C118.992 147.175 118.907 146.568 118.907 145.93V145.561C118.907 144.922 118.992 144.318 119.162 143.75C119.338 143.176 119.599 142.669 119.944 142.229C120.296 141.79 120.735 141.444 121.263 141.192C121.796 140.94 122.42 140.814 123.135 140.814C123.879 140.814 124.529 140.967 125.086 141.271C125.643 141.57 126.079 141.98 126.396 142.502C126.718 143.018 126.894 143.604 126.923 144.26H125.376C125.347 143.867 125.235 143.513 125.042 143.196C124.854 142.88 124.597 142.628 124.269 142.44C123.946 142.247 123.568 142.15 123.135 142.15C122.637 142.15 122.218 142.25 121.878 142.449C121.544 142.643 121.277 142.906 121.078 143.24C120.885 143.568 120.744 143.935 120.656 144.339C120.574 144.737 120.533 145.145 120.533 145.561V145.93C120.533 146.346 120.574 146.756 120.656 147.16C120.738 147.564 120.876 147.931 121.069 148.259C121.269 148.587 121.535 148.851 121.869 149.05C122.209 149.243 122.631 149.34 123.135 149.34ZM128.32 145.851V145.648C128.32 144.963 128.42 144.327 128.619 143.741C128.818 143.149 129.105 142.637 129.48 142.203C129.855 141.764 130.31 141.424 130.843 141.184C131.376 140.938 131.974 140.814 132.636 140.814C133.304 140.814 133.904 140.938 134.438 141.184C134.977 141.424 135.434 141.764 135.809 142.203C136.189 142.637 136.479 143.149 136.679 143.741C136.878 144.327 136.978 144.963 136.978 145.648V145.851C136.978 146.536 136.878 147.172 136.679 147.758C136.479 148.344 136.189 148.856 135.809 149.296C135.434 149.729 134.979 150.069 134.446 150.315C133.919 150.556 133.321 150.676 132.653 150.676C131.985 150.676 131.385 150.556 130.852 150.315C130.318 150.069 129.861 149.729 129.48 149.296C129.105 148.856 128.818 148.344 128.619 147.758C128.42 147.172 128.32 146.536 128.32 145.851ZM129.946 145.648V145.851C129.946 146.325 130.002 146.773 130.113 147.195C130.225 147.611 130.392 147.98 130.614 148.303C130.843 148.625 131.127 148.88 131.467 149.067C131.807 149.249 132.202 149.34 132.653 149.34C133.099 149.34 133.488 149.249 133.822 149.067C134.162 148.88 134.443 148.625 134.666 148.303C134.889 147.98 135.056 147.611 135.167 147.195C135.284 146.773 135.343 146.325 135.343 145.851V145.648C135.343 145.18 135.284 144.737 135.167 144.321C135.056 143.899 134.886 143.527 134.657 143.205C134.435 142.877 134.153 142.619 133.813 142.432C133.479 142.244 133.087 142.15 132.636 142.15C132.19 142.15 131.798 142.244 131.458 142.432C131.124 142.619 130.843 142.877 130.614 143.205C130.392 143.527 130.225 143.899 130.113 144.321C130.002 144.737 129.946 145.18 129.946 145.648ZM140.643 143.021V150.5H139.017V140.99H140.555L140.643 143.021ZM140.256 145.385L139.579 145.358C139.585 144.708 139.682 144.107 139.869 143.557C140.057 143 140.32 142.517 140.66 142.106C141 141.696 141.404 141.38 141.873 141.157C142.348 140.929 142.872 140.814 143.446 140.814C143.915 140.814 144.337 140.879 144.712 141.008C145.087 141.131 145.406 141.33 145.67 141.605C145.939 141.881 146.145 142.238 146.285 142.678C146.426 143.111 146.496 143.642 146.496 144.269V150.5H144.861V144.251C144.861 143.753 144.788 143.354 144.642 143.056C144.495 142.751 144.281 142.531 144 142.396C143.719 142.256 143.373 142.186 142.963 142.186C142.559 142.186 142.189 142.271 141.855 142.44C141.527 142.61 141.243 142.845 141.003 143.144C140.769 143.442 140.584 143.785 140.449 144.172C140.32 144.553 140.256 144.957 140.256 145.385ZM151.137 150.5H149.511V140.164C149.511 139.443 149.651 138.834 149.933 138.336C150.214 137.838 150.615 137.46 151.137 137.202C151.658 136.944 152.276 136.815 152.991 136.815C153.413 136.815 153.826 136.868 154.23 136.974C154.635 137.073 155.051 137.199 155.479 137.352L155.206 138.723C154.937 138.617 154.623 138.518 154.266 138.424C153.914 138.324 153.527 138.274 153.105 138.274C152.408 138.274 151.904 138.433 151.594 138.749C151.289 139.06 151.137 139.531 151.137 140.164V150.5ZM153.079 140.99V142.238H148.008V140.99H153.079ZM156.278 140.99V150.5H154.652V140.99H156.278ZM165.111 140.99H166.588V150.298C166.588 151.136 166.418 151.851 166.078 152.442C165.738 153.034 165.264 153.482 164.654 153.787C164.051 154.098 163.354 154.253 162.562 154.253C162.234 154.253 161.848 154.2 161.402 154.095C160.963 153.995 160.529 153.822 160.102 153.576C159.68 153.336 159.325 153.011 159.038 152.601L159.891 151.634C160.289 152.114 160.705 152.448 161.139 152.636C161.578 152.823 162.012 152.917 162.439 152.917C162.955 152.917 163.4 152.82 163.775 152.627C164.15 152.434 164.44 152.146 164.646 151.766C164.856 151.391 164.962 150.928 164.962 150.377V143.082L165.111 140.99ZM158.563 145.851V145.666C158.563 144.939 158.648 144.28 158.818 143.688C158.994 143.091 159.243 142.578 159.565 142.15C159.894 141.723 160.289 141.395 160.752 141.166C161.215 140.932 161.736 140.814 162.316 140.814C162.914 140.814 163.436 140.92 163.881 141.131C164.332 141.336 164.713 141.638 165.023 142.036C165.34 142.429 165.589 142.903 165.771 143.46C165.952 144.017 166.078 144.646 166.148 145.35V146.158C166.084 146.855 165.958 147.482 165.771 148.039C165.589 148.596 165.34 149.07 165.023 149.463C164.713 149.855 164.332 150.157 163.881 150.368C163.43 150.573 162.902 150.676 162.299 150.676C161.73 150.676 161.215 150.556 160.752 150.315C160.295 150.075 159.902 149.738 159.574 149.305C159.246 148.871 158.994 148.361 158.818 147.775C158.648 147.184 158.563 146.542 158.563 145.851ZM160.189 145.666V145.851C160.189 146.325 160.236 146.771 160.33 147.187C160.43 147.603 160.579 147.969 160.778 148.285C160.983 148.602 161.244 148.851 161.561 149.032C161.877 149.208 162.255 149.296 162.694 149.296C163.233 149.296 163.679 149.182 164.03 148.953C164.382 148.725 164.66 148.423 164.865 148.048C165.076 147.673 165.24 147.266 165.357 146.826V144.708C165.293 144.386 165.193 144.075 165.059 143.776C164.93 143.472 164.76 143.202 164.549 142.968C164.344 142.728 164.089 142.537 163.784 142.396C163.479 142.256 163.122 142.186 162.712 142.186C162.267 142.186 161.883 142.279 161.561 142.467C161.244 142.648 160.983 142.9 160.778 143.223C160.579 143.539 160.43 143.908 160.33 144.33C160.236 144.746 160.189 145.191 160.189 145.666ZM169.084 149.639C169.084 149.363 169.169 149.132 169.339 148.944C169.515 148.751 169.767 148.654 170.095 148.654C170.423 148.654 170.672 148.751 170.842 148.944C171.018 149.132 171.105 149.363 171.105 149.639C171.105 149.908 171.018 150.137 170.842 150.324C170.672 150.512 170.423 150.605 170.095 150.605C169.767 150.605 169.515 150.512 169.339 150.324C169.169 150.137 169.084 149.908 169.084 149.639ZM173.848 140.99H175.482V151.634C175.482 152.214 175.389 152.706 175.201 153.11C175.02 153.515 174.744 153.819 174.375 154.024C174.012 154.235 173.552 154.341 172.995 154.341C172.849 154.341 172.679 154.326 172.485 154.297C172.286 154.268 172.119 154.232 171.984 154.191L171.993 152.882C172.104 152.905 172.23 152.923 172.371 152.935C172.512 152.952 172.635 152.961 172.74 152.961C172.98 152.961 173.183 152.917 173.347 152.829C173.511 152.741 173.634 152.601 173.716 152.407C173.804 152.214 173.848 151.956 173.848 151.634V140.99ZM173.681 138.468C173.681 138.204 173.763 137.981 173.927 137.8C174.091 137.618 174.328 137.527 174.639 137.527C174.955 137.527 175.195 137.618 175.359 137.8C175.523 137.981 175.605 138.204 175.605 138.468C175.605 138.72 175.523 138.937 175.359 139.118C175.195 139.294 174.955 139.382 174.639 139.382C174.328 139.382 174.091 139.294 173.927 139.118C173.763 138.937 173.681 138.72 173.681 138.468ZM183.647 147.978C183.647 147.743 183.595 147.526 183.489 147.327C183.39 147.122 183.182 146.938 182.865 146.773C182.555 146.604 182.086 146.457 181.459 146.334C180.932 146.223 180.454 146.091 180.026 145.938C179.604 145.786 179.244 145.602 178.945 145.385C178.652 145.168 178.427 144.913 178.269 144.62C178.11 144.327 178.031 143.984 178.031 143.592C178.031 143.217 178.113 142.862 178.277 142.528C178.447 142.194 178.685 141.898 178.989 141.641C179.3 141.383 179.672 141.181 180.105 141.034C180.539 140.888 181.022 140.814 181.556 140.814C182.317 140.814 182.968 140.949 183.507 141.219C184.046 141.488 184.459 141.849 184.746 142.3C185.033 142.745 185.177 143.24 185.177 143.785H183.551C183.551 143.521 183.472 143.267 183.313 143.021C183.161 142.769 182.936 142.561 182.637 142.396C182.344 142.232 181.983 142.15 181.556 142.15C181.104 142.15 180.738 142.221 180.457 142.361C180.182 142.496 179.979 142.669 179.851 142.88C179.728 143.091 179.666 143.313 179.666 143.548C179.666 143.724 179.695 143.882 179.754 144.022C179.818 144.157 179.93 144.283 180.088 144.4C180.246 144.512 180.469 144.617 180.756 144.717C181.043 144.816 181.409 144.916 181.854 145.016C182.634 145.191 183.275 145.402 183.779 145.648C184.283 145.895 184.658 146.196 184.904 146.554C185.15 146.911 185.273 147.345 185.273 147.854C185.273 148.271 185.186 148.651 185.01 148.997C184.84 149.343 184.591 149.642 184.263 149.894C183.94 150.14 183.554 150.333 183.103 150.474C182.657 150.608 182.156 150.676 181.6 150.676C180.762 150.676 180.053 150.526 179.473 150.228C178.893 149.929 178.453 149.542 178.154 149.067C177.855 148.593 177.706 148.092 177.706 147.564H179.341C179.364 148.01 179.493 148.364 179.728 148.628C179.962 148.886 180.249 149.07 180.589 149.182C180.929 149.287 181.266 149.34 181.6 149.34C182.045 149.34 182.417 149.281 182.716 149.164C183.021 149.047 183.252 148.886 183.41 148.681C183.568 148.476 183.647 148.241 183.647 147.978ZM186.979 145.851V145.648C186.979 144.963 187.078 144.327 187.277 143.741C187.477 143.149 187.764 142.637 188.139 142.203C188.514 141.764 188.968 141.424 189.501 141.184C190.034 140.938 190.632 140.814 191.294 140.814C191.962 140.814 192.562 140.938 193.096 141.184C193.635 141.424 194.092 141.764 194.467 142.203C194.848 142.637 195.138 143.149 195.337 143.741C195.536 144.327 195.636 144.963 195.636 145.648V145.851C195.636 146.536 195.536 147.172 195.337 147.758C195.138 148.344 194.848 148.856 194.467 149.296C194.092 149.729 193.638 150.069 193.104 150.315C192.577 150.556 191.979 150.676 191.312 150.676C190.644 150.676 190.043 150.556 189.51 150.315C188.977 150.069 188.52 149.729 188.139 149.296C187.764 148.856 187.477 148.344 187.277 147.758C187.078 147.172 186.979 146.536 186.979 145.851ZM188.604 145.648V145.851C188.604 146.325 188.66 146.773 188.771 147.195C188.883 147.611 189.05 147.98 189.272 148.303C189.501 148.625 189.785 148.88 190.125 149.067C190.465 149.249 190.86 149.34 191.312 149.34C191.757 149.34 192.146 149.249 192.48 149.067C192.82 148.88 193.102 148.625 193.324 148.303C193.547 147.98 193.714 147.611 193.825 147.195C193.942 146.773 194.001 146.325 194.001 145.851V145.648C194.001 145.18 193.942 144.737 193.825 144.321C193.714 143.899 193.544 143.527 193.315 143.205C193.093 142.877 192.812 142.619 192.472 142.432C192.138 142.244 191.745 142.15 191.294 142.15C190.849 142.15 190.456 142.244 190.116 142.432C189.782 142.619 189.501 142.877 189.272 143.205C189.05 143.527 188.883 143.899 188.771 144.321C188.66 144.737 188.604 145.18 188.604 145.648ZM199.301 143.021V150.5H197.675V140.99H199.213L199.301 143.021ZM198.914 145.385L198.237 145.358C198.243 144.708 198.34 144.107 198.527 143.557C198.715 143 198.979 142.517 199.318 142.106C199.658 141.696 200.062 141.38 200.531 141.157C201.006 140.929 201.53 140.814 202.104 140.814C202.573 140.814 202.995 140.879 203.37 141.008C203.745 141.131 204.064 141.33 204.328 141.605C204.598 141.881 204.803 142.238 204.943 142.678C205.084 143.111 205.154 143.642 205.154 144.269V150.5H203.52V144.251C203.52 143.753 203.446 143.354 203.3 143.056C203.153 142.751 202.939 142.531 202.658 142.396C202.377 142.256 202.031 142.186 201.621 142.186C201.217 142.186 200.848 142.271 200.514 142.44C200.186 142.61 199.901 142.845 199.661 143.144C199.427 143.442 199.242 143.785 199.107 144.172C198.979 144.553 198.914 144.957 198.914 145.385Z" fill="#E7E7E7"/>
<mask id="path-29-inside-7_2390_522" fill="white">
<path d="M16 160H32V192H16V160Z"/>
</mask>
<path d="M31 160V192H33V160H31Z" fill="#AFAFAF" mask="url(#path-29-inside-7_2390_522)"/>
<path d="M66.014 174.976C66.5798 174.985 67.132 174.802 67.581 174.458C67.9962 174.11 68.2802 173.631 68.386 173.1C68.5523 172.128 68.624 171.142 68.6 170.156C68.608 168.766 68.633 167.85 68.675 167.409C68.7195 166.828 68.8608 166.258 69.093 165.723C69.27 165.334 69.5273 164.987 69.848 164.705C70.1862 164.432 70.579 164.234 71 164.125C71.5082 164.024 72.0263 163.982 72.544 164H73.244V165.96H72.857C72.2434 165.882 71.6238 166.05 71.134 166.428C70.7714 167.062 70.6224 167.795 70.709 168.52C70.7425 169.899 70.6967 171.279 70.572 172.653C70.4812 173.39 70.2181 174.096 69.804 174.713C69.3457 175.271 68.7617 175.712 68.1 176C68.9528 176.327 69.6598 176.949 70.092 177.754C70.5835 178.98 70.7947 180.301 70.71 181.619C70.71 183.242 70.7267 184.209 70.76 184.519C70.7728 184.962 70.9529 185.384 71.264 185.7C71.7459 185.977 72.3031 186.095 72.856 186.037H73.243V188H72.543C71.9451 188.028 71.3467 187.96 70.77 187.8C70.2511 187.619 69.7928 187.297 69.446 186.87C69.0774 186.397 68.8422 185.834 68.765 185.24C68.6378 184.167 68.5827 183.086 68.6 182.006C68.6269 180.966 68.5553 179.926 68.386 178.9C68.2785 178.369 67.9949 177.889 67.581 177.539C67.1336 177.191 66.5808 177.006 66.014 177.015V174.976Z" fill="#FBC02D"/>
<path d="M89.986 177.011C89.4192 177.002 88.8664 177.187 88.419 177.535C88.0051 177.885 87.7215 178.365 87.614 178.896C87.4452 179.923 87.3742 180.964 87.402 182.005C87.418 183.085 87.3616 184.166 87.233 185.239C87.1558 185.833 86.9206 186.396 86.552 186.869C86.2052 187.295 85.7469 187.617 85.228 187.799C84.6513 187.959 84.0529 188.026 83.455 187.999H82.755V186.04H83.142C83.6949 186.098 84.2521 185.98 84.734 185.703C85.0471 185.386 85.2279 184.962 85.24 184.517C85.2733 184.209 85.29 183.242 85.29 181.617C85.2053 180.299 85.4165 178.978 85.908 177.752C86.3406 176.948 87.0475 176.326 87.9 176C87.2398 175.711 86.6573 175.271 86.2 174.714C85.7859 174.097 85.5228 173.391 85.432 172.654C85.3073 171.28 85.2616 169.9 85.295 168.521C85.3816 167.796 85.2326 167.063 84.87 166.429C84.3802 166.051 83.7606 165.883 83.147 165.961H82.76V164H83.46C83.9764 163.983 84.4931 164.025 85 164.125C85.42 164.234 85.8118 164.433 86.149 164.706C86.4697 164.988 86.727 165.335 86.904 165.724C87.1362 166.259 87.2775 166.829 87.322 167.41C87.3633 167.851 87.3883 168.767 87.397 170.157C87.3722 171.144 87.4432 172.131 87.609 173.104C87.7154 173.634 87.9994 174.112 88.414 174.459C88.863 174.803 89.4152 174.986 89.981 174.977L89.986 177.011Z" fill="#FBC02D"/>
<path d="M101.865 174.818V186.156H100.23V172.99H101.725L101.865 174.818ZM108.272 177.666V177.851C108.272 178.542 108.19 179.184 108.026 179.775C107.862 180.361 107.622 180.871 107.306 181.305C106.995 181.738 106.611 182.075 106.154 182.315C105.697 182.556 105.173 182.676 104.581 182.676C103.978 182.676 103.444 182.576 102.981 182.377C102.519 182.178 102.126 181.888 101.804 181.507C101.481 181.126 101.224 180.669 101.03 180.136C100.843 179.603 100.714 179.002 100.644 178.334V177.35C100.714 176.646 100.846 176.017 101.039 175.46C101.232 174.903 101.487 174.429 101.804 174.036C102.126 173.638 102.516 173.336 102.973 173.131C103.43 172.92 103.957 172.814 104.555 172.814C105.152 172.814 105.683 172.932 106.146 173.166C106.608 173.395 106.998 173.723 107.314 174.15C107.631 174.578 107.868 175.091 108.026 175.688C108.19 176.28 108.272 176.939 108.272 177.666ZM106.638 177.851V177.666C106.638 177.191 106.588 176.746 106.488 176.33C106.389 175.908 106.233 175.539 106.022 175.223C105.817 174.9 105.554 174.648 105.231 174.467C104.909 174.279 104.525 174.186 104.08 174.186C103.67 174.186 103.312 174.256 103.008 174.396C102.709 174.537 102.454 174.728 102.243 174.968C102.032 175.202 101.859 175.472 101.725 175.776C101.596 176.075 101.499 176.386 101.435 176.708V178.984C101.552 179.395 101.716 179.781 101.927 180.145C102.138 180.502 102.419 180.792 102.771 181.015C103.122 181.231 103.564 181.34 104.098 181.34C104.537 181.34 104.915 181.249 105.231 181.067C105.554 180.88 105.817 180.625 106.022 180.303C106.233 179.98 106.389 179.611 106.488 179.195C106.588 178.773 106.638 178.325 106.638 177.851ZM115.954 180.874V175.979C115.954 175.604 115.878 175.278 115.726 175.003C115.579 174.722 115.356 174.505 115.058 174.353C114.759 174.2 114.39 174.124 113.95 174.124C113.54 174.124 113.18 174.194 112.869 174.335C112.564 174.476 112.324 174.66 112.148 174.889C111.979 175.117 111.894 175.363 111.894 175.627H110.268C110.268 175.287 110.355 174.95 110.531 174.616C110.707 174.282 110.959 173.98 111.287 173.711C111.621 173.436 112.02 173.219 112.482 173.061C112.951 172.896 113.473 172.814 114.047 172.814C114.738 172.814 115.348 172.932 115.875 173.166C116.408 173.4 116.824 173.755 117.123 174.229C117.428 174.698 117.58 175.287 117.58 175.996V180.426C117.58 180.742 117.606 181.079 117.659 181.437C117.718 181.794 117.803 182.102 117.914 182.359V182.5H116.218C116.136 182.312 116.071 182.063 116.024 181.753C115.978 181.437 115.954 181.144 115.954 180.874ZM116.235 176.734L116.253 177.877H114.609C114.146 177.877 113.733 177.915 113.37 177.991C113.007 178.062 112.702 178.17 112.456 178.316C112.21 178.463 112.022 178.647 111.894 178.87C111.765 179.087 111.7 179.342 111.7 179.635C111.7 179.934 111.768 180.206 111.902 180.452C112.037 180.698 112.239 180.895 112.509 181.041C112.784 181.182 113.121 181.252 113.52 181.252C114.018 181.252 114.457 181.146 114.838 180.936C115.219 180.725 115.521 180.467 115.743 180.162C115.972 179.857 116.095 179.562 116.112 179.274L116.807 180.057C116.766 180.303 116.654 180.575 116.473 180.874C116.291 181.173 116.048 181.46 115.743 181.735C115.444 182.005 115.087 182.23 114.671 182.412C114.261 182.588 113.798 182.676 113.282 182.676C112.638 182.676 112.072 182.55 111.586 182.298C111.105 182.046 110.73 181.709 110.461 181.287C110.197 180.859 110.065 180.382 110.065 179.854C110.065 179.345 110.165 178.896 110.364 178.51C110.563 178.117 110.851 177.792 111.226 177.534C111.601 177.271 112.052 177.071 112.579 176.937C113.106 176.802 113.695 176.734 114.346 176.734H116.235ZM123.943 181.34C124.33 181.34 124.688 181.261 125.016 181.103C125.344 180.944 125.613 180.728 125.824 180.452C126.035 180.171 126.155 179.852 126.185 179.494H127.731C127.702 180.057 127.512 180.581 127.16 181.067C126.814 181.548 126.36 181.938 125.798 182.236C125.235 182.529 124.617 182.676 123.943 182.676C123.229 182.676 122.604 182.55 122.071 182.298C121.544 182.046 121.104 181.7 120.753 181.261C120.407 180.821 120.146 180.317 119.971 179.749C119.801 179.175 119.716 178.568 119.716 177.93V177.561C119.716 176.922 119.801 176.318 119.971 175.75C120.146 175.176 120.407 174.669 120.753 174.229C121.104 173.79 121.544 173.444 122.071 173.192C122.604 172.94 123.229 172.814 123.943 172.814C124.688 172.814 125.338 172.967 125.895 173.271C126.451 173.57 126.888 173.98 127.204 174.502C127.526 175.018 127.702 175.604 127.731 176.26H126.185C126.155 175.867 126.044 175.513 125.851 175.196C125.663 174.88 125.405 174.628 125.077 174.44C124.755 174.247 124.377 174.15 123.943 174.15C123.445 174.15 123.026 174.25 122.687 174.449C122.353 174.643 122.086 174.906 121.887 175.24C121.693 175.568 121.553 175.935 121.465 176.339C121.383 176.737 121.342 177.145 121.342 177.561V177.93C121.342 178.346 121.383 178.756 121.465 179.16C121.547 179.564 121.685 179.931 121.878 180.259C122.077 180.587 122.344 180.851 122.678 181.05C123.018 181.243 123.439 181.34 123.943 181.34ZM131.194 169V182.5H129.56V169H131.194ZM137.004 172.99L132.855 177.429L130.535 179.837L130.403 178.105L132.064 176.119L135.018 172.99H137.004ZM135.519 182.5L132.126 177.965L132.97 176.515L137.435 182.5H135.519ZM144.29 180.874V175.979C144.29 175.604 144.214 175.278 144.062 175.003C143.915 174.722 143.692 174.505 143.394 174.353C143.095 174.2 142.726 174.124 142.286 174.124C141.876 174.124 141.516 174.194 141.205 174.335C140.9 174.476 140.66 174.66 140.484 174.889C140.314 175.117 140.229 175.363 140.229 175.627H138.604C138.604 175.287 138.691 174.95 138.867 174.616C139.043 174.282 139.295 173.98 139.623 173.711C139.957 173.436 140.355 173.219 140.818 173.061C141.287 172.896 141.809 172.814 142.383 172.814C143.074 172.814 143.684 172.932 144.211 173.166C144.744 173.4 145.16 173.755 145.459 174.229C145.764 174.698 145.916 175.287 145.916 175.996V180.426C145.916 180.742 145.942 181.079 145.995 181.437C146.054 181.794 146.139 182.102 146.25 182.359V182.5H144.554C144.472 182.312 144.407 182.063 144.36 181.753C144.313 181.437 144.29 181.144 144.29 180.874ZM144.571 176.734L144.589 177.877H142.945C142.482 177.877 142.069 177.915 141.706 177.991C141.343 178.062 141.038 178.17 140.792 178.316C140.546 178.463 140.358 178.647 140.229 178.87C140.101 179.087 140.036 179.342 140.036 179.635C140.036 179.934 140.104 180.206 140.238 180.452C140.373 180.698 140.575 180.895 140.845 181.041C141.12 181.182 141.457 181.252 141.855 181.252C142.354 181.252 142.793 181.146 143.174 180.936C143.555 180.725 143.856 180.467 144.079 180.162C144.308 179.857 144.431 179.562 144.448 179.274L145.143 180.057C145.102 180.303 144.99 180.575 144.809 180.874C144.627 181.173 144.384 181.46 144.079 181.735C143.78 182.005 143.423 182.23 143.007 182.412C142.597 182.588 142.134 182.676 141.618 182.676C140.974 182.676 140.408 182.55 139.922 182.298C139.441 182.046 139.066 181.709 138.797 181.287C138.533 180.859 138.401 180.382 138.401 179.854C138.401 179.345 138.501 178.896 138.7 178.51C138.899 178.117 139.187 177.792 139.562 177.534C139.937 177.271 140.388 177.071 140.915 176.937C141.442 176.802 142.031 176.734 142.682 176.734H144.571ZM154.635 172.99H156.111V182.298C156.111 183.136 155.941 183.851 155.602 184.442C155.262 185.034 154.787 185.482 154.178 185.787C153.574 186.098 152.877 186.253 152.086 186.253C151.758 186.253 151.371 186.2 150.926 186.095C150.486 185.995 150.053 185.822 149.625 185.576C149.203 185.336 148.849 185.011 148.562 184.601L149.414 183.634C149.812 184.114 150.229 184.448 150.662 184.636C151.102 184.823 151.535 184.917 151.963 184.917C152.479 184.917 152.924 184.82 153.299 184.627C153.674 184.434 153.964 184.146 154.169 183.766C154.38 183.391 154.485 182.928 154.485 182.377V175.082L154.635 172.99ZM148.087 177.851V177.666C148.087 176.939 148.172 176.28 148.342 175.688C148.518 175.091 148.767 174.578 149.089 174.15C149.417 173.723 149.812 173.395 150.275 173.166C150.738 172.932 151.26 172.814 151.84 172.814C152.438 172.814 152.959 172.92 153.404 173.131C153.855 173.336 154.236 173.638 154.547 174.036C154.863 174.429 155.112 174.903 155.294 175.46C155.476 176.017 155.602 176.646 155.672 177.35V178.158C155.607 178.855 155.481 179.482 155.294 180.039C155.112 180.596 154.863 181.07 154.547 181.463C154.236 181.855 153.855 182.157 153.404 182.368C152.953 182.573 152.426 182.676 151.822 182.676C151.254 182.676 150.738 182.556 150.275 182.315C149.818 182.075 149.426 181.738 149.098 181.305C148.77 180.871 148.518 180.361 148.342 179.775C148.172 179.184 148.087 178.542 148.087 177.851ZM149.713 177.666V177.851C149.713 178.325 149.76 178.771 149.854 179.187C149.953 179.603 150.103 179.969 150.302 180.285C150.507 180.602 150.768 180.851 151.084 181.032C151.4 181.208 151.778 181.296 152.218 181.296C152.757 181.296 153.202 181.182 153.554 180.953C153.905 180.725 154.184 180.423 154.389 180.048C154.6 179.673 154.764 179.266 154.881 178.826V176.708C154.816 176.386 154.717 176.075 154.582 175.776C154.453 175.472 154.283 175.202 154.072 174.968C153.867 174.728 153.612 174.537 153.308 174.396C153.003 174.256 152.646 174.186 152.235 174.186C151.79 174.186 151.406 174.279 151.084 174.467C150.768 174.648 150.507 174.9 150.302 175.223C150.103 175.539 149.953 175.908 149.854 176.33C149.76 176.746 149.713 177.191 149.713 177.666ZM162.527 182.676C161.865 182.676 161.265 182.564 160.726 182.342C160.192 182.113 159.732 181.794 159.346 181.384C158.965 180.974 158.672 180.487 158.467 179.925C158.262 179.362 158.159 178.747 158.159 178.079V177.71C158.159 176.937 158.273 176.248 158.502 175.645C158.73 175.035 159.041 174.52 159.434 174.098C159.826 173.676 160.271 173.356 160.77 173.14C161.268 172.923 161.783 172.814 162.316 172.814C162.996 172.814 163.582 172.932 164.074 173.166C164.572 173.4 164.979 173.729 165.296 174.15C165.612 174.566 165.847 175.059 165.999 175.627C166.151 176.189 166.228 176.805 166.228 177.473V178.202H159.126V176.875H164.602V176.752C164.578 176.33 164.49 175.92 164.338 175.521C164.191 175.123 163.957 174.795 163.635 174.537C163.312 174.279 162.873 174.15 162.316 174.15C161.947 174.15 161.607 174.229 161.297 174.388C160.986 174.54 160.72 174.769 160.497 175.073C160.274 175.378 160.102 175.75 159.979 176.189C159.855 176.629 159.794 177.136 159.794 177.71V178.079C159.794 178.53 159.855 178.955 159.979 179.354C160.107 179.746 160.292 180.092 160.532 180.391C160.778 180.689 161.074 180.924 161.42 181.094C161.771 181.264 162.17 181.349 162.615 181.349C163.189 181.349 163.676 181.231 164.074 180.997C164.473 180.763 164.821 180.449 165.12 180.057L166.104 180.839C165.899 181.149 165.639 181.445 165.322 181.727C165.006 182.008 164.616 182.236 164.153 182.412C163.696 182.588 163.154 182.676 162.527 182.676ZM168.152 181.639C168.152 181.363 168.237 181.132 168.407 180.944C168.583 180.751 168.835 180.654 169.163 180.654C169.491 180.654 169.74 180.751 169.91 180.944C170.086 181.132 170.174 181.363 170.174 181.639C170.174 181.908 170.086 182.137 169.91 182.324C169.74 182.512 169.491 182.605 169.163 182.605C168.835 182.605 168.583 182.512 168.407 182.324C168.237 182.137 168.152 181.908 168.152 181.639ZM172.916 172.99H174.551V183.634C174.551 184.214 174.457 184.706 174.27 185.11C174.088 185.515 173.812 185.819 173.443 186.024C173.08 186.235 172.62 186.341 172.063 186.341C171.917 186.341 171.747 186.326 171.554 186.297C171.354 186.268 171.188 186.232 171.053 186.191L171.062 184.882C171.173 184.905 171.299 184.923 171.439 184.935C171.58 184.952 171.703 184.961 171.809 184.961C172.049 184.961 172.251 184.917 172.415 184.829C172.579 184.741 172.702 184.601 172.784 184.407C172.872 184.214 172.916 183.956 172.916 183.634V172.99ZM172.749 170.468C172.749 170.204 172.831 169.981 172.995 169.8C173.159 169.618 173.396 169.527 173.707 169.527C174.023 169.527 174.264 169.618 174.428 169.8C174.592 169.981 174.674 170.204 174.674 170.468C174.674 170.72 174.592 170.937 174.428 171.118C174.264 171.294 174.023 171.382 173.707 171.382C173.396 171.382 173.159 171.294 172.995 171.118C172.831 170.937 172.749 170.72 172.749 170.468ZM182.716 179.978C182.716 179.743 182.663 179.526 182.558 179.327C182.458 179.122 182.25 178.938 181.934 178.773C181.623 178.604 181.154 178.457 180.527 178.334C180 178.223 179.522 178.091 179.095 177.938C178.673 177.786 178.312 177.602 178.014 177.385C177.721 177.168 177.495 176.913 177.337 176.62C177.179 176.327 177.1 175.984 177.1 175.592C177.1 175.217 177.182 174.862 177.346 174.528C177.516 174.194 177.753 173.898 178.058 173.641C178.368 173.383 178.74 173.181 179.174 173.034C179.607 172.888 180.091 172.814 180.624 172.814C181.386 172.814 182.036 172.949 182.575 173.219C183.114 173.488 183.527 173.849 183.814 174.3C184.102 174.745 184.245 175.24 184.245 175.785H182.619C182.619 175.521 182.54 175.267 182.382 175.021C182.229 174.769 182.004 174.561 181.705 174.396C181.412 174.232 181.052 174.15 180.624 174.15C180.173 174.15 179.807 174.221 179.525 174.361C179.25 174.496 179.048 174.669 178.919 174.88C178.796 175.091 178.734 175.313 178.734 175.548C178.734 175.724 178.764 175.882 178.822 176.022C178.887 176.157 178.998 176.283 179.156 176.4C179.314 176.512 179.537 176.617 179.824 176.717C180.111 176.816 180.478 176.916 180.923 177.016C181.702 177.191 182.344 177.402 182.848 177.648C183.352 177.895 183.727 178.196 183.973 178.554C184.219 178.911 184.342 179.345 184.342 179.854C184.342 180.271 184.254 180.651 184.078 180.997C183.908 181.343 183.659 181.642 183.331 181.894C183.009 182.14 182.622 182.333 182.171 182.474C181.726 182.608 181.225 182.676 180.668 182.676C179.83 182.676 179.121 182.526 178.541 182.228C177.961 181.929 177.521 181.542 177.223 181.067C176.924 180.593 176.774 180.092 176.774 179.564H178.409C178.433 180.01 178.562 180.364 178.796 180.628C179.03 180.886 179.317 181.07 179.657 181.182C179.997 181.287 180.334 181.34 180.668 181.34C181.113 181.34 181.485 181.281 181.784 181.164C182.089 181.047 182.32 180.886 182.479 180.681C182.637 180.476 182.716 180.241 182.716 179.978ZM186.047 177.851V177.648C186.047 176.963 186.146 176.327 186.346 175.741C186.545 175.149 186.832 174.637 187.207 174.203C187.582 173.764 188.036 173.424 188.569 173.184C189.103 172.938 189.7 172.814 190.362 172.814C191.03 172.814 191.631 172.938 192.164 173.184C192.703 173.424 193.16 173.764 193.535 174.203C193.916 174.637 194.206 175.149 194.405 175.741C194.604 176.327 194.704 176.963 194.704 177.648V177.851C194.704 178.536 194.604 179.172 194.405 179.758C194.206 180.344 193.916 180.856 193.535 181.296C193.16 181.729 192.706 182.069 192.173 182.315C191.646 182.556 191.048 182.676 190.38 182.676C189.712 182.676 189.111 182.556 188.578 182.315C188.045 182.069 187.588 181.729 187.207 181.296C186.832 180.856 186.545 180.344 186.346 179.758C186.146 179.172 186.047 178.536 186.047 177.851ZM187.673 177.648V177.851C187.673 178.325 187.729 178.773 187.84 179.195C187.951 179.611 188.118 179.98 188.341 180.303C188.569 180.625 188.854 180.88 189.193 181.067C189.533 181.249 189.929 181.34 190.38 181.34C190.825 181.34 191.215 181.249 191.549 181.067C191.889 180.88 192.17 180.625 192.393 180.303C192.615 179.98 192.782 179.611 192.894 179.195C193.011 178.773 193.069 178.325 193.069 177.851V177.648C193.069 177.18 193.011 176.737 192.894 176.321C192.782 175.899 192.612 175.527 192.384 175.205C192.161 174.877 191.88 174.619 191.54 174.432C191.206 174.244 190.813 174.15 190.362 174.15C189.917 174.15 189.524 174.244 189.185 174.432C188.851 174.619 188.569 174.877 188.341 175.205C188.118 175.527 187.951 175.899 187.84 176.321C187.729 176.737 187.673 177.18 187.673 177.648ZM198.369 175.021V182.5H196.743V172.99H198.281L198.369 175.021ZM197.982 177.385L197.306 177.358C197.312 176.708 197.408 176.107 197.596 175.557C197.783 175 198.047 174.517 198.387 174.106C198.727 173.696 199.131 173.38 199.6 173.157C200.074 172.929 200.599 172.814 201.173 172.814C201.642 172.814 202.063 172.879 202.438 173.008C202.813 173.131 203.133 173.33 203.396 173.605C203.666 173.881 203.871 174.238 204.012 174.678C204.152 175.111 204.223 175.642 204.223 176.269V182.5H202.588V176.251C202.588 175.753 202.515 175.354 202.368 175.056C202.222 174.751 202.008 174.531 201.727 174.396C201.445 174.256 201.1 174.186 200.689 174.186C200.285 174.186 199.916 174.271 199.582 174.44C199.254 174.61 198.97 174.845 198.729 175.144C198.495 175.442 198.311 175.785 198.176 176.172C198.047 176.553 197.982 176.957 197.982 177.385Z" fill="#E7E7E7"/>
<rect width="268" height="200" fill="url(#paint0_linear_2390_522)"/>
<defs>
<linearGradient id="paint0_linear_2390_522" x1="268" y1="100" x2="57.7167" y2="99.4779" gradientUnits="userSpaceOnUse">
<stop stop-color="#1B1B1B"/>
<stop offset="1" stop-color="#282828" stop-opacity="0"/>
</linearGradient>
</defs>
</svg>
