<svg width="428" height="361" viewBox="0 0 428 361" fill="none" xmlns="http://www.w3.org/2000/svg">
<path d="M331.164 74.9972C330.892 74.9502 330.633 75.1327 330.586 75.4048C330.539 75.6769 330.722 75.9356 330.994 75.9826L331.164 74.9972ZM87.021 161.09L87.3575 161.46L87.021 161.09ZM131.031 128.302C131.091 128.033 130.922 127.765 130.653 127.705L126.262 126.718C125.993 126.657 125.725 126.827 125.665 127.096C125.604 127.366 125.773 127.633 126.043 127.694L129.945 128.571L129.068 132.473C129.008 132.743 129.177 133.01 129.446 133.071C129.716 133.131 129.983 132.962 130.044 132.693L131.031 128.302ZM386.965 111.235C398.048 135.004 388.859 165.634 364.742 196.024C340.645 226.388 301.741 256.377 253.732 278.764L254.154 279.67C302.274 257.231 341.313 227.155 365.525 196.646C389.716 166.162 399.201 135.109 387.871 110.813L386.965 111.235ZM253.732 278.764C205.722 301.151 157.743 311.677 118.993 310.619C80.2106 309.559 50.84 296.909 39.7567 273.141L38.8504 273.564C50.18 297.86 80.0645 310.555 118.966 311.618C157.901 312.682 206.034 302.109 254.154 279.67L253.732 278.764ZM330.994 75.9826C358.133 80.671 378.228 92.4987 386.965 111.235L387.871 110.813C378.939 91.6577 358.467 79.7138 331.164 74.9972L330.994 75.9826ZM39.7567 273.141C32.5611 257.71 33.9058 239.395 42.3445 220.11C50.7833 200.824 66.2997 180.615 87.3575 161.46L86.6846 160.721C65.5575 179.938 49.9397 200.258 41.4283 219.709C32.9167 239.161 31.4951 257.79 38.8504 273.564L39.7567 273.141ZM87.3575 161.46C99.9708 149.987 114.567 138.897 130.81 128.615L130.275 127.77C113.987 138.08 99.3441 149.205 86.6846 160.721L87.3575 161.46Z" fill="url(#paint0_linear_2364_265)"/>
<path d="M331.5 0C331.5 41.1452 298.145 74.5 257 74.5C298.145 74.5 331.5 107.855 331.5 149C331.5 107.855 364.855 74.5 406 74.5C364.855 74.5 331.5 41.1452 331.5 0Z" fill="url(#paint1_radial_2364_265)"/>
<defs>
<linearGradient id="paint0_linear_2364_265" x1="72.0191" y1="146.706" x2="341.424" y2="336.089" gradientUnits="userSpaceOnUse">
<stop stop-color="white" stop-opacity="0.4"/>
<stop offset="0.21784" stop-color="white"/>
<stop offset="0.578937" stop-color="white" stop-opacity="0.44"/>
<stop offset="1" stop-color="white" stop-opacity="0"/>
</linearGradient>
<radialGradient id="paint1_radial_2364_265" cx="0" cy="0" r="1" gradientUnits="userSpaceOnUse" gradientTransform="translate(331.5 74.5) rotate(90) scale(86.1406)">
<stop stop-color="white"/>
<stop offset="1" stop-color="#353535"/>
</radialGradient>
</defs>
</svg>
