<svg width="319" height="164" viewBox="0 0 319 164" fill="none" xmlns="http://www.w3.org/2000/svg">
<rect width="319" height="164" rx="12" fill="#282828"/>
<path d="M266.534 46.3636V58H264.773V48.125H264.705L261.92 49.9432V48.2614L264.824 46.3636H266.534ZM273.733 58.1932C272.835 58.1894 272.068 57.9527 271.432 57.483C270.795 57.0133 270.309 56.3295 269.972 55.4318C269.634 54.5341 269.466 53.4527 269.466 52.1875C269.466 50.9261 269.634 49.8485 269.972 48.9545C270.313 48.0606 270.801 47.3788 271.438 46.9091C272.078 46.4394 272.843 46.2045 273.733 46.2045C274.623 46.2045 275.386 46.4413 276.023 46.9148C276.659 47.3845 277.146 48.0663 277.483 48.9602C277.824 49.8504 277.994 50.9261 277.994 52.1875C277.994 53.4564 277.826 54.5398 277.489 55.4375C277.152 56.3314 276.665 57.0152 276.028 57.4886C275.392 57.9583 274.627 58.1932 273.733 58.1932ZM273.733 56.6761C274.521 56.6761 275.136 56.2917 275.58 55.5227C276.027 54.7538 276.25 53.642 276.25 52.1875C276.25 51.2216 276.148 50.4053 275.943 49.7386C275.742 49.0682 275.453 48.5606 275.074 48.2159C274.699 47.8674 274.252 47.6932 273.733 47.6932C272.949 47.6932 272.333 48.0795 271.886 48.8523C271.439 49.625 271.214 50.7367 271.21 52.1875C271.21 53.1572 271.311 53.9773 271.511 54.6477C271.716 55.3144 272.006 55.8201 272.381 56.1648C272.756 56.5057 273.206 56.6761 273.733 56.6761ZM290.807 51.4034L289.267 51.6761C289.203 51.4792 289.1 51.2917 288.96 51.1136C288.824 50.9356 288.638 50.7898 288.403 50.6761C288.169 50.5625 287.875 50.5057 287.523 50.5057C287.042 50.5057 286.64 50.6136 286.318 50.8295C285.996 51.0417 285.835 51.3163 285.835 51.6534C285.835 51.9451 285.943 52.1799 286.159 52.358C286.375 52.536 286.723 52.6818 287.205 52.7955L288.591 53.1136C289.394 53.2992 289.992 53.5852 290.386 53.9716C290.78 54.358 290.977 54.8598 290.977 55.4773C290.977 56 290.826 56.4659 290.523 56.875C290.223 57.2803 289.805 57.5985 289.267 57.8295C288.733 58.0606 288.114 58.1761 287.409 58.1761C286.432 58.1761 285.634 57.9678 285.017 57.5511C284.4 57.1307 284.021 56.5341 283.881 55.7614L285.523 55.5114C285.625 55.9394 285.835 56.2633 286.153 56.483C286.472 56.6989 286.886 56.8068 287.398 56.8068C287.955 56.8068 288.4 56.6913 288.733 56.4602C289.066 56.2254 289.233 55.9394 289.233 55.6023C289.233 55.3295 289.131 55.1004 288.926 54.9148C288.725 54.7292 288.417 54.589 288 54.4943L286.523 54.1705C285.708 53.9848 285.106 53.6894 284.716 53.2841C284.33 52.8788 284.136 52.3655 284.136 51.7443C284.136 51.2292 284.28 50.7784 284.568 50.392C284.856 50.0057 285.254 49.7045 285.761 49.4886C286.269 49.2689 286.85 49.1591 287.506 49.1591C288.449 49.1591 289.191 49.3636 289.733 49.7727C290.275 50.178 290.633 50.7216 290.807 51.4034ZM296.607 58.1761C295.747 58.1761 295.006 57.9924 294.385 57.625C293.768 57.2538 293.29 56.733 292.953 56.0625C292.62 55.3883 292.453 54.5985 292.453 53.6932C292.453 52.7992 292.62 52.0114 292.953 51.3295C293.29 50.6477 293.76 50.1155 294.362 49.733C294.968 49.3504 295.677 49.1591 296.487 49.1591C296.98 49.1591 297.457 49.2405 297.919 49.4034C298.381 49.5663 298.796 49.822 299.163 50.1705C299.531 50.5189 299.821 50.9716 300.033 51.5284C300.245 52.0814 300.351 52.7538 300.351 53.5455V54.1477H293.413V52.875H298.686C298.686 52.428 298.595 52.0322 298.413 51.6875C298.232 51.339 297.976 51.0644 297.646 50.8636C297.321 50.6629 296.938 50.5625 296.499 50.5625C296.021 50.5625 295.605 50.6799 295.249 50.9148C294.896 51.1458 294.624 51.4489 294.43 51.8239C294.241 52.1951 294.146 52.5985 294.146 53.0341V54.0284C294.146 54.6117 294.249 55.108 294.453 55.517C294.661 55.9261 294.951 56.2386 295.322 56.4545C295.694 56.6667 296.127 56.7727 296.624 56.7727C296.946 56.7727 297.239 56.7273 297.504 56.6364C297.769 56.5417 297.999 56.4015 298.192 56.2159C298.385 56.0303 298.533 55.8011 298.635 55.5284L300.243 55.8182C300.114 56.2917 299.883 56.7064 299.55 57.0625C299.22 57.4148 298.805 57.6894 298.305 57.8864C297.809 58.0795 297.243 58.1761 296.607 58.1761ZM305.912 58.1761C305.067 58.1761 304.34 57.9848 303.73 57.6023C303.124 57.2159 302.658 56.6837 302.332 56.0057C302.007 55.3277 301.844 54.5511 301.844 53.6761C301.844 52.7898 302.01 52.0076 302.344 51.3295C302.677 50.6477 303.147 50.1155 303.753 49.733C304.359 49.3504 305.073 49.1591 305.895 49.1591C306.558 49.1591 307.149 49.2822 307.668 49.5284C308.187 49.7708 308.605 50.1117 308.923 50.5511C309.245 50.9905 309.437 51.5038 309.497 52.0909H307.844C307.753 51.6818 307.545 51.3295 307.219 51.0341C306.897 50.7386 306.465 50.5909 305.923 50.5909C305.45 50.5909 305.035 50.7159 304.679 50.9659C304.327 51.2121 304.052 51.5644 303.855 52.0227C303.658 52.4773 303.56 53.0152 303.56 53.6364C303.56 54.2727 303.656 54.822 303.849 55.2841C304.043 55.7462 304.315 56.1042 304.668 56.358C305.024 56.6117 305.442 56.7386 305.923 56.7386C306.245 56.7386 306.537 56.6799 306.798 56.5625C307.063 56.4413 307.285 56.2689 307.463 56.0455C307.645 55.822 307.772 55.553 307.844 55.2386H309.497C309.437 55.803 309.253 56.3068 308.946 56.75C308.639 57.1932 308.228 57.5417 307.713 57.7955C307.202 58.0492 306.601 58.1761 305.912 58.1761Z" fill="white"/>
<g filter="url(#filter0_d_2352_218)">
<rect x="72" y="30" width="25" height="45" rx="6" fill="#50FA7B"/>
</g>
<path d="M72 96C72 92.6863 74.6863 90 78 90H319V135H78C74.6863 135 72 132.314 72 129V96Z" fill="#5A5A5A"/>
<path d="M9.27841 58V46.3636H13.4261C14.3277 46.3636 15.0758 46.5189 15.6705 46.8295C16.2689 47.1402 16.7159 47.5701 17.0114 48.1193C17.3068 48.6648 17.4545 49.2955 17.4545 50.0114C17.4545 50.7235 17.3049 51.3504 17.0057 51.892C16.7102 52.4299 16.2633 52.8485 15.6648 53.1477C15.0701 53.447 14.322 53.5966 13.4205 53.5966H10.2784V52.0852H13.2614C13.8295 52.0852 14.2917 52.0038 14.6477 51.8409C15.0076 51.678 15.2708 51.4413 15.4375 51.1307C15.6042 50.8201 15.6875 50.447 15.6875 50.0114C15.6875 49.572 15.6023 49.1913 15.4318 48.8693C15.2652 48.5473 15.0019 48.3011 14.642 48.1307C14.286 47.9564 13.8182 47.8693 13.2386 47.8693H11.0341V58H9.27841ZM15.0227 52.75L17.8977 58H15.8977L13.0795 52.75H15.0227ZM23.1065 58.1761C22.2467 58.1761 21.5062 57.9924 20.8849 57.625C20.2675 57.2538 19.7902 56.733 19.4531 56.0625C19.1198 55.3883 18.9531 54.5985 18.9531 53.6932C18.9531 52.7992 19.1198 52.0114 19.4531 51.3295C19.7902 50.6477 20.2599 50.1155 20.8622 49.733C21.4683 49.3504 22.1766 49.1591 22.9872 49.1591C23.4796 49.1591 23.9569 49.2405 24.419 49.4034C24.8812 49.5663 25.2959 49.822 25.6634 50.1705C26.0308 50.5189 26.3205 50.9716 26.5327 51.5284C26.7448 52.0814 26.8509 52.7538 26.8509 53.5455V54.1477H19.9134V52.875H25.1861C25.1861 52.428 25.0952 52.0322 24.9134 51.6875C24.7315 51.339 24.4759 51.0644 24.1463 50.8636C23.8205 50.6629 23.438 50.5625 22.9986 50.5625C22.5213 50.5625 22.1046 50.6799 21.7486 50.9148C21.3963 51.1458 21.1236 51.4489 20.9304 51.8239C20.741 52.1951 20.6463 52.5985 20.6463 53.0341V54.0284C20.6463 54.6117 20.7486 55.108 20.9531 55.517C21.1615 55.9261 21.4512 56.2386 21.8224 56.4545C22.1937 56.6667 22.6274 56.7727 23.1236 56.7727C23.4455 56.7727 23.7391 56.7273 24.0043 56.6364C24.2694 56.5417 24.4986 56.4015 24.6918 56.2159C24.8849 56.0303 25.0327 55.8011 25.1349 55.5284L26.7429 55.8182C26.6141 56.2917 26.383 56.7064 26.0497 57.0625C25.7202 57.4148 25.3054 57.6894 24.8054 57.8864C24.3092 58.0795 23.7429 58.1761 23.1065 58.1761ZM32.3949 61.4545C31.7017 61.4545 31.1051 61.3636 30.6051 61.1818C30.1089 61 29.7036 60.7595 29.3892 60.4602C29.0748 60.161 28.84 59.8333 28.6847 59.4773L30.1449 58.875C30.2472 59.0417 30.3835 59.2178 30.554 59.4034C30.7282 59.5928 30.9631 59.7538 31.2585 59.8864C31.5578 60.0189 31.9422 60.0852 32.4119 60.0852C33.0559 60.0852 33.5881 59.928 34.0085 59.6136C34.429 59.303 34.6392 58.8068 34.6392 58.125V56.4091H34.5312C34.429 56.5947 34.2813 56.8011 34.0881 57.0284C33.8987 57.2557 33.6373 57.4527 33.304 57.6193C32.9706 57.786 32.5369 57.8693 32.0028 57.8693C31.3134 57.8693 30.6922 57.7083 30.1392 57.3864C29.59 57.0606 29.1544 56.5814 28.8324 55.9489C28.5142 55.3125 28.3551 54.5303 28.3551 53.6023C28.3551 52.6742 28.5123 51.8788 28.8267 51.2159C29.1449 50.553 29.5805 50.0455 30.1335 49.6932C30.6866 49.3371 31.3134 49.1591 32.0142 49.1591C32.5559 49.1591 32.9934 49.25 33.3267 49.4318C33.66 49.6098 33.9195 49.8182 34.1051 50.0568C34.2945 50.2955 34.4403 50.5057 34.5426 50.6875H34.6676V49.2727H36.3324V58.1932C36.3324 58.9432 36.1581 59.5587 35.8097 60.0398C35.4612 60.5208 34.9896 60.8769 34.3949 61.108C33.804 61.339 33.1373 61.4545 32.3949 61.4545ZM32.3778 56.4602C32.8665 56.4602 33.2794 56.3466 33.6165 56.1193C33.9574 55.8883 34.215 55.5587 34.3892 55.1307C34.5672 54.6989 34.6562 54.1818 34.6562 53.5795C34.6562 52.9924 34.5691 52.4754 34.3949 52.0284C34.2206 51.5814 33.965 51.233 33.6278 50.983C33.2907 50.7292 32.8741 50.6023 32.3778 50.6023C31.8665 50.6023 31.4403 50.7348 31.0994 51C30.7585 51.2614 30.5009 51.6174 30.3267 52.0682C30.1563 52.5189 30.071 53.0227 30.071 53.5795C30.071 54.1515 30.1581 54.6534 30.3324 55.0852C30.5066 55.517 30.7642 55.8542 31.1051 56.0966C31.4498 56.339 31.8741 56.4602 32.3778 56.4602ZM40.3097 52.8182V58H38.6108V49.2727H40.2415V50.6932H40.3494C40.5502 50.2311 40.8646 49.8598 41.2926 49.5795C41.7244 49.2992 42.268 49.1591 42.9233 49.1591C43.518 49.1591 44.0388 49.2841 44.4858 49.5341C44.9328 49.7803 45.2794 50.1477 45.5256 50.6364C45.7718 51.125 45.8949 51.7292 45.8949 52.4489V58H44.196V52.6534C44.196 52.0208 44.0313 51.5265 43.7017 51.1705C43.3722 50.8106 42.9195 50.6307 42.3438 50.6307C41.9498 50.6307 41.5994 50.7159 41.2926 50.8864C40.9896 51.0568 40.7491 51.3068 40.571 51.6364C40.3968 51.9621 40.3097 52.3561 40.3097 52.8182ZM51.9347 58.1761C51.0748 58.1761 50.3343 57.9924 49.7131 57.625C49.0956 57.2538 48.6184 56.733 48.2812 56.0625C47.9479 55.3883 47.7812 54.5985 47.7812 53.6932C47.7812 52.7992 47.9479 52.0114 48.2812 51.3295C48.6184 50.6477 49.0881 50.1155 49.6903 49.733C50.2964 49.3504 51.0047 49.1591 51.8153 49.1591C52.3078 49.1591 52.785 49.2405 53.2472 49.4034C53.7093 49.5663 54.1241 49.822 54.4915 50.1705C54.8589 50.5189 55.1487 50.9716 55.3608 51.5284C55.5729 52.0814 55.679 52.7538 55.679 53.5455V54.1477H48.7415V52.875H54.0142C54.0142 52.428 53.9233 52.0322 53.7415 51.6875C53.5597 51.339 53.304 51.0644 52.9744 50.8636C52.6487 50.6629 52.2661 50.5625 51.8267 50.5625C51.3494 50.5625 50.9328 50.6799 50.5767 50.9148C50.2244 51.1458 49.9517 51.4489 49.7585 51.8239C49.5691 52.1951 49.4744 52.5985 49.4744 53.0341V54.0284C49.4744 54.6117 49.5767 55.108 49.7812 55.517C49.9896 55.9261 50.2794 56.2386 50.6506 56.4545C51.0218 56.6667 51.4555 56.7727 51.9517 56.7727C52.2737 56.7727 52.5672 56.7273 52.8324 56.6364C53.0975 56.5417 53.3267 56.4015 53.5199 56.2159C53.7131 56.0303 53.8608 55.8011 53.9631 55.5284L55.571 55.8182C55.4422 56.2917 55.2112 56.7064 54.8778 57.0625C54.5483 57.4148 54.1335 57.6894 53.6335 57.8864C53.1373 58.0795 52.571 58.1761 51.9347 58.1761ZM61.6378 49.2727V50.6364H56.8707V49.2727H61.6378ZM58.1491 47.1818H59.848V55.4375C59.848 55.767 59.8973 56.0152 59.9957 56.1818C60.0942 56.3447 60.2211 56.4564 60.3764 56.517C60.5355 56.5739 60.7079 56.6023 60.8935 56.6023C61.0298 56.6023 61.1491 56.5928 61.2514 56.5739C61.3537 56.5549 61.4332 56.5398 61.4901 56.5284L61.7969 57.9318C61.6984 57.9697 61.5582 58.0076 61.3764 58.0455C61.1946 58.0871 60.9673 58.1098 60.6946 58.1136C60.2476 58.1212 59.831 58.0417 59.4446 57.875C59.0582 57.7083 58.7457 57.4508 58.5071 57.1023C58.2685 56.7538 58.1491 56.3163 58.1491 55.7898V47.1818Z" fill="white"/>
<path d="M15.625 109.42C15.5644 108.883 15.3144 108.466 14.875 108.17C14.4356 107.871 13.8826 107.722 13.2159 107.722C12.7386 107.722 12.3258 107.797 11.9773 107.949C11.6288 108.097 11.358 108.301 11.1648 108.562C10.9754 108.82 10.8807 109.114 10.8807 109.443C10.8807 109.72 10.9451 109.958 11.0739 110.159C11.2064 110.36 11.3788 110.528 11.5909 110.665C11.8068 110.797 12.0379 110.909 12.2841 111C12.5303 111.087 12.767 111.159 12.9943 111.216L14.1307 111.511C14.5019 111.602 14.8826 111.725 15.2727 111.881C15.6629 112.036 16.0246 112.241 16.358 112.494C16.6913 112.748 16.9602 113.062 17.1648 113.438C17.3731 113.812 17.4773 114.261 17.4773 114.784C17.4773 115.443 17.3068 116.028 16.9659 116.54C16.6288 117.051 16.1383 117.455 15.4943 117.75C14.8542 118.045 14.0795 118.193 13.1705 118.193C12.2992 118.193 11.5455 118.055 10.9091 117.778C10.2727 117.502 9.77462 117.11 9.41477 116.602C9.05492 116.091 8.85606 115.485 8.81818 114.784H10.5795C10.6136 115.205 10.75 115.555 10.9886 115.835C11.2311 116.112 11.5398 116.318 11.9148 116.455C12.2936 116.587 12.7083 116.653 13.1591 116.653C13.6553 116.653 14.0966 116.576 14.483 116.42C14.8731 116.261 15.1799 116.042 15.4034 115.761C15.6269 115.477 15.7386 115.146 15.7386 114.767C15.7386 114.422 15.6402 114.14 15.4432 113.92C15.25 113.701 14.9867 113.519 14.6534 113.375C14.3239 113.231 13.9508 113.104 13.5341 112.994L12.1591 112.619C11.2273 112.366 10.4886 111.992 9.94318 111.5C9.40152 111.008 9.13068 110.356 9.13068 109.545C9.13068 108.875 9.3125 108.29 9.67614 107.79C10.0398 107.29 10.5322 106.902 11.1534 106.625C11.7746 106.345 12.4754 106.205 13.2557 106.205C14.0436 106.205 14.7386 106.343 15.3409 106.619C15.947 106.896 16.4242 107.277 16.7727 107.761C17.1212 108.242 17.303 108.795 17.3182 109.42H15.625ZM19.4389 118V109.273H21.1378V118H19.4389ZM20.2969 107.926C20.0014 107.926 19.7476 107.828 19.5355 107.631C19.3272 107.43 19.223 107.191 19.223 106.915C19.223 106.634 19.3272 106.396 19.5355 106.199C19.7476 105.998 20.0014 105.898 20.2969 105.898C20.5923 105.898 20.8442 105.998 21.0526 106.199C21.2647 106.396 21.3707 106.634 21.3707 106.915C21.3707 107.191 21.2647 107.43 21.0526 107.631C20.8442 107.828 20.5923 107.926 20.2969 107.926ZM27.0824 121.455C26.3892 121.455 25.7926 121.364 25.2926 121.182C24.7964 121 24.3911 120.759 24.0767 120.46C23.7623 120.161 23.5275 119.833 23.3722 119.477L24.8324 118.875C24.9347 119.042 25.071 119.218 25.2415 119.403C25.4157 119.593 25.6506 119.754 25.946 119.886C26.2453 120.019 26.6297 120.085 27.0994 120.085C27.7434 120.085 28.2756 119.928 28.696 119.614C29.1165 119.303 29.3267 118.807 29.3267 118.125V116.409H29.2188C29.1165 116.595 28.9688 116.801 28.7756 117.028C28.5862 117.256 28.3248 117.453 27.9915 117.619C27.6581 117.786 27.2244 117.869 26.6903 117.869C26.0009 117.869 25.3797 117.708 24.8267 117.386C24.2775 117.061 23.8419 116.581 23.5199 115.949C23.2017 115.312 23.0426 114.53 23.0426 113.602C23.0426 112.674 23.1998 111.879 23.5142 111.216C23.8324 110.553 24.268 110.045 24.821 109.693C25.3741 109.337 26.0009 109.159 26.7017 109.159C27.2434 109.159 27.6809 109.25 28.0142 109.432C28.3475 109.61 28.607 109.818 28.7926 110.057C28.982 110.295 29.1278 110.506 29.2301 110.688H29.3551V109.273H31.0199V118.193C31.0199 118.943 30.8456 119.559 30.4972 120.04C30.1487 120.521 29.6771 120.877 29.0824 121.108C28.4915 121.339 27.8248 121.455 27.0824 121.455ZM27.0653 116.46C27.554 116.46 27.9669 116.347 28.304 116.119C28.6449 115.888 28.9025 115.559 29.0767 115.131C29.2547 114.699 29.3438 114.182 29.3438 113.58C29.3438 112.992 29.2566 112.475 29.0824 112.028C28.9081 111.581 28.6525 111.233 28.3153 110.983C27.9782 110.729 27.5616 110.602 27.0653 110.602C26.554 110.602 26.1278 110.735 25.7869 111C25.446 111.261 25.1884 111.617 25.0142 112.068C24.8438 112.519 24.7585 113.023 24.7585 113.58C24.7585 114.152 24.8456 114.653 25.0199 115.085C25.1941 115.517 25.4517 115.854 25.7926 116.097C26.1373 116.339 26.5616 116.46 27.0653 116.46ZM34.9972 112.818V118H33.2983V109.273H34.929V110.693H35.0369C35.2377 110.231 35.5521 109.86 35.9801 109.58C36.4119 109.299 36.9555 109.159 37.6108 109.159C38.2055 109.159 38.7263 109.284 39.1733 109.534C39.6203 109.78 39.9669 110.148 40.2131 110.636C40.4593 111.125 40.5824 111.729 40.5824 112.449V118H38.8835V112.653C38.8835 112.021 38.7188 111.527 38.3892 111.17C38.0597 110.811 37.607 110.631 37.0312 110.631C36.6373 110.631 36.2869 110.716 35.9801 110.886C35.6771 111.057 35.4366 111.307 35.2585 111.636C35.0843 111.962 34.9972 112.356 34.9972 112.818ZM46.6222 118.176C45.7623 118.176 45.0218 117.992 44.4006 117.625C43.7831 117.254 43.3059 116.733 42.9688 116.062C42.6354 115.388 42.4688 114.598 42.4688 113.693C42.4688 112.799 42.6354 112.011 42.9688 111.33C43.3059 110.648 43.7756 110.116 44.3778 109.733C44.9839 109.35 45.6922 109.159 46.5028 109.159C46.9953 109.159 47.4725 109.241 47.9347 109.403C48.3968 109.566 48.8116 109.822 49.179 110.17C49.5464 110.519 49.8362 110.972 50.0483 111.528C50.2604 112.081 50.3665 112.754 50.3665 113.545V114.148H43.429V112.875H48.7017C48.7017 112.428 48.6108 112.032 48.429 111.688C48.2472 111.339 47.9915 111.064 47.6619 110.864C47.3362 110.663 46.9536 110.562 46.5142 110.562C46.0369 110.562 45.6203 110.68 45.2642 110.915C44.9119 111.146 44.6392 111.449 44.446 111.824C44.2566 112.195 44.1619 112.598 44.1619 113.034V114.028C44.1619 114.612 44.2642 115.108 44.4688 115.517C44.6771 115.926 44.9669 116.239 45.3381 116.455C45.7093 116.667 46.143 116.773 46.6392 116.773C46.9612 116.773 47.2547 116.727 47.5199 116.636C47.785 116.542 48.0142 116.402 48.2074 116.216C48.4006 116.03 48.5483 115.801 48.6506 115.528L50.2585 115.818C50.1297 116.292 49.8987 116.706 49.5653 117.062C49.2358 117.415 48.821 117.689 48.321 117.886C47.8248 118.08 47.2585 118.176 46.6222 118.176ZM56.3253 109.273V110.636H51.5582V109.273H56.3253ZM52.8366 107.182H54.5355V115.438C54.5355 115.767 54.5848 116.015 54.6832 116.182C54.7817 116.345 54.9086 116.456 55.0639 116.517C55.223 116.574 55.3954 116.602 55.581 116.602C55.7173 116.602 55.8366 116.593 55.9389 116.574C56.0412 116.555 56.1207 116.54 56.1776 116.528L56.4844 117.932C56.3859 117.97 56.2457 118.008 56.0639 118.045C55.8821 118.087 55.6548 118.11 55.3821 118.114C54.9351 118.121 54.5185 118.042 54.1321 117.875C53.7457 117.708 53.4332 117.451 53.1946 117.102C52.956 116.754 52.8366 116.316 52.8366 115.79V107.182Z" fill="white"/>
<path d="M266.534 106.364V118H264.773V108.125H264.705L261.92 109.943V108.261L264.824 106.364H266.534ZM273.733 118.193C272.835 118.189 272.068 117.953 271.432 117.483C270.795 117.013 270.309 116.33 269.972 115.432C269.634 114.534 269.466 113.453 269.466 112.188C269.466 110.926 269.634 109.848 269.972 108.955C270.313 108.061 270.801 107.379 271.438 106.909C272.078 106.439 272.843 106.205 273.733 106.205C274.623 106.205 275.386 106.441 276.023 106.915C276.659 107.384 277.146 108.066 277.483 108.96C277.824 109.85 277.994 110.926 277.994 112.188C277.994 113.456 277.826 114.54 277.489 115.438C277.152 116.331 276.665 117.015 276.028 117.489C275.392 117.958 274.627 118.193 273.733 118.193ZM273.733 116.676C274.521 116.676 275.136 116.292 275.58 115.523C276.027 114.754 276.25 113.642 276.25 112.188C276.25 111.222 276.148 110.405 275.943 109.739C275.742 109.068 275.453 108.561 275.074 108.216C274.699 107.867 274.252 107.693 273.733 107.693C272.949 107.693 272.333 108.08 271.886 108.852C271.439 109.625 271.214 110.737 271.21 112.188C271.21 113.157 271.311 113.977 271.511 114.648C271.716 115.314 272.006 115.82 272.381 116.165C272.756 116.506 273.206 116.676 273.733 116.676ZM284.267 118V109.273H285.898V110.693H286.006C286.188 110.212 286.485 109.837 286.898 109.568C287.311 109.295 287.805 109.159 288.381 109.159C288.964 109.159 289.453 109.295 289.847 109.568C290.244 109.841 290.538 110.216 290.727 110.693H290.818C291.027 110.227 291.358 109.856 291.812 109.58C292.267 109.299 292.809 109.159 293.438 109.159C294.229 109.159 294.875 109.407 295.375 109.903C295.879 110.4 296.131 111.148 296.131 112.148V118H294.432V112.307C294.432 111.716 294.271 111.288 293.949 111.023C293.627 110.758 293.242 110.625 292.795 110.625C292.242 110.625 291.812 110.795 291.506 111.136C291.199 111.473 291.045 111.907 291.045 112.438V118H289.352V112.199C289.352 111.725 289.205 111.345 288.909 111.057C288.614 110.769 288.229 110.625 287.756 110.625C287.434 110.625 287.136 110.71 286.864 110.881C286.595 111.047 286.377 111.28 286.21 111.58C286.047 111.879 285.966 112.225 285.966 112.619V118H284.267ZM298.408 118V109.273H300.107V118H298.408ZM299.266 107.926C298.97 107.926 298.716 107.828 298.504 107.631C298.296 107.43 298.192 107.191 298.192 106.915C298.192 106.634 298.296 106.396 298.504 106.199C298.716 105.998 298.97 105.898 299.266 105.898C299.561 105.898 299.813 105.998 300.021 106.199C300.233 106.396 300.339 106.634 300.339 106.915C300.339 107.191 300.233 107.43 300.021 107.631C299.813 107.828 299.561 107.926 299.266 107.926ZM304.091 112.818V118H302.392V109.273H304.023V110.693H304.131C304.331 110.231 304.646 109.86 305.074 109.58C305.506 109.299 306.049 109.159 306.705 109.159C307.299 109.159 307.82 109.284 308.267 109.534C308.714 109.78 309.061 110.148 309.307 110.636C309.553 111.125 309.676 111.729 309.676 112.449V118H307.977V112.653C307.977 112.021 307.813 111.527 307.483 111.17C307.153 110.811 306.701 110.631 306.125 110.631C305.731 110.631 305.381 110.716 305.074 110.886C304.771 111.057 304.53 111.307 304.352 111.636C304.178 111.962 304.091 112.356 304.091 112.818Z" fill="white"/>
<defs>
<filter id="filter0_d_2352_218" x="64" y="22" width="41" height="61" filterUnits="userSpaceOnUse" color-interpolation-filters="sRGB">
<feFlood flood-opacity="0" result="BackgroundImageFix"/>
<feColorMatrix in="SourceAlpha" type="matrix" values="0 0 0 0 0 0 0 0 0 0 0 0 0 0 0 0 0 0 127 0" result="hardAlpha"/>
<feOffset/>
<feGaussianBlur stdDeviation="4"/>
<feComposite in2="hardAlpha" operator="out"/>
<feColorMatrix type="matrix" values="0 0 0 0 1 0 0 0 0 1 0 0 0 0 1 0 0 0 0.25 0"/>
<feBlend mode="normal" in2="BackgroundImageFix" result="effect1_dropShadow_2352_218"/>
<feBlend mode="normal" in="SourceGraphic" in2="effect1_dropShadow_2352_218" result="shape"/>
</filter>
</defs>
</svg>
