<svg width="541" height="348" viewBox="0 0 541 348" fill="none" xmlns="http://www.w3.org/2000/svg">
<path d="M530.984 231.455C499.271 322.018 400.19 369.71 309.68 337.978C306.538 336.877 303.447 335.694 300.41 334.433C380.546 354.546 464.242 310.534 492.097 230.988C521.615 146.693 477.25 54.4152 393.004 24.8798C348.111 9.14119 300.954 14.3944 262.226 35.4913C307.064 1.56604 367.495 -9.97159 424.523 10.0216C515.033 41.7531 562.697 140.892 530.984 231.455ZM491.719 230.856C463.63 311.07 378.62 355.061 297.896 333.366C294.227 331.776 290.637 330.07 287.13 328.255C357.546 340.255 428.419 300.105 452.832 230.389C480.083 152.57 439.126 67.3817 361.352 40.1155C323.826 26.9593 284.585 29.692 250.959 44.7852C253.917 42.1285 256.96 39.579 260.082 37.1396C299.144 15.0185 347.184 9.2399 392.871 25.2573C476.909 54.7196 521.165 146.769 491.719 230.856ZM285.83 328.028C288.904 329.647 292.043 331.182 295.244 332.629C292.235 331.766 289.233 330.81 286.241 329.762C283.026 328.634 279.869 327.416 276.773 326.109C279.788 326.846 282.808 327.485 285.83 328.028ZM452.455 230.257C427.965 300.193 356.593 340.297 285.961 327.645C282.062 325.589 278.267 323.399 274.578 321.08C334.697 325.476 392.681 289.435 413.568 229.788C438.551 158.446 401.002 80.3469 329.701 55.3498C299.728 44.8416 268.561 45.3901 240.646 54.8563C243.65 51.6676 246.766 48.6029 249.986 45.6663C283.772 30.1612 323.37 27.2235 361.22 40.4929C438.785 67.6861 479.632 152.646 452.455 230.257ZM273.726 321.015C277.272 323.266 280.918 325.398 284.66 327.406C281.253 326.764 277.848 325.999 274.452 325.109C270.733 323.471 267.104 321.707 263.567 319.822C266.956 320.35 270.344 320.747 273.726 321.015ZM413.191 229.656C392.278 289.377 334.067 325.363 273.857 320.624C269.79 318.04 265.854 315.3 262.056 312.415C311.464 310.358 356.956 278.729 374.304 229.189C397.018 164.323 362.879 93.3134 298.05 70.5854C275.592 62.7122 252.398 61.6656 230.728 66.3573C233.699 62.5887 236.814 58.9607 240.062 55.4787C268.078 45.8069 299.428 45.1604 329.569 55.7273C400.662 80.6513 438.1 158.522 413.191 229.656ZM261.428 312.44C265.156 315.287 269.016 317.996 273.004 320.554C269.505 320.257 265.999 319.821 262.495 319.245C258.55 317.104 254.722 314.812 251.016 312.381C254.5 312.548 257.973 312.566 261.428 312.44ZM373.926 229.057C356.578 278.599 310.992 310.171 261.557 312.035C257.323 308.795 253.261 305.375 249.378 301.79C287.679 294.796 321.245 267.984 335.039 228.59C355.486 170.2 324.755 106.28 266.399 85.8213C251.401 80.5634 236.039 78.6877 221.142 79.7942C224.024 75.3158 227.095 70.9993 230.34 66.8517C252.075 62.0569 275.369 63.0577 297.918 70.9629C362.538 93.6178 396.568 164.399 373.926 229.057ZM248.885 301.879C252.726 305.438 256.743 308.835 260.929 312.057C257.421 312.171 253.895 312.136 250.358 311.947C246.235 309.212 242.263 306.302 238.45 303.232C241.959 302.945 245.441 302.492 248.885 301.879ZM334.662 228.458C320.881 267.812 287.298 294.566 249.011 301.45C244.571 297.327 240.367 292.988 236.41 288.456C263.228 278.5 285.578 257.111 295.776 227.989C313.955 176.076 286.632 119.245 234.748 101.056C227.204 98.4108 219.556 96.7285 211.938 95.9444C214.663 90.5044 217.648 85.2582 220.872 80.2159C235.809 79.0657 251.222 80.9243 266.266 86.1988C324.414 106.584 355.036 170.276 334.662 228.458ZM236.008 288.604C239.938 293.113 244.112 297.432 248.518 301.538C245.045 302.146 241.535 302.591 237.998 302.867C233.683 299.367 229.573 295.66 225.677 291.767C229.181 290.899 232.63 289.842 236.008 288.604ZM295.398 227.857C285.223 256.913 262.902 278.24 236.129 288.134C231.366 282.652 226.964 276.889 222.941 270.886C238.006 260.757 250.047 245.848 256.511 227.39C272.4 182.016 248.574 132.349 203.285 116.357C205.722 109.423 208.554 102.741 211.747 96.327C219.384 97.1013 227.052 98.7815 234.616 101.433C286.291 119.55 313.504 176.152 295.398 227.857ZM222.609 271.109C226.613 277.083 230.992 282.821 235.727 288.281C232.333 289.519 228.867 290.573 225.347 291.437C220.77 286.836 216.491 281.978 212.526 276.894C216.008 275.193 219.377 273.26 222.609 271.109ZM256.133 227.258C249.7 245.631 237.714 260.471 222.719 270.554C215.816 260.202 210.04 249.141 205.49 237.577C207.815 233.564 209.797 229.275 211.387 224.736C220.931 197.48 213.763 168.418 195.263 148.742C196.846 138.037 199.457 127.327 203.153 116.734C248.233 132.653 271.95 182.092 256.133 227.258ZM205.233 238.017C209.776 249.501 215.526 260.488 222.386 270.776C219.146 272.933 215.768 274.869 212.275 276.572C205.982 268.46 200.486 259.78 195.853 250.666C199.377 246.84 202.53 242.611 205.233 238.017ZM211.009 224.604C209.465 229.015 207.547 233.188 205.303 237.1C194.615 209.701 190.804 179.502 195.189 149.248C213.429 168.814 220.465 197.6 211.009 224.604ZM194.839 148.875C190.356 179.414 194.209 209.907 205.047 237.544C202.349 242.174 199.193 246.434 195.66 250.285C178.719 216.738 173.443 177.347 183.031 138.763C187.355 141.738 191.303 145.135 194.839 148.875ZM202.776 116.602C199.107 127.117 196.505 137.746 194.913 148.372C191.381 144.666 187.442 141.3 183.135 138.349C184.327 133.604 185.745 128.871 187.393 124.163C188.663 120.538 190.049 116.986 191.545 113.511C195.303 114.28 199.054 115.306 202.776 116.602ZM187.016 124.031C185.38 128.703 183.971 133.4 182.783 138.109C179.272 135.734 175.519 133.633 171.544 131.849C171.552 131.826 171.56 131.804 171.567 131.781C173.985 124.877 176.86 118.263 180.145 111.963C183.805 112.213 187.478 112.699 191.145 113.43C189.657 116.889 188.279 120.423 187.016 124.031ZM171.19 131.649C171.186 131.661 171.181 131.673 171.177 131.685C169.359 130.88 167.494 130.141 165.585 129.472C163.855 128.866 162.118 128.327 160.376 127.854C162.902 122.3 165.765 116.987 168.933 111.929C172.499 111.707 176.097 111.706 179.709 111.934C176.449 118.204 173.594 124.783 171.19 131.649ZM160.209 128.223C161.962 128.697 163.711 129.239 165.453 129.85C167.362 130.519 169.227 131.258 171.045 132.064C167.091 143.462 164.597 155.016 163.466 166.521C160.086 161.928 156.06 157.775 151.463 154.218C152.598 149.259 154.021 144.312 155.742 139.398C157.081 135.574 158.573 131.847 160.209 128.223ZM168.441 111.961C165.313 116.978 162.484 122.246 159.984 127.748C156.554 126.836 153.107 126.18 149.665 125.77C152.177 121.427 154.929 117.279 157.899 113.335C161.367 112.664 164.887 112.203 168.441 111.961ZM149.448 126.147C152.906 126.551 156.37 127.205 159.817 128.118C158.187 131.734 156.7 135.452 155.365 139.266C153.66 144.135 152.246 149.036 151.114 153.949C147.673 151.325 143.916 149.032 139.875 147.134C139.889 147.095 139.902 147.055 139.916 147.016C142.496 139.649 145.7 132.68 149.448 126.147ZM157.312 113.451C154.401 117.346 151.7 121.439 149.232 125.719C146.003 125.353 142.779 125.202 139.579 125.258C141.918 122.083 144.413 119.052 147.048 116.173C150.403 115.06 153.831 114.15 157.312 113.451ZM139.281 125.664C142.507 125.594 145.758 125.736 149.015 126.097C145.292 132.608 142.107 139.55 139.539 146.884C139.529 146.911 139.52 146.938 139.51 146.965C137.707 146.132 135.847 145.377 133.935 144.707C132.241 144.113 130.538 143.596 128.832 143.156C131.814 136.931 135.322 131.089 139.281 125.664ZM146.268 116.436C143.734 119.241 141.332 122.188 139.074 125.269C136.247 125.338 133.44 125.568 130.664 125.954C132.504 124.058 134.416 122.243 136.391 120.509C139.595 118.952 142.894 117.591 146.268 116.436ZM130.212 126.422C133.037 126.01 135.897 125.759 138.777 125.677C134.862 131.072 131.392 136.876 128.436 143.055C125.103 142.218 121.755 141.668 118.419 141.393C121.893 135.977 125.85 130.974 130.212 126.422ZM135.03 121.186C133.307 122.743 131.635 124.364 130.018 126.046C128.469 126.276 126.93 126.553 125.404 126.878C128.49 124.774 131.707 122.873 135.03 121.186ZM124.534 127.479C126.197 127.102 127.875 126.782 129.566 126.519C125.28 131.04 121.388 135.998 117.966 141.357C114.982 141.133 112.008 141.128 109.067 141.331C113.679 136.072 118.882 131.432 124.534 127.479ZM146.823 115.826C143.656 116.881 140.554 118.116 137.533 119.523C143.069 114.814 149.091 110.741 155.475 107.364C152.451 110.016 149.562 112.84 146.823 115.826ZM147.604 115.57C150.57 112.378 153.71 109.375 157.002 106.573C160.173 104.965 163.429 103.527 166.755 102.266C163.544 105.642 160.51 109.214 157.672 112.972C154.26 113.638 150.898 114.507 147.604 115.57ZM167.394 101.6C164.303 102.742 161.272 104.036 158.311 105.476C163.803 100.945 169.702 96.9614 175.917 93.5689C172.96 96.1027 170.115 98.7817 167.394 101.6ZM158.259 112.859C161.18 109.021 164.307 105.378 167.618 101.944C170.938 100.72 174.327 99.6724 177.769 98.8075C174.527 102.847 171.498 107.096 168.703 111.543C165.184 111.771 161.697 112.212 158.259 112.859ZM178.185 98.2919C174.821 99.1183 171.507 100.118 168.258 101.285C171.235 98.243 174.358 95.3663 177.611 92.663C180.752 91.0177 183.97 89.5218 187.253 88.1809C184.077 91.3844 181.049 94.7572 178.185 98.2919ZM169.195 111.513C172.034 107.017 175.114 102.725 178.411 98.6484C181.838 97.8115 185.317 97.1555 188.833 96.6874C185.6 101.422 182.618 106.379 179.912 111.546C176.32 111.312 172.742 111.303 169.195 111.513ZM189.137 96.244C185.66 96.694 182.218 97.327 178.827 98.1364C181.784 94.5162 184.914 91.0679 188.199 87.7996C191.489 86.4907 194.842 85.3368 198.248 84.3435C195.03 88.1332 191.988 92.1027 189.137 96.244ZM180.348 111.576C183.082 106.371 186.096 101.381 189.366 96.618C192.882 96.1695 196.434 95.9086 200.01 95.8425C196.802 101.344 193.891 107.086 191.307 113.055C187.654 112.322 183.995 111.832 180.348 111.576ZM200.246 95.4382C196.694 95.4952 193.164 95.7435 189.67 96.1765C192.57 91.9851 195.668 87.971 198.945 84.1427C202.338 83.1772 205.782 82.3706 209.265 81.7287C206.049 86.1121 203.036 90.6849 200.246 95.4382ZM191.707 113.136C194.31 107.134 197.243 101.363 200.477 95.8349C204.075 95.7854 207.694 95.9331 211.321 96.2848C208.149 102.672 205.333 109.324 202.908 116.224C199.196 114.932 195.455 113.906 191.707 113.136ZM211.512 95.9015C207.901 95.5456 204.297 95.3913 200.714 95.4318C203.535 90.6421 206.583 86.0366 209.838 81.6245C213.315 81.0026 216.83 80.5445 220.372 80.2556C217.176 85.2734 214.216 90.492 211.512 95.9015ZM229.726 66.9888C226.522 71.1072 223.49 75.3907 220.642 79.8325C217.126 80.1096 213.637 80.5529 210.185 81.157C213.126 77.2 216.235 73.3999 219.498 69.7634C222.861 68.6951 226.273 67.7688 229.726 66.9888ZM218.746 70.0049C215.547 73.6005 212.498 77.354 209.611 81.2589C206.172 81.8793 202.77 82.6594 199.418 83.5941C202.4 80.1457 205.528 76.8499 208.791 73.7129C212.052 72.337 215.374 71.0995 218.746 70.0049ZM207.762 74.1525C204.618 77.2187 201.6 80.4334 198.72 83.7911C195.402 84.7393 192.132 85.8392 188.922 87.0856C191.903 84.1636 195.009 81.3883 198.228 78.7656C201.339 77.0936 204.52 75.5544 207.762 74.1525ZM196.368 79.7858C193.472 82.2195 190.671 84.7785 187.975 87.4583C184.955 88.6621 181.99 89.9961 179.087 91.456C184.522 87.0788 190.306 83.1774 196.368 79.7858ZM208.567 73.3733C205.617 74.6198 202.716 75.9792 199.871 77.4482C205.238 73.2107 210.907 69.3905 216.821 66.0142C213.986 68.3593 211.232 70.8135 208.567 73.3733ZM209.597 72.9433C212.575 70.1228 215.662 67.4333 218.848 64.8797C221.929 63.1892 225.074 61.6178 228.275 60.1692C225.161 63.1207 222.157 66.2043 219.273 69.4152C215.998 70.4585 212.77 71.6359 209.597 72.9433ZM229.163 59.3334C226.282 60.6084 223.445 61.9821 220.658 63.452C225.948 59.3447 231.499 55.6058 237.269 52.2562C234.495 54.5204 231.791 56.8803 229.163 59.3334ZM220.026 69.1779C223.022 65.8706 226.146 62.7002 229.387 59.6717C232.623 58.2419 235.915 56.9368 239.255 55.7604C236.075 59.1988 233.025 62.7777 230.114 66.492C226.71 67.247 223.344 68.1438 220.026 69.1779ZM239.838 55.1332C236.604 56.2521 233.415 57.491 230.277 58.8464C233.246 56.1141 236.31 53.4999 239.463 51.0075C242.516 49.3035 245.627 47.7071 248.791 46.2214C245.707 49.0749 242.72 52.0467 239.838 55.1332ZM257.722 38.5023C255.005 40.6938 252.35 42.9701 249.762 45.3289C246.946 46.6227 244.17 48.0036 241.439 49.4695C246.648 45.4808 252.088 41.8195 257.722 38.5023ZM262.363 319.629C265.5 321.329 268.711 322.935 271.992 324.442C268.92 323.58 265.856 322.615 262.802 321.545C259.51 320.391 256.284 319.132 253.127 317.775C256.202 318.503 259.282 319.12 262.363 319.629ZM261.289 319.041C257.855 318.444 254.423 317.712 250.998 316.84C247.232 315.152 243.566 313.321 240.004 311.356C243.416 311.829 246.827 312.155 250.228 312.34C253.803 314.708 257.491 316.944 261.289 319.041ZM238.896 311.198C242.091 312.989 245.37 314.673 248.732 316.243C245.6 315.389 242.475 314.417 239.364 313.327C235.998 312.147 232.708 310.848 229.496 309.437C232.626 310.149 235.762 310.735 238.896 311.198ZM249.57 311.902C246.062 311.692 242.545 311.33 239.028 310.813C235.03 308.569 231.167 306.156 227.442 303.586C230.937 303.647 234.416 303.543 237.87 303.278C241.618 306.312 245.52 309.191 249.57 311.902ZM226.718 303.571C230.322 306.079 234.057 308.441 237.918 310.645C234.463 310.104 231.007 309.414 227.56 308.568C223.737 306.818 220.029 304.907 216.44 302.847C219.873 303.249 223.303 303.489 226.718 303.571ZM237.418 302.911C233.917 303.166 230.39 303.255 226.848 303.174C222.656 300.251 218.641 297.129 214.815 293.826C218.326 293.362 221.8 292.71 225.223 291.879C229.08 295.745 233.148 299.429 237.418 302.911ZM214.283 293.895C218.051 297.163 222 300.255 226.124 303.155C222.612 303.052 219.087 302.781 215.559 302.337C211.499 299.965 207.595 297.402 203.853 294.662C207.356 294.59 210.837 294.333 214.283 293.895ZM224.893 291.547C221.446 292.375 217.947 293.021 214.41 293.476C209.989 289.632 205.819 285.545 201.916 281.245C205.417 280.071 208.838 278.677 212.158 277.073C216.098 282.13 220.348 286.966 224.893 291.547ZM201.501 281.383C205.37 285.655 209.5 289.718 213.878 293.543C210.39 293.973 206.867 294.218 203.322 294.271C199.044 291.106 194.98 287.71 191.144 284.107C194.657 283.41 198.115 282.499 201.501 281.383ZM211.907 276.75C208.574 278.356 205.138 279.75 201.623 280.921C195.691 274.347 190.378 267.277 185.731 259.81C189.245 257.177 192.539 254.225 195.564 250.979C200.181 260.042 205.65 268.677 211.907 276.75ZM185.409 260.05C190.033 267.477 195.315 274.512 201.208 281.058C197.801 282.173 194.321 283.08 190.786 283.769C185.107 278.396 179.931 272.568 175.296 266.366C178.823 264.536 182.206 262.424 185.409 260.05ZM195.371 250.599C192.343 253.861 189.042 256.826 185.519 259.469C179.369 249.527 174.398 238.887 170.718 227.783C171.22 226.59 171.689 225.374 172.123 224.136C179.125 204.14 175.339 182.978 163.821 167.008C164.927 155.397 167.423 143.733 171.412 132.228C175.4 134.02 179.162 136.132 182.679 138.522C173.005 177.299 178.313 216.898 195.371 250.599ZM170.481 228.338C174.16 239.328 179.101 249.86 185.197 259.709C181.986 262.092 178.592 264.208 175.054 266.041C169.75 258.9 165.161 251.266 161.347 243.263C165.009 238.835 168.104 233.836 170.481 228.338ZM171.745 224.004C171.366 225.087 170.959 226.154 170.527 227.202C164.344 208.286 161.905 188.039 163.764 167.616C174.999 183.44 178.648 204.292 171.745 224.004ZM163.409 167.12C161.45 187.912 163.938 208.531 170.291 227.766C167.932 233.331 164.835 238.389 161.158 242.864C148.488 216.053 144.491 185.126 151.365 154.648C155.992 158.251 160.032 162.462 163.409 167.12ZM139.743 147.514C143.8 149.423 147.568 151.733 151.016 154.378C144.051 185.069 148.08 216.222 160.876 243.204C157.942 246.722 154.647 249.874 151.067 252.623C132.499 222.117 127.181 183.871 139.743 147.514ZM151.276 252.967C154.845 250.231 158.133 247.097 161.066 243.601C164.865 251.548 169.427 259.129 174.693 266.227C171.357 267.932 167.894 269.385 164.335 270.573C159.456 265.083 155.09 259.187 151.276 252.967ZM164.625 270.897C168.167 269.707 171.614 268.253 174.935 266.552C179.538 272.716 184.673 278.512 190.303 283.862C186.838 284.517 183.322 284.962 179.774 285.188C174.293 280.832 169.232 276.045 164.625 270.897ZM180.241 285.558C183.753 285.316 187.232 284.861 190.661 284.201C194.444 287.769 198.448 291.136 202.662 294.279C199.149 294.309 195.615 294.15 192.075 293.797C187.942 291.266 183.994 288.512 180.241 285.558ZM192.86 294.274C196.316 294.589 199.765 294.721 203.193 294.673C206.825 297.355 210.612 299.87 214.546 302.204C211.066 301.734 207.585 301.095 204.111 300.282C200.227 298.458 196.474 296.451 192.86 294.274ZM205.856 301.085C209.044 301.774 212.237 302.319 215.428 302.723C218.682 304.622 222.037 306.397 225.486 308.041C222.289 307.199 219.099 306.223 215.925 305.11C212.48 303.902 209.122 302.558 205.856 301.085ZM191.944 294.186C195.257 296.212 198.687 298.095 202.231 299.825C198.971 299.003 195.72 298.027 192.486 296.893C188.957 295.656 185.529 294.259 182.207 292.713C185.452 293.37 188.701 293.86 191.944 294.186ZM191.158 293.701C187.658 293.319 184.153 292.746 180.655 291.977C176.703 290.063 172.906 287.937 169.273 285.618C172.749 285.82 176.212 285.811 179.645 285.597C183.3 288.496 187.141 291.204 191.158 293.701ZM168.453 285.566C171.818 287.745 175.325 289.758 178.967 291.59C175.648 290.798 172.338 289.829 169.048 288.675C165.432 287.408 161.936 285.952 158.568 284.322C161.864 284.931 165.164 285.344 168.453 285.566ZM179.177 285.224C175.671 285.424 172.134 285.41 168.584 285.174C163.279 281.732 158.33 277.875 153.766 273.663C157.316 273.038 160.807 272.158 164.211 271.035C168.767 276.14 173.767 280.891 179.177 285.224ZM153.269 273.749C157.739 277.896 162.579 281.704 167.763 285.116C164.25 284.848 160.726 284.363 157.208 283.651C152.085 281.076 147.264 278.097 142.771 274.766C146.309 274.676 149.817 274.333 153.269 273.749ZM163.921 270.709C160.492 271.831 156.974 272.706 153.397 273.321C148.8 269.04 144.598 264.399 140.82 259.458C144.382 257.706 147.779 255.615 150.957 253.21C154.748 259.39 159.082 265.249 163.921 270.709ZM140.454 259.637C144.196 264.539 148.354 269.148 152.9 273.405C149.398 273.982 145.839 274.31 142.25 274.377C137.876 271.089 133.816 267.466 130.096 263.56C133.662 262.56 137.129 261.245 140.454 259.637ZM150.747 252.867C147.559 255.282 144.15 257.38 140.573 259.133C133.475 249.777 127.893 239.36 124.031 228.3C125.171 226.136 126.166 223.86 126.998 221.482C132.84 204.8 129.304 187.105 119.158 174.155C120.195 167.624 121.828 161.095 124.091 154.634C125.43 150.809 126.956 147.104 128.656 143.524C130.377 143.966 132.094 144.485 133.802 145.084C135.716 145.755 137.575 146.51 139.379 147.344C126.754 183.844 132.095 222.246 150.747 252.867ZM123.775 228.779C127.638 239.724 133.18 250.037 140.207 259.312C136.862 260.925 133.374 262.238 129.784 263.231C123.568 256.644 118.311 249.259 114.129 241.317C117.929 237.743 121.205 233.534 123.775 228.779ZM126.621 221.35C125.837 223.587 124.909 225.733 123.851 227.78C118.102 211.054 116.278 192.878 119.073 174.697C128.961 187.517 132.371 204.928 126.621 221.35ZM118.735 174.265C115.827 192.764 117.69 211.268 123.596 228.267C121.039 233.082 117.756 237.339 113.936 240.949C101.965 217.984 98.9556 190.409 107.677 163.983C111.925 166.857 115.637 170.339 118.735 174.265ZM123.713 154.502C121.485 160.867 119.864 167.297 118.821 173.729C115.721 169.86 112.025 166.428 107.808 163.588C107.957 163.142 108.11 162.696 108.266 162.251C110.835 154.913 114.18 148.067 118.175 141.775C121.533 142.04 124.905 142.585 128.261 143.424C126.569 146.994 125.048 150.689 123.713 154.502ZM107.888 162.119C107.743 162.532 107.602 162.945 107.463 163.358C104.393 161.329 101.051 159.611 97.4666 158.266C100.606 152.256 104.387 146.735 108.694 141.759C111.677 141.533 114.694 141.524 117.723 141.741C113.762 148.009 110.444 154.821 107.888 162.119ZM108.126 141.805C103.899 146.736 100.183 152.194 97.0885 158.126C96.8676 158.045 96.6459 157.965 96.4233 157.887C91.5359 156.174 86.5616 155.267 81.6451 155.096C83.9925 151.996 86.5644 149.108 89.3286 146.449C95.2729 143.944 101.615 142.359 108.126 141.805ZM81.3512 155.487C86.3193 155.631 91.3499 156.533 96.2909 158.265C96.4957 158.337 96.6996 158.41 96.9028 158.484C95.0546 162.067 93.4329 165.822 92.0621 169.737C89.1686 178 87.5921 186.405 87.2225 194.724C84.1093 186.847 78.3562 180.056 70.6405 175.76C70.6782 175.651 70.7161 175.542 70.7543 175.433C73.3254 168.09 76.9314 161.406 81.3512 155.487ZM88.3002 146.894C85.7386 149.428 83.3481 152.162 81.155 155.082C78.8872 155.026 76.6328 155.126 74.406 155.376C78.6547 151.943 83.3316 149.094 88.3002 146.894ZM73.8298 155.847C76.1473 155.557 78.4966 155.431 80.8613 155.476C76.4949 161.37 72.9288 168.012 70.3768 175.3C70.3459 175.388 70.3153 175.476 70.2849 175.564C68.5426 174.619 66.7024 173.8 64.7718 173.123C63.2424 172.587 61.7016 172.156 60.1574 171.826C63.825 165.651 68.4761 160.28 73.8298 155.847ZM90.1358 145.684C99.5348 136.911 111.063 130.727 123.499 127.721C118.023 131.644 112.98 136.215 108.499 141.373C102.154 141.871 95.9632 143.341 90.1358 145.684ZM142.12 274.779C146.364 277.96 150.902 280.827 155.712 283.335C152.331 282.589 148.958 281.633 145.609 280.458C140.752 278.756 136.142 276.664 131.802 274.231C135.254 274.657 138.7 274.837 142.12 274.779ZM141.599 274.386C138.046 274.421 134.466 274.199 130.882 273.708C126.717 271.306 122.807 268.587 119.172 265.594C122.732 265.256 126.24 264.613 129.659 263.681C133.318 267.539 137.305 271.124 141.599 274.386ZM129.347 263.351C125.888 264.281 122.338 264.914 118.735 265.232C112.97 260.421 107.906 254.916 103.627 248.89C107.302 246.906 110.734 244.461 113.826 241.6C117.984 249.475 123.195 256.802 129.347 263.351ZM103.272 249.08C107.5 255.042 112.492 260.497 118.169 265.279C113.64 265.636 109.032 265.495 104.421 264.818C98.9946 261.77 94.0609 258.097 89.6804 253.927C94.4334 252.975 99.0126 251.336 103.272 249.08ZM113.633 241.233C110.533 244.113 107.088 246.572 103.395 248.561C96.4259 238.651 91.5717 227.35 89.1995 215.423C90.48 208.661 89.8364 201.861 87.5857 195.68C87.8734 187.094 89.4505 178.405 92.4396 169.869C93.8098 165.956 95.4317 162.204 97.2808 158.624C100.889 159.974 104.249 161.703 107.332 163.751C98.5199 190.355 101.554 218.125 113.633 241.233ZM88.9958 216.423C91.4389 228.049 96.2333 239.061 103.039 248.751C98.7451 251.019 94.1238 252.656 89.3276 253.589C84.2757 248.716 79.972 243.175 76.5111 237.164C81.482 232.985 85.4312 227.458 87.7337 220.882C88.2513 219.404 88.6709 217.916 88.9958 216.423ZM87.5552 196.809C89.3937 202.337 89.9458 208.329 88.9868 214.316C87.9252 208.59 87.4346 202.727 87.5552 196.809ZM87.1832 195.744C86.966 202.406 87.5212 209.005 88.792 215.424C88.4506 217.207 87.974 218.986 87.3562 220.75C85.0868 227.231 81.2008 232.683 76.3091 236.812C66.1677 218.975 63.4184 197.056 70.5089 176.145C78.3937 180.555 84.1991 187.603 87.1832 195.744ZM64.6394 173.501C66.5714 174.178 68.4119 174.999 70.1532 175.948C62.9872 197.017 65.761 219.109 75.9971 237.072C72.9075 239.622 69.4287 241.651 65.7107 243.087C52.3171 226.912 47.4816 204.317 54.9291 183.049C56.2752 179.205 57.9617 175.578 59.9431 172.19C61.5148 172.519 63.083 172.955 64.6394 173.501ZM65.981 243.411C69.6704 241.971 73.1244 239.952 76.199 237.424C79.626 243.363 83.872 248.845 88.8465 253.68C85.3384 254.326 81.74 254.596 78.1104 254.461C73.5394 251.3 69.4748 247.572 65.981 243.411ZM78.7245 254.881C82.267 254.967 85.7768 254.672 89.1996 254.021C93.4084 258.059 98.1301 261.637 103.311 264.645C99.8186 264.067 96.3278 263.18 92.8721 261.969C87.7546 260.175 83.0214 257.776 78.7245 254.881ZM105.397 265.357C109.83 265.931 114.256 266.016 118.606 265.645C122.098 268.547 125.845 271.197 129.829 273.556C125.307 272.87 120.784 271.755 116.31 270.187C112.489 268.847 108.847 267.227 105.397 265.357ZM65.5861 243.563C68.9901 247.635 72.9359 251.298 77.3643 254.428C72.7707 254.187 68.1338 253.296 63.5733 251.697C59.4499 250.252 55.6386 248.315 52.1821 245.976C56.8074 246.001 61.3473 245.162 65.5861 243.563ZM65.3157 243.237C60.9771 244.856 56.3228 245.67 51.5883 245.567C46.55 242.049 42.2889 237.665 38.9414 232.701C43.2154 229.792 46.6297 225.538 48.4701 220.282C53.0201 207.289 46.2361 193.071 33.3096 188.425C35.3975 182.537 38.4867 177.289 42.3185 172.807C47.8015 171.253 53.6837 170.949 59.5292 172.105C57.5647 175.482 55.8907 179.093 54.5516 182.917C47.0722 204.276 51.9017 226.965 65.3157 243.237ZM48.0926 220.15C46.282 225.321 42.9234 229.506 38.7191 232.369C30.4864 219.945 27.9364 203.962 33.1774 188.802C45.8953 193.375 52.5697 207.365 48.0926 220.15ZM32.7999 188.67C27.5157 203.953 30.0864 220.067 38.3866 232.591C35.2855 234.63 31.7435 235.959 28.0338 236.447C16.948 226.772 12.2563 210.969 17.4175 196.231C18.5224 193.075 20.0106 190.164 21.8115 187.53C25.4035 187.082 29.1486 187.422 32.7999 188.67ZM41.622 173.011C37.9402 177.427 34.9651 182.559 32.9321 188.292C29.3403 187.065 25.6591 186.701 22.1161 187.092C26.9229 180.277 33.8471 175.38 41.622 173.011ZM1.59264 203.848C4.72833 194.893 12.5063 188.893 21.2795 187.603C19.5496 190.186 18.1152 193.028 17.04 196.098C11.8652 210.876 16.4896 226.712 27.5013 236.511C23.9612 236.898 20.2813 236.519 16.6963 235.262C3.85573 230.761 -2.90653 216.696 1.59264 203.848ZM28.4382 236.795C32.0808 236.263 35.5553 234.932 38.6089 232.924C41.8732 237.765 45.9995 242.058 50.8631 245.544C47.2921 245.396 43.6823 244.724 40.1343 243.48C35.7291 241.936 31.7996 239.643 28.4382 236.795ZM42.791 172.262C50.6274 163.362 61.4311 157.584 73.0886 155.946C67.8705 160.356 63.3344 165.663 59.7433 171.74C53.9956 170.581 48.2096 170.82 42.791 172.262Z" stroke="url(#paint0_linear_2361_260)" strokeWidth="0.4"/>
<defs>
<linearGradient id="paint0_linear_2361_260" x1="33.0552" y1="188.546" x2="16.6131" y2="235.445" gradientUnits="userSpaceOnUse">
<stop stop-color="white" stop-opacity="0.18"/>
<stop offset="1" stop-color="white"/>
</linearGradient>
</defs>
</svg>
